G04 Layer: TopSolderMaskLayer*
G04 EasyEDA v6.4.16, 2021-07-30T14:07:32--5:00*
G04 5f12effaa85148b9a48170333d93dde8,a06e18dc318348aaad0c553491c65e39,10*
G04 Gerber Generator version 0.2*
G04 Scale: 100 percent, Rotated: No, Reflected: No *
G04 Dimensions in inches *
G04 leading zeros omitted , absolute positions ,3 integer and 6 decimal *
%FSLAX36Y36*%
%MOIN*%

%ADD30C,0.0820*%
%ADD32C,0.0631*%
%ADD33R,0.0660X0.0660*%
%ADD36C,0.0630*%
%ADD37C,0.0680*%

%LPD*%
D30*
G01*
X1340429Y2575000D03*
G01*
X769570Y2575000D03*
G01*
X2140429Y2580000D03*
G01*
X1569570Y2580000D03*
G01*
X3229570Y2630000D03*
G01*
X3800429Y2630000D03*
G01*
X4099570Y2620000D03*
G01*
X4670429Y2620000D03*
G36*
X3498400Y2268400D02*
G01*
X3498400Y2331599D01*
X3561599Y2331599D01*
X3561599Y2268400D01*
G37*
D32*
G01*
X3630000Y2275000D03*
G01*
X3708000Y2206999D03*
G01*
X3743999Y2109000D03*
G01*
X3731999Y2006999D03*
G01*
X3673000Y1921999D03*
G01*
X3581999Y1874000D03*
G01*
X3478000Y1874000D03*
G01*
X3386999Y1921999D03*
G01*
X3328000Y2006999D03*
G01*
X3316000Y2110000D03*
G01*
X3351999Y2206999D03*
G01*
X3430000Y2275000D03*
G36*
X1103400Y2268400D02*
G01*
X1103400Y2331599D01*
X1166599Y2331599D01*
X1166599Y2268400D01*
G37*
G01*
X1235000Y2275000D03*
G01*
X1313000Y2206999D03*
G01*
X1348999Y2109000D03*
G01*
X1336999Y2006999D03*
G01*
X1278000Y1921999D03*
G01*
X1186999Y1874000D03*
G01*
X1083000Y1874000D03*
G01*
X991999Y1921999D03*
G01*
X933000Y2006999D03*
G01*
X921000Y2110000D03*
G01*
X956999Y2206999D03*
G01*
X1035000Y2275000D03*
G36*
X1923400Y2268400D02*
G01*
X1923400Y2331599D01*
X1986599Y2331599D01*
X1986599Y2268400D01*
G37*
G01*
X2055000Y2275000D03*
G01*
X2133000Y2206999D03*
G01*
X2168999Y2109000D03*
G01*
X2156999Y2006999D03*
G01*
X2098000Y1921999D03*
G01*
X2006999Y1874000D03*
G01*
X1903000Y1874000D03*
G01*
X1811999Y1921999D03*
G01*
X1753000Y2006999D03*
G01*
X1741000Y2110000D03*
G01*
X1776999Y2206999D03*
G01*
X1855000Y2275000D03*
D33*
G01*
X760000Y1055000D03*
G01*
X560000Y1055000D03*
G01*
X4700000Y1015000D03*
G36*
X813199Y2962600D02*
G01*
X813199Y3037399D01*
X876800Y3037399D01*
X876800Y2962600D01*
G37*
G36*
X713200Y2962600D02*
G01*
X713200Y3037399D01*
X776800Y3037399D01*
X776800Y2962600D01*
G37*
G36*
X613200Y2962600D02*
G01*
X613200Y3037399D01*
X676799Y3037399D01*
X676799Y2962600D01*
G37*
G36*
X513200Y2962600D02*
G01*
X513200Y3037399D01*
X576799Y3037399D01*
X576799Y2962600D01*
G37*
G36*
X413200Y2962600D02*
G01*
X413200Y3037399D01*
X476799Y3037399D01*
X476799Y2962600D01*
G37*
G36*
X4783500Y1303499D02*
G01*
X4783500Y1366500D01*
X4846499Y1366500D01*
X4846499Y1303499D01*
G37*
D36*
G01*
X4715000Y1335000D03*
G01*
X4615000Y1335000D03*
G01*
X4515000Y1335000D03*
G01*
X4415000Y1335000D03*
G01*
X4315000Y1335000D03*
G01*
X4215000Y1335000D03*
G01*
X4115000Y1335000D03*
G01*
X4115000Y1635000D03*
G01*
X4215000Y1635000D03*
G01*
X4315000Y1635000D03*
G01*
X4415000Y1635000D03*
G01*
X4515000Y1635000D03*
G01*
X4615000Y1635000D03*
G01*
X4715000Y1635000D03*
G01*
X4815000Y1635000D03*
G36*
X3898500Y1293499D02*
G01*
X3898500Y1356500D01*
X3961499Y1356500D01*
X3961499Y1293499D01*
G37*
G01*
X3830000Y1325000D03*
G01*
X3730000Y1325000D03*
G01*
X3630000Y1325000D03*
G01*
X3530000Y1325000D03*
G01*
X3430000Y1325000D03*
G01*
X3330000Y1325000D03*
G01*
X3230000Y1325000D03*
G01*
X3230000Y1625000D03*
G01*
X3330000Y1625000D03*
G01*
X3430000Y1625000D03*
G01*
X3530000Y1625000D03*
G01*
X3630000Y1625000D03*
G01*
X3730000Y1625000D03*
G01*
X3830000Y1625000D03*
G01*
X3930000Y1625000D03*
G36*
X2143500Y1313499D02*
G01*
X2143500Y1376500D01*
X2206499Y1376500D01*
X2206499Y1313499D01*
G37*
G01*
X2075000Y1345000D03*
G01*
X1975000Y1345000D03*
G01*
X1875000Y1345000D03*
G01*
X1775000Y1345000D03*
G01*
X1675000Y1345000D03*
G01*
X1575000Y1345000D03*
G01*
X1475000Y1345000D03*
G01*
X1475000Y1645000D03*
G01*
X1575000Y1645000D03*
G01*
X1675000Y1645000D03*
G01*
X1775000Y1645000D03*
G01*
X1875000Y1645000D03*
G01*
X1975000Y1645000D03*
G01*
X2075000Y1645000D03*
G01*
X2175000Y1645000D03*
G36*
X1188500Y1313499D02*
G01*
X1188500Y1376500D01*
X1251499Y1376500D01*
X1251499Y1313499D01*
G37*
G01*
X1120000Y1345000D03*
G01*
X1020000Y1345000D03*
G01*
X920000Y1345000D03*
G01*
X820000Y1345000D03*
G01*
X720000Y1345000D03*
G01*
X620000Y1345000D03*
G01*
X520000Y1345000D03*
G01*
X520000Y1645000D03*
G01*
X620000Y1645000D03*
G01*
X720000Y1645000D03*
G01*
X820000Y1645000D03*
G01*
X920000Y1645000D03*
G01*
X1020000Y1645000D03*
G01*
X1120000Y1645000D03*
G01*
X1220000Y1645000D03*
D37*
G01*
X3065000Y2715000D03*
G01*
X3065000Y2615000D03*
G01*
X3065000Y2515000D03*
G01*
X3065000Y2415000D03*
G01*
X3065000Y2315000D03*
G01*
X3065000Y2215000D03*
G01*
X3065000Y2115000D03*
G01*
X3065000Y2015000D03*
G01*
X3065000Y1915000D03*
G01*
X3065000Y1815000D03*
G01*
X3065000Y1715000D03*
G01*
X3065000Y1615000D03*
G01*
X3065000Y1515000D03*
G01*
X3065000Y1415000D03*
G01*
X3065000Y1315000D03*
G01*
X2465000Y1315000D03*
G01*
X2465000Y1415000D03*
G01*
X2465000Y1515000D03*
G01*
X2465000Y1615000D03*
G01*
X2465000Y1715000D03*
G01*
X2465000Y1815000D03*
G01*
X2465000Y1915000D03*
G01*
X2465000Y2015000D03*
G01*
X2465000Y2115000D03*
G01*
X2465000Y2215000D03*
G01*
X2465000Y2315000D03*
G01*
X2465000Y2415000D03*
G01*
X2465000Y2515000D03*
G01*
X2465000Y2615000D03*
G01*
X2465000Y2715000D03*
G36*
X4328400Y2268400D02*
G01*
X4328400Y2331599D01*
X4391599Y2331599D01*
X4391599Y2268400D01*
G37*
D32*
G01*
X4460000Y2275000D03*
G01*
X4538000Y2206999D03*
G01*
X4573999Y2109000D03*
G01*
X4561999Y2006999D03*
G01*
X4503000Y1921999D03*
G01*
X4411999Y1874000D03*
G01*
X4308000Y1874000D03*
G01*
X4216999Y1921999D03*
G01*
X4158000Y2006999D03*
G01*
X4146000Y2110000D03*
G01*
X4181999Y2206999D03*
G01*
X4260000Y2275000D03*
M02*
