G04 Layer: TopLayer*
G04 EasyEDA v6.4.16, 2021-07-30T14:07:32--5:00*
G04 5f12effaa85148b9a48170333d93dde8,a06e18dc318348aaad0c553491c65e39,10*
G04 Gerber Generator version 0.2*
G04 Scale: 100 percent, Rotated: No, Reflected: No *
G04 Dimensions in inches *
G04 leading zeros omitted , absolute positions ,3 integer and 6 decimal *
%FSLAX36Y36*%
%MOIN*%

%ADD10C,0.0100*%
%ADD11C,0.0200*%
%ADD12C,0.0160*%
%ADD13C,0.0340*%
%ADD14C,0.0240*%
%ADD15C,0.0740*%
%ADD17C,0.0551*%
%ADD21C,0.0550*%
%ADD22C,0.0600*%

%LPD*%
G36*
X2316400Y2459640D02*
G01*
X2311360Y2460080D01*
X1502600Y2460100D01*
X1500980Y2460440D01*
X1499640Y2461420D01*
X1498800Y2462840D01*
X1498620Y2464480D01*
X1499120Y2466060D01*
X1501240Y2469800D01*
X1503779Y2475820D01*
X1505600Y2482060D01*
X1506720Y2488500D01*
X1507100Y2495000D01*
X1506720Y2501500D01*
X1505600Y2507940D01*
X1503779Y2514180D01*
X1501240Y2520200D01*
X1498040Y2525860D01*
X1494199Y2531140D01*
X1489800Y2535940D01*
X1484860Y2540220D01*
X1479480Y2543900D01*
X1473720Y2546940D01*
X1467640Y2549300D01*
X1461339Y2550960D01*
X1454880Y2551880D01*
X1448360Y2552080D01*
X1441879Y2551520D01*
X1435480Y2550220D01*
X1429280Y2548200D01*
X1423280Y2545460D01*
X1421620Y2545100D01*
X1417200Y2545100D01*
X1415700Y2545380D01*
X1414420Y2546220D01*
X1413540Y2547460D01*
X1413200Y2548940D01*
X1413440Y2550440D01*
X1414199Y2552620D01*
X1416040Y2559960D01*
X1417160Y2567440D01*
X1417520Y2575000D01*
X1417160Y2582559D01*
X1416040Y2590040D01*
X1414199Y2597380D01*
X1411660Y2604500D01*
X1408420Y2611340D01*
X1404540Y2617840D01*
X1400020Y2623900D01*
X1394940Y2629520D01*
X1389340Y2634600D01*
X1383260Y2639100D01*
X1376780Y2643000D01*
X1369940Y2646220D01*
X1362820Y2648780D01*
X1355480Y2650620D01*
X1347980Y2651720D01*
X1340440Y2652100D01*
X1332880Y2651720D01*
X1325400Y2650620D01*
X1318060Y2648780D01*
X1310940Y2646220D01*
X1304100Y2643000D01*
X1297600Y2639100D01*
X1291519Y2634600D01*
X1285920Y2629520D01*
X1280840Y2623900D01*
X1276340Y2617840D01*
X1272440Y2611340D01*
X1269200Y2604500D01*
X1266660Y2597380D01*
X1264820Y2590040D01*
X1263700Y2582559D01*
X1263340Y2575000D01*
X1263700Y2567440D01*
X1264820Y2559960D01*
X1265580Y2556920D01*
X1265640Y2555200D01*
X1264960Y2553620D01*
X1263680Y2552460D01*
X1262040Y2551960D01*
X1256880Y2551520D01*
X1250480Y2550220D01*
X1244280Y2548200D01*
X1238360Y2545500D01*
X1232780Y2542120D01*
X1228200Y2538600D01*
X1226760Y2537900D01*
X1225180Y2537800D01*
X1223680Y2538340D01*
X1221740Y2539520D01*
X1217860Y2541420D01*
X1212520Y2543320D01*
X1211280Y2543660D01*
X1207000Y2544560D01*
X1205720Y2544740D01*
X1201360Y2545080D01*
X846340Y2545100D01*
X844840Y2545380D01*
X843560Y2546220D01*
X842680Y2547460D01*
X842340Y2548940D01*
X842560Y2550440D01*
X843340Y2552620D01*
X845180Y2559960D01*
X846300Y2567440D01*
X846660Y2575000D01*
X846300Y2582559D01*
X845180Y2590040D01*
X843340Y2597380D01*
X840800Y2604500D01*
X837560Y2611340D01*
X833660Y2617840D01*
X829160Y2623900D01*
X824080Y2629520D01*
X818480Y2634600D01*
X812400Y2639100D01*
X805900Y2643000D01*
X799080Y2646220D01*
X791940Y2648780D01*
X784599Y2650620D01*
X777120Y2651720D01*
X769560Y2652100D01*
X762020Y2651720D01*
X754520Y2650620D01*
X747180Y2648780D01*
X740060Y2646220D01*
X733220Y2643000D01*
X726740Y2639100D01*
X720660Y2634600D01*
X715060Y2629520D01*
X709980Y2623900D01*
X707320Y2620320D01*
X706080Y2619220D01*
X704500Y2618720D01*
X702840Y2618900D01*
X701420Y2619740D01*
X700440Y2621080D01*
X700100Y2622700D01*
X700100Y2773340D01*
X700460Y2774980D01*
X701440Y2776320D01*
X702920Y2777160D01*
X704580Y2777300D01*
X706180Y2776760D01*
X708259Y2775480D01*
X712140Y2773580D01*
X717480Y2771680D01*
X718720Y2771340D01*
X723000Y2770440D01*
X724280Y2770260D01*
X728640Y2769920D01*
X2153060Y2769900D01*
X2154060Y2769780D01*
X2155000Y2769400D01*
X2157600Y2767980D01*
X2163320Y2765659D01*
X2169280Y2764020D01*
X2175380Y2763120D01*
X2181540Y2762919D01*
X2187700Y2763480D01*
X2193740Y2764740D01*
X2199580Y2766720D01*
X2205160Y2769380D01*
X2210360Y2772679D01*
X2215160Y2776560D01*
X2219460Y2781000D01*
X2223200Y2785899D01*
X2226340Y2791220D01*
X2228840Y2796860D01*
X2230640Y2802760D01*
X2231720Y2808840D01*
X2232100Y2815000D01*
X2231720Y2821160D01*
X2230640Y2827240D01*
X2228840Y2833140D01*
X2226340Y2838780D01*
X2223200Y2844100D01*
X2219460Y2849000D01*
X2215160Y2853440D01*
X2210360Y2857320D01*
X2205160Y2860620D01*
X2199580Y2863279D01*
X2193740Y2865260D01*
X2187700Y2866520D01*
X2181540Y2867080D01*
X2175380Y2866880D01*
X2169280Y2865980D01*
X2163320Y2864340D01*
X2157600Y2862020D01*
X2155000Y2860600D01*
X2154060Y2860220D01*
X2153060Y2860100D01*
X1545620Y2860100D01*
X1543920Y2860480D01*
X1542540Y2861560D01*
X1541740Y2863120D01*
X1541699Y2864860D01*
X1542400Y2866460D01*
X1543720Y2867620D01*
X1551420Y2871800D01*
X1559420Y2877000D01*
X1567000Y2882840D01*
X1574079Y2889240D01*
X1580620Y2896180D01*
X1586600Y2903639D01*
X1591960Y2911540D01*
X1596680Y2919840D01*
X1600720Y2928480D01*
X1604079Y2937440D01*
X1606699Y2946620D01*
X1608580Y2955980D01*
X1609720Y2965460D01*
X1610100Y2975000D01*
X1609720Y2984540D01*
X1608580Y2994020D01*
X1606699Y3003380D01*
X1604079Y3012559D01*
X1600720Y3021500D01*
X1596680Y3030160D01*
X1591960Y3038460D01*
X1586600Y3046360D01*
X1580620Y3053820D01*
X1574079Y3060760D01*
X1567000Y3067160D01*
X1559420Y3073000D01*
X1551420Y3078200D01*
X1543020Y3082760D01*
X1534300Y3086620D01*
X1525300Y3089800D01*
X1516819Y3092040D01*
X1515360Y3092760D01*
X1514319Y3094020D01*
X1513860Y3095600D01*
X1514079Y3097220D01*
X1514920Y3098620D01*
X1516240Y3099560D01*
X1517840Y3099900D01*
X2311520Y3099900D01*
X2313060Y3099580D01*
X2314360Y3098700D01*
X2315220Y3097400D01*
X2315520Y3095840D01*
X2315180Y3094300D01*
X2314280Y3093020D01*
X2262160Y3040920D01*
X2259320Y3037600D01*
X2256140Y3032900D01*
X2253580Y3027860D01*
X2251680Y3022520D01*
X2251340Y3021280D01*
X2250440Y3017000D01*
X2250260Y3015720D01*
X2249920Y3011360D01*
X2249920Y2553640D01*
X2250260Y2549280D01*
X2250440Y2548000D01*
X2251340Y2543720D01*
X2251680Y2542480D01*
X2253580Y2537140D01*
X2256140Y2532100D01*
X2259320Y2527400D01*
X2262160Y2524080D01*
X2319800Y2466420D01*
X2320700Y2465040D01*
X2320960Y2463400D01*
X2320540Y2461800D01*
X2319520Y2460520D01*
X2318060Y2459740D01*
G37*

%LPC*%
G36*
X1569560Y2502900D02*
G01*
X1577120Y2503280D01*
X1584600Y2504380D01*
X1591940Y2506220D01*
X1599079Y2508780D01*
X1605900Y2512000D01*
X1612400Y2515900D01*
X1618480Y2520400D01*
X1624079Y2525480D01*
X1629160Y2531100D01*
X1633660Y2537160D01*
X1637560Y2543660D01*
X1640800Y2550500D01*
X1643340Y2557620D01*
X1645180Y2564960D01*
X1646300Y2572440D01*
X1646660Y2580000D01*
X1646300Y2587559D01*
X1645180Y2595040D01*
X1643340Y2602380D01*
X1640800Y2609500D01*
X1637560Y2616340D01*
X1633660Y2622840D01*
X1629160Y2628900D01*
X1624079Y2634520D01*
X1618480Y2639600D01*
X1612400Y2644100D01*
X1605900Y2648000D01*
X1599079Y2651220D01*
X1591940Y2653780D01*
X1584600Y2655620D01*
X1577120Y2656720D01*
X1569560Y2657100D01*
X1562020Y2656720D01*
X1554520Y2655620D01*
X1547180Y2653780D01*
X1540060Y2651220D01*
X1533220Y2648000D01*
X1526740Y2644100D01*
X1520660Y2639600D01*
X1515060Y2634520D01*
X1509980Y2628900D01*
X1505460Y2622840D01*
X1501579Y2616340D01*
X1498340Y2609500D01*
X1495800Y2602380D01*
X1493959Y2595040D01*
X1492840Y2587559D01*
X1492480Y2580000D01*
X1492840Y2572440D01*
X1493959Y2564960D01*
X1495800Y2557620D01*
X1498340Y2550500D01*
X1501579Y2543660D01*
X1505460Y2537160D01*
X1509980Y2531100D01*
X1515060Y2525480D01*
X1520660Y2520400D01*
X1526740Y2515900D01*
X1533220Y2512000D01*
X1540060Y2508780D01*
X1547180Y2506220D01*
X1554520Y2504380D01*
X1562020Y2503280D01*
G37*
G36*
X2140440Y2502900D02*
G01*
X2147980Y2503280D01*
X2155480Y2504380D01*
X2162820Y2506220D01*
X2169940Y2508780D01*
X2176780Y2512000D01*
X2183260Y2515900D01*
X2189340Y2520400D01*
X2194940Y2525480D01*
X2200020Y2531100D01*
X2204540Y2537160D01*
X2208420Y2543660D01*
X2211660Y2550500D01*
X2214200Y2557620D01*
X2216040Y2564960D01*
X2217160Y2572440D01*
X2217520Y2580000D01*
X2217160Y2587559D01*
X2216040Y2595040D01*
X2214200Y2602380D01*
X2211660Y2609500D01*
X2208420Y2616340D01*
X2204540Y2622840D01*
X2200020Y2628900D01*
X2194940Y2634520D01*
X2189340Y2639600D01*
X2183260Y2644100D01*
X2176780Y2648000D01*
X2169940Y2651220D01*
X2162820Y2653780D01*
X2155480Y2655620D01*
X2147980Y2656720D01*
X2140440Y2657100D01*
X2132880Y2656720D01*
X2125400Y2655620D01*
X2118060Y2653780D01*
X2110940Y2651220D01*
X2104100Y2648000D01*
X2097600Y2644100D01*
X2091519Y2639600D01*
X2085920Y2634520D01*
X2080840Y2628900D01*
X2076339Y2622840D01*
X2072440Y2616340D01*
X2069199Y2609500D01*
X2066660Y2602380D01*
X2064820Y2595040D01*
X2063700Y2587559D01*
X2063340Y2580000D01*
X2063700Y2572440D01*
X2064820Y2564960D01*
X2066660Y2557620D01*
X2069199Y2550500D01*
X2072440Y2543660D01*
X2076339Y2537160D01*
X2080840Y2531100D01*
X2085920Y2525480D01*
X2091519Y2520400D01*
X2097600Y2515900D01*
X2104100Y2512000D01*
X2110940Y2508780D01*
X2118060Y2506220D01*
X2125400Y2504380D01*
X2132880Y2503280D01*
G37*

%LPD*%
G36*
X2539000Y2410100D02*
G01*
X2537480Y2410400D01*
X2536180Y2411280D01*
X2535300Y2412560D01*
X2535000Y2414100D01*
X2535000Y2415900D01*
X2535300Y2417440D01*
X2536180Y2418720D01*
X2537480Y2419600D01*
X2539000Y2419900D01*
X2921500Y2419900D01*
X2923039Y2419600D01*
X2924340Y2418720D01*
X2925200Y2417420D01*
X2925500Y2415880D01*
X2925179Y2414340D01*
X2924300Y2413060D01*
X2922600Y2412020D01*
X2920000Y2410600D01*
X2919060Y2410220D01*
X2918060Y2410100D01*
G37*

%LPD*%
G36*
X2384100Y2305100D02*
G01*
X2382560Y2305400D01*
X2381280Y2306280D01*
X2380400Y2307560D01*
X2380100Y2309100D01*
X2380080Y2391360D01*
X2379740Y2395720D01*
X2379560Y2397000D01*
X2378660Y2401280D01*
X2378320Y2402520D01*
X2376520Y2407580D01*
X2376220Y2409140D01*
X2376540Y2410680D01*
X2377440Y2412000D01*
X2378780Y2412840D01*
X2380340Y2413120D01*
X2386540Y2412920D01*
X2390840Y2413320D01*
X2392420Y2413140D01*
X2393820Y2412340D01*
X2394780Y2411080D01*
X2395180Y2409540D01*
X2395280Y2407800D01*
X2396380Y2400660D01*
X2398220Y2393680D01*
X2400780Y2386940D01*
X2404000Y2380480D01*
X2407880Y2374380D01*
X2412340Y2368720D01*
X2413260Y2367800D01*
X2414100Y2366500D01*
X2414400Y2365000D01*
X2414100Y2363500D01*
X2413260Y2362200D01*
X2412340Y2361280D01*
X2407880Y2355620D01*
X2404000Y2349520D01*
X2400780Y2343060D01*
X2398220Y2336320D01*
X2396380Y2329340D01*
X2395280Y2322200D01*
X2394900Y2315000D01*
X2395200Y2309300D01*
X2394960Y2307720D01*
X2394100Y2306340D01*
X2392780Y2305420D01*
X2391200Y2305100D01*
G37*

%LPD*%
G36*
X2538780Y2305100D02*
G01*
X2537160Y2305440D01*
X2535820Y2306420D01*
X2534980Y2307860D01*
X2534800Y2309520D01*
X2535000Y2311400D01*
X2535000Y2315900D01*
X2535300Y2317440D01*
X2536180Y2318720D01*
X2537480Y2319600D01*
X2539000Y2319900D01*
X2578020Y2319900D01*
X2579520Y2319600D01*
X2580800Y2318760D01*
X2581680Y2317520D01*
X2582020Y2316020D01*
X2581780Y2314500D01*
X2580179Y2310220D01*
X2579680Y2308160D01*
X2578900Y2306580D01*
X2577520Y2305480D01*
X2575800Y2305100D01*
G37*

%LPD*%
G36*
X1711860Y2171800D02*
G01*
X1710260Y2172480D01*
X1709079Y2173780D01*
X1707880Y2175920D01*
X1706220Y2178460D01*
X1704440Y2180900D01*
X1702500Y2183220D01*
X1700380Y2185460D01*
X1522780Y2363080D01*
X1521920Y2364360D01*
X1521600Y2365900D01*
X1521920Y2367440D01*
X1522780Y2368720D01*
X1524079Y2369600D01*
X1525600Y2369900D01*
X1905700Y2369900D01*
X1907420Y2369500D01*
X1908820Y2368400D01*
X1909580Y2366800D01*
X1909600Y2365040D01*
X1908839Y2363440D01*
X1907400Y2362280D01*
X1903040Y2359360D01*
X1899100Y2355900D01*
X1895640Y2351960D01*
X1892720Y2347600D01*
X1890400Y2342900D01*
X1888959Y2338660D01*
X1888080Y2337200D01*
X1886680Y2336240D01*
X1885000Y2335940D01*
X1883360Y2336380D01*
X1882520Y2336800D01*
X1875900Y2339340D01*
X1869060Y2341180D01*
X1862080Y2342280D01*
X1855000Y2342660D01*
X1847920Y2342280D01*
X1840940Y2341180D01*
X1834100Y2339340D01*
X1827480Y2336800D01*
X1821180Y2333600D01*
X1815240Y2329740D01*
X1809740Y2325280D01*
X1804720Y2320260D01*
X1800260Y2314760D01*
X1796399Y2308820D01*
X1793200Y2302520D01*
X1790660Y2295900D01*
X1788820Y2289060D01*
X1787720Y2282080D01*
X1787500Y2278100D01*
X1787120Y2276600D01*
X1786200Y2275340D01*
X1784840Y2274540D01*
X1783300Y2274320D01*
X1777000Y2274660D01*
X1769920Y2274280D01*
X1762940Y2273180D01*
X1756100Y2271340D01*
X1749480Y2268800D01*
X1743180Y2265600D01*
X1737240Y2261740D01*
X1731740Y2257280D01*
X1726720Y2252260D01*
X1722260Y2246760D01*
X1718400Y2240820D01*
X1715200Y2234520D01*
X1712660Y2227900D01*
X1710820Y2221060D01*
X1709720Y2214080D01*
X1709340Y2207000D01*
X1709720Y2199920D01*
X1710820Y2192940D01*
X1712660Y2186100D01*
X1715200Y2179440D01*
X1716160Y2177500D01*
X1716560Y2175800D01*
X1716200Y2174080D01*
X1715160Y2172680D01*
X1713600Y2171880D01*
G37*

%LPD*%
G36*
X4474340Y2169660D02*
G01*
X4472720Y2170160D01*
X4437600Y2189720D01*
X4433940Y2191380D01*
X4432040Y2192100D01*
X4428200Y2193320D01*
X4426240Y2193820D01*
X4422280Y2194560D01*
X4420280Y2194820D01*
X4416260Y2195080D01*
X4414160Y2195100D01*
X4268820Y2192760D01*
X4267240Y2193060D01*
X4265920Y2193940D01*
X4259240Y2200620D01*
X4258380Y2201880D01*
X4258060Y2203380D01*
X4258320Y2204880D01*
X4259140Y2206180D01*
X4260380Y2207080D01*
X4261860Y2207440D01*
X4267080Y2207720D01*
X4274060Y2208820D01*
X4280900Y2210660D01*
X4287520Y2213200D01*
X4293820Y2216400D01*
X4299760Y2220260D01*
X4305260Y2224720D01*
X4310280Y2229740D01*
X4313600Y2233820D01*
X4314840Y2234840D01*
X4316380Y2235300D01*
X4317980Y2235100D01*
X4322060Y2233720D01*
X4327200Y2232700D01*
X4332580Y2232340D01*
X4387420Y2232340D01*
X4392800Y2232700D01*
X4397940Y2233720D01*
X4402020Y2235100D01*
X4403620Y2235300D01*
X4405160Y2234840D01*
X4406400Y2233820D01*
X4409720Y2229740D01*
X4414740Y2224720D01*
X4420240Y2220260D01*
X4426180Y2216400D01*
X4432480Y2213200D01*
X4439100Y2210660D01*
X4445940Y2208820D01*
X4452920Y2207720D01*
X4460000Y2207340D01*
X4466300Y2207680D01*
X4467840Y2207460D01*
X4469200Y2206660D01*
X4470120Y2205400D01*
X4470500Y2203900D01*
X4470720Y2199920D01*
X4471820Y2192940D01*
X4473660Y2186100D01*
X4476200Y2179480D01*
X4478240Y2175460D01*
X4478680Y2173840D01*
X4478400Y2172160D01*
X4477460Y2170760D01*
X4476020Y2169880D01*
G37*

%LPD*%
G36*
X3486980Y2154900D02*
G01*
X3485440Y2155260D01*
X3484160Y2156200D01*
X3479800Y2160940D01*
X3474860Y2165220D01*
X3469480Y2168900D01*
X3463720Y2171940D01*
X3457640Y2174300D01*
X3451340Y2175960D01*
X3444880Y2176880D01*
X3438360Y2177080D01*
X3431880Y2176520D01*
X3425480Y2175220D01*
X3419280Y2173200D01*
X3418399Y2172800D01*
X3416820Y2172440D01*
X3415200Y2172740D01*
X3413860Y2173680D01*
X3413000Y2175060D01*
X3412760Y2176680D01*
X3413180Y2178260D01*
X3413800Y2179480D01*
X3416340Y2186100D01*
X3418180Y2192940D01*
X3419280Y2199920D01*
X3419500Y2203900D01*
X3419880Y2205400D01*
X3420800Y2206660D01*
X3422160Y2207460D01*
X3423700Y2207680D01*
X3430000Y2207340D01*
X3437080Y2207720D01*
X3444060Y2208820D01*
X3450899Y2210660D01*
X3457520Y2213200D01*
X3463820Y2216400D01*
X3469760Y2220260D01*
X3475260Y2224720D01*
X3480280Y2229740D01*
X3483600Y2233820D01*
X3484840Y2234840D01*
X3486380Y2235300D01*
X3487980Y2235100D01*
X3492060Y2233720D01*
X3493900Y2233360D01*
X3495220Y2232820D01*
X3496280Y2231860D01*
X3496940Y2230600D01*
X3497100Y2229180D01*
X3496760Y2227780D01*
X3494360Y2222460D01*
X3492559Y2216680D01*
X3491480Y2210740D01*
X3491100Y2204580D01*
X3491100Y2158900D01*
X3490779Y2157340D01*
X3489880Y2156020D01*
X3488560Y2155160D01*
G37*

%LPD*%
G36*
X3381820Y2134340D02*
G01*
X3380240Y2134640D01*
X3378900Y2135540D01*
X3378039Y2136900D01*
X3376840Y2139440D01*
X3376400Y2141040D01*
X3376660Y2142680D01*
X3377559Y2144080D01*
X3378960Y2144980D01*
X3381500Y2146200D01*
X3383020Y2146620D01*
X3384580Y2146420D01*
X3385960Y2145640D01*
X3386900Y2144380D01*
X3387300Y2142860D01*
X3387080Y2141300D01*
X3385539Y2137000D01*
X3384700Y2135620D01*
X3383399Y2134680D01*
G37*

%LPD*%
G36*
X1538180Y2095100D02*
G01*
X1537220Y2095220D01*
X1536320Y2095560D01*
X1533720Y2096940D01*
X1527640Y2099300D01*
X1521339Y2100960D01*
X1514880Y2101880D01*
X1508360Y2102080D01*
X1501879Y2101520D01*
X1495480Y2100220D01*
X1489280Y2098200D01*
X1485760Y2096600D01*
X1484220Y2096240D01*
X1482640Y2096500D01*
X1481320Y2097360D01*
X1480420Y2098680D01*
X1480100Y2100240D01*
X1480100Y2136740D01*
X1480240Y2137760D01*
X1481240Y2139800D01*
X1483779Y2145820D01*
X1485600Y2152060D01*
X1486720Y2158500D01*
X1487100Y2165000D01*
X1486720Y2171500D01*
X1485600Y2177940D01*
X1483779Y2184180D01*
X1481240Y2190200D01*
X1478040Y2195860D01*
X1474199Y2201140D01*
X1469800Y2205940D01*
X1464860Y2210220D01*
X1459480Y2213900D01*
X1453720Y2216940D01*
X1447640Y2219300D01*
X1441339Y2220960D01*
X1434880Y2221880D01*
X1428360Y2222080D01*
X1421879Y2221520D01*
X1415480Y2220220D01*
X1409280Y2218200D01*
X1403360Y2215500D01*
X1397780Y2212120D01*
X1392620Y2208140D01*
X1390420Y2206020D01*
X1389120Y2205180D01*
X1387600Y2204880D01*
X1386080Y2205200D01*
X1384800Y2206060D01*
X1381560Y2209280D01*
X1380740Y2210500D01*
X1380400Y2211900D01*
X1380280Y2214080D01*
X1379180Y2221060D01*
X1377340Y2227900D01*
X1374800Y2234520D01*
X1371600Y2240820D01*
X1367740Y2246760D01*
X1363280Y2252260D01*
X1358260Y2257280D01*
X1352760Y2261740D01*
X1346819Y2265600D01*
X1340520Y2268800D01*
X1333899Y2271340D01*
X1327060Y2273180D01*
X1320080Y2274280D01*
X1313000Y2274660D01*
X1306699Y2274320D01*
X1305160Y2274540D01*
X1303800Y2275340D01*
X1302880Y2276600D01*
X1302500Y2278100D01*
X1302280Y2282080D01*
X1301180Y2289060D01*
X1299340Y2295900D01*
X1296800Y2302520D01*
X1296000Y2304080D01*
X1295580Y2305640D01*
X1295800Y2307260D01*
X1296660Y2308640D01*
X1297980Y2309580D01*
X1299580Y2309900D01*
X1432600Y2309900D01*
X1434120Y2309600D01*
X1435420Y2308720D01*
X1613720Y2130420D01*
X1614600Y2129120D01*
X1614900Y2127600D01*
X1614900Y2112400D01*
X1614600Y2110880D01*
X1613720Y2109580D01*
X1600420Y2096279D01*
X1599120Y2095400D01*
X1597600Y2095100D01*
G37*

%LPD*%
G36*
X3850940Y2084100D02*
G01*
X3849360Y2084620D01*
X3848120Y2085740D01*
X3844200Y2091140D01*
X3839800Y2095940D01*
X3834860Y2100220D01*
X3829480Y2103900D01*
X3823720Y2106940D01*
X3817640Y2109300D01*
X3814380Y2110160D01*
X3812880Y2110900D01*
X3811840Y2112200D01*
X3811400Y2113820D01*
X3811280Y2116080D01*
X3810640Y2120140D01*
X3810680Y2121600D01*
X3811240Y2122940D01*
X3812260Y2124000D01*
X3813580Y2124640D01*
X3817640Y2125700D01*
X3823720Y2128060D01*
X3826320Y2129440D01*
X3827220Y2129780D01*
X3828180Y2129900D01*
X3857559Y2129900D01*
X3859240Y2129540D01*
X3860620Y2128500D01*
X3861420Y2126980D01*
X3871200Y2092080D01*
X3871280Y2090340D01*
X3870620Y2088720D01*
X3869340Y2087540D01*
X3867679Y2087020D01*
X3861880Y2086519D01*
X3855480Y2085220D01*
X3852600Y2084280D01*
G37*

%LPD*%
G36*
X2520360Y2060100D02*
G01*
X2518720Y2060460D01*
X2517360Y2061459D01*
X2516580Y2062360D01*
X2515840Y2063580D01*
X2515580Y2065000D01*
X2515840Y2066420D01*
X2516580Y2067640D01*
X2519960Y2071500D01*
X2524140Y2077380D01*
X2527700Y2083660D01*
X2530580Y2090280D01*
X2532780Y2097140D01*
X2534260Y2104220D01*
X2535000Y2111400D01*
X2535000Y2118600D01*
X2534260Y2125780D01*
X2532780Y2132860D01*
X2530580Y2139720D01*
X2527700Y2146340D01*
X2524140Y2152620D01*
X2519960Y2158500D01*
X2516580Y2162360D01*
X2515840Y2163580D01*
X2515580Y2165000D01*
X2515840Y2166420D01*
X2516580Y2167640D01*
X2519960Y2171500D01*
X2524140Y2177380D01*
X2527700Y2183660D01*
X2530580Y2190280D01*
X2532780Y2197140D01*
X2534260Y2204220D01*
X2535000Y2211320D01*
X2535400Y2212720D01*
X2536300Y2213880D01*
X2537540Y2214640D01*
X2538980Y2214900D01*
X2615899Y2214900D01*
X2617440Y2214600D01*
X2618720Y2213720D01*
X2619600Y2212440D01*
X2619900Y2210900D01*
X2619900Y2064100D01*
X2619600Y2062560D01*
X2618720Y2061279D01*
X2617440Y2060400D01*
X2615899Y2060100D01*
G37*

%LPD*%
G36*
X3643800Y2058899D02*
G01*
X3635500Y2059800D01*
X3629900Y2060100D01*
X3595299Y2060100D01*
X3593759Y2060400D01*
X3592480Y2061279D01*
X3591600Y2062560D01*
X3591300Y2064100D01*
X3591300Y2100740D01*
X3591680Y2102460D01*
X3592760Y2103840D01*
X3594340Y2104620D01*
X3596100Y2104660D01*
X3597820Y2104300D01*
X3598759Y2104000D01*
X3599580Y2103460D01*
X3609060Y2095580D01*
X3646700Y2066020D01*
X3647780Y2064700D01*
X3648220Y2063060D01*
X3647940Y2061360D01*
X3646960Y2059960D01*
X3645500Y2059079D01*
G37*

%LPD*%
G36*
X4210220Y2052000D02*
G01*
X4208680Y2052300D01*
X4207380Y2053180D01*
X4203260Y2057280D01*
X4198500Y2061140D01*
X4197520Y2062340D01*
X4197040Y2063820D01*
X4197200Y2065380D01*
X4197920Y2066759D01*
X4200740Y2070240D01*
X4204600Y2076180D01*
X4207800Y2082480D01*
X4210340Y2089100D01*
X4212180Y2095940D01*
X4212520Y2098080D01*
X4213060Y2099560D01*
X4214140Y2100700D01*
X4215580Y2101360D01*
X4217160Y2101380D01*
X4218640Y2100820D01*
X4220760Y2099440D01*
X4224160Y2097560D01*
X4226100Y2096620D01*
X4229720Y2095160D01*
X4231760Y2094480D01*
X4235520Y2093460D01*
X4237640Y2093020D01*
X4242440Y2092400D01*
X4243900Y2092000D01*
X4245100Y2091080D01*
X4245860Y2089800D01*
X4246120Y2088320D01*
X4245800Y2086840D01*
X4244960Y2085600D01*
X4213040Y2053200D01*
X4211760Y2052320D01*
G37*

%LPD*%
G36*
X1256300Y1986440D02*
G01*
X1254840Y1986920D01*
X1253680Y1987900D01*
X1252960Y1989259D01*
X1251860Y1992700D01*
X1249920Y1997180D01*
X1249400Y1998220D01*
X1247140Y2002060D01*
X1246600Y2003720D01*
X1246820Y2005440D01*
X1247760Y2006900D01*
X1263800Y2022940D01*
X1265180Y2023839D01*
X1266840Y2024100D01*
X1268440Y2023680D01*
X1269740Y2022640D01*
X1270480Y2021140D01*
X1270580Y2019480D01*
X1269720Y2014079D01*
X1269340Y2007000D01*
X1269720Y1999920D01*
X1270760Y1993300D01*
X1270700Y1991740D01*
X1270060Y1990340D01*
X1268900Y1989280D01*
X1267440Y1988740D01*
X1263940Y1988180D01*
X1257840Y1986540D01*
G37*

%LPD*%
G36*
X2053820Y1974540D02*
G01*
X2052380Y1974920D01*
X2051180Y1975800D01*
X2050380Y1977060D01*
X2050100Y1978540D01*
X2050100Y2027600D01*
X2050400Y2029120D01*
X2051279Y2030420D01*
X2079580Y2058720D01*
X2080880Y2059600D01*
X2082400Y2059900D01*
X2104700Y2059900D01*
X2106220Y2059600D01*
X2107520Y2058720D01*
X2108400Y2057440D01*
X2108700Y2055900D01*
X2108400Y2054360D01*
X2107520Y2053080D01*
X2106720Y2052260D01*
X2102260Y2046759D01*
X2098400Y2040820D01*
X2095200Y2034520D01*
X2092660Y2027900D01*
X2090820Y2021060D01*
X2089720Y2014079D01*
X2089340Y2007000D01*
X2089720Y1999920D01*
X2090760Y1993300D01*
X2090700Y1991740D01*
X2090060Y1990340D01*
X2088899Y1989280D01*
X2087440Y1988740D01*
X2083940Y1988180D01*
X2077100Y1986339D01*
X2070480Y1983800D01*
X2064180Y1980600D01*
X2058240Y1976740D01*
X2056620Y1975420D01*
X2055300Y1974720D01*
G37*

%LPD*%
G36*
X1060500Y1938100D02*
G01*
X1058880Y1938520D01*
X1057600Y1939580D01*
X1056840Y1941060D01*
X1056340Y1942900D01*
X1053800Y1949520D01*
X1050600Y1955820D01*
X1046740Y1961759D01*
X1042280Y1967260D01*
X1037260Y1972280D01*
X1031760Y1976740D01*
X1027620Y1979420D01*
X1026500Y1980500D01*
X1025879Y1981920D01*
X1025860Y1983460D01*
X1026720Y1988500D01*
X1027099Y1995000D01*
X1026720Y2001500D01*
X1025600Y2007940D01*
X1023780Y2014180D01*
X1021240Y2020200D01*
X1018040Y2025860D01*
X1014200Y2031140D01*
X1009800Y2035940D01*
X1004860Y2040220D01*
X999479Y2043899D01*
X993720Y2046940D01*
X987640Y2049300D01*
X986420Y2049620D01*
X985260Y2050120D01*
X984320Y2050980D01*
X983280Y2052260D01*
X978259Y2057280D01*
X973500Y2061140D01*
X972520Y2062340D01*
X972039Y2063820D01*
X972200Y2065380D01*
X972920Y2066759D01*
X975740Y2070240D01*
X979599Y2076180D01*
X982800Y2082480D01*
X985340Y2089100D01*
X987180Y2095940D01*
X988280Y2102920D01*
X988660Y2110000D01*
X988280Y2117080D01*
X987180Y2124060D01*
X985340Y2130900D01*
X982800Y2137520D01*
X981840Y2139440D01*
X981400Y2141040D01*
X981660Y2142680D01*
X982560Y2144080D01*
X983960Y2144980D01*
X984520Y2145200D01*
X990819Y2148400D01*
X996760Y2152260D01*
X1002260Y2156720D01*
X1007280Y2161740D01*
X1011740Y2167240D01*
X1015600Y2173180D01*
X1018800Y2179480D01*
X1021340Y2186100D01*
X1023180Y2192940D01*
X1024280Y2199920D01*
X1024500Y2203900D01*
X1024880Y2205400D01*
X1025800Y2206660D01*
X1027159Y2207460D01*
X1028700Y2207680D01*
X1035000Y2207340D01*
X1042080Y2207720D01*
X1049060Y2208820D01*
X1055900Y2210660D01*
X1062520Y2213200D01*
X1068820Y2216400D01*
X1074760Y2220260D01*
X1080260Y2224720D01*
X1085280Y2229740D01*
X1088600Y2233820D01*
X1089840Y2234840D01*
X1091380Y2235300D01*
X1092980Y2235100D01*
X1097060Y2233720D01*
X1102200Y2232700D01*
X1107580Y2232340D01*
X1162420Y2232340D01*
X1167800Y2232700D01*
X1172940Y2233720D01*
X1177020Y2235100D01*
X1178620Y2235300D01*
X1180160Y2234840D01*
X1181400Y2233820D01*
X1184720Y2229740D01*
X1189740Y2224720D01*
X1195240Y2220260D01*
X1201180Y2216400D01*
X1207480Y2213200D01*
X1214100Y2210660D01*
X1220940Y2208820D01*
X1227920Y2207720D01*
X1235000Y2207340D01*
X1241300Y2207680D01*
X1242840Y2207460D01*
X1244200Y2206660D01*
X1245120Y2205400D01*
X1245500Y2203900D01*
X1245720Y2199920D01*
X1246820Y2192940D01*
X1248660Y2186100D01*
X1251200Y2179480D01*
X1254400Y2173180D01*
X1258260Y2167240D01*
X1262720Y2161740D01*
X1267740Y2156720D01*
X1273240Y2152260D01*
X1277700Y2149360D01*
X1278900Y2148140D01*
X1279480Y2146520D01*
X1279340Y2144820D01*
X1278500Y2143320D01*
X1277100Y2142340D01*
X1275400Y2142020D01*
X1273360Y2142080D01*
X1266880Y2141520D01*
X1260480Y2140220D01*
X1254280Y2138200D01*
X1248360Y2135500D01*
X1247100Y2134740D01*
X1245860Y2134240D01*
X1243000Y2133640D01*
X1240100Y2132820D01*
X1237240Y2131840D01*
X1234440Y2130680D01*
X1231720Y2129360D01*
X1229080Y2127880D01*
X1226540Y2126220D01*
X1224100Y2124440D01*
X1221780Y2122500D01*
X1219540Y2120380D01*
X1124500Y2025360D01*
X1123760Y2024780D01*
X1122920Y2024379D01*
X1119280Y2023200D01*
X1113360Y2020500D01*
X1107780Y2017120D01*
X1102620Y2013140D01*
X1097940Y2008600D01*
X1093820Y2003560D01*
X1090280Y1998080D01*
X1087400Y1992220D01*
X1085220Y1986080D01*
X1083740Y1979740D01*
X1083000Y1973260D01*
X1083000Y1966740D01*
X1083740Y1960260D01*
X1085220Y1953920D01*
X1087400Y1947780D01*
X1088020Y1945780D01*
X1087740Y1944139D01*
X1086840Y1942760D01*
X1085440Y1941860D01*
X1083800Y1941620D01*
X1083000Y1941660D01*
X1075920Y1941279D01*
X1068940Y1940180D01*
X1062140Y1938360D01*
G37*

%LPD*%
G36*
X2269120Y1929480D02*
G01*
X2267580Y1929780D01*
X2266280Y1930660D01*
X2265400Y1931960D01*
X2265100Y1933480D01*
X2265100Y2206880D01*
X2264720Y2213040D01*
X2263640Y2218980D01*
X2261840Y2224760D01*
X2259360Y2230280D01*
X2256220Y2235460D01*
X2252500Y2240220D01*
X2248220Y2244500D01*
X2243460Y2248220D01*
X2238280Y2251360D01*
X2232760Y2253840D01*
X2226980Y2255640D01*
X2221040Y2256720D01*
X2214880Y2257100D01*
X2179900Y2257100D01*
X2178560Y2257320D01*
X2177380Y2258000D01*
X2172760Y2261740D01*
X2166820Y2265600D01*
X2160520Y2268800D01*
X2153900Y2271340D01*
X2147060Y2273180D01*
X2140080Y2274280D01*
X2133000Y2274660D01*
X2126700Y2274320D01*
X2125160Y2274540D01*
X2123800Y2275340D01*
X2122880Y2276600D01*
X2122500Y2278100D01*
X2122280Y2282080D01*
X2121180Y2289060D01*
X2119340Y2295900D01*
X2116800Y2302520D01*
X2113600Y2308820D01*
X2109740Y2314760D01*
X2105280Y2320260D01*
X2100260Y2325280D01*
X2094760Y2329740D01*
X2088820Y2333600D01*
X2082520Y2336800D01*
X2075900Y2339340D01*
X2069060Y2341180D01*
X2062080Y2342280D01*
X2055000Y2342660D01*
X2047920Y2342280D01*
X2040940Y2341180D01*
X2034100Y2339340D01*
X2027480Y2336800D01*
X2026639Y2336380D01*
X2025000Y2335940D01*
X2023320Y2336240D01*
X2021920Y2337200D01*
X2021040Y2338660D01*
X2019600Y2342900D01*
X2017280Y2347600D01*
X2014360Y2351960D01*
X2010900Y2355900D01*
X2006960Y2359360D01*
X2002540Y2362320D01*
X2001160Y2363440D01*
X2000400Y2365040D01*
X2000420Y2366800D01*
X2001180Y2368400D01*
X2002580Y2369500D01*
X2004300Y2369900D01*
X2285900Y2369900D01*
X2287440Y2369600D01*
X2288720Y2368720D01*
X2289600Y2367440D01*
X2289900Y2365900D01*
X2289920Y2263640D01*
X2290260Y2259280D01*
X2290440Y2258000D01*
X2291340Y2253720D01*
X2291680Y2252480D01*
X2293580Y2247140D01*
X2296140Y2242100D01*
X2299320Y2237400D01*
X2302160Y2234080D01*
X2309100Y2227160D01*
X2312400Y2224320D01*
X2317100Y2221140D01*
X2322140Y2218580D01*
X2327480Y2216680D01*
X2328720Y2216340D01*
X2333000Y2215440D01*
X2334280Y2215260D01*
X2338640Y2214920D01*
X2391120Y2214900D01*
X2392600Y2214620D01*
X2393860Y2213800D01*
X2394740Y2212580D01*
X2395100Y2211100D01*
X2395280Y2207800D01*
X2396380Y2200660D01*
X2398220Y2193680D01*
X2400780Y2186940D01*
X2404000Y2180480D01*
X2407880Y2174380D01*
X2412340Y2168720D01*
X2413260Y2167800D01*
X2414100Y2166500D01*
X2414400Y2165000D01*
X2414100Y2163500D01*
X2413260Y2162200D01*
X2412340Y2161280D01*
X2407880Y2155620D01*
X2404000Y2149520D01*
X2400780Y2143060D01*
X2398220Y2136320D01*
X2396380Y2129340D01*
X2395280Y2122200D01*
X2394900Y2115000D01*
X2395280Y2107800D01*
X2396380Y2100660D01*
X2398220Y2093680D01*
X2400780Y2086940D01*
X2404000Y2080480D01*
X2407880Y2074379D01*
X2412340Y2068720D01*
X2413260Y2067800D01*
X2414100Y2066500D01*
X2414400Y2065000D01*
X2414100Y2063500D01*
X2413260Y2062200D01*
X2412340Y2061279D01*
X2407880Y2055620D01*
X2404000Y2049520D01*
X2400780Y2043060D01*
X2398220Y2036320D01*
X2396380Y2029340D01*
X2395280Y2022200D01*
X2394900Y2015000D01*
X2395280Y2007800D01*
X2396380Y2000660D01*
X2398220Y1993680D01*
X2400780Y1986940D01*
X2404000Y1980480D01*
X2407880Y1974379D01*
X2412340Y1968720D01*
X2413260Y1967800D01*
X2414100Y1966500D01*
X2414400Y1965000D01*
X2414100Y1963500D01*
X2413260Y1962200D01*
X2412340Y1961279D01*
X2407880Y1955620D01*
X2404000Y1949520D01*
X2402900Y1947320D01*
X2402000Y1946140D01*
X2400760Y1945360D01*
X2399320Y1945100D01*
X2305080Y1945100D01*
X2301800Y1944980D01*
X2299360Y1944740D01*
X2296180Y1944220D01*
X2293800Y1943680D01*
X2290700Y1942780D01*
X2288420Y1941940D01*
X2285460Y1940640D01*
X2283280Y1939520D01*
X2280520Y1937880D01*
X2278500Y1936500D01*
X2275960Y1934500D01*
X2274140Y1932880D01*
X2271940Y1930660D01*
X2270640Y1929800D01*
G37*

%LPD*%
G36*
X1605920Y1929400D02*
G01*
X1604379Y1930060D01*
X1603240Y1931300D01*
X1582920Y1965840D01*
X1579420Y1970900D01*
X1575780Y1975060D01*
X1570460Y1980380D01*
X1568400Y1982340D01*
X1565880Y1984440D01*
X1563660Y1986100D01*
X1561420Y1987540D01*
X1560220Y1988760D01*
X1559640Y1990340D01*
X1559760Y1992040D01*
X1560580Y1993520D01*
X1561940Y1994540D01*
X1563600Y1994900D01*
X1619940Y1994900D01*
X1623020Y1995000D01*
X1626040Y1995260D01*
X1629040Y1995720D01*
X1631980Y1996360D01*
X1634900Y1997180D01*
X1637760Y1998160D01*
X1640560Y1999319D01*
X1643280Y2000640D01*
X1645920Y2002120D01*
X1648460Y2003760D01*
X1650900Y2005560D01*
X1653220Y2007500D01*
X1655460Y2009620D01*
X1684640Y2038779D01*
X1685920Y2039640D01*
X1687440Y2039960D01*
X1688940Y2039660D01*
X1690240Y2038820D01*
X1691120Y2037560D01*
X1691459Y2036040D01*
X1691200Y2034520D01*
X1688660Y2027900D01*
X1686819Y2021060D01*
X1685720Y2014079D01*
X1685600Y2011900D01*
X1685260Y2010500D01*
X1684440Y2009280D01*
X1619620Y1944460D01*
X1617500Y1942220D01*
X1615560Y1939900D01*
X1613779Y1937460D01*
X1612140Y1934940D01*
X1610200Y1931399D01*
X1609120Y1930140D01*
X1607600Y1929420D01*
G37*

%LPD*%
G36*
X1948820Y1925540D02*
G01*
X1947160Y1925620D01*
X1945660Y1926380D01*
X1942760Y1928740D01*
X1936819Y1932600D01*
X1930520Y1935800D01*
X1923899Y1938340D01*
X1917060Y1940180D01*
X1910080Y1941279D01*
X1903000Y1941660D01*
X1895920Y1941279D01*
X1888940Y1940180D01*
X1881740Y1938240D01*
X1880180Y1938120D01*
X1878700Y1938620D01*
X1877540Y1939660D01*
X1876840Y1941060D01*
X1876339Y1942900D01*
X1873800Y1949520D01*
X1870600Y1955820D01*
X1866740Y1961759D01*
X1862280Y1967260D01*
X1857260Y1972280D01*
X1851759Y1976740D01*
X1845820Y1980600D01*
X1839520Y1983800D01*
X1832900Y1986339D01*
X1826060Y1988180D01*
X1822560Y1988740D01*
X1821100Y1989280D01*
X1819960Y1990340D01*
X1819300Y1991740D01*
X1819240Y1993300D01*
X1820280Y1999920D01*
X1820660Y2007000D01*
X1820280Y2014079D01*
X1819180Y2021060D01*
X1817340Y2027900D01*
X1814800Y2034520D01*
X1811600Y2040820D01*
X1807740Y2046759D01*
X1803280Y2052260D01*
X1802480Y2053080D01*
X1801600Y2054360D01*
X1801300Y2055900D01*
X1801600Y2057440D01*
X1802480Y2058720D01*
X1803779Y2059600D01*
X1805300Y2059900D01*
X1809940Y2059900D01*
X1813020Y2060000D01*
X1816040Y2060260D01*
X1819040Y2060720D01*
X1821980Y2061360D01*
X1824900Y2062180D01*
X1827760Y2063160D01*
X1830560Y2064319D01*
X1833280Y2065640D01*
X1835920Y2067120D01*
X1838460Y2068760D01*
X1840900Y2070560D01*
X1843220Y2072500D01*
X1845460Y2074620D01*
X1920400Y2149540D01*
X1921240Y2150180D01*
X1928720Y2153060D01*
X1934480Y2156100D01*
X1939860Y2159780D01*
X1944800Y2164060D01*
X1949199Y2168860D01*
X1953040Y2174140D01*
X1956240Y2179800D01*
X1958779Y2185820D01*
X1960600Y2192060D01*
X1961720Y2198500D01*
X1962100Y2205000D01*
X1961720Y2211500D01*
X1960600Y2217940D01*
X1958779Y2224180D01*
X1957680Y2226780D01*
X1957360Y2228320D01*
X1957660Y2229860D01*
X1958520Y2231160D01*
X1959820Y2232040D01*
X1961360Y2232340D01*
X1982420Y2232340D01*
X1987800Y2232700D01*
X1992940Y2233720D01*
X1997020Y2235100D01*
X1998620Y2235300D01*
X2000160Y2234840D01*
X2001399Y2233820D01*
X2004720Y2229740D01*
X2009740Y2224720D01*
X2015240Y2220260D01*
X2021180Y2216400D01*
X2027480Y2213200D01*
X2034100Y2210660D01*
X2040940Y2208820D01*
X2047920Y2207720D01*
X2055000Y2207340D01*
X2061300Y2207680D01*
X2062840Y2207460D01*
X2064199Y2206660D01*
X2065120Y2205400D01*
X2065500Y2203900D01*
X2065720Y2199920D01*
X2066819Y2192940D01*
X2068660Y2186100D01*
X2071200Y2179480D01*
X2074400Y2173180D01*
X2078260Y2167240D01*
X2078760Y2166620D01*
X2079480Y2165300D01*
X2079640Y2163820D01*
X2079259Y2162380D01*
X2078380Y2161180D01*
X2077120Y2160380D01*
X2075660Y2160100D01*
X2060060Y2160100D01*
X2056980Y2160000D01*
X2053959Y2159740D01*
X2050960Y2159280D01*
X2048020Y2158640D01*
X2045100Y2157820D01*
X2042240Y2156840D01*
X2039440Y2155680D01*
X2036720Y2154360D01*
X2034079Y2152880D01*
X2031540Y2151220D01*
X2029100Y2149440D01*
X2026780Y2147500D01*
X2024540Y2145380D01*
X1964620Y2085460D01*
X1962500Y2083220D01*
X1960560Y2080900D01*
X1958779Y2078460D01*
X1957120Y2075920D01*
X1955640Y2073280D01*
X1954319Y2070560D01*
X1953160Y2067760D01*
X1952180Y2064900D01*
X1951360Y2061980D01*
X1950720Y2059040D01*
X1950260Y2056040D01*
X1950000Y2053020D01*
X1949900Y2049940D01*
X1949900Y1945060D01*
X1950000Y1941980D01*
X1950260Y1938959D01*
X1950720Y1935960D01*
X1951360Y1933020D01*
X1952040Y1930560D01*
X1952140Y1928899D01*
X1951560Y1927340D01*
X1950380Y1926140D01*
G37*

%LPD*%
G36*
X4360000Y1919199D02*
G01*
X4358460Y1919500D01*
X4357180Y1920380D01*
X4353260Y1924280D01*
X4347760Y1928740D01*
X4341820Y1932600D01*
X4335520Y1935800D01*
X4328900Y1938340D01*
X4322060Y1940180D01*
X4315080Y1941279D01*
X4308000Y1941660D01*
X4300920Y1941279D01*
X4293940Y1940180D01*
X4286740Y1938240D01*
X4285180Y1938120D01*
X4283700Y1938620D01*
X4282540Y1939660D01*
X4281840Y1941060D01*
X4281340Y1942900D01*
X4278800Y1949520D01*
X4275600Y1955820D01*
X4271740Y1961759D01*
X4270320Y1963500D01*
X4269640Y1964780D01*
X4269440Y1966220D01*
X4269780Y1967620D01*
X4270580Y1968820D01*
X4314800Y2013700D01*
X4316100Y2014580D01*
X4317640Y2014900D01*
X4434400Y2014900D01*
X4435720Y2014680D01*
X4436880Y2014040D01*
X4437760Y2013060D01*
X4438820Y2011440D01*
X4442940Y2006399D01*
X4447620Y2001860D01*
X4452780Y1997880D01*
X4458360Y1994500D01*
X4464280Y1991800D01*
X4470480Y1989780D01*
X4471220Y1989640D01*
X4472720Y1988980D01*
X4473840Y1987800D01*
X4474380Y1986260D01*
X4474260Y1984620D01*
X4473500Y1983180D01*
X4472240Y1982160D01*
X4469180Y1980600D01*
X4463240Y1976740D01*
X4457740Y1972280D01*
X4452720Y1967260D01*
X4448260Y1961759D01*
X4444400Y1955820D01*
X4441200Y1949520D01*
X4438660Y1942900D01*
X4438160Y1941060D01*
X4437460Y1939660D01*
X4436300Y1938620D01*
X4434820Y1938120D01*
X4433260Y1938240D01*
X4426060Y1940180D01*
X4419080Y1941279D01*
X4412000Y1941660D01*
X4404920Y1941279D01*
X4397940Y1940180D01*
X4391100Y1938340D01*
X4384480Y1935800D01*
X4378180Y1932600D01*
X4372240Y1928740D01*
X4366740Y1924280D01*
X4362820Y1920380D01*
X4361540Y1919500D01*
G37*

%LPD*%
G36*
X3530000Y1919199D02*
G01*
X3528460Y1919500D01*
X3527180Y1920380D01*
X3523260Y1924280D01*
X3517760Y1928740D01*
X3511820Y1932600D01*
X3505520Y1935800D01*
X3498900Y1938340D01*
X3492060Y1940180D01*
X3485080Y1941279D01*
X3478000Y1941660D01*
X3470920Y1941279D01*
X3463940Y1940180D01*
X3456740Y1938240D01*
X3455179Y1938120D01*
X3453700Y1938620D01*
X3452540Y1939660D01*
X3451840Y1941060D01*
X3451340Y1942900D01*
X3448800Y1949520D01*
X3445600Y1955820D01*
X3441740Y1961759D01*
X3437280Y1967260D01*
X3432260Y1972280D01*
X3426760Y1976740D01*
X3420820Y1980600D01*
X3414520Y1983800D01*
X3407900Y1986339D01*
X3401060Y1988180D01*
X3397559Y1988740D01*
X3396100Y1989280D01*
X3394960Y1990340D01*
X3394300Y1991740D01*
X3394240Y1993300D01*
X3395280Y1999920D01*
X3395659Y2007000D01*
X3395280Y2014079D01*
X3394180Y2021060D01*
X3392340Y2027900D01*
X3389800Y2034520D01*
X3386600Y2040820D01*
X3382740Y2046759D01*
X3378279Y2052260D01*
X3373260Y2057280D01*
X3368500Y2061140D01*
X3367520Y2062340D01*
X3367040Y2063820D01*
X3367200Y2065380D01*
X3367919Y2066759D01*
X3370740Y2070240D01*
X3374600Y2076180D01*
X3377799Y2082480D01*
X3380340Y2089100D01*
X3381580Y2093740D01*
X3382300Y2095160D01*
X3383519Y2096200D01*
X3385059Y2096680D01*
X3386660Y2096519D01*
X3388060Y2095720D01*
X3389040Y2094460D01*
X3390280Y2091920D01*
X3393820Y2086440D01*
X3397940Y2081399D01*
X3402620Y2076860D01*
X3407780Y2072880D01*
X3413360Y2069500D01*
X3419280Y2066800D01*
X3421380Y2065980D01*
X3422160Y2065320D01*
X3449440Y2035560D01*
X3450340Y2033959D01*
X3457140Y2010160D01*
X3458860Y2005460D01*
X3459280Y2004500D01*
X3462080Y1999139D01*
X3465520Y1994160D01*
X3468800Y1990380D01*
X3532980Y1926180D01*
X3533840Y1924880D01*
X3534140Y1923340D01*
X3533840Y1921819D01*
X3532820Y1920380D01*
X3531540Y1919500D01*
G37*

%LPD*%
G36*
X4760980Y1864379D02*
G01*
X4759460Y1864660D01*
X4758160Y1865480D01*
X4757260Y1866720D01*
X4703420Y1984780D01*
X4703060Y1986320D01*
X4703320Y1987880D01*
X4704160Y1989220D01*
X4705460Y1990120D01*
X4707020Y1990440D01*
X4708560Y1990140D01*
X4709880Y1989259D01*
X4763720Y1935420D01*
X4764600Y1934120D01*
X4764900Y1932600D01*
X4764900Y1868380D01*
X4764600Y1866879D01*
X4763760Y1865580D01*
X4762480Y1864720D01*
G37*

%LPD*%
G36*
X3871380Y1845760D02*
G01*
X3869880Y1846180D01*
X3868639Y1847140D01*
X3777700Y1951900D01*
X3776960Y1953200D01*
X3776720Y1954660D01*
X3777060Y1956120D01*
X3777900Y1957360D01*
X3778519Y1957960D01*
X3779700Y1958779D01*
X3781100Y1959139D01*
X3782540Y1958959D01*
X3783820Y1958280D01*
X3892300Y1873060D01*
X3893260Y1871960D01*
X3893759Y1870620D01*
X3893759Y1869160D01*
X3893240Y1867820D01*
X3892260Y1866740D01*
X3887620Y1863140D01*
X3882940Y1858600D01*
X3878820Y1853560D01*
X3875240Y1848000D01*
X3874300Y1846759D01*
X3872940Y1845960D01*
G37*

%LPD*%
G36*
X4090040Y1845620D02*
G01*
X4088420Y1846380D01*
X4030620Y1891800D01*
X4029680Y1892860D01*
X4029160Y1894180D01*
X4029140Y1895580D01*
X4029600Y1896920D01*
X4031240Y1899800D01*
X4033780Y1905820D01*
X4034120Y1907020D01*
X4034940Y1908520D01*
X4036300Y1909540D01*
X4037960Y1909900D01*
X4042600Y1909900D01*
X4044120Y1909600D01*
X4045419Y1908720D01*
X4093720Y1860420D01*
X4094600Y1859120D01*
X4094900Y1857600D01*
X4094900Y1849520D01*
X4094500Y1847800D01*
X4093399Y1846399D01*
X4091800Y1845620D01*
G37*

%LPD*%
G36*
X2255840Y1820000D02*
G01*
X2254240Y1820640D01*
X2249480Y1823899D01*
X2243720Y1826940D01*
X2237640Y1829300D01*
X2235600Y1830220D01*
X2234540Y1831600D01*
X2234160Y1833300D01*
X2234160Y1850880D01*
X2234080Y1853880D01*
X2233800Y1856980D01*
X2233380Y1859700D01*
X2233440Y1861260D01*
X2234100Y1862680D01*
X2235260Y1863740D01*
X2240720Y1867000D01*
X2243460Y1868779D01*
X2245760Y1870460D01*
X2248220Y1872500D01*
X2250280Y1874440D01*
X2253160Y1877560D01*
X2254440Y1878480D01*
X2255980Y1878839D01*
X2257540Y1878580D01*
X2258880Y1877720D01*
X2259780Y1876420D01*
X2260100Y1874880D01*
X2260500Y1823959D01*
X2260140Y1822280D01*
X2259100Y1820900D01*
X2257580Y1820080D01*
G37*

%LPD*%
G36*
X3621160Y1810100D02*
G01*
X3619500Y1810460D01*
X3618140Y1811480D01*
X3617320Y1812960D01*
X3617200Y1814660D01*
X3617780Y1816240D01*
X3618980Y1817460D01*
X3621760Y1819259D01*
X3627260Y1823720D01*
X3628519Y1824980D01*
X3629820Y1825840D01*
X3631340Y1826140D01*
X3632880Y1825840D01*
X3634180Y1824980D01*
X3642220Y1816920D01*
X3643080Y1815640D01*
X3643399Y1814100D01*
X3643080Y1812560D01*
X3642220Y1811279D01*
X3640920Y1810400D01*
X3639400Y1810100D01*
G37*

%LPD*%
G36*
X3517160Y1810100D02*
G01*
X3515500Y1810460D01*
X3514140Y1811480D01*
X3513320Y1812960D01*
X3513200Y1814660D01*
X3513780Y1816240D01*
X3514980Y1817460D01*
X3517760Y1819259D01*
X3523260Y1823720D01*
X3527180Y1827620D01*
X3528460Y1828500D01*
X3530000Y1828800D01*
X3531540Y1828500D01*
X3532820Y1827620D01*
X3536740Y1823720D01*
X3542240Y1819259D01*
X3545020Y1817460D01*
X3546220Y1816240D01*
X3546800Y1814660D01*
X3546680Y1812960D01*
X3545860Y1811480D01*
X3544500Y1810460D01*
X3542840Y1810100D01*
G37*

%LPD*%
G36*
X4372880Y1792180D02*
G01*
X4371300Y1792460D01*
X4369960Y1793340D01*
X4348800Y1814420D01*
X4347900Y1815800D01*
X4347640Y1817460D01*
X4348060Y1819060D01*
X4349120Y1820360D01*
X4353260Y1823720D01*
X4357180Y1827620D01*
X4358460Y1828500D01*
X4360000Y1828800D01*
X4361540Y1828500D01*
X4362820Y1827620D01*
X4366740Y1823720D01*
X4372240Y1819259D01*
X4378080Y1815480D01*
X4379060Y1814580D01*
X4379680Y1813420D01*
X4379900Y1812120D01*
X4379900Y1803220D01*
X4379480Y1801459D01*
X4377400Y1797220D01*
X4376560Y1794820D01*
X4375720Y1793460D01*
X4374440Y1792520D01*
G37*

%LPD*%
G36*
X4629440Y1785100D02*
G01*
X4627780Y1785460D01*
X4626420Y1786480D01*
X4625600Y1787980D01*
X4623780Y1794180D01*
X4621240Y1800200D01*
X4620240Y1802240D01*
X4620100Y1803260D01*
X4620100Y1907580D01*
X4620400Y1909079D01*
X4621240Y1910380D01*
X4622520Y1911240D01*
X4624020Y1911579D01*
X4625540Y1911300D01*
X4626840Y1910480D01*
X4627740Y1909240D01*
X4681780Y1790760D01*
X4682140Y1789220D01*
X4681860Y1787640D01*
X4681000Y1786320D01*
X4679700Y1785420D01*
X4678140Y1785100D01*
G37*

%LPD*%
G36*
X4489440Y1785100D02*
G01*
X4487780Y1785460D01*
X4486420Y1786480D01*
X4485600Y1787980D01*
X4483780Y1794180D01*
X4481240Y1800200D01*
X4480240Y1802240D01*
X4480100Y1803260D01*
X4480100Y1852980D01*
X4480360Y1854420D01*
X4481120Y1855660D01*
X4482280Y1856540D01*
X4483680Y1856960D01*
X4485140Y1856840D01*
X4488940Y1855820D01*
X4495920Y1854720D01*
X4503000Y1854340D01*
X4510080Y1854720D01*
X4515280Y1855540D01*
X4516980Y1855440D01*
X4518500Y1854640D01*
X4519540Y1853260D01*
X4519900Y1851579D01*
X4519900Y1803220D01*
X4519480Y1801459D01*
X4517400Y1797220D01*
X4515220Y1791080D01*
X4514540Y1788200D01*
X4513780Y1786600D01*
X4512380Y1785500D01*
X4510660Y1785100D01*
G37*

%LPD*%
G36*
X2020780Y1781200D02*
G01*
X2019240Y1781560D01*
X2017960Y1782500D01*
X2014800Y1785940D01*
X2009860Y1790220D01*
X2004980Y1793560D01*
X2003800Y1794820D01*
X2003260Y1796459D01*
X2003460Y1798180D01*
X2004379Y1799640D01*
X2010040Y1805440D01*
X2011260Y1806300D01*
X2012700Y1806639D01*
X2014079Y1806720D01*
X2020280Y1807700D01*
X2021980Y1807600D01*
X2023500Y1806780D01*
X2024540Y1805420D01*
X2024900Y1803740D01*
X2024900Y1785200D01*
X2024580Y1783640D01*
X2023680Y1782340D01*
X2022360Y1781480D01*
G37*

%LPD*%
G36*
X1629660Y1714640D02*
G01*
X1627960Y1714760D01*
X1626480Y1715580D01*
X1625460Y1716940D01*
X1625100Y1718600D01*
X1625100Y1727600D01*
X1625400Y1729120D01*
X1626279Y1730420D01*
X1654400Y1758560D01*
X1655800Y1759460D01*
X1657440Y1759720D01*
X1659040Y1759300D01*
X1660340Y1758260D01*
X1661100Y1756780D01*
X1661180Y1755120D01*
X1660600Y1753560D01*
X1660280Y1753080D01*
X1657400Y1747220D01*
X1655520Y1741920D01*
X1654580Y1740420D01*
X1639620Y1725460D01*
X1637500Y1723220D01*
X1635560Y1720900D01*
X1633779Y1718460D01*
X1632460Y1716440D01*
X1631260Y1715240D01*
G37*

%LPD*%
G36*
X2128820Y1695840D02*
G01*
X2127380Y1696220D01*
X2126180Y1697100D01*
X2125380Y1698380D01*
X2125100Y1699840D01*
X2125100Y1841740D01*
X2125400Y1843260D01*
X2126280Y1844560D01*
X2127580Y1845440D01*
X2129120Y1845740D01*
X2130660Y1845420D01*
X2131940Y1844540D01*
X2132800Y1843240D01*
X2133660Y1841100D01*
X2133960Y1839600D01*
X2133960Y1700540D01*
X2133580Y1698820D01*
X2132480Y1697420D01*
X2131620Y1696720D01*
X2130300Y1696020D01*
G37*

%LPD*%
G36*
X1267600Y1695100D02*
G01*
X1265480Y1695320D01*
X1264300Y1696000D01*
X1259740Y1699680D01*
X1253800Y1703540D01*
X1247500Y1706759D01*
X1240880Y1709280D01*
X1234060Y1711120D01*
X1227060Y1712220D01*
X1220000Y1712600D01*
X1212940Y1712220D01*
X1205940Y1711120D01*
X1199120Y1709280D01*
X1192500Y1706759D01*
X1186200Y1703540D01*
X1180260Y1699680D01*
X1176620Y1696720D01*
X1175300Y1696020D01*
X1173820Y1695840D01*
X1172380Y1696220D01*
X1171180Y1697100D01*
X1170380Y1698380D01*
X1170100Y1699840D01*
X1170100Y1712600D01*
X1170400Y1714120D01*
X1171280Y1715420D01*
X1195400Y1739540D01*
X1196240Y1740180D01*
X1203720Y1743060D01*
X1209480Y1746100D01*
X1214860Y1749780D01*
X1219800Y1754060D01*
X1224200Y1758860D01*
X1228040Y1764139D01*
X1231240Y1769800D01*
X1233780Y1775820D01*
X1235600Y1782060D01*
X1236720Y1788500D01*
X1237100Y1795000D01*
X1236720Y1801500D01*
X1235600Y1807940D01*
X1233780Y1814180D01*
X1231540Y1819460D01*
X1231220Y1821000D01*
X1231520Y1822540D01*
X1232400Y1823860D01*
X1237280Y1828740D01*
X1241740Y1834240D01*
X1245600Y1840180D01*
X1248800Y1846480D01*
X1251340Y1853100D01*
X1251840Y1854940D01*
X1252540Y1856339D01*
X1253700Y1857380D01*
X1255180Y1857880D01*
X1256740Y1857760D01*
X1263940Y1855820D01*
X1270920Y1854720D01*
X1278000Y1854340D01*
X1285080Y1854720D01*
X1292060Y1855820D01*
X1298899Y1857660D01*
X1305520Y1860200D01*
X1311819Y1863400D01*
X1317760Y1867260D01*
X1323260Y1871720D01*
X1328280Y1876740D01*
X1332740Y1882240D01*
X1336600Y1888180D01*
X1339800Y1894480D01*
X1342340Y1901100D01*
X1344180Y1907940D01*
X1345440Y1916260D01*
X1346020Y1917920D01*
X1347220Y1919160D01*
X1348860Y1919780D01*
X1350600Y1919640D01*
X1352100Y1918779D01*
X1353120Y1917340D01*
X1354319Y1914440D01*
X1355640Y1911720D01*
X1357120Y1909079D01*
X1358779Y1906540D01*
X1360560Y1904100D01*
X1362500Y1901780D01*
X1364620Y1899540D01*
X1420540Y1843600D01*
X1421500Y1842060D01*
X1422800Y1838220D01*
X1424760Y1833480D01*
X1434480Y1814019D01*
X1434900Y1812220D01*
X1434900Y1792400D01*
X1434600Y1790880D01*
X1433720Y1789580D01*
X1410420Y1766279D01*
X1409120Y1765400D01*
X1407600Y1765100D01*
X1360060Y1765100D01*
X1356980Y1765000D01*
X1353959Y1764740D01*
X1350960Y1764280D01*
X1348020Y1763640D01*
X1345100Y1762820D01*
X1342240Y1761840D01*
X1339440Y1760680D01*
X1336720Y1759360D01*
X1334079Y1757880D01*
X1331540Y1756220D01*
X1329100Y1754440D01*
X1326780Y1752500D01*
X1324540Y1750380D01*
X1270420Y1696279D01*
X1269120Y1695400D01*
G37*

%LPD*%
G36*
X1825000Y1692120D02*
G01*
X1823460Y1692420D01*
X1822180Y1693300D01*
X1820220Y1695240D01*
X1814740Y1699680D01*
X1808800Y1703540D01*
X1802500Y1706759D01*
X1795880Y1709280D01*
X1789060Y1711120D01*
X1782060Y1712220D01*
X1775000Y1712600D01*
X1770620Y1712360D01*
X1769199Y1712540D01*
X1767940Y1713220D01*
X1767000Y1714280D01*
X1766480Y1715620D01*
X1766480Y1717040D01*
X1766720Y1718500D01*
X1767100Y1725000D01*
X1766720Y1731500D01*
X1765600Y1737940D01*
X1763779Y1744180D01*
X1761240Y1750200D01*
X1758040Y1755860D01*
X1754199Y1761140D01*
X1749800Y1765940D01*
X1744860Y1770220D01*
X1739480Y1773899D01*
X1733720Y1776940D01*
X1727640Y1779300D01*
X1721339Y1780960D01*
X1714880Y1781879D01*
X1708360Y1782080D01*
X1701879Y1781519D01*
X1695480Y1780220D01*
X1689280Y1778200D01*
X1683360Y1775500D01*
X1681180Y1774180D01*
X1679640Y1773640D01*
X1678000Y1773779D01*
X1676540Y1774560D01*
X1675540Y1775840D01*
X1675120Y1777440D01*
X1675400Y1779060D01*
X1676300Y1780440D01*
X1690380Y1794540D01*
X1692500Y1796780D01*
X1694440Y1799100D01*
X1696220Y1801540D01*
X1697880Y1804079D01*
X1699360Y1806720D01*
X1700680Y1809440D01*
X1701840Y1812240D01*
X1702820Y1815100D01*
X1703640Y1818020D01*
X1704280Y1820960D01*
X1704740Y1823959D01*
X1705000Y1826980D01*
X1705100Y1830060D01*
X1705100Y1886600D01*
X1705400Y1888120D01*
X1706279Y1889420D01*
X1737720Y1920860D01*
X1738980Y1921720D01*
X1740480Y1922040D01*
X1741980Y1921780D01*
X1743280Y1920960D01*
X1744180Y1919720D01*
X1744540Y1918240D01*
X1744720Y1914920D01*
X1745820Y1907940D01*
X1747660Y1901100D01*
X1750200Y1894480D01*
X1753400Y1888180D01*
X1757260Y1882240D01*
X1761720Y1876740D01*
X1766740Y1871720D01*
X1772240Y1867260D01*
X1778180Y1863400D01*
X1784480Y1860200D01*
X1791100Y1857660D01*
X1797940Y1855820D01*
X1804920Y1854720D01*
X1812000Y1854340D01*
X1819079Y1854720D01*
X1826060Y1855820D01*
X1833260Y1857760D01*
X1834820Y1857880D01*
X1836300Y1857380D01*
X1837460Y1856339D01*
X1838160Y1854940D01*
X1838660Y1853100D01*
X1841200Y1846480D01*
X1844400Y1840180D01*
X1848260Y1834240D01*
X1852720Y1828740D01*
X1857740Y1823720D01*
X1863240Y1819259D01*
X1869180Y1815400D01*
X1873680Y1813120D01*
X1874900Y1812160D01*
X1875660Y1810800D01*
X1875860Y1809259D01*
X1875440Y1807760D01*
X1874079Y1805040D01*
X1872280Y1800240D01*
X1841620Y1704880D01*
X1841000Y1703680D01*
X1840000Y1702760D01*
X1835260Y1699680D01*
X1829780Y1695240D01*
X1827820Y1693300D01*
X1826540Y1692420D01*
G37*

%LPD*%
G36*
X570000Y1692120D02*
G01*
X568460Y1692420D01*
X567180Y1693300D01*
X565220Y1695240D01*
X559740Y1699680D01*
X553800Y1703540D01*
X547500Y1706759D01*
X540880Y1709280D01*
X534060Y1711120D01*
X527060Y1712220D01*
X520000Y1712600D01*
X512939Y1712220D01*
X505940Y1711120D01*
X499120Y1709280D01*
X492500Y1706759D01*
X486200Y1703540D01*
X481280Y1700340D01*
X479680Y1699740D01*
X477980Y1699860D01*
X476480Y1700660D01*
X475460Y1702040D01*
X475100Y1703700D01*
X475100Y1842600D01*
X475400Y1844120D01*
X476280Y1845420D01*
X1019580Y2388720D01*
X1020879Y2389600D01*
X1022400Y2389900D01*
X1142600Y2389900D01*
X1144120Y2389600D01*
X1145420Y2388720D01*
X1159660Y2374480D01*
X1160520Y2373200D01*
X1160840Y2371660D01*
X1160520Y2370120D01*
X1159660Y2368840D01*
X1158360Y2367960D01*
X1156840Y2367660D01*
X1107580Y2367660D01*
X1102200Y2367300D01*
X1097060Y2366280D01*
X1092100Y2364600D01*
X1087400Y2362280D01*
X1083040Y2359360D01*
X1079100Y2355900D01*
X1075640Y2351960D01*
X1072720Y2347600D01*
X1070400Y2342900D01*
X1068960Y2338660D01*
X1068080Y2337200D01*
X1066680Y2336240D01*
X1065000Y2335940D01*
X1063360Y2336380D01*
X1062520Y2336800D01*
X1055900Y2339340D01*
X1049060Y2341180D01*
X1042080Y2342280D01*
X1035000Y2342660D01*
X1027920Y2342280D01*
X1020939Y2341180D01*
X1014100Y2339340D01*
X1007480Y2336800D01*
X1001180Y2333600D01*
X995240Y2329740D01*
X989740Y2325280D01*
X984720Y2320260D01*
X980260Y2314760D01*
X976400Y2308820D01*
X973199Y2302520D01*
X970660Y2295900D01*
X968820Y2289060D01*
X967720Y2282080D01*
X967500Y2278100D01*
X967120Y2276600D01*
X966200Y2275340D01*
X964840Y2274540D01*
X963300Y2274320D01*
X957000Y2274660D01*
X949920Y2274280D01*
X942940Y2273180D01*
X936100Y2271340D01*
X929479Y2268800D01*
X923180Y2265600D01*
X917240Y2261740D01*
X911740Y2257280D01*
X906720Y2252260D01*
X902260Y2246760D01*
X898400Y2240820D01*
X895200Y2234520D01*
X892660Y2227900D01*
X890819Y2221060D01*
X889720Y2214080D01*
X889340Y2207000D01*
X889720Y2199920D01*
X890819Y2192940D01*
X892660Y2186100D01*
X895200Y2179480D01*
X896160Y2177560D01*
X896600Y2175960D01*
X896340Y2174320D01*
X895440Y2172920D01*
X894040Y2172020D01*
X893480Y2171800D01*
X887180Y2168600D01*
X881240Y2164740D01*
X875740Y2160280D01*
X870720Y2155260D01*
X866260Y2149760D01*
X862400Y2143820D01*
X859200Y2137520D01*
X856660Y2130900D01*
X854820Y2124060D01*
X853720Y2117080D01*
X853340Y2110000D01*
X853720Y2102920D01*
X854820Y2095940D01*
X856660Y2089100D01*
X859200Y2082480D01*
X862400Y2076180D01*
X866260Y2070240D01*
X870720Y2064740D01*
X875740Y2059720D01*
X880500Y2055860D01*
X881480Y2054660D01*
X881960Y2053180D01*
X881800Y2051620D01*
X881080Y2050240D01*
X878259Y2046759D01*
X874400Y2040820D01*
X871200Y2034520D01*
X868660Y2027900D01*
X866820Y2021060D01*
X865720Y2014079D01*
X865340Y2007000D01*
X865720Y1999920D01*
X866820Y1992940D01*
X868660Y1986100D01*
X871200Y1979480D01*
X874400Y1973180D01*
X878259Y1967240D01*
X882720Y1961740D01*
X887740Y1956720D01*
X893240Y1952260D01*
X899180Y1948400D01*
X905480Y1945200D01*
X912099Y1942660D01*
X918940Y1940820D01*
X922440Y1940260D01*
X923900Y1939720D01*
X925060Y1938660D01*
X925699Y1937260D01*
X925759Y1935700D01*
X924720Y1929079D01*
X924340Y1922000D01*
X924720Y1914920D01*
X925819Y1907940D01*
X927660Y1901100D01*
X930200Y1894480D01*
X933400Y1888180D01*
X937260Y1882240D01*
X941720Y1876740D01*
X946740Y1871720D01*
X952240Y1867260D01*
X958180Y1863400D01*
X964479Y1860200D01*
X971100Y1857660D01*
X977940Y1855820D01*
X984920Y1854720D01*
X992000Y1854340D01*
X999080Y1854720D01*
X1006060Y1855820D01*
X1013259Y1857760D01*
X1014820Y1857880D01*
X1016300Y1857380D01*
X1017460Y1856339D01*
X1018160Y1854940D01*
X1018660Y1853100D01*
X1021200Y1846480D01*
X1024400Y1840180D01*
X1026940Y1836279D01*
X1027480Y1834980D01*
X1027540Y1833560D01*
X1027120Y1832220D01*
X1026240Y1831120D01*
X886860Y1707580D01*
X882500Y1703220D01*
X879100Y1698860D01*
X878460Y1698220D01*
X874780Y1695240D01*
X872820Y1693300D01*
X871540Y1692420D01*
X870000Y1692120D01*
X868460Y1692420D01*
X867180Y1693300D01*
X865220Y1695240D01*
X859740Y1699680D01*
X853800Y1703540D01*
X847500Y1706759D01*
X840879Y1709280D01*
X834060Y1711120D01*
X827060Y1712220D01*
X820000Y1712600D01*
X812940Y1712220D01*
X805939Y1711120D01*
X799120Y1709280D01*
X792500Y1706759D01*
X786200Y1703540D01*
X780260Y1699680D01*
X774780Y1695240D01*
X772820Y1693300D01*
X771540Y1692420D01*
X770000Y1692120D01*
X768460Y1692420D01*
X767180Y1693300D01*
X765220Y1695240D01*
X759740Y1699680D01*
X753800Y1703540D01*
X747500Y1706759D01*
X740879Y1709280D01*
X734060Y1711120D01*
X727060Y1712220D01*
X720000Y1712600D01*
X712940Y1712220D01*
X705939Y1711120D01*
X699120Y1709280D01*
X692500Y1706759D01*
X686200Y1703540D01*
X680260Y1699680D01*
X674780Y1695240D01*
X672820Y1693300D01*
X671540Y1692420D01*
X670000Y1692120D01*
X668460Y1692420D01*
X667180Y1693300D01*
X665220Y1695240D01*
X659740Y1699680D01*
X653800Y1703540D01*
X647500Y1706759D01*
X640879Y1709280D01*
X634060Y1711120D01*
X627060Y1712220D01*
X620000Y1712600D01*
X612940Y1712220D01*
X605940Y1711120D01*
X599120Y1709280D01*
X592500Y1706759D01*
X586200Y1703540D01*
X580260Y1699680D01*
X574780Y1695240D01*
X572820Y1693300D01*
X571540Y1692420D01*
G37*

%LPD*%
G36*
X3120360Y1660100D02*
G01*
X3118720Y1660460D01*
X3117360Y1661459D01*
X3116580Y1662360D01*
X3115840Y1663580D01*
X3115580Y1665000D01*
X3115840Y1666420D01*
X3116580Y1667640D01*
X3119960Y1671500D01*
X3124140Y1677380D01*
X3127700Y1683660D01*
X3130580Y1690280D01*
X3132780Y1697140D01*
X3134260Y1704220D01*
X3135000Y1711399D01*
X3135000Y1718600D01*
X3134260Y1725780D01*
X3132780Y1732860D01*
X3130580Y1739720D01*
X3127700Y1746339D01*
X3124140Y1752620D01*
X3119960Y1758500D01*
X3116580Y1762360D01*
X3115840Y1763580D01*
X3115580Y1765000D01*
X3115840Y1766420D01*
X3116580Y1767640D01*
X3119960Y1771500D01*
X3124140Y1777380D01*
X3127700Y1783660D01*
X3130580Y1790280D01*
X3132780Y1797140D01*
X3134260Y1804220D01*
X3134500Y1806620D01*
X3135000Y1808180D01*
X3136080Y1809420D01*
X3137580Y1810100D01*
X3139200Y1810160D01*
X3140720Y1809540D01*
X3233140Y1747200D01*
X3234080Y1746320D01*
X3234680Y1745180D01*
X3234900Y1743899D01*
X3234900Y1696560D01*
X3234580Y1694980D01*
X3233660Y1693660D01*
X3232280Y1692800D01*
X3230700Y1692560D01*
X3230000Y1692600D01*
X3222940Y1692220D01*
X3215940Y1691120D01*
X3209120Y1689280D01*
X3202500Y1686759D01*
X3196200Y1683540D01*
X3190260Y1679680D01*
X3184780Y1675240D01*
X3179760Y1670220D01*
X3178260Y1668360D01*
X3177120Y1667400D01*
X3175740Y1666920D01*
X3169260Y1665980D01*
X3163320Y1664340D01*
X3157600Y1662020D01*
X3155000Y1660600D01*
X3154060Y1660220D01*
X3153060Y1660100D01*
G37*

%LPD*%
G36*
X2969100Y1610100D02*
G01*
X2967559Y1610400D01*
X2966280Y1611279D01*
X2965400Y1612560D01*
X2965100Y1614100D01*
X2965100Y1765900D01*
X2965400Y1767440D01*
X2966280Y1768720D01*
X2967559Y1769600D01*
X2969100Y1769900D01*
X3009520Y1769900D01*
X3011080Y1769580D01*
X3012380Y1768700D01*
X3013260Y1767800D01*
X3014100Y1766500D01*
X3014400Y1765000D01*
X3014100Y1763500D01*
X3013260Y1762200D01*
X3012340Y1761279D01*
X3007880Y1755620D01*
X3004000Y1749520D01*
X3000779Y1743060D01*
X2998220Y1736320D01*
X2996380Y1729340D01*
X2995280Y1722200D01*
X2994900Y1715000D01*
X2995280Y1707800D01*
X2996380Y1700660D01*
X2998220Y1693680D01*
X3000779Y1686940D01*
X3004000Y1680480D01*
X3007880Y1674379D01*
X3012340Y1668720D01*
X3013260Y1667800D01*
X3014100Y1666500D01*
X3014400Y1665000D01*
X3014100Y1663500D01*
X3013260Y1662200D01*
X3012340Y1661279D01*
X3007880Y1655620D01*
X3004000Y1649520D01*
X3000779Y1643060D01*
X2998220Y1636320D01*
X2996380Y1629340D01*
X2995280Y1622200D01*
X2994900Y1615000D01*
X2994940Y1614300D01*
X2994700Y1612720D01*
X2993840Y1611339D01*
X2992520Y1610420D01*
X2990940Y1610100D01*
G37*

%LPD*%
G36*
X2402700Y1550280D02*
G01*
X2400940Y1550480D01*
X2399440Y1551420D01*
X2386280Y1564580D01*
X2385400Y1565880D01*
X2385100Y1567400D01*
X2385100Y1759460D01*
X2385380Y1760920D01*
X2386180Y1762180D01*
X2387380Y1763060D01*
X2390400Y1764500D01*
X2392140Y1764900D01*
X2406960Y1764900D01*
X2408680Y1764500D01*
X2410080Y1763400D01*
X2410860Y1761800D01*
X2410860Y1760020D01*
X2410080Y1758420D01*
X2407880Y1755620D01*
X2404000Y1749520D01*
X2400780Y1743060D01*
X2398220Y1736320D01*
X2396380Y1729340D01*
X2395280Y1722200D01*
X2394900Y1715000D01*
X2395280Y1707800D01*
X2396380Y1700660D01*
X2398220Y1693680D01*
X2400780Y1686940D01*
X2404000Y1680480D01*
X2407880Y1674379D01*
X2412340Y1668720D01*
X2413260Y1667800D01*
X2414100Y1666500D01*
X2414400Y1665000D01*
X2414100Y1663500D01*
X2413260Y1662200D01*
X2412340Y1661279D01*
X2407880Y1655620D01*
X2404000Y1649520D01*
X2400780Y1643060D01*
X2398220Y1636320D01*
X2396380Y1629340D01*
X2395280Y1622200D01*
X2394900Y1615000D01*
X2395280Y1607800D01*
X2396380Y1600660D01*
X2398220Y1593680D01*
X2400780Y1586940D01*
X2404000Y1580480D01*
X2407880Y1574379D01*
X2412340Y1568720D01*
X2413260Y1567800D01*
X2414100Y1566500D01*
X2414400Y1565000D01*
X2414100Y1563500D01*
X2413260Y1562200D01*
X2412340Y1561279D01*
X2407880Y1555620D01*
X2405640Y1552100D01*
X2404380Y1550860D01*
G37*

%LPD*%
G36*
X3335740Y1475100D02*
G01*
X3334160Y1475420D01*
X3332840Y1476360D01*
X3332000Y1477740D01*
X3331760Y1479340D01*
X3332100Y1485000D01*
X3331720Y1491160D01*
X3330640Y1497240D01*
X3328840Y1503140D01*
X3326340Y1508779D01*
X3325240Y1510940D01*
X3325100Y1511980D01*
X3325100Y1553440D01*
X3325419Y1555020D01*
X3326340Y1556339D01*
X3327720Y1557200D01*
X3329300Y1557440D01*
X3330000Y1557400D01*
X3337060Y1557780D01*
X3344060Y1558880D01*
X3350880Y1560720D01*
X3357500Y1563240D01*
X3363800Y1566459D01*
X3369740Y1570320D01*
X3375220Y1574760D01*
X3377180Y1576699D01*
X3378460Y1577580D01*
X3380000Y1577880D01*
X3381540Y1577580D01*
X3382820Y1576699D01*
X3384780Y1574760D01*
X3390260Y1570320D01*
X3396200Y1566459D01*
X3402500Y1563240D01*
X3409120Y1560720D01*
X3415940Y1558880D01*
X3422940Y1557780D01*
X3430000Y1557400D01*
X3437060Y1557780D01*
X3444060Y1558880D01*
X3450880Y1560720D01*
X3457500Y1563240D01*
X3463800Y1566459D01*
X3469740Y1570320D01*
X3475220Y1574760D01*
X3477180Y1576699D01*
X3478460Y1577580D01*
X3480000Y1577880D01*
X3481540Y1577580D01*
X3482820Y1576699D01*
X3484780Y1574760D01*
X3490260Y1570320D01*
X3496200Y1566459D01*
X3502500Y1563240D01*
X3509120Y1560720D01*
X3515940Y1558880D01*
X3522940Y1557780D01*
X3530000Y1557400D01*
X3537060Y1557780D01*
X3544060Y1558880D01*
X3550880Y1560720D01*
X3557500Y1563240D01*
X3563800Y1566459D01*
X3569740Y1570320D01*
X3575220Y1574760D01*
X3577180Y1576699D01*
X3578460Y1577580D01*
X3580000Y1577880D01*
X3581540Y1577580D01*
X3582820Y1576699D01*
X3584780Y1574760D01*
X3586380Y1573480D01*
X3587420Y1572180D01*
X3587840Y1570580D01*
X3587580Y1568920D01*
X3586680Y1567540D01*
X3495419Y1476279D01*
X3494120Y1475400D01*
X3492600Y1475100D01*
G37*

%LPD*%
G36*
X2224120Y1406819D02*
G01*
X2222540Y1407220D01*
X2217840Y1409540D01*
X2212880Y1411220D01*
X2207740Y1412240D01*
X2202360Y1412600D01*
X2163100Y1412600D01*
X2161580Y1412900D01*
X2160280Y1413779D01*
X2159420Y1415060D01*
X2159100Y1416600D01*
X2159420Y1418140D01*
X2160280Y1419420D01*
X2256140Y1515300D01*
X2257440Y1516160D01*
X2258960Y1516459D01*
X2260480Y1516160D01*
X2261780Y1515300D01*
X2262660Y1514019D01*
X2262980Y1512500D01*
X2263480Y1449740D01*
X2263660Y1446160D01*
X2263360Y1444440D01*
X2262380Y1443000D01*
X2259520Y1440360D01*
X2227140Y1407980D01*
X2225760Y1407080D01*
G37*

%LPD*%
G36*
X570000Y1392120D02*
G01*
X568460Y1392420D01*
X567180Y1393300D01*
X565220Y1395240D01*
X559740Y1399680D01*
X553800Y1403540D01*
X547500Y1406759D01*
X540880Y1409280D01*
X534060Y1411120D01*
X527060Y1412220D01*
X520000Y1412600D01*
X512939Y1412220D01*
X505940Y1411120D01*
X499120Y1409280D01*
X492500Y1406759D01*
X486200Y1403540D01*
X481280Y1400340D01*
X479680Y1399740D01*
X477980Y1399860D01*
X476480Y1400660D01*
X475460Y1402040D01*
X475100Y1403700D01*
X475100Y1586300D01*
X475460Y1587960D01*
X476480Y1589340D01*
X477980Y1590140D01*
X479680Y1590260D01*
X481280Y1589660D01*
X486200Y1586459D01*
X492500Y1583240D01*
X499120Y1580720D01*
X505940Y1578880D01*
X512939Y1577780D01*
X520000Y1577400D01*
X527060Y1577780D01*
X534060Y1578880D01*
X540880Y1580720D01*
X547500Y1583240D01*
X553800Y1586459D01*
X559740Y1590320D01*
X565220Y1594760D01*
X567180Y1596699D01*
X568460Y1597580D01*
X570000Y1597880D01*
X571540Y1597580D01*
X572820Y1596699D01*
X574780Y1594760D01*
X580260Y1590320D01*
X586200Y1586459D01*
X592500Y1583240D01*
X599120Y1580720D01*
X605940Y1578880D01*
X612940Y1577780D01*
X620000Y1577400D01*
X627060Y1577780D01*
X634060Y1578880D01*
X640879Y1580720D01*
X647500Y1583240D01*
X653800Y1586459D01*
X659740Y1590320D01*
X665220Y1594760D01*
X667180Y1596699D01*
X668460Y1597580D01*
X670000Y1597880D01*
X671540Y1597580D01*
X672820Y1596699D01*
X674780Y1594760D01*
X680260Y1590320D01*
X686200Y1586459D01*
X692500Y1583240D01*
X699120Y1580720D01*
X705939Y1578880D01*
X712940Y1577780D01*
X720000Y1577400D01*
X727060Y1577780D01*
X734060Y1578880D01*
X740879Y1580720D01*
X747500Y1583240D01*
X753800Y1586459D01*
X759740Y1590320D01*
X765220Y1594760D01*
X767180Y1596699D01*
X768460Y1597580D01*
X770000Y1597880D01*
X771540Y1597580D01*
X772820Y1596699D01*
X774780Y1594760D01*
X780260Y1590320D01*
X786200Y1586459D01*
X792500Y1583240D01*
X799120Y1580720D01*
X805939Y1578880D01*
X812940Y1577780D01*
X820000Y1577400D01*
X827060Y1577780D01*
X834060Y1578880D01*
X840879Y1580720D01*
X847500Y1583240D01*
X853800Y1586459D01*
X859740Y1590320D01*
X865220Y1594760D01*
X867180Y1596699D01*
X868460Y1597580D01*
X870000Y1597880D01*
X871540Y1597580D01*
X872820Y1596699D01*
X874780Y1594760D01*
X880260Y1590320D01*
X886200Y1586459D01*
X892500Y1583240D01*
X899120Y1580720D01*
X905939Y1578880D01*
X912940Y1577780D01*
X920000Y1577400D01*
X927060Y1577780D01*
X934060Y1578880D01*
X940879Y1580720D01*
X947500Y1583240D01*
X953800Y1586459D01*
X959740Y1590320D01*
X965220Y1594760D01*
X967180Y1596699D01*
X968460Y1597580D01*
X970000Y1597880D01*
X971540Y1597580D01*
X972820Y1596699D01*
X974780Y1594760D01*
X980260Y1590320D01*
X986200Y1586459D01*
X992500Y1583240D01*
X999120Y1580720D01*
X1005939Y1578880D01*
X1012940Y1577780D01*
X1020000Y1577400D01*
X1027060Y1577780D01*
X1034060Y1578880D01*
X1040879Y1580720D01*
X1047500Y1583240D01*
X1053800Y1586459D01*
X1059740Y1590320D01*
X1065220Y1594760D01*
X1067180Y1596699D01*
X1068460Y1597580D01*
X1070000Y1597880D01*
X1071540Y1597580D01*
X1072820Y1596699D01*
X1074780Y1594760D01*
X1080260Y1590320D01*
X1086200Y1586459D01*
X1092500Y1583240D01*
X1099120Y1580720D01*
X1105940Y1578880D01*
X1112940Y1577780D01*
X1120000Y1577400D01*
X1127060Y1577780D01*
X1134060Y1578880D01*
X1140880Y1580720D01*
X1147500Y1583240D01*
X1153800Y1586459D01*
X1159740Y1590320D01*
X1165220Y1594760D01*
X1167180Y1596699D01*
X1168460Y1597580D01*
X1170000Y1597880D01*
X1171540Y1597580D01*
X1172820Y1596699D01*
X1174780Y1594760D01*
X1180260Y1590320D01*
X1186200Y1586459D01*
X1192500Y1583240D01*
X1199120Y1580720D01*
X1205940Y1578880D01*
X1212940Y1577780D01*
X1220000Y1577400D01*
X1227060Y1577780D01*
X1234060Y1578880D01*
X1240880Y1580720D01*
X1247500Y1583240D01*
X1253800Y1586459D01*
X1259740Y1590320D01*
X1264300Y1594000D01*
X1265480Y1594680D01*
X1266800Y1594900D01*
X1279400Y1594900D01*
X1280920Y1594600D01*
X1282220Y1593720D01*
X1283080Y1592440D01*
X1283400Y1590900D01*
X1283080Y1589360D01*
X1282220Y1588080D01*
X1105780Y1411620D01*
X1104940Y1411000D01*
X1103980Y1410600D01*
X1099120Y1409280D01*
X1092500Y1406759D01*
X1086200Y1403540D01*
X1080260Y1399680D01*
X1074780Y1395240D01*
X1072820Y1393300D01*
X1071540Y1392420D01*
X1070000Y1392120D01*
X1068460Y1392420D01*
X1067180Y1393300D01*
X1065220Y1395240D01*
X1059740Y1399680D01*
X1053800Y1403540D01*
X1047500Y1406759D01*
X1040879Y1409280D01*
X1034060Y1411120D01*
X1027060Y1412220D01*
X1020000Y1412600D01*
X1012940Y1412220D01*
X1005939Y1411120D01*
X999120Y1409280D01*
X992500Y1406759D01*
X986200Y1403540D01*
X980260Y1399680D01*
X974780Y1395240D01*
X972820Y1393300D01*
X971540Y1392420D01*
X970000Y1392120D01*
X968460Y1392420D01*
X967180Y1393300D01*
X965220Y1395240D01*
X959740Y1399680D01*
X953800Y1403540D01*
X947500Y1406759D01*
X940879Y1409280D01*
X934060Y1411120D01*
X927060Y1412220D01*
X920000Y1412600D01*
X912940Y1412220D01*
X905939Y1411120D01*
X899120Y1409280D01*
X892500Y1406759D01*
X886200Y1403540D01*
X880260Y1399680D01*
X874780Y1395240D01*
X872820Y1393300D01*
X871540Y1392420D01*
X870000Y1392120D01*
X868460Y1392420D01*
X867180Y1393300D01*
X865220Y1395240D01*
X859740Y1399680D01*
X853800Y1403540D01*
X847500Y1406759D01*
X840879Y1409280D01*
X834060Y1411120D01*
X827060Y1412220D01*
X820000Y1412600D01*
X812940Y1412220D01*
X805939Y1411120D01*
X799120Y1409280D01*
X792500Y1406759D01*
X786200Y1403540D01*
X780260Y1399680D01*
X774780Y1395240D01*
X772820Y1393300D01*
X771540Y1392420D01*
X770000Y1392120D01*
X768460Y1392420D01*
X767180Y1393300D01*
X765220Y1395240D01*
X759740Y1399680D01*
X753800Y1403540D01*
X747500Y1406759D01*
X740879Y1409280D01*
X734060Y1411120D01*
X727060Y1412220D01*
X720000Y1412600D01*
X712940Y1412220D01*
X705939Y1411120D01*
X699120Y1409280D01*
X692500Y1406759D01*
X686200Y1403540D01*
X680260Y1399680D01*
X674780Y1395240D01*
X672820Y1393300D01*
X671540Y1392420D01*
X670000Y1392120D01*
X668460Y1392420D01*
X667180Y1393300D01*
X666280Y1394199D01*
X665400Y1395480D01*
X665100Y1397020D01*
X665100Y1445900D01*
X665400Y1447440D01*
X666280Y1448720D01*
X667560Y1449600D01*
X669100Y1449900D01*
X1050120Y1449900D01*
X1051120Y1449780D01*
X1052040Y1449400D01*
X1054640Y1447980D01*
X1060360Y1445660D01*
X1066320Y1444019D01*
X1072420Y1443120D01*
X1078600Y1442920D01*
X1084740Y1443480D01*
X1090780Y1444740D01*
X1096620Y1446720D01*
X1102200Y1449379D01*
X1107420Y1452680D01*
X1112220Y1456560D01*
X1116520Y1461000D01*
X1120260Y1465900D01*
X1123400Y1471220D01*
X1123940Y1472440D01*
X1125800Y1475800D01*
X1127880Y1481060D01*
X1129300Y1486560D01*
X1130000Y1492160D01*
X1130000Y1497840D01*
X1129300Y1503440D01*
X1127880Y1508940D01*
X1125800Y1514199D01*
X1123800Y1517880D01*
X1123400Y1518779D01*
X1120260Y1524100D01*
X1116520Y1529000D01*
X1112220Y1533440D01*
X1107420Y1537320D01*
X1102200Y1540620D01*
X1096620Y1543280D01*
X1090780Y1545260D01*
X1084740Y1546519D01*
X1078600Y1547080D01*
X1072420Y1546879D01*
X1066320Y1545980D01*
X1060360Y1544340D01*
X1054640Y1542020D01*
X1052040Y1540600D01*
X1051120Y1540220D01*
X1050120Y1540100D01*
X620060Y1540100D01*
X617160Y1540000D01*
X614340Y1539740D01*
X611540Y1539300D01*
X608780Y1538680D01*
X606060Y1537900D01*
X603400Y1536940D01*
X600800Y1535800D01*
X598280Y1534520D01*
X595840Y1533080D01*
X593500Y1531480D01*
X591260Y1529740D01*
X589120Y1527880D01*
X587120Y1525880D01*
X585260Y1523740D01*
X583520Y1521500D01*
X581920Y1519160D01*
X580480Y1516720D01*
X579200Y1514199D01*
X578060Y1511600D01*
X577100Y1508940D01*
X576320Y1506220D01*
X575700Y1503460D01*
X575260Y1500660D01*
X575000Y1497840D01*
X574900Y1494940D01*
X574900Y1397020D01*
X574600Y1395480D01*
X573720Y1394199D01*
X572820Y1393300D01*
X571540Y1392420D01*
G37*

%LPD*%
G36*
X1625000Y1392120D02*
G01*
X1623460Y1392420D01*
X1622180Y1393300D01*
X1620220Y1395240D01*
X1614740Y1399680D01*
X1608800Y1403540D01*
X1602500Y1406759D01*
X1595880Y1409280D01*
X1589060Y1411120D01*
X1582060Y1412220D01*
X1575000Y1412600D01*
X1567940Y1412220D01*
X1560940Y1411120D01*
X1554120Y1409280D01*
X1547500Y1406759D01*
X1541200Y1403540D01*
X1536279Y1400340D01*
X1534680Y1399740D01*
X1532980Y1399860D01*
X1531480Y1400660D01*
X1530460Y1402040D01*
X1530100Y1403700D01*
X1530100Y1525900D01*
X1530400Y1527440D01*
X1531279Y1528720D01*
X1532560Y1529600D01*
X1534100Y1529900D01*
X2119400Y1529900D01*
X2120920Y1529600D01*
X2122220Y1528720D01*
X2123080Y1527440D01*
X2123400Y1525900D01*
X2123080Y1524360D01*
X2122220Y1523080D01*
X2039620Y1440460D01*
X2037500Y1438220D01*
X2035560Y1435900D01*
X2033779Y1433460D01*
X2032120Y1430920D01*
X2030640Y1428280D01*
X2029319Y1425560D01*
X2028160Y1422760D01*
X2027180Y1419900D01*
X2026360Y1416980D01*
X2025720Y1414040D01*
X2025260Y1411040D01*
X2025000Y1408020D01*
X2024900Y1404940D01*
X2024900Y1399840D01*
X2024620Y1398380D01*
X2023820Y1397100D01*
X2022620Y1396220D01*
X2021180Y1395840D01*
X2019700Y1396020D01*
X2018380Y1396720D01*
X2014740Y1399680D01*
X2008800Y1403540D01*
X2002500Y1406759D01*
X1995880Y1409280D01*
X1989060Y1411120D01*
X1982060Y1412220D01*
X1975000Y1412600D01*
X1967940Y1412220D01*
X1960940Y1411120D01*
X1954120Y1409280D01*
X1947500Y1406759D01*
X1941200Y1403540D01*
X1935260Y1399680D01*
X1929780Y1395240D01*
X1927820Y1393300D01*
X1926540Y1392420D01*
X1925000Y1392120D01*
X1923460Y1392420D01*
X1922180Y1393300D01*
X1920220Y1395240D01*
X1914740Y1399680D01*
X1908800Y1403540D01*
X1902500Y1406759D01*
X1895880Y1409280D01*
X1889060Y1411120D01*
X1882060Y1412220D01*
X1875000Y1412600D01*
X1867940Y1412220D01*
X1860940Y1411120D01*
X1854120Y1409280D01*
X1847500Y1406759D01*
X1841200Y1403540D01*
X1835260Y1399680D01*
X1829780Y1395240D01*
X1827820Y1393300D01*
X1826540Y1392420D01*
X1825000Y1392120D01*
X1823460Y1392420D01*
X1822180Y1393300D01*
X1820220Y1395240D01*
X1814740Y1399680D01*
X1808800Y1403540D01*
X1802500Y1406759D01*
X1795880Y1409280D01*
X1789060Y1411120D01*
X1782060Y1412220D01*
X1775000Y1412600D01*
X1767940Y1412220D01*
X1760940Y1411120D01*
X1754120Y1409280D01*
X1747500Y1406759D01*
X1741200Y1403540D01*
X1735260Y1399680D01*
X1729780Y1395240D01*
X1727820Y1393300D01*
X1726540Y1392420D01*
X1725000Y1392120D01*
X1723460Y1392420D01*
X1722180Y1393300D01*
X1720220Y1395240D01*
X1714740Y1399680D01*
X1708800Y1403540D01*
X1702500Y1406759D01*
X1695880Y1409280D01*
X1689060Y1411120D01*
X1682060Y1412220D01*
X1675000Y1412600D01*
X1667940Y1412220D01*
X1660940Y1411120D01*
X1654120Y1409280D01*
X1647500Y1406759D01*
X1641200Y1403540D01*
X1635260Y1399680D01*
X1629780Y1395240D01*
X1627820Y1393300D01*
X1626540Y1392420D01*
G37*

%LPD*%
G36*
X4165000Y1382120D02*
G01*
X4163460Y1382420D01*
X4162180Y1383300D01*
X4160220Y1385240D01*
X4154740Y1389680D01*
X4148800Y1393540D01*
X4142500Y1396759D01*
X4135880Y1399280D01*
X4129060Y1401120D01*
X4122060Y1402220D01*
X4115000Y1402600D01*
X4107940Y1402220D01*
X4100940Y1401120D01*
X4097120Y1400100D01*
X4095640Y1399980D01*
X4094220Y1400420D01*
X4093039Y1401360D01*
X4092300Y1402660D01*
X4092100Y1404139D01*
X4099320Y1564640D01*
X4099740Y1566260D01*
X4100800Y1567560D01*
X4102280Y1568320D01*
X4103940Y1568400D01*
X4107940Y1567780D01*
X4115000Y1567400D01*
X4122060Y1567780D01*
X4129060Y1568880D01*
X4135880Y1570720D01*
X4142500Y1573240D01*
X4148800Y1576459D01*
X4154740Y1580320D01*
X4160220Y1584760D01*
X4162180Y1586699D01*
X4163460Y1587580D01*
X4165000Y1587880D01*
X4166540Y1587580D01*
X4167820Y1586699D01*
X4169780Y1584760D01*
X4175260Y1580320D01*
X4181200Y1576459D01*
X4187500Y1573240D01*
X4194120Y1570720D01*
X4200940Y1568880D01*
X4207940Y1567780D01*
X4215000Y1567400D01*
X4222060Y1567780D01*
X4229060Y1568880D01*
X4235880Y1570720D01*
X4242500Y1573240D01*
X4248800Y1576459D01*
X4254740Y1580320D01*
X4260220Y1584760D01*
X4262180Y1586699D01*
X4263460Y1587580D01*
X4265000Y1587880D01*
X4266540Y1587580D01*
X4267820Y1586699D01*
X4269780Y1584760D01*
X4275260Y1580320D01*
X4281200Y1576459D01*
X4287500Y1573240D01*
X4294120Y1570720D01*
X4300940Y1568880D01*
X4307940Y1567780D01*
X4315000Y1567400D01*
X4322060Y1567780D01*
X4329060Y1568880D01*
X4335880Y1570720D01*
X4342500Y1573240D01*
X4348800Y1576459D01*
X4354740Y1580320D01*
X4360220Y1584760D01*
X4362180Y1586699D01*
X4363460Y1587580D01*
X4365000Y1587880D01*
X4366540Y1587580D01*
X4367820Y1586699D01*
X4369780Y1584760D01*
X4375260Y1580320D01*
X4381200Y1576459D01*
X4387500Y1573240D01*
X4394120Y1570720D01*
X4400940Y1568880D01*
X4407940Y1567780D01*
X4415000Y1567400D01*
X4422060Y1567780D01*
X4429060Y1568880D01*
X4435880Y1570720D01*
X4442500Y1573240D01*
X4448800Y1576459D01*
X4454740Y1580320D01*
X4460220Y1584760D01*
X4462180Y1586699D01*
X4463460Y1587580D01*
X4465000Y1587880D01*
X4466540Y1587580D01*
X4467820Y1586699D01*
X4469780Y1584760D01*
X4475260Y1580320D01*
X4481200Y1576459D01*
X4487500Y1573240D01*
X4494120Y1570720D01*
X4500940Y1568880D01*
X4507940Y1567780D01*
X4515000Y1567400D01*
X4522060Y1567780D01*
X4529060Y1568880D01*
X4535880Y1570720D01*
X4542500Y1573240D01*
X4548800Y1576459D01*
X4554740Y1580320D01*
X4560220Y1584760D01*
X4562180Y1586699D01*
X4563460Y1587580D01*
X4565000Y1587880D01*
X4566540Y1587580D01*
X4567820Y1586699D01*
X4569780Y1584760D01*
X4575260Y1580320D01*
X4581200Y1576459D01*
X4587500Y1573240D01*
X4594120Y1570720D01*
X4600940Y1568880D01*
X4607940Y1567780D01*
X4615000Y1567400D01*
X4622060Y1567780D01*
X4629060Y1568880D01*
X4635880Y1570720D01*
X4642500Y1573240D01*
X4648800Y1576459D01*
X4654740Y1580320D01*
X4660220Y1584760D01*
X4662180Y1586699D01*
X4663460Y1587580D01*
X4665000Y1587880D01*
X4666540Y1587580D01*
X4667820Y1586699D01*
X4669780Y1584760D01*
X4675260Y1580320D01*
X4681200Y1576459D01*
X4687500Y1573240D01*
X4694120Y1570720D01*
X4700940Y1568880D01*
X4706520Y1568000D01*
X4707860Y1567540D01*
X4708940Y1566639D01*
X4709660Y1565440D01*
X4709900Y1564040D01*
X4709900Y1405960D01*
X4709660Y1404560D01*
X4708940Y1403360D01*
X4707860Y1402460D01*
X4706520Y1402000D01*
X4700940Y1401120D01*
X4694120Y1399280D01*
X4687500Y1396759D01*
X4681200Y1393540D01*
X4675260Y1389680D01*
X4669780Y1385240D01*
X4667820Y1383300D01*
X4666540Y1382420D01*
X4665000Y1382120D01*
X4663460Y1382420D01*
X4662180Y1383300D01*
X4660220Y1385240D01*
X4654740Y1389680D01*
X4648800Y1393540D01*
X4642500Y1396759D01*
X4635880Y1399280D01*
X4629060Y1401120D01*
X4622060Y1402220D01*
X4615000Y1402600D01*
X4607940Y1402220D01*
X4600940Y1401120D01*
X4594120Y1399280D01*
X4587500Y1396759D01*
X4581200Y1393540D01*
X4575260Y1389680D01*
X4569780Y1385240D01*
X4567820Y1383300D01*
X4566540Y1382420D01*
X4565000Y1382120D01*
X4563460Y1382420D01*
X4562180Y1383300D01*
X4560220Y1385240D01*
X4554740Y1389680D01*
X4548800Y1393540D01*
X4542500Y1396759D01*
X4535880Y1399280D01*
X4529060Y1401120D01*
X4522060Y1402220D01*
X4515000Y1402600D01*
X4507940Y1402220D01*
X4500940Y1401120D01*
X4494120Y1399280D01*
X4487500Y1396759D01*
X4481200Y1393540D01*
X4475260Y1389680D01*
X4469780Y1385240D01*
X4467820Y1383300D01*
X4466540Y1382420D01*
X4465000Y1382120D01*
X4463460Y1382420D01*
X4462180Y1383300D01*
X4460220Y1385240D01*
X4454740Y1389680D01*
X4448800Y1393540D01*
X4442500Y1396759D01*
X4435880Y1399280D01*
X4429060Y1401120D01*
X4422060Y1402220D01*
X4415000Y1402600D01*
X4407940Y1402220D01*
X4400940Y1401120D01*
X4394120Y1399280D01*
X4387500Y1396759D01*
X4381200Y1393540D01*
X4375260Y1389680D01*
X4369780Y1385240D01*
X4367820Y1383300D01*
X4366540Y1382420D01*
X4365000Y1382120D01*
X4363460Y1382420D01*
X4362180Y1383300D01*
X4360220Y1385240D01*
X4354740Y1389680D01*
X4348800Y1393540D01*
X4342500Y1396759D01*
X4335880Y1399280D01*
X4329060Y1401120D01*
X4322060Y1402220D01*
X4315000Y1402600D01*
X4307940Y1402220D01*
X4300940Y1401120D01*
X4294120Y1399280D01*
X4287500Y1396759D01*
X4281200Y1393540D01*
X4275260Y1389680D01*
X4269780Y1385240D01*
X4267820Y1383300D01*
X4266540Y1382420D01*
X4265000Y1382120D01*
X4263460Y1382420D01*
X4262180Y1383300D01*
X4260220Y1385240D01*
X4254740Y1389680D01*
X4248800Y1393540D01*
X4242500Y1396759D01*
X4235880Y1399280D01*
X4229060Y1401120D01*
X4222060Y1402220D01*
X4215000Y1402600D01*
X4207940Y1402220D01*
X4200940Y1401120D01*
X4194120Y1399280D01*
X4187500Y1396759D01*
X4181200Y1393540D01*
X4175260Y1389680D01*
X4169780Y1385240D01*
X4167820Y1383300D01*
X4166540Y1382420D01*
G37*

%LPD*%
G36*
X3580000Y1372120D02*
G01*
X3578460Y1372420D01*
X3577180Y1373300D01*
X3575220Y1375240D01*
X3569740Y1379680D01*
X3563800Y1383540D01*
X3557500Y1386759D01*
X3556100Y1387280D01*
X3554760Y1388140D01*
X3553860Y1389440D01*
X3553540Y1390980D01*
X3553820Y1392540D01*
X3554700Y1393839D01*
X3710380Y1549540D01*
X3712500Y1551780D01*
X3714440Y1554100D01*
X3716300Y1556639D01*
X3717360Y1557620D01*
X3718700Y1558180D01*
X3720140Y1558220D01*
X3722940Y1557780D01*
X3730000Y1557400D01*
X3737060Y1557780D01*
X3744060Y1558880D01*
X3750880Y1560720D01*
X3757500Y1563240D01*
X3763800Y1566459D01*
X3769740Y1570320D01*
X3775220Y1574760D01*
X3777180Y1576699D01*
X3778460Y1577580D01*
X3780000Y1577880D01*
X3781540Y1577580D01*
X3782820Y1576699D01*
X3784780Y1574760D01*
X3790260Y1570320D01*
X3796200Y1566459D01*
X3802500Y1563240D01*
X3809120Y1560720D01*
X3815940Y1558880D01*
X3822940Y1557780D01*
X3830000Y1557400D01*
X3837060Y1557780D01*
X3844060Y1558880D01*
X3850880Y1560720D01*
X3857500Y1563240D01*
X3863800Y1566459D01*
X3869740Y1570320D01*
X3875220Y1574760D01*
X3877180Y1576699D01*
X3878460Y1577580D01*
X3880000Y1577880D01*
X3881540Y1577580D01*
X3882820Y1576699D01*
X3884780Y1574760D01*
X3890260Y1570320D01*
X3896200Y1566459D01*
X3902500Y1563240D01*
X3909120Y1560720D01*
X3915940Y1558880D01*
X3922940Y1557780D01*
X3930000Y1557400D01*
X3937060Y1557780D01*
X3944060Y1558880D01*
X3944860Y1559100D01*
X3946320Y1559220D01*
X3947720Y1558800D01*
X3948880Y1557920D01*
X3949640Y1556660D01*
X3949900Y1555240D01*
X3949900Y1396600D01*
X3949600Y1395060D01*
X3948720Y1393779D01*
X3947440Y1392900D01*
X3945899Y1392600D01*
X3902640Y1392600D01*
X3897260Y1392240D01*
X3892120Y1391220D01*
X3887160Y1389540D01*
X3882460Y1387220D01*
X3878100Y1384319D01*
X3873820Y1380520D01*
X3872320Y1379680D01*
X3870600Y1379560D01*
X3869000Y1380160D01*
X3863800Y1383540D01*
X3857500Y1386759D01*
X3850880Y1389280D01*
X3844060Y1391120D01*
X3837060Y1392220D01*
X3830000Y1392600D01*
X3822940Y1392220D01*
X3815940Y1391120D01*
X3809120Y1389280D01*
X3802500Y1386759D01*
X3796200Y1383540D01*
X3790260Y1379680D01*
X3784780Y1375240D01*
X3782820Y1373300D01*
X3781540Y1372420D01*
X3780000Y1372120D01*
X3778460Y1372420D01*
X3777180Y1373300D01*
X3775220Y1375240D01*
X3769740Y1379680D01*
X3763800Y1383540D01*
X3757500Y1386759D01*
X3750880Y1389280D01*
X3744060Y1391120D01*
X3737060Y1392220D01*
X3730000Y1392600D01*
X3722940Y1392220D01*
X3715940Y1391120D01*
X3709120Y1389280D01*
X3702500Y1386759D01*
X3696200Y1383540D01*
X3690260Y1379680D01*
X3684780Y1375240D01*
X3682820Y1373300D01*
X3681540Y1372420D01*
X3680000Y1372120D01*
X3678460Y1372420D01*
X3677180Y1373300D01*
X3675220Y1375240D01*
X3669740Y1379680D01*
X3663800Y1383540D01*
X3657500Y1386759D01*
X3650880Y1389280D01*
X3644060Y1391120D01*
X3637060Y1392220D01*
X3630000Y1392600D01*
X3622940Y1392220D01*
X3615940Y1391120D01*
X3609120Y1389280D01*
X3602500Y1386759D01*
X3596200Y1383540D01*
X3590260Y1379680D01*
X3584780Y1375240D01*
X3582820Y1373300D01*
X3581540Y1372420D01*
G37*

%LPD*%
G36*
X2025340Y1265100D02*
G01*
X2023800Y1265400D01*
X2022500Y1266280D01*
X2021279Y1267500D01*
X2020400Y1268800D01*
X2020100Y1270340D01*
X2020100Y1292980D01*
X2020400Y1294520D01*
X2021279Y1295800D01*
X2022180Y1296699D01*
X2023460Y1297580D01*
X2025000Y1297880D01*
X2026540Y1297580D01*
X2027820Y1296699D01*
X2029780Y1294760D01*
X2035260Y1290320D01*
X2041200Y1286459D01*
X2047500Y1283240D01*
X2054120Y1280720D01*
X2060940Y1278880D01*
X2067940Y1277780D01*
X2075000Y1277400D01*
X2082060Y1277780D01*
X2089060Y1278880D01*
X2095880Y1280720D01*
X2102500Y1283240D01*
X2108800Y1286459D01*
X2114000Y1289840D01*
X2115600Y1290440D01*
X2117320Y1290320D01*
X2118820Y1289480D01*
X2123100Y1285680D01*
X2127460Y1282780D01*
X2132160Y1280460D01*
X2137120Y1278780D01*
X2142260Y1277760D01*
X2147640Y1277400D01*
X2202360Y1277400D01*
X2207740Y1277760D01*
X2212880Y1278780D01*
X2217840Y1280460D01*
X2222540Y1282780D01*
X2226900Y1285700D01*
X2230840Y1289160D01*
X2235200Y1294100D01*
X2236240Y1294720D01*
X2237400Y1294980D01*
X2241060Y1295280D01*
X2244040Y1295720D01*
X2246980Y1296360D01*
X2249900Y1297180D01*
X2252760Y1298160D01*
X2255560Y1299319D01*
X2258280Y1300640D01*
X2260920Y1302120D01*
X2263460Y1303760D01*
X2265900Y1305560D01*
X2268220Y1307500D01*
X2270460Y1309620D01*
X2314580Y1353720D01*
X2315880Y1354600D01*
X2317400Y1354900D01*
X2334940Y1354900D01*
X2338020Y1355000D01*
X2341040Y1355260D01*
X2344040Y1355720D01*
X2346980Y1356360D01*
X2349900Y1357180D01*
X2352760Y1358160D01*
X2355560Y1359319D01*
X2358280Y1360640D01*
X2360920Y1362120D01*
X2363460Y1363760D01*
X2365900Y1365560D01*
X2368220Y1367500D01*
X2370460Y1369620D01*
X2392840Y1391980D01*
X2394160Y1392860D01*
X2395720Y1393140D01*
X2397260Y1392820D01*
X2398560Y1391900D01*
X2399400Y1390560D01*
X2400780Y1386940D01*
X2404000Y1380480D01*
X2407880Y1374379D01*
X2412340Y1368720D01*
X2413260Y1367800D01*
X2414100Y1366500D01*
X2414400Y1365000D01*
X2414100Y1363500D01*
X2413260Y1362200D01*
X2412340Y1361279D01*
X2407880Y1355620D01*
X2404000Y1349520D01*
X2400780Y1343060D01*
X2398220Y1336320D01*
X2396380Y1329340D01*
X2395280Y1322200D01*
X2394900Y1315000D01*
X2395120Y1310780D01*
X2394860Y1309139D01*
X2393960Y1307740D01*
X2352500Y1266280D01*
X2351200Y1265400D01*
X2349660Y1265100D01*
G37*

%LPD*%
G36*
X479099Y1245100D02*
G01*
X477560Y1245400D01*
X476280Y1246280D01*
X475400Y1247560D01*
X475100Y1249100D01*
X475100Y1286300D01*
X475460Y1287960D01*
X476480Y1289340D01*
X477980Y1290140D01*
X479680Y1290260D01*
X481280Y1289660D01*
X486200Y1286459D01*
X492500Y1283240D01*
X499120Y1280720D01*
X505940Y1278880D01*
X512939Y1277780D01*
X520000Y1277400D01*
X527060Y1277780D01*
X534060Y1278880D01*
X540880Y1280720D01*
X547500Y1283240D01*
X553800Y1286459D01*
X559740Y1290320D01*
X565220Y1294760D01*
X567180Y1296699D01*
X568460Y1297580D01*
X570000Y1297880D01*
X571540Y1297580D01*
X572820Y1296699D01*
X574780Y1294760D01*
X580260Y1290320D01*
X586200Y1286459D01*
X592500Y1283240D01*
X599120Y1280720D01*
X605940Y1278880D01*
X612940Y1277780D01*
X620000Y1277400D01*
X627060Y1277780D01*
X634060Y1278880D01*
X640879Y1280720D01*
X647500Y1283240D01*
X653800Y1286459D01*
X659740Y1290320D01*
X665220Y1294760D01*
X667180Y1296699D01*
X668460Y1297580D01*
X670000Y1297880D01*
X671540Y1297580D01*
X672820Y1296699D01*
X674780Y1294760D01*
X680260Y1290320D01*
X686200Y1286459D01*
X692500Y1283240D01*
X699120Y1280720D01*
X705939Y1278880D01*
X712940Y1277780D01*
X720000Y1277400D01*
X727060Y1277780D01*
X734060Y1278880D01*
X740879Y1280720D01*
X747500Y1283240D01*
X753800Y1286459D01*
X759740Y1290320D01*
X765220Y1294760D01*
X767180Y1296699D01*
X768460Y1297580D01*
X770000Y1297880D01*
X771540Y1297580D01*
X772820Y1296699D01*
X774780Y1294760D01*
X780260Y1290320D01*
X786200Y1286459D01*
X792500Y1283240D01*
X799120Y1280720D01*
X805939Y1278880D01*
X812940Y1277780D01*
X820000Y1277400D01*
X827060Y1277780D01*
X834060Y1278880D01*
X840879Y1280720D01*
X847500Y1283240D01*
X853800Y1286459D01*
X859740Y1290320D01*
X865220Y1294760D01*
X867180Y1296699D01*
X868460Y1297580D01*
X870000Y1297880D01*
X871540Y1297580D01*
X872820Y1296699D01*
X874780Y1294760D01*
X880260Y1290320D01*
X886200Y1286459D01*
X892500Y1283240D01*
X899120Y1280720D01*
X905939Y1278880D01*
X912940Y1277780D01*
X920000Y1277400D01*
X927060Y1277780D01*
X934060Y1278880D01*
X940879Y1280720D01*
X947500Y1283240D01*
X953800Y1286459D01*
X959740Y1290320D01*
X965220Y1294760D01*
X967180Y1296699D01*
X968460Y1297580D01*
X970000Y1297880D01*
X971540Y1297580D01*
X972820Y1296699D01*
X974780Y1294760D01*
X980260Y1290320D01*
X986200Y1286459D01*
X992500Y1283240D01*
X999120Y1280720D01*
X1005939Y1278880D01*
X1012940Y1277780D01*
X1020000Y1277400D01*
X1027060Y1277780D01*
X1034060Y1278880D01*
X1040879Y1280720D01*
X1047500Y1283240D01*
X1053800Y1286459D01*
X1059740Y1290320D01*
X1065220Y1294760D01*
X1067180Y1296699D01*
X1068460Y1297580D01*
X1070000Y1297880D01*
X1071540Y1297580D01*
X1072820Y1296699D01*
X1074780Y1294760D01*
X1080260Y1290320D01*
X1086200Y1286459D01*
X1092500Y1283240D01*
X1099120Y1280720D01*
X1105940Y1278880D01*
X1112940Y1277780D01*
X1120000Y1277400D01*
X1127060Y1277780D01*
X1134060Y1278880D01*
X1140880Y1280720D01*
X1147500Y1283240D01*
X1153800Y1286459D01*
X1159000Y1289840D01*
X1160600Y1290440D01*
X1162320Y1290320D01*
X1163820Y1289480D01*
X1169080Y1284780D01*
X1169680Y1283640D01*
X1169900Y1282340D01*
X1169900Y1249100D01*
X1169600Y1247560D01*
X1168720Y1246280D01*
X1167440Y1245400D01*
X1165900Y1245100D01*
G37*

%LPD*%
G36*
X2972140Y1150100D02*
G01*
X2970400Y1150500D01*
X2964580Y1153280D01*
X2957020Y1155840D01*
X2956000Y1156740D01*
X2955340Y1157920D01*
X2955100Y1159260D01*
X2955100Y1239660D01*
X2955400Y1241200D01*
X2956280Y1242500D01*
X2996820Y1283040D01*
X2998080Y1283899D01*
X2999540Y1284220D01*
X3001019Y1283980D01*
X3002320Y1283200D01*
X3003240Y1282000D01*
X3004000Y1280480D01*
X3007880Y1274380D01*
X3012340Y1268720D01*
X3017380Y1263560D01*
X3022919Y1258940D01*
X3028920Y1254900D01*
X3035280Y1251520D01*
X3041980Y1248800D01*
X3048900Y1246780D01*
X3056000Y1245480D01*
X3063200Y1244920D01*
X3070400Y1245120D01*
X3077559Y1246040D01*
X3084600Y1247700D01*
X3091400Y1250060D01*
X3097940Y1253120D01*
X3104120Y1256840D01*
X3109900Y1261180D01*
X3115200Y1266080D01*
X3119960Y1271500D01*
X3124140Y1277380D01*
X3127700Y1283660D01*
X3130580Y1290280D01*
X3132780Y1297140D01*
X3134260Y1304220D01*
X3135000Y1311399D01*
X3135000Y1318600D01*
X3134260Y1325780D01*
X3132780Y1332860D01*
X3130580Y1339720D01*
X3127700Y1346339D01*
X3124140Y1352620D01*
X3119960Y1358500D01*
X3116580Y1362360D01*
X3115840Y1363580D01*
X3115580Y1365000D01*
X3115840Y1366420D01*
X3116580Y1367640D01*
X3119960Y1371500D01*
X3124140Y1377380D01*
X3127700Y1383660D01*
X3130580Y1390280D01*
X3132780Y1397140D01*
X3134260Y1404220D01*
X3135000Y1411399D01*
X3135000Y1418600D01*
X3134260Y1425780D01*
X3132780Y1432860D01*
X3130580Y1439720D01*
X3127700Y1446339D01*
X3124140Y1452620D01*
X3119960Y1458500D01*
X3116580Y1462360D01*
X3115840Y1463580D01*
X3115580Y1465000D01*
X3115840Y1466420D01*
X3116580Y1467640D01*
X3119380Y1470820D01*
X3120659Y1471800D01*
X3122240Y1472180D01*
X3123840Y1471900D01*
X3125200Y1471020D01*
X3147180Y1449040D01*
X3147880Y1448080D01*
X3148279Y1446940D01*
X3148320Y1445740D01*
X3148000Y1443080D01*
X3148000Y1436920D01*
X3148720Y1430780D01*
X3150179Y1424780D01*
X3152320Y1419000D01*
X3155140Y1413500D01*
X3158600Y1408380D01*
X3162620Y1403720D01*
X3167180Y1399540D01*
X3172200Y1395960D01*
X3177820Y1392840D01*
X3178920Y1391960D01*
X3179640Y1390740D01*
X3179900Y1389340D01*
X3179900Y1371800D01*
X3179680Y1370480D01*
X3179000Y1369300D01*
X3175320Y1364740D01*
X3171460Y1358800D01*
X3168240Y1352500D01*
X3165720Y1345880D01*
X3163880Y1339060D01*
X3162780Y1332060D01*
X3162400Y1325000D01*
X3162780Y1317940D01*
X3163880Y1310940D01*
X3165720Y1304120D01*
X3168240Y1297500D01*
X3171460Y1291200D01*
X3175320Y1285260D01*
X3179760Y1279780D01*
X3184780Y1274760D01*
X3190260Y1270320D01*
X3196200Y1266460D01*
X3202500Y1263240D01*
X3209120Y1260720D01*
X3215940Y1258880D01*
X3222940Y1257780D01*
X3230000Y1257400D01*
X3237060Y1257780D01*
X3244060Y1258880D01*
X3250880Y1260720D01*
X3257500Y1263240D01*
X3263800Y1266460D01*
X3269740Y1270320D01*
X3275220Y1274760D01*
X3277180Y1276700D01*
X3278460Y1277580D01*
X3280000Y1277880D01*
X3281540Y1277580D01*
X3282820Y1276700D01*
X3284780Y1274760D01*
X3290260Y1270320D01*
X3296200Y1266460D01*
X3302500Y1263240D01*
X3309120Y1260720D01*
X3315940Y1258880D01*
X3322940Y1257780D01*
X3330000Y1257400D01*
X3337060Y1257780D01*
X3344060Y1258880D01*
X3350880Y1260720D01*
X3357500Y1263240D01*
X3363800Y1266460D01*
X3369740Y1270320D01*
X3375220Y1274760D01*
X3377180Y1276700D01*
X3378460Y1277580D01*
X3380000Y1277880D01*
X3381540Y1277580D01*
X3382820Y1276700D01*
X3384780Y1274760D01*
X3390260Y1270320D01*
X3396200Y1266460D01*
X3402500Y1263240D01*
X3409120Y1260720D01*
X3415940Y1258880D01*
X3422940Y1257780D01*
X3430000Y1257400D01*
X3437060Y1257780D01*
X3444060Y1258880D01*
X3450880Y1260720D01*
X3457500Y1263240D01*
X3463800Y1266460D01*
X3469740Y1270320D01*
X3475220Y1274760D01*
X3477180Y1276700D01*
X3478460Y1277580D01*
X3480000Y1277880D01*
X3481540Y1277580D01*
X3482820Y1276700D01*
X3484780Y1274760D01*
X3490260Y1270320D01*
X3496200Y1266460D01*
X3502500Y1263240D01*
X3509120Y1260720D01*
X3515940Y1258880D01*
X3522940Y1257780D01*
X3530000Y1257400D01*
X3537060Y1257780D01*
X3544060Y1258880D01*
X3550880Y1260720D01*
X3557500Y1263240D01*
X3563800Y1266460D01*
X3569740Y1270320D01*
X3575220Y1274760D01*
X3577180Y1276700D01*
X3578460Y1277580D01*
X3580000Y1277880D01*
X3581540Y1277580D01*
X3582820Y1276700D01*
X3584780Y1274760D01*
X3590260Y1270320D01*
X3596200Y1266460D01*
X3602500Y1263240D01*
X3609120Y1260720D01*
X3615940Y1258880D01*
X3622940Y1257780D01*
X3630000Y1257400D01*
X3637060Y1257780D01*
X3644060Y1258880D01*
X3650880Y1260720D01*
X3657500Y1263240D01*
X3663800Y1266460D01*
X3669740Y1270320D01*
X3675220Y1274760D01*
X3677180Y1276700D01*
X3678460Y1277580D01*
X3680000Y1277880D01*
X3681540Y1277580D01*
X3682820Y1276700D01*
X3684780Y1274760D01*
X3690260Y1270320D01*
X3696200Y1266460D01*
X3702500Y1263240D01*
X3709120Y1260720D01*
X3715940Y1258880D01*
X3722940Y1257780D01*
X3730000Y1257400D01*
X3737060Y1257780D01*
X3744060Y1258880D01*
X3750880Y1260720D01*
X3757500Y1263240D01*
X3763800Y1266460D01*
X3769740Y1270320D01*
X3773380Y1273280D01*
X3774700Y1273980D01*
X3776180Y1274160D01*
X3777620Y1273780D01*
X3778820Y1272900D01*
X3779620Y1271620D01*
X3779900Y1270160D01*
X3779900Y1250120D01*
X3780280Y1243960D01*
X3781360Y1238020D01*
X3783159Y1232240D01*
X3785640Y1226720D01*
X3788780Y1221540D01*
X3792500Y1216780D01*
X3796780Y1212500D01*
X3801540Y1208780D01*
X3806720Y1205640D01*
X3812240Y1203160D01*
X3818020Y1201360D01*
X3823960Y1200280D01*
X3830120Y1199900D01*
X4006460Y1199900D01*
X4008000Y1199600D01*
X4009300Y1198720D01*
X4010160Y1197440D01*
X4010460Y1195900D01*
X4010160Y1194360D01*
X4009300Y1193080D01*
X3967500Y1151280D01*
X3966200Y1150400D01*
X3964660Y1150100D01*
G37*

%LPD*%
G36*
X1950340Y1130100D02*
G01*
X1948800Y1130400D01*
X1947500Y1131280D01*
X1921279Y1157500D01*
X1920400Y1158800D01*
X1920100Y1160340D01*
X1920100Y1292980D01*
X1920400Y1294520D01*
X1921279Y1295800D01*
X1922180Y1296699D01*
X1923460Y1297580D01*
X1925000Y1297880D01*
X1926540Y1297580D01*
X1927820Y1296699D01*
X1928720Y1295800D01*
X1929600Y1294520D01*
X1929900Y1292980D01*
X1929920Y1248640D01*
X1930260Y1244280D01*
X1930440Y1243000D01*
X1931339Y1238720D01*
X1931680Y1237480D01*
X1933580Y1232140D01*
X1936140Y1227100D01*
X1939319Y1222400D01*
X1942160Y1219080D01*
X1974079Y1187160D01*
X1977400Y1184320D01*
X1982100Y1181140D01*
X1987140Y1178580D01*
X1992480Y1176680D01*
X1993720Y1176340D01*
X1998000Y1175440D01*
X1999280Y1175260D01*
X2003640Y1174920D01*
X2371360Y1174920D01*
X2375720Y1175260D01*
X2377000Y1175440D01*
X2381280Y1176340D01*
X2382520Y1176680D01*
X2387860Y1178580D01*
X2392900Y1181140D01*
X2397600Y1184320D01*
X2400920Y1187160D01*
X2457740Y1243940D01*
X2459180Y1244880D01*
X2460860Y1245100D01*
X2463200Y1244920D01*
X2470400Y1245120D01*
X2477560Y1246040D01*
X2484600Y1247700D01*
X2491400Y1250060D01*
X2497940Y1253120D01*
X2504120Y1256840D01*
X2509900Y1261180D01*
X2515200Y1266080D01*
X2519960Y1271500D01*
X2524140Y1277380D01*
X2527700Y1283660D01*
X2530580Y1290280D01*
X2532780Y1297140D01*
X2534260Y1304220D01*
X2535000Y1311399D01*
X2535000Y1318600D01*
X2534260Y1325780D01*
X2532780Y1332860D01*
X2530580Y1339720D01*
X2527700Y1346339D01*
X2524140Y1352620D01*
X2519960Y1358500D01*
X2516580Y1362360D01*
X2515840Y1363580D01*
X2515580Y1365000D01*
X2515840Y1366420D01*
X2516580Y1367640D01*
X2519960Y1371500D01*
X2524140Y1377380D01*
X2527700Y1383660D01*
X2530580Y1390280D01*
X2532780Y1397140D01*
X2534260Y1404220D01*
X2535000Y1411399D01*
X2535000Y1418600D01*
X2534260Y1425780D01*
X2532780Y1432860D01*
X2530580Y1439720D01*
X2527700Y1446339D01*
X2524140Y1452620D01*
X2519960Y1458500D01*
X2516580Y1462360D01*
X2515840Y1463580D01*
X2515580Y1465000D01*
X2515840Y1466420D01*
X2516580Y1467640D01*
X2519960Y1471500D01*
X2524140Y1477380D01*
X2527700Y1483660D01*
X2530580Y1490280D01*
X2532780Y1497140D01*
X2534260Y1504220D01*
X2535000Y1511399D01*
X2535000Y1518600D01*
X2534260Y1525780D01*
X2532780Y1532860D01*
X2530580Y1539720D01*
X2527700Y1546339D01*
X2524140Y1552620D01*
X2519960Y1558500D01*
X2516580Y1562360D01*
X2515840Y1563580D01*
X2515580Y1565000D01*
X2515840Y1566420D01*
X2516580Y1567640D01*
X2519960Y1571500D01*
X2524140Y1577380D01*
X2527700Y1583660D01*
X2530580Y1590280D01*
X2532780Y1597140D01*
X2534260Y1604220D01*
X2535000Y1611399D01*
X2535000Y1618600D01*
X2534260Y1625780D01*
X2532780Y1632860D01*
X2530580Y1639720D01*
X2527700Y1646339D01*
X2524140Y1652620D01*
X2519960Y1658500D01*
X2516580Y1662360D01*
X2515840Y1663580D01*
X2515580Y1665000D01*
X2515840Y1666420D01*
X2516580Y1667640D01*
X2519960Y1671500D01*
X2524140Y1677380D01*
X2527700Y1683660D01*
X2530580Y1690280D01*
X2532780Y1697140D01*
X2534260Y1704220D01*
X2535000Y1711399D01*
X2535000Y1718600D01*
X2534260Y1725780D01*
X2532780Y1732860D01*
X2530580Y1739720D01*
X2527700Y1746339D01*
X2524140Y1752620D01*
X2519960Y1758500D01*
X2516580Y1762360D01*
X2515840Y1763580D01*
X2515580Y1765000D01*
X2515840Y1766420D01*
X2516580Y1767640D01*
X2519960Y1771500D01*
X2524140Y1777380D01*
X2527700Y1783660D01*
X2530580Y1790280D01*
X2532780Y1797140D01*
X2534260Y1804220D01*
X2535000Y1811399D01*
X2535000Y1818600D01*
X2534260Y1825780D01*
X2532780Y1832860D01*
X2530580Y1839720D01*
X2527700Y1846339D01*
X2524140Y1852620D01*
X2519960Y1858500D01*
X2516580Y1862360D01*
X2515840Y1863580D01*
X2515580Y1865000D01*
X2515840Y1866420D01*
X2516580Y1867640D01*
X2519960Y1871500D01*
X2524140Y1877380D01*
X2527700Y1883660D01*
X2530580Y1890280D01*
X2532780Y1897140D01*
X2534260Y1904220D01*
X2535000Y1911399D01*
X2535000Y1918600D01*
X2534260Y1925780D01*
X2532780Y1932860D01*
X2530580Y1939720D01*
X2527700Y1946339D01*
X2524140Y1952620D01*
X2519960Y1958500D01*
X2516580Y1962360D01*
X2515840Y1963580D01*
X2515580Y1965000D01*
X2515840Y1966420D01*
X2516580Y1967640D01*
X2517360Y1968540D01*
X2518720Y1969540D01*
X2520360Y1969900D01*
X2643500Y1969900D01*
X2645240Y1969500D01*
X2647080Y1968620D01*
X2651120Y1967080D01*
X2652360Y1966699D01*
X2656620Y1965680D01*
X2657880Y1965460D01*
X2662240Y1964980D01*
X2663519Y1964920D01*
X2667900Y1965000D01*
X2669180Y1965100D01*
X2673519Y1965720D01*
X2674780Y1965980D01*
X2679000Y1967120D01*
X2680220Y1967540D01*
X2684260Y1969220D01*
X2685419Y1969780D01*
X2689220Y1971960D01*
X2690299Y1972660D01*
X2694780Y1976120D01*
X2697919Y1979180D01*
X2698780Y1980120D01*
X2701520Y1983540D01*
X2702260Y1984600D01*
X2704560Y1988320D01*
X2705160Y1989460D01*
X2706960Y1993460D01*
X2707420Y1994660D01*
X2708700Y1998839D01*
X2709000Y2000100D01*
X2709760Y2004400D01*
X2709900Y2005700D01*
X2710100Y2010100D01*
X2710080Y2238080D01*
X2709740Y2242380D01*
X2709240Y2245220D01*
X2709320Y2246940D01*
X2710120Y2248480D01*
X2711500Y2249520D01*
X2713180Y2249900D01*
X2875460Y2249900D01*
X2877120Y2249540D01*
X2878480Y2248520D01*
X2882620Y2243720D01*
X2887180Y2239540D01*
X2892200Y2235960D01*
X2897600Y2232980D01*
X2903320Y2230660D01*
X2909280Y2229020D01*
X2915380Y2228120D01*
X2921540Y2227920D01*
X2927700Y2228480D01*
X2933740Y2229740D01*
X2939580Y2231720D01*
X2945160Y2234380D01*
X2950360Y2237680D01*
X2955160Y2241560D01*
X2959460Y2246000D01*
X2963200Y2250900D01*
X2966340Y2256220D01*
X2968840Y2261860D01*
X2970640Y2267760D01*
X2971720Y2273840D01*
X2972100Y2280000D01*
X2971720Y2286160D01*
X2970640Y2292240D01*
X2968840Y2298140D01*
X2966340Y2303780D01*
X2963200Y2309100D01*
X2962240Y2310360D01*
X2961580Y2311720D01*
X2961440Y2313220D01*
X2961880Y2314660D01*
X2962840Y2315840D01*
X2970160Y2319380D01*
X2975360Y2322680D01*
X2980160Y2326560D01*
X2984460Y2331000D01*
X2988200Y2335900D01*
X2991340Y2341220D01*
X2991960Y2342580D01*
X2992960Y2343980D01*
X2993960Y2344520D01*
X2993700Y2345180D01*
X2993840Y2346900D01*
X2995640Y2352760D01*
X2996720Y2358840D01*
X2997100Y2365000D01*
X2996720Y2371160D01*
X2995640Y2377240D01*
X2993840Y2383100D01*
X2993700Y2384820D01*
X2993960Y2385480D01*
X2992960Y2386020D01*
X2991960Y2387420D01*
X2991340Y2388780D01*
X2988200Y2394100D01*
X2984460Y2399000D01*
X2980160Y2403440D01*
X2975360Y2407320D01*
X2970160Y2410620D01*
X2966640Y2412280D01*
X2965419Y2413200D01*
X2964620Y2414500D01*
X2964360Y2416020D01*
X2964700Y2417520D01*
X2965580Y2418760D01*
X2966860Y2419600D01*
X2968360Y2419900D01*
X2991000Y2419900D01*
X2992520Y2419600D01*
X2993820Y2418720D01*
X2994700Y2417440D01*
X2995000Y2415900D01*
X2995000Y2411400D01*
X2995740Y2404220D01*
X2997220Y2397140D01*
X2999420Y2390240D01*
X2999580Y2388520D01*
X2999320Y2387820D01*
X3000320Y2387260D01*
X3001340Y2385880D01*
X3002300Y2383660D01*
X3005860Y2377380D01*
X3010040Y2371500D01*
X3013420Y2367640D01*
X3014160Y2366420D01*
X3014420Y2365000D01*
X3014160Y2363580D01*
X3013420Y2362360D01*
X3010040Y2358500D01*
X3005860Y2352620D01*
X3002300Y2346340D01*
X3001340Y2344120D01*
X3000320Y2342740D01*
X2999320Y2342180D01*
X2999580Y2341480D01*
X2999420Y2339760D01*
X2997220Y2332860D01*
X2995740Y2325780D01*
X2995000Y2318600D01*
X2995000Y2311400D01*
X2995740Y2304220D01*
X2997220Y2297140D01*
X2999420Y2290280D01*
X3002300Y2283660D01*
X3005860Y2277380D01*
X3010040Y2271500D01*
X3013420Y2267640D01*
X3014160Y2266420D01*
X3014420Y2265000D01*
X3014160Y2263580D01*
X3013420Y2262360D01*
X3010040Y2258500D01*
X3005860Y2252620D01*
X3002300Y2246340D01*
X2999420Y2239720D01*
X2997220Y2232860D01*
X2995740Y2225780D01*
X2995000Y2218600D01*
X2995000Y2211400D01*
X2995740Y2204220D01*
X2997220Y2197140D01*
X2999420Y2190280D01*
X3002300Y2183660D01*
X3005860Y2177380D01*
X3010040Y2171500D01*
X3013420Y2167640D01*
X3014160Y2166420D01*
X3014420Y2165000D01*
X3014160Y2163580D01*
X3013420Y2162360D01*
X3010040Y2158500D01*
X3005860Y2152620D01*
X3002300Y2146340D01*
X2999420Y2139720D01*
X2997220Y2132860D01*
X2995740Y2125780D01*
X2995000Y2118600D01*
X2995000Y2111400D01*
X2995740Y2104220D01*
X2997220Y2097140D01*
X2999420Y2090280D01*
X3002300Y2083660D01*
X3005860Y2077380D01*
X3010040Y2071500D01*
X3013420Y2067660D01*
X3014180Y2066380D01*
X3014400Y2064920D01*
X3014100Y2063460D01*
X3013279Y2062220D01*
X3012340Y2061279D01*
X3007880Y2055620D01*
X3004000Y2049520D01*
X3000779Y2043060D01*
X2998220Y2036320D01*
X2996380Y2029340D01*
X2995280Y2022200D01*
X2994900Y2015000D01*
X2995280Y2007800D01*
X2996380Y2000660D01*
X2998220Y1993680D01*
X3000779Y1986940D01*
X3004000Y1980480D01*
X3007880Y1974379D01*
X3012340Y1968720D01*
X3013260Y1967800D01*
X3014100Y1966500D01*
X3014400Y1965000D01*
X3014100Y1963500D01*
X3013260Y1962200D01*
X3012340Y1961279D01*
X3007880Y1955620D01*
X3004000Y1949520D01*
X3000779Y1943060D01*
X2998220Y1936320D01*
X2996380Y1929340D01*
X2995280Y1922200D01*
X2994900Y1915000D01*
X2995280Y1907800D01*
X2996380Y1900660D01*
X2998220Y1893680D01*
X3000779Y1886940D01*
X3004000Y1880480D01*
X3007880Y1874379D01*
X3012340Y1868720D01*
X3013260Y1867800D01*
X3014100Y1866500D01*
X3014400Y1865000D01*
X3014100Y1863500D01*
X3013260Y1862200D01*
X3012380Y1861300D01*
X3011080Y1860420D01*
X3009520Y1860100D01*
X2920059Y1860100D01*
X2917160Y1860000D01*
X2914340Y1859740D01*
X2911540Y1859300D01*
X2908780Y1858680D01*
X2906060Y1857900D01*
X2903399Y1856940D01*
X2900800Y1855800D01*
X2898279Y1854520D01*
X2895840Y1853080D01*
X2893500Y1851480D01*
X2891259Y1849740D01*
X2889120Y1847880D01*
X2887120Y1845880D01*
X2885260Y1843740D01*
X2883519Y1841500D01*
X2881920Y1839160D01*
X2880480Y1836720D01*
X2879200Y1834199D01*
X2878060Y1831600D01*
X2877100Y1828940D01*
X2876320Y1826220D01*
X2875700Y1823460D01*
X2875260Y1820660D01*
X2875000Y1817840D01*
X2874900Y1814940D01*
X2874900Y1565060D01*
X2875000Y1562160D01*
X2875260Y1559340D01*
X2875700Y1556540D01*
X2876320Y1553779D01*
X2877100Y1551060D01*
X2878060Y1548400D01*
X2879200Y1545800D01*
X2880480Y1543280D01*
X2881920Y1540840D01*
X2883519Y1538500D01*
X2885260Y1536260D01*
X2887120Y1534120D01*
X2889120Y1532120D01*
X2891259Y1530260D01*
X2893500Y1528520D01*
X2895840Y1526920D01*
X2898279Y1525480D01*
X2900800Y1524199D01*
X2903399Y1523060D01*
X2906060Y1522100D01*
X2908780Y1521320D01*
X2911540Y1520700D01*
X2914340Y1520260D01*
X2917160Y1520000D01*
X2920059Y1519900D01*
X2990940Y1519900D01*
X2992520Y1519580D01*
X2993840Y1518660D01*
X2994700Y1517280D01*
X2994940Y1515700D01*
X2994900Y1515000D01*
X2995120Y1510780D01*
X2994860Y1509139D01*
X2993960Y1507740D01*
X2812160Y1325920D01*
X2809320Y1322600D01*
X2806139Y1317900D01*
X2803580Y1312860D01*
X2801680Y1307520D01*
X2801340Y1306279D01*
X2800440Y1302000D01*
X2800260Y1300720D01*
X2799920Y1296360D01*
X2799900Y1135340D01*
X2799600Y1133800D01*
X2798720Y1132500D01*
X2797500Y1131280D01*
X2796200Y1130400D01*
X2794660Y1130100D01*
G37*

%LPD*%
G36*
X1828100Y1122720D02*
G01*
X1826380Y1122940D01*
X1824920Y1123860D01*
X1721279Y1227500D01*
X1720400Y1228800D01*
X1720100Y1230340D01*
X1720100Y1292980D01*
X1720400Y1294520D01*
X1721279Y1295800D01*
X1722180Y1296699D01*
X1723460Y1297580D01*
X1725000Y1297880D01*
X1726540Y1297580D01*
X1727820Y1296699D01*
X1729780Y1294760D01*
X1735260Y1290320D01*
X1741200Y1286459D01*
X1747500Y1283240D01*
X1754120Y1280720D01*
X1760940Y1278880D01*
X1767940Y1277780D01*
X1775000Y1277400D01*
X1782060Y1277780D01*
X1789060Y1278880D01*
X1795880Y1280720D01*
X1802500Y1283240D01*
X1808800Y1286459D01*
X1814740Y1290320D01*
X1820220Y1294760D01*
X1822180Y1296699D01*
X1823460Y1297580D01*
X1825000Y1297880D01*
X1826540Y1297580D01*
X1827820Y1296699D01*
X1828720Y1295800D01*
X1829600Y1294520D01*
X1829900Y1292980D01*
X1829920Y1138640D01*
X1830260Y1134280D01*
X1830440Y1133000D01*
X1831600Y1127760D01*
X1831680Y1126020D01*
X1831020Y1124420D01*
X1829760Y1123240D01*
G37*

%LPD*%
G36*
X4138540Y1085100D02*
G01*
X4137000Y1085400D01*
X4135700Y1086280D01*
X4134840Y1087560D01*
X4134540Y1089100D01*
X4134840Y1090640D01*
X4135700Y1091920D01*
X4310120Y1266340D01*
X4311520Y1267240D01*
X4313160Y1267500D01*
X4315000Y1267400D01*
X4322060Y1267780D01*
X4329060Y1268880D01*
X4335880Y1270720D01*
X4342500Y1273240D01*
X4348800Y1276460D01*
X4354740Y1280320D01*
X4360220Y1284760D01*
X4362180Y1286699D01*
X4363460Y1287580D01*
X4365000Y1287880D01*
X4366540Y1287580D01*
X4367820Y1286699D01*
X4369780Y1284760D01*
X4375260Y1280320D01*
X4381200Y1276460D01*
X4383900Y1275080D01*
X4385080Y1274160D01*
X4385840Y1272880D01*
X4386080Y1271400D01*
X4385760Y1269940D01*
X4384920Y1268700D01*
X4202500Y1086280D01*
X4201200Y1085400D01*
X4199660Y1085100D01*
G37*

%LPD*%
G36*
X1624100Y985100D02*
G01*
X1622560Y985400D01*
X1621279Y986280D01*
X1620400Y987560D01*
X1620100Y989100D01*
X1620100Y1292980D01*
X1620400Y1294520D01*
X1621279Y1295800D01*
X1622180Y1296699D01*
X1623460Y1297580D01*
X1625000Y1297880D01*
X1626540Y1297580D01*
X1627820Y1296699D01*
X1628720Y1295800D01*
X1629600Y1294520D01*
X1629900Y1292980D01*
X1629920Y1208640D01*
X1630260Y1204280D01*
X1630440Y1203000D01*
X1631339Y1198720D01*
X1631680Y1197480D01*
X1633580Y1192140D01*
X1636140Y1187100D01*
X1639319Y1182400D01*
X1642160Y1179080D01*
X1829300Y991919D01*
X1830160Y990639D01*
X1830460Y989100D01*
X1830160Y987560D01*
X1829300Y986280D01*
X1828000Y985400D01*
X1826459Y985100D01*
G37*

%LPD*%
G36*
X4577220Y915100D02*
G01*
X4575600Y915440D01*
X4574260Y916400D01*
X4573420Y917820D01*
X4573220Y919440D01*
X4573700Y921020D01*
X4574780Y922260D01*
X4582000Y927840D01*
X4589080Y934240D01*
X4595620Y941180D01*
X4601600Y948640D01*
X4606960Y956540D01*
X4611680Y964840D01*
X4615720Y973480D01*
X4619080Y982440D01*
X4621060Y989380D01*
X4621800Y990819D01*
X4623080Y991840D01*
X4624640Y992260D01*
X4626240Y992039D01*
X4627640Y991200D01*
X4628580Y989860D01*
X4628900Y988280D01*
X4628900Y984140D01*
X4629260Y978760D01*
X4630280Y973620D01*
X4631960Y968660D01*
X4634280Y963960D01*
X4637200Y959599D01*
X4640660Y955660D01*
X4644600Y952200D01*
X4648960Y949280D01*
X4653660Y946960D01*
X4658620Y945280D01*
X4663760Y944260D01*
X4669140Y943900D01*
X4730860Y943900D01*
X4736240Y944260D01*
X4741380Y945280D01*
X4746340Y946960D01*
X4751040Y949280D01*
X4755400Y952200D01*
X4759340Y955660D01*
X4762800Y959599D01*
X4765720Y963960D01*
X4768040Y968660D01*
X4769720Y973620D01*
X4770740Y978760D01*
X4771100Y984140D01*
X4771100Y1045860D01*
X4770740Y1051240D01*
X4769720Y1056380D01*
X4768040Y1061340D01*
X4765720Y1066040D01*
X4762800Y1070400D01*
X4759340Y1074340D01*
X4755400Y1077800D01*
X4751040Y1080720D01*
X4746340Y1083040D01*
X4741380Y1084720D01*
X4736240Y1085740D01*
X4730860Y1086100D01*
X4669140Y1086100D01*
X4663760Y1085740D01*
X4658620Y1084720D01*
X4653660Y1083040D01*
X4648960Y1080720D01*
X4644600Y1077800D01*
X4640660Y1074340D01*
X4637200Y1070400D01*
X4634280Y1066040D01*
X4631960Y1061340D01*
X4630280Y1056380D01*
X4629260Y1051240D01*
X4629200Y1050400D01*
X4628780Y1048860D01*
X4627800Y1047620D01*
X4626420Y1046840D01*
X4624840Y1046680D01*
X4623320Y1047140D01*
X4622100Y1048139D01*
X4621360Y1049560D01*
X4619080Y1057560D01*
X4615720Y1066500D01*
X4611680Y1075160D01*
X4606960Y1083460D01*
X4601600Y1091360D01*
X4595620Y1098820D01*
X4589080Y1105760D01*
X4582000Y1112160D01*
X4574420Y1118000D01*
X4566420Y1123200D01*
X4558020Y1127760D01*
X4549300Y1131620D01*
X4540300Y1134800D01*
X4531060Y1137240D01*
X4521660Y1138940D01*
X4512160Y1139880D01*
X4502620Y1140080D01*
X4493180Y1139500D01*
X4491600Y1139740D01*
X4490220Y1140560D01*
X4489300Y1141860D01*
X4488940Y1143420D01*
X4489220Y1145000D01*
X4490120Y1146340D01*
X4610120Y1266340D01*
X4611520Y1267240D01*
X4613160Y1267500D01*
X4615000Y1267400D01*
X4622060Y1267780D01*
X4629060Y1268880D01*
X4635880Y1270720D01*
X4642500Y1273240D01*
X4648800Y1276460D01*
X4654740Y1280320D01*
X4660220Y1284760D01*
X4662180Y1286699D01*
X4663460Y1287580D01*
X4665000Y1287880D01*
X4666540Y1287580D01*
X4667820Y1286699D01*
X4669780Y1284760D01*
X4675260Y1280320D01*
X4681200Y1276460D01*
X4687500Y1273240D01*
X4694120Y1270720D01*
X4700940Y1268880D01*
X4707940Y1267780D01*
X4715000Y1267400D01*
X4722060Y1267780D01*
X4729060Y1268880D01*
X4735880Y1270720D01*
X4742500Y1273240D01*
X4748800Y1276460D01*
X4754000Y1279840D01*
X4755600Y1280440D01*
X4757320Y1280320D01*
X4758820Y1279480D01*
X4763100Y1275680D01*
X4767460Y1272780D01*
X4772160Y1270460D01*
X4777120Y1268780D01*
X4782260Y1267760D01*
X4787640Y1267400D01*
X4842360Y1267400D01*
X4847740Y1267760D01*
X4852880Y1268780D01*
X4857840Y1270460D01*
X4862540Y1272780D01*
X4866900Y1275700D01*
X4870840Y1279160D01*
X4874300Y1283100D01*
X4877220Y1287460D01*
X4879540Y1292160D01*
X4881220Y1297120D01*
X4882240Y1302260D01*
X4882600Y1307640D01*
X4882600Y1362360D01*
X4882240Y1367740D01*
X4881220Y1372880D01*
X4879540Y1377840D01*
X4877220Y1382540D01*
X4874300Y1386900D01*
X4870840Y1390840D01*
X4866900Y1394300D01*
X4862540Y1397220D01*
X4857840Y1399540D01*
X4852880Y1401220D01*
X4847740Y1402240D01*
X4842360Y1402600D01*
X4814100Y1402600D01*
X4812560Y1402900D01*
X4811280Y1403779D01*
X4810400Y1405060D01*
X4810100Y1406600D01*
X4810100Y1563440D01*
X4810420Y1565020D01*
X4811340Y1566339D01*
X4812720Y1567200D01*
X4814300Y1567440D01*
X4815000Y1567400D01*
X4822060Y1567780D01*
X4829060Y1568880D01*
X4835880Y1570720D01*
X4842500Y1573240D01*
X4848800Y1576459D01*
X4854740Y1580320D01*
X4860220Y1584760D01*
X4865240Y1589780D01*
X4869680Y1595260D01*
X4873540Y1601200D01*
X4876760Y1607500D01*
X4879280Y1614120D01*
X4881120Y1620940D01*
X4882220Y1627940D01*
X4882600Y1635000D01*
X4882220Y1642060D01*
X4881120Y1649060D01*
X4879280Y1655880D01*
X4876760Y1662500D01*
X4873540Y1668800D01*
X4869680Y1674740D01*
X4866000Y1679300D01*
X4865320Y1680480D01*
X4865100Y1681800D01*
X4865100Y1954940D01*
X4865000Y1958020D01*
X4864740Y1961040D01*
X4864280Y1964040D01*
X4863640Y1966980D01*
X4862820Y1969900D01*
X4861840Y1972760D01*
X4860680Y1975560D01*
X4859360Y1978280D01*
X4857880Y1980920D01*
X4856240Y1983460D01*
X4854440Y1985900D01*
X4852500Y1988220D01*
X4850380Y1990460D01*
X4600840Y2240000D01*
X4597180Y2243340D01*
X4596320Y2244040D01*
X4593620Y2245920D01*
X4592800Y2246680D01*
X4588280Y2252260D01*
X4583260Y2257280D01*
X4577760Y2261740D01*
X4571820Y2265600D01*
X4565520Y2268800D01*
X4558900Y2271340D01*
X4552060Y2273180D01*
X4545080Y2274280D01*
X4538000Y2274660D01*
X4531700Y2274320D01*
X4530160Y2274540D01*
X4528800Y2275340D01*
X4527880Y2276600D01*
X4527500Y2278100D01*
X4527280Y2282080D01*
X4526180Y2289060D01*
X4524340Y2295900D01*
X4521800Y2302520D01*
X4518600Y2308820D01*
X4514740Y2314760D01*
X4510280Y2320260D01*
X4505260Y2325280D01*
X4499760Y2329740D01*
X4493820Y2333600D01*
X4487520Y2336800D01*
X4480900Y2339340D01*
X4474060Y2341180D01*
X4467080Y2342280D01*
X4460000Y2342660D01*
X4452920Y2342280D01*
X4445940Y2341180D01*
X4439100Y2339340D01*
X4432480Y2336800D01*
X4431640Y2336380D01*
X4430000Y2335940D01*
X4428320Y2336240D01*
X4426920Y2337200D01*
X4426040Y2338660D01*
X4424600Y2342900D01*
X4422280Y2347600D01*
X4419360Y2351960D01*
X4415900Y2355900D01*
X4411960Y2359360D01*
X4407600Y2362280D01*
X4402900Y2364600D01*
X4397940Y2366280D01*
X4392800Y2367300D01*
X4387420Y2367660D01*
X4332580Y2367660D01*
X4327200Y2367300D01*
X4322060Y2366280D01*
X4317100Y2364600D01*
X4312400Y2362280D01*
X4308040Y2359360D01*
X4304100Y2355900D01*
X4300640Y2351960D01*
X4297720Y2347600D01*
X4295400Y2342900D01*
X4293960Y2338660D01*
X4293080Y2337200D01*
X4291680Y2336240D01*
X4290000Y2335940D01*
X4288360Y2336380D01*
X4287520Y2336800D01*
X4280900Y2339340D01*
X4274060Y2341180D01*
X4267080Y2342280D01*
X4260000Y2342660D01*
X4252920Y2342280D01*
X4245940Y2341180D01*
X4239100Y2339340D01*
X4232480Y2336800D01*
X4226180Y2333600D01*
X4220240Y2329740D01*
X4214740Y2325280D01*
X4209720Y2320260D01*
X4205260Y2314760D01*
X4201400Y2308820D01*
X4198200Y2302520D01*
X4195660Y2295900D01*
X4193820Y2289060D01*
X4192720Y2282080D01*
X4192500Y2278100D01*
X4192120Y2276600D01*
X4191200Y2275340D01*
X4189840Y2274540D01*
X4188300Y2274320D01*
X4182000Y2274660D01*
X4174920Y2274280D01*
X4167940Y2273180D01*
X4161100Y2271340D01*
X4154480Y2268800D01*
X4148180Y2265600D01*
X4142240Y2261740D01*
X4136740Y2257280D01*
X4131720Y2252260D01*
X4127260Y2246760D01*
X4123399Y2240820D01*
X4120200Y2234520D01*
X4117660Y2227900D01*
X4115820Y2221060D01*
X4114720Y2214080D01*
X4114340Y2207000D01*
X4114720Y2199920D01*
X4115820Y2192940D01*
X4117660Y2186100D01*
X4120200Y2179480D01*
X4121160Y2177560D01*
X4121600Y2175960D01*
X4121340Y2174320D01*
X4120440Y2172920D01*
X4119040Y2172020D01*
X4118480Y2171800D01*
X4112180Y2168600D01*
X4106240Y2164740D01*
X4102620Y2161820D01*
X4101160Y2161060D01*
X4099500Y2160960D01*
X4097960Y2161560D01*
X4095440Y2163160D01*
X4093300Y2164340D01*
X4090040Y2165920D01*
X4087780Y2166840D01*
X4084360Y2168000D01*
X4082020Y2168640D01*
X4078480Y2169380D01*
X4076060Y2169740D01*
X4072460Y2170040D01*
X4070020Y2170100D01*
X4066420Y2169960D01*
X4063980Y2169740D01*
X4060419Y2169180D01*
X4058039Y2168640D01*
X4054560Y2167660D01*
X4052260Y2166860D01*
X4048920Y2165460D01*
X4046740Y2164360D01*
X4043600Y2162580D01*
X4041560Y2161240D01*
X4038660Y2159080D01*
X4036800Y2157520D01*
X4034140Y2155000D01*
X3989220Y2109100D01*
X3987520Y2107260D01*
X3985220Y2104480D01*
X3983780Y2102500D01*
X3981840Y2099460D01*
X3980800Y2097600D01*
X3979800Y2096399D01*
X3978399Y2095700D01*
X3976840Y2095560D01*
X3975360Y2096060D01*
X3974160Y2097060D01*
X3973460Y2098460D01*
X3947840Y2189840D01*
X3946240Y2194280D01*
X3945720Y2195500D01*
X3943580Y2199720D01*
X3942900Y2200860D01*
X3940280Y2204780D01*
X3939480Y2205840D01*
X3936420Y2209400D01*
X3930460Y2215380D01*
X3928220Y2217500D01*
X3925899Y2219440D01*
X3923460Y2221220D01*
X3920920Y2222880D01*
X3918279Y2224360D01*
X3915560Y2225680D01*
X3912760Y2226840D01*
X3909900Y2227820D01*
X3906980Y2228640D01*
X3904040Y2229280D01*
X3901040Y2229740D01*
X3898020Y2230000D01*
X3894940Y2230100D01*
X3828180Y2230100D01*
X3827220Y2230220D01*
X3826320Y2230560D01*
X3823720Y2231940D01*
X3817640Y2234300D01*
X3811340Y2235960D01*
X3804880Y2236880D01*
X3798360Y2237080D01*
X3791880Y2236520D01*
X3785480Y2235220D01*
X3779280Y2233200D01*
X3775520Y2231480D01*
X3773940Y2231120D01*
X3772340Y2231420D01*
X3771000Y2232320D01*
X3770120Y2233680D01*
X3769800Y2234520D01*
X3766600Y2240820D01*
X3762740Y2246760D01*
X3758279Y2252260D01*
X3753260Y2257280D01*
X3747760Y2261740D01*
X3741820Y2265600D01*
X3735520Y2268800D01*
X3728900Y2271340D01*
X3722060Y2273180D01*
X3715080Y2274280D01*
X3708000Y2274660D01*
X3701700Y2274320D01*
X3700160Y2274540D01*
X3698800Y2275340D01*
X3697880Y2276600D01*
X3697500Y2278100D01*
X3697280Y2282080D01*
X3696180Y2289060D01*
X3694340Y2295900D01*
X3691800Y2302520D01*
X3688600Y2308820D01*
X3684740Y2314760D01*
X3680280Y2320260D01*
X3675260Y2325280D01*
X3669760Y2329740D01*
X3663820Y2333600D01*
X3657520Y2336800D01*
X3650899Y2339340D01*
X3644060Y2341180D01*
X3637080Y2342280D01*
X3630000Y2342660D01*
X3622919Y2342280D01*
X3615940Y2341180D01*
X3609100Y2339340D01*
X3602480Y2336800D01*
X3601640Y2336380D01*
X3600000Y2335940D01*
X3598320Y2336240D01*
X3596920Y2337200D01*
X3596040Y2338660D01*
X3594600Y2342900D01*
X3592280Y2347600D01*
X3589360Y2351960D01*
X3585899Y2355900D01*
X3581960Y2359360D01*
X3577600Y2362280D01*
X3572900Y2364600D01*
X3567940Y2366280D01*
X3562799Y2367300D01*
X3557420Y2367660D01*
X3502580Y2367660D01*
X3497200Y2367300D01*
X3492060Y2366280D01*
X3487100Y2364600D01*
X3482400Y2362280D01*
X3478039Y2359360D01*
X3474100Y2355900D01*
X3470640Y2351960D01*
X3467720Y2347600D01*
X3465400Y2342900D01*
X3463960Y2338660D01*
X3463080Y2337200D01*
X3461680Y2336240D01*
X3460000Y2335940D01*
X3458360Y2336380D01*
X3457520Y2336800D01*
X3450899Y2339340D01*
X3444060Y2341180D01*
X3437080Y2342280D01*
X3430000Y2342660D01*
X3422919Y2342280D01*
X3415940Y2341180D01*
X3409100Y2339340D01*
X3402480Y2336800D01*
X3396180Y2333600D01*
X3390240Y2329740D01*
X3384740Y2325280D01*
X3379720Y2320260D01*
X3375260Y2314760D01*
X3371400Y2308820D01*
X3368200Y2302520D01*
X3365659Y2295900D01*
X3363820Y2289060D01*
X3362720Y2282080D01*
X3362500Y2278100D01*
X3362120Y2276600D01*
X3361200Y2275340D01*
X3359840Y2274540D01*
X3358300Y2274320D01*
X3352000Y2274660D01*
X3344920Y2274280D01*
X3337940Y2273180D01*
X3331100Y2271340D01*
X3324480Y2268800D01*
X3318180Y2265600D01*
X3312240Y2261740D01*
X3306740Y2257280D01*
X3301720Y2252260D01*
X3297260Y2246760D01*
X3293399Y2240820D01*
X3290200Y2234520D01*
X3287660Y2227900D01*
X3285820Y2221060D01*
X3284720Y2214080D01*
X3284340Y2207000D01*
X3284720Y2199920D01*
X3285820Y2192940D01*
X3287660Y2186100D01*
X3290200Y2179480D01*
X3291160Y2177560D01*
X3291600Y2175960D01*
X3291340Y2174320D01*
X3290440Y2172920D01*
X3289040Y2172020D01*
X3288480Y2171800D01*
X3282180Y2168600D01*
X3276240Y2164740D01*
X3270740Y2160280D01*
X3265720Y2155260D01*
X3261259Y2149760D01*
X3257400Y2143820D01*
X3254200Y2137520D01*
X3251660Y2130900D01*
X3249820Y2124060D01*
X3248720Y2117080D01*
X3248340Y2110000D01*
X3248720Y2102920D01*
X3249820Y2095940D01*
X3251660Y2089100D01*
X3254200Y2082480D01*
X3257400Y2076180D01*
X3261259Y2070240D01*
X3265720Y2064740D01*
X3270740Y2059720D01*
X3275500Y2055860D01*
X3276480Y2054660D01*
X3276960Y2053180D01*
X3276800Y2051620D01*
X3276080Y2050240D01*
X3273260Y2046759D01*
X3269400Y2040820D01*
X3266200Y2034520D01*
X3263660Y2027900D01*
X3261820Y2021060D01*
X3260720Y2014079D01*
X3260340Y2007000D01*
X3260720Y1999920D01*
X3261820Y1992940D01*
X3263660Y1986100D01*
X3266200Y1979480D01*
X3269400Y1973180D01*
X3273260Y1967240D01*
X3277720Y1961740D01*
X3278720Y1960720D01*
X3279600Y1959420D01*
X3279900Y1957900D01*
X3279900Y1831980D01*
X3279540Y1830320D01*
X3278500Y1828940D01*
X3276980Y1828140D01*
X3275260Y1828040D01*
X3273660Y1828680D01*
X3136160Y1921420D01*
X3134960Y1922660D01*
X3134420Y1924319D01*
X3134260Y1925780D01*
X3132780Y1932860D01*
X3130580Y1939720D01*
X3127700Y1946339D01*
X3124140Y1952620D01*
X3119960Y1958500D01*
X3116580Y1962360D01*
X3115840Y1963580D01*
X3115580Y1965000D01*
X3115840Y1966420D01*
X3116580Y1967640D01*
X3119960Y1971500D01*
X3124140Y1977380D01*
X3127700Y1983660D01*
X3130580Y1990280D01*
X3132780Y1997140D01*
X3134260Y2004220D01*
X3135000Y2011399D01*
X3135000Y2018600D01*
X3134260Y2025780D01*
X3132780Y2032860D01*
X3130580Y2039720D01*
X3127700Y2046339D01*
X3124140Y2052620D01*
X3119960Y2058500D01*
X3116580Y2062340D01*
X3115820Y2063620D01*
X3115600Y2065080D01*
X3115899Y2066540D01*
X3116720Y2067780D01*
X3117660Y2068720D01*
X3122120Y2074379D01*
X3126000Y2080480D01*
X3129220Y2086940D01*
X3131780Y2093680D01*
X3133620Y2100660D01*
X3134720Y2107800D01*
X3135100Y2115000D01*
X3134720Y2122200D01*
X3133620Y2129340D01*
X3131780Y2136320D01*
X3129220Y2143060D01*
X3126000Y2149520D01*
X3122120Y2155620D01*
X3117660Y2161280D01*
X3116740Y2162200D01*
X3115899Y2163500D01*
X3115600Y2165000D01*
X3115899Y2166500D01*
X3116740Y2167800D01*
X3117660Y2168720D01*
X3122120Y2174380D01*
X3126000Y2180480D01*
X3129220Y2186940D01*
X3131780Y2193680D01*
X3133620Y2200660D01*
X3134720Y2207800D01*
X3135100Y2215000D01*
X3134720Y2222200D01*
X3133620Y2229340D01*
X3131780Y2236320D01*
X3129220Y2243060D01*
X3126000Y2249520D01*
X3122120Y2255620D01*
X3117660Y2261280D01*
X3116740Y2262200D01*
X3115899Y2263500D01*
X3115600Y2265000D01*
X3115899Y2266500D01*
X3116740Y2267800D01*
X3117660Y2268720D01*
X3122120Y2274380D01*
X3126000Y2280480D01*
X3129220Y2286940D01*
X3131780Y2293680D01*
X3133620Y2300660D01*
X3134720Y2307800D01*
X3135100Y2315000D01*
X3134720Y2322200D01*
X3133620Y2329340D01*
X3131780Y2336320D01*
X3129220Y2343060D01*
X3126000Y2349520D01*
X3122120Y2355620D01*
X3117660Y2361280D01*
X3116740Y2362200D01*
X3115899Y2363500D01*
X3115600Y2365000D01*
X3115899Y2366500D01*
X3116740Y2367800D01*
X3117660Y2368720D01*
X3122120Y2374380D01*
X3126000Y2380480D01*
X3129220Y2386940D01*
X3131780Y2393680D01*
X3133620Y2400660D01*
X3134720Y2407800D01*
X3135100Y2415000D01*
X3134720Y2422200D01*
X3133620Y2429340D01*
X3131780Y2436320D01*
X3129220Y2443060D01*
X3126000Y2449520D01*
X3122120Y2455620D01*
X3117660Y2461280D01*
X3116740Y2462200D01*
X3115899Y2463500D01*
X3115600Y2465000D01*
X3115899Y2466500D01*
X3116740Y2467800D01*
X3117660Y2468720D01*
X3122120Y2474380D01*
X3126000Y2480480D01*
X3129220Y2486940D01*
X3131780Y2493680D01*
X3133620Y2500660D01*
X3134720Y2507800D01*
X3135100Y2515000D01*
X3134720Y2522200D01*
X3133620Y2529340D01*
X3131780Y2536320D01*
X3129220Y2543060D01*
X3126000Y2549520D01*
X3122120Y2555620D01*
X3117660Y2561280D01*
X3116740Y2562200D01*
X3115899Y2563500D01*
X3115600Y2565000D01*
X3115899Y2566500D01*
X3116740Y2567799D01*
X3117660Y2568720D01*
X3122120Y2574380D01*
X3126000Y2580480D01*
X3129220Y2586940D01*
X3131780Y2593680D01*
X3133620Y2600659D01*
X3134720Y2607799D01*
X3135100Y2615000D01*
X3134720Y2622200D01*
X3133620Y2629340D01*
X3131780Y2636320D01*
X3129220Y2643060D01*
X3126000Y2649520D01*
X3122120Y2655620D01*
X3117660Y2661280D01*
X3116740Y2662200D01*
X3115899Y2663500D01*
X3115600Y2665000D01*
X3115899Y2666500D01*
X3116740Y2667799D01*
X3117660Y2668720D01*
X3122120Y2674380D01*
X3126000Y2680480D01*
X3129220Y2686940D01*
X3131780Y2693680D01*
X3133620Y2700659D01*
X3134720Y2707799D01*
X3135100Y2715000D01*
X3134720Y2722200D01*
X3133620Y2729340D01*
X3131780Y2736320D01*
X3129220Y2743060D01*
X3126000Y2749520D01*
X3122120Y2755620D01*
X3117660Y2761280D01*
X3112620Y2766440D01*
X3107080Y2771060D01*
X3101080Y2775100D01*
X3094720Y2778480D01*
X3088020Y2781200D01*
X3081100Y2783220D01*
X3074000Y2784520D01*
X3066800Y2785080D01*
X3059600Y2784880D01*
X3052440Y2783960D01*
X3045400Y2782300D01*
X3038600Y2779940D01*
X3032060Y2776880D01*
X3025880Y2773159D01*
X3020100Y2768820D01*
X3014800Y2763920D01*
X3010040Y2758500D01*
X3005860Y2752620D01*
X3002300Y2746340D01*
X2999420Y2739720D01*
X2997220Y2732860D01*
X2995740Y2725779D01*
X2995000Y2718600D01*
X2995000Y2711400D01*
X2995740Y2704220D01*
X2997220Y2697140D01*
X2999420Y2690280D01*
X3002300Y2683660D01*
X3005860Y2677380D01*
X3010040Y2671500D01*
X3013420Y2667640D01*
X3014160Y2666420D01*
X3014420Y2665000D01*
X3014160Y2663580D01*
X3013420Y2662360D01*
X3010040Y2658500D01*
X3005860Y2652620D01*
X3002300Y2646340D01*
X2999420Y2639720D01*
X2997220Y2632860D01*
X2995740Y2625779D01*
X2995000Y2618600D01*
X2995000Y2611400D01*
X2995740Y2604220D01*
X2997220Y2597140D01*
X2999420Y2590280D01*
X3002300Y2583660D01*
X3005860Y2577380D01*
X3010040Y2571500D01*
X3013420Y2567640D01*
X3014160Y2566420D01*
X3014420Y2565000D01*
X3014160Y2563580D01*
X3013420Y2562360D01*
X3010040Y2558500D01*
X3005860Y2552620D01*
X3002300Y2546340D01*
X2999420Y2539720D01*
X2997220Y2532860D01*
X2995740Y2525780D01*
X2995000Y2518600D01*
X2995000Y2514100D01*
X2994700Y2512560D01*
X2993820Y2511280D01*
X2992520Y2510400D01*
X2991000Y2510100D01*
X2539000Y2510100D01*
X2537480Y2510400D01*
X2536180Y2511280D01*
X2535300Y2512560D01*
X2535000Y2514100D01*
X2535000Y2518600D01*
X2534260Y2525780D01*
X2532780Y2532860D01*
X2530580Y2539720D01*
X2527700Y2546340D01*
X2524140Y2552620D01*
X2519960Y2558500D01*
X2516580Y2562360D01*
X2515840Y2563580D01*
X2515580Y2565000D01*
X2515840Y2566420D01*
X2516580Y2567640D01*
X2517360Y2568540D01*
X2518720Y2569540D01*
X2520360Y2569900D01*
X2813060Y2569900D01*
X2814060Y2569780D01*
X2815000Y2569400D01*
X2817600Y2567980D01*
X2823320Y2565659D01*
X2829280Y2564020D01*
X2835380Y2563120D01*
X2841540Y2562919D01*
X2847700Y2563480D01*
X2853740Y2564740D01*
X2859580Y2566720D01*
X2865160Y2569380D01*
X2870360Y2572679D01*
X2875160Y2576560D01*
X2879460Y2581000D01*
X2883200Y2585899D01*
X2886340Y2591220D01*
X2888840Y2596860D01*
X2890640Y2602760D01*
X2891720Y2608840D01*
X2892100Y2615000D01*
X2891720Y2621160D01*
X2890640Y2627240D01*
X2888840Y2633140D01*
X2886340Y2638780D01*
X2883200Y2644100D01*
X2879460Y2649000D01*
X2875160Y2653440D01*
X2870360Y2657320D01*
X2865160Y2660620D01*
X2859580Y2663279D01*
X2853740Y2665260D01*
X2847700Y2666520D01*
X2841540Y2667080D01*
X2835380Y2666880D01*
X2829280Y2665980D01*
X2823320Y2664340D01*
X2817600Y2662020D01*
X2815000Y2660600D01*
X2814060Y2660220D01*
X2813060Y2660100D01*
X2520360Y2660100D01*
X2518720Y2660460D01*
X2517360Y2661460D01*
X2516580Y2662360D01*
X2515840Y2663580D01*
X2515580Y2665000D01*
X2515840Y2666420D01*
X2516580Y2667640D01*
X2519960Y2671500D01*
X2524140Y2677380D01*
X2527700Y2683660D01*
X2530580Y2690280D01*
X2532780Y2697140D01*
X2534260Y2704220D01*
X2535000Y2711400D01*
X2535000Y2718600D01*
X2534260Y2725779D01*
X2532780Y2732860D01*
X2530580Y2739720D01*
X2527700Y2746340D01*
X2524140Y2752620D01*
X2519960Y2758500D01*
X2515200Y2763920D01*
X2509900Y2768820D01*
X2504120Y2773159D01*
X2497940Y2776880D01*
X2491400Y2779940D01*
X2484600Y2782300D01*
X2477560Y2783960D01*
X2470400Y2784880D01*
X2463200Y2785080D01*
X2456000Y2784520D01*
X2448900Y2783220D01*
X2441980Y2781200D01*
X2435280Y2778480D01*
X2428920Y2775100D01*
X2422920Y2771060D01*
X2417380Y2766440D01*
X2412340Y2761280D01*
X2407880Y2755620D01*
X2404000Y2749520D01*
X2400780Y2743060D01*
X2398220Y2736320D01*
X2396380Y2729340D01*
X2395280Y2722200D01*
X2394900Y2715000D01*
X2395280Y2707799D01*
X2396380Y2700659D01*
X2398220Y2693680D01*
X2400780Y2686940D01*
X2404000Y2680480D01*
X2407880Y2674380D01*
X2412340Y2668720D01*
X2413260Y2667799D01*
X2414100Y2666500D01*
X2414400Y2665000D01*
X2414100Y2663500D01*
X2413260Y2662200D01*
X2412340Y2661280D01*
X2407880Y2655620D01*
X2404000Y2649520D01*
X2400780Y2643060D01*
X2398220Y2636320D01*
X2396380Y2629340D01*
X2395280Y2622200D01*
X2394900Y2615000D01*
X2395280Y2607799D01*
X2396380Y2600659D01*
X2398220Y2593680D01*
X2400780Y2586940D01*
X2404000Y2580480D01*
X2407880Y2574380D01*
X2412340Y2568720D01*
X2413260Y2567799D01*
X2414100Y2566500D01*
X2414400Y2565000D01*
X2414100Y2563500D01*
X2413260Y2562200D01*
X2412340Y2561280D01*
X2407880Y2555620D01*
X2404000Y2549520D01*
X2400780Y2543060D01*
X2398220Y2536320D01*
X2396380Y2529340D01*
X2395980Y2526780D01*
X2395360Y2525160D01*
X2394080Y2523960D01*
X2392420Y2523420D01*
X2390680Y2523640D01*
X2389200Y2524580D01*
X2341280Y2572500D01*
X2340400Y2573800D01*
X2340100Y2575340D01*
X2340100Y2989660D01*
X2340400Y2991200D01*
X2341280Y2992500D01*
X2362500Y3013720D01*
X2363800Y3014600D01*
X2365340Y3014900D01*
X3194660Y3014900D01*
X3196200Y3014600D01*
X3197500Y3013720D01*
X3302520Y2908700D01*
X3303279Y2907620D01*
X3305179Y2899780D01*
X3307320Y2894000D01*
X3310140Y2888500D01*
X3313600Y2883380D01*
X3317620Y2878720D01*
X3322180Y2874540D01*
X3327200Y2870960D01*
X3332600Y2867980D01*
X3338320Y2865659D01*
X3344280Y2864020D01*
X3350380Y2863120D01*
X3356540Y2862919D01*
X3362700Y2863480D01*
X3368740Y2864740D01*
X3374580Y2866720D01*
X3380160Y2869380D01*
X3385360Y2872679D01*
X3390160Y2876560D01*
X3394460Y2881000D01*
X3398200Y2885899D01*
X3401340Y2891220D01*
X3403840Y2896860D01*
X3405640Y2902760D01*
X3406720Y2908840D01*
X3407100Y2915000D01*
X3406720Y2921160D01*
X3405640Y2927240D01*
X3403840Y2933140D01*
X3401340Y2938780D01*
X3398200Y2944100D01*
X3394460Y2949000D01*
X3390160Y2953440D01*
X3385360Y2957320D01*
X3380160Y2960620D01*
X3376980Y2962140D01*
X3375860Y2962919D01*
X3245720Y3093020D01*
X3244820Y3094300D01*
X3244480Y3095840D01*
X3244780Y3097400D01*
X3245640Y3098700D01*
X3246940Y3099580D01*
X3248480Y3099900D01*
X4787920Y3099900D01*
X4789560Y3099560D01*
X4790900Y3098560D01*
X4791720Y3097120D01*
X4791900Y3095460D01*
X4791360Y3093860D01*
X4790220Y3092640D01*
X4786740Y3090160D01*
X4779400Y3084040D01*
X4772580Y3077360D01*
X4766320Y3070140D01*
X4760640Y3062460D01*
X4755600Y3054360D01*
X4751220Y3045880D01*
X4747520Y3037080D01*
X4744520Y3028000D01*
X4742260Y3018720D01*
X4740760Y3009300D01*
X4740000Y2999780D01*
X4740000Y2990220D01*
X4740760Y2980700D01*
X4742260Y2971280D01*
X4744520Y2962000D01*
X4747520Y2952919D01*
X4751220Y2944120D01*
X4755600Y2935640D01*
X4760640Y2927540D01*
X4766320Y2919860D01*
X4772580Y2912640D01*
X4779400Y2905960D01*
X4786740Y2899840D01*
X4794520Y2894320D01*
X4802720Y2889440D01*
X4811300Y2885220D01*
X4820180Y2881700D01*
X4829300Y2878900D01*
X4838620Y2876820D01*
X4848080Y2875500D01*
X4857620Y2874920D01*
X4867160Y2875120D01*
X4876660Y2876060D01*
X4886060Y2877760D01*
X4895300Y2880200D01*
X4904300Y2883380D01*
X4913020Y2887240D01*
X4921420Y2891800D01*
X4929420Y2897000D01*
X4937000Y2902840D01*
X4944080Y2909240D01*
X4950620Y2916180D01*
X4956600Y2923639D01*
X4961960Y2931540D01*
X4966680Y2939840D01*
X4970720Y2948480D01*
X4974080Y2957440D01*
X4976700Y2966620D01*
X4978580Y2975980D01*
X4979720Y2985460D01*
X4980100Y2995000D01*
X4979720Y3004540D01*
X4978580Y3014020D01*
X4976700Y3023380D01*
X4974080Y3032559D01*
X4970720Y3041500D01*
X4966680Y3050160D01*
X4961960Y3058460D01*
X4956600Y3066360D01*
X4950620Y3073820D01*
X4944080Y3080760D01*
X4937000Y3087160D01*
X4929780Y3092740D01*
X4928700Y3093980D01*
X4928220Y3095560D01*
X4928420Y3097180D01*
X4929260Y3098600D01*
X4930600Y3099560D01*
X4932220Y3099900D01*
X4985900Y3099900D01*
X4987440Y3099600D01*
X4988720Y3098720D01*
X4989600Y3097440D01*
X4989900Y3095899D01*
X4989900Y919100D01*
X4989600Y917560D01*
X4988720Y916280D01*
X4987440Y915400D01*
X4985900Y915100D01*
G37*

%LPC*%
G36*
X3229560Y2552900D02*
G01*
X3237120Y2553280D01*
X3244600Y2554380D01*
X3251940Y2556220D01*
X3259080Y2558780D01*
X3265899Y2562000D01*
X3272400Y2565899D01*
X3278480Y2570400D01*
X3284080Y2575480D01*
X3289160Y2581100D01*
X3293660Y2587160D01*
X3297559Y2593660D01*
X3300800Y2600500D01*
X3303340Y2607620D01*
X3305179Y2614960D01*
X3306300Y2622440D01*
X3306660Y2630000D01*
X3306300Y2637559D01*
X3305179Y2645040D01*
X3303340Y2652380D01*
X3300800Y2659500D01*
X3297559Y2666340D01*
X3293660Y2672840D01*
X3289160Y2678900D01*
X3284080Y2684520D01*
X3278480Y2689600D01*
X3272400Y2694100D01*
X3265899Y2698000D01*
X3259080Y2701220D01*
X3251940Y2703780D01*
X3244600Y2705620D01*
X3237120Y2706720D01*
X3229560Y2707100D01*
X3222020Y2706720D01*
X3214520Y2705620D01*
X3207180Y2703780D01*
X3200059Y2701220D01*
X3193220Y2698000D01*
X3186740Y2694100D01*
X3180659Y2689600D01*
X3175059Y2684520D01*
X3169980Y2678900D01*
X3165460Y2672840D01*
X3161580Y2666340D01*
X3158340Y2659500D01*
X3155800Y2652380D01*
X3153960Y2645040D01*
X3152840Y2637559D01*
X3152480Y2630000D01*
X3152840Y2622440D01*
X3153960Y2614960D01*
X3155800Y2607620D01*
X3158340Y2600500D01*
X3161580Y2593660D01*
X3165460Y2587160D01*
X3169980Y2581100D01*
X3175059Y2575480D01*
X3180659Y2570400D01*
X3186740Y2565899D01*
X3193220Y2562000D01*
X3200059Y2558780D01*
X3207180Y2556220D01*
X3214520Y2554380D01*
X3222020Y2553280D01*
G37*
G36*
X4670440Y2542900D02*
G01*
X4677980Y2543280D01*
X4685480Y2544380D01*
X4692820Y2546220D01*
X4699940Y2548780D01*
X4706780Y2552000D01*
X4713260Y2555900D01*
X4719340Y2560400D01*
X4724940Y2565480D01*
X4730020Y2571100D01*
X4734540Y2577160D01*
X4738420Y2583660D01*
X4741660Y2590500D01*
X4744200Y2597620D01*
X4746040Y2604960D01*
X4747160Y2612440D01*
X4747520Y2620000D01*
X4747160Y2627559D01*
X4746040Y2635040D01*
X4744200Y2642380D01*
X4741660Y2649500D01*
X4738420Y2656340D01*
X4734540Y2662840D01*
X4730020Y2668900D01*
X4724940Y2674520D01*
X4719340Y2679600D01*
X4713260Y2684100D01*
X4706780Y2688000D01*
X4699940Y2691220D01*
X4692820Y2693780D01*
X4685480Y2695620D01*
X4677980Y2696720D01*
X4670440Y2697100D01*
X4662880Y2696720D01*
X4655400Y2695620D01*
X4648060Y2693780D01*
X4640940Y2691220D01*
X4634100Y2688000D01*
X4627600Y2684100D01*
X4621520Y2679600D01*
X4615920Y2674520D01*
X4610840Y2668900D01*
X4606340Y2662840D01*
X4602440Y2656340D01*
X4599200Y2649500D01*
X4596660Y2642380D01*
X4594820Y2635040D01*
X4593700Y2627559D01*
X4593340Y2620000D01*
X4593700Y2612440D01*
X4594820Y2604960D01*
X4596660Y2597620D01*
X4599200Y2590500D01*
X4602440Y2583660D01*
X4606340Y2577160D01*
X4610840Y2571100D01*
X4615920Y2565480D01*
X4621520Y2560400D01*
X4627600Y2555900D01*
X4634100Y2552000D01*
X4640940Y2548780D01*
X4648060Y2546220D01*
X4655400Y2544380D01*
X4662880Y2543280D01*
G37*
G36*
X4099560Y2542900D02*
G01*
X4107120Y2543280D01*
X4114600Y2544380D01*
X4121940Y2546220D01*
X4129080Y2548780D01*
X4135899Y2552000D01*
X4142400Y2555900D01*
X4148480Y2560400D01*
X4154080Y2565480D01*
X4159160Y2571100D01*
X4163660Y2577160D01*
X4167559Y2583660D01*
X4170800Y2590500D01*
X4173340Y2597620D01*
X4175179Y2604960D01*
X4176300Y2612440D01*
X4176660Y2620000D01*
X4176300Y2627559D01*
X4175179Y2635040D01*
X4173340Y2642380D01*
X4170800Y2649500D01*
X4167559Y2656340D01*
X4163660Y2662840D01*
X4159160Y2668900D01*
X4154080Y2674520D01*
X4148480Y2679600D01*
X4142400Y2684100D01*
X4135899Y2688000D01*
X4129080Y2691220D01*
X4121940Y2693780D01*
X4114600Y2695620D01*
X4107120Y2696720D01*
X4099560Y2697100D01*
X4092020Y2696720D01*
X4084520Y2695620D01*
X4077180Y2693780D01*
X4070059Y2691220D01*
X4063220Y2688000D01*
X4056740Y2684100D01*
X4050659Y2679600D01*
X4045059Y2674520D01*
X4039980Y2668900D01*
X4035460Y2662840D01*
X4031580Y2656340D01*
X4028340Y2649500D01*
X4025800Y2642380D01*
X4023960Y2635040D01*
X4022840Y2627559D01*
X4022480Y2620000D01*
X4022840Y2612440D01*
X4023960Y2604960D01*
X4025800Y2597620D01*
X4028340Y2590500D01*
X4031580Y2583660D01*
X4035460Y2577160D01*
X4039980Y2571100D01*
X4045059Y2565480D01*
X4050659Y2560400D01*
X4056740Y2555900D01*
X4063220Y2552000D01*
X4070059Y2548780D01*
X4077180Y2546220D01*
X4084520Y2544380D01*
X4092020Y2543280D01*
G37*
G36*
X3800440Y2552900D02*
G01*
X3807980Y2553280D01*
X3815480Y2554380D01*
X3822820Y2556220D01*
X3829940Y2558780D01*
X3836780Y2562000D01*
X3843260Y2565899D01*
X3849340Y2570400D01*
X3854940Y2575480D01*
X3860020Y2581100D01*
X3864540Y2587160D01*
X3868420Y2593660D01*
X3871660Y2600500D01*
X3874200Y2607620D01*
X3876040Y2614960D01*
X3877160Y2622440D01*
X3877520Y2630000D01*
X3877160Y2637559D01*
X3876040Y2645040D01*
X3874200Y2652380D01*
X3871660Y2659500D01*
X3868420Y2666340D01*
X3864540Y2672840D01*
X3860020Y2678900D01*
X3854940Y2684520D01*
X3849340Y2689600D01*
X3843260Y2694100D01*
X3836780Y2698000D01*
X3829940Y2701220D01*
X3822820Y2703780D01*
X3815480Y2705620D01*
X3807980Y2706720D01*
X3800440Y2707100D01*
X3792880Y2706720D01*
X3785400Y2705620D01*
X3778060Y2703780D01*
X3770940Y2701220D01*
X3764100Y2698000D01*
X3757600Y2694100D01*
X3751520Y2689600D01*
X3745920Y2684520D01*
X3740840Y2678900D01*
X3736340Y2672840D01*
X3732440Y2666340D01*
X3729200Y2659500D01*
X3726660Y2652380D01*
X3724820Y2645040D01*
X3723700Y2637559D01*
X3723340Y2630000D01*
X3723700Y2622440D01*
X3724820Y2614960D01*
X3726660Y2607620D01*
X3729200Y2600500D01*
X3732440Y2593660D01*
X3736340Y2587160D01*
X3740840Y2581100D01*
X3745920Y2575480D01*
X3751520Y2570400D01*
X3757600Y2565899D01*
X3764100Y2562000D01*
X3770940Y2558780D01*
X3778060Y2556220D01*
X3785400Y2554380D01*
X3792880Y2553280D01*
G37*

%LPD*%
G36*
X2954420Y915100D02*
G01*
X2952880Y915400D01*
X2951580Y916280D01*
X2950720Y917600D01*
X2950419Y919160D01*
X2950760Y920680D01*
X2951940Y923400D01*
X2952900Y926060D01*
X2953680Y928780D01*
X2954300Y931540D01*
X2954740Y934340D01*
X2955000Y937159D01*
X2955100Y940060D01*
X2955100Y987340D01*
X2955440Y988960D01*
X2956400Y990300D01*
X2957820Y991140D01*
X2959580Y991720D01*
X2965400Y994500D01*
X2967140Y994900D01*
X3077360Y994900D01*
X3078940Y994580D01*
X3080260Y993660D01*
X3081100Y992300D01*
X3082320Y989000D01*
X3085140Y983500D01*
X3088600Y978379D01*
X3092620Y973720D01*
X3097180Y969539D01*
X3102200Y965960D01*
X3107600Y962980D01*
X3113320Y960660D01*
X3119280Y959020D01*
X3125380Y958120D01*
X3131540Y957920D01*
X3137700Y958480D01*
X3143740Y959740D01*
X3149580Y961720D01*
X3155400Y964500D01*
X3157140Y964900D01*
X4291360Y964920D01*
X4295720Y965260D01*
X4297000Y965440D01*
X4301280Y966340D01*
X4302520Y966680D01*
X4307860Y968580D01*
X4312900Y971140D01*
X4317600Y974320D01*
X4320920Y977159D01*
X4378740Y1034960D01*
X4380100Y1035840D01*
X4381680Y1036140D01*
X4383240Y1035759D01*
X4384540Y1034800D01*
X4385360Y1033420D01*
X4385560Y1031820D01*
X4385000Y1024780D01*
X4385000Y1015220D01*
X4385760Y1005699D01*
X4387260Y996280D01*
X4389520Y987000D01*
X4392520Y977920D01*
X4396220Y969120D01*
X4400600Y960639D01*
X4405640Y952540D01*
X4411320Y944860D01*
X4417580Y937640D01*
X4424400Y930960D01*
X4431740Y924840D01*
X4435220Y922360D01*
X4436360Y921140D01*
X4436900Y919539D01*
X4436720Y917880D01*
X4435900Y916440D01*
X4434560Y915440D01*
X4432920Y915100D01*
G37*

%LPD*%
G36*
X329000Y915100D02*
G01*
X327480Y915400D01*
X326180Y916260D01*
X325319Y917560D01*
X325000Y919080D01*
X310200Y3095880D01*
X310500Y3097420D01*
X311360Y3098720D01*
X312660Y3099600D01*
X314200Y3099900D01*
X1462420Y3099900D01*
X1464060Y3099560D01*
X1465400Y3098580D01*
X1466220Y3097160D01*
X1466399Y3095500D01*
X1465900Y3093920D01*
X1464800Y3092679D01*
X1463300Y3092000D01*
X1459300Y3091100D01*
X1450180Y3088300D01*
X1441300Y3084780D01*
X1432720Y3080560D01*
X1424520Y3075680D01*
X1416740Y3070160D01*
X1409400Y3064040D01*
X1402580Y3057360D01*
X1396320Y3050140D01*
X1390640Y3042460D01*
X1385600Y3034360D01*
X1381220Y3025880D01*
X1377520Y3017080D01*
X1374520Y3008000D01*
X1372260Y2998720D01*
X1370760Y2989300D01*
X1370000Y2979780D01*
X1370000Y2970220D01*
X1370760Y2960700D01*
X1372260Y2951280D01*
X1374520Y2942000D01*
X1377520Y2932919D01*
X1381220Y2924120D01*
X1385600Y2915640D01*
X1390640Y2907540D01*
X1396320Y2899860D01*
X1402580Y2892640D01*
X1409400Y2885960D01*
X1416740Y2879840D01*
X1424520Y2874320D01*
X1432720Y2869440D01*
X1436279Y2867679D01*
X1437660Y2866580D01*
X1438420Y2864960D01*
X1438420Y2863200D01*
X1437640Y2861600D01*
X1436240Y2860500D01*
X1434520Y2860100D01*
X774100Y2860100D01*
X772560Y2860400D01*
X771280Y2861280D01*
X770400Y2862559D01*
X770100Y2864100D01*
X770100Y2922540D01*
X770380Y2924000D01*
X771180Y2925260D01*
X772380Y2926139D01*
X773840Y2926520D01*
X778080Y2926800D01*
X783220Y2927820D01*
X788180Y2929500D01*
X793220Y2932000D01*
X794380Y2932380D01*
X795620Y2932380D01*
X796780Y2932000D01*
X801820Y2929500D01*
X806780Y2927820D01*
X811919Y2926800D01*
X817280Y2926440D01*
X872720Y2926440D01*
X878080Y2926800D01*
X883220Y2927820D01*
X888199Y2929520D01*
X892900Y2931820D01*
X897260Y2934740D01*
X901200Y2938200D01*
X904659Y2942140D01*
X907580Y2946500D01*
X909880Y2951200D01*
X911580Y2956180D01*
X912600Y2961320D01*
X912960Y2966680D01*
X912960Y3033320D01*
X912600Y3038680D01*
X911580Y3043820D01*
X909880Y3048800D01*
X907580Y3053500D01*
X904659Y3057860D01*
X901200Y3061800D01*
X897260Y3065260D01*
X892900Y3068180D01*
X888199Y3070480D01*
X883220Y3072180D01*
X878080Y3073200D01*
X872720Y3073540D01*
X817280Y3073540D01*
X811919Y3073200D01*
X806780Y3072180D01*
X801820Y3070500D01*
X796780Y3068000D01*
X795620Y3067620D01*
X794380Y3067620D01*
X793220Y3068000D01*
X788180Y3070500D01*
X783220Y3072180D01*
X778080Y3073200D01*
X772720Y3073540D01*
X717280Y3073540D01*
X711919Y3073200D01*
X706780Y3072180D01*
X701820Y3070500D01*
X696780Y3068000D01*
X695620Y3067620D01*
X694380Y3067620D01*
X693220Y3068000D01*
X688180Y3070500D01*
X683220Y3072180D01*
X678080Y3073200D01*
X672720Y3073540D01*
X617280Y3073540D01*
X611920Y3073200D01*
X606780Y3072180D01*
X601820Y3070500D01*
X596780Y3068000D01*
X595620Y3067620D01*
X594380Y3067620D01*
X593220Y3068000D01*
X588180Y3070500D01*
X583220Y3072180D01*
X578080Y3073200D01*
X572720Y3073540D01*
X517280Y3073540D01*
X511920Y3073200D01*
X506780Y3072180D01*
X501820Y3070500D01*
X496780Y3068000D01*
X495620Y3067620D01*
X494380Y3067620D01*
X493220Y3068000D01*
X488180Y3070500D01*
X483220Y3072180D01*
X478080Y3073200D01*
X472720Y3073540D01*
X417280Y3073540D01*
X411920Y3073200D01*
X406780Y3072180D01*
X401800Y3070480D01*
X397100Y3068180D01*
X392740Y3065260D01*
X388800Y3061800D01*
X385340Y3057860D01*
X382420Y3053500D01*
X380120Y3048800D01*
X378420Y3043820D01*
X377400Y3038680D01*
X377060Y3033320D01*
X377060Y2966680D01*
X377400Y2961320D01*
X378420Y2956180D01*
X380120Y2951200D01*
X382420Y2946500D01*
X385340Y2942140D01*
X388800Y2938200D01*
X392740Y2934740D01*
X397100Y2931820D01*
X401800Y2929520D01*
X406780Y2927820D01*
X411920Y2926800D01*
X417280Y2926440D01*
X472720Y2926440D01*
X478080Y2926800D01*
X483220Y2927820D01*
X488180Y2929500D01*
X493220Y2932000D01*
X494380Y2932380D01*
X495620Y2932380D01*
X496780Y2932000D01*
X501820Y2929500D01*
X506780Y2927820D01*
X511920Y2926800D01*
X517280Y2926440D01*
X572720Y2926440D01*
X578080Y2926800D01*
X583220Y2927820D01*
X588180Y2929500D01*
X593220Y2932000D01*
X594380Y2932380D01*
X595620Y2932380D01*
X596780Y2932000D01*
X601800Y2929520D01*
X607180Y2927720D01*
X608600Y2926880D01*
X609560Y2925539D01*
X609900Y2923920D01*
X609920Y2513640D01*
X610260Y2509280D01*
X610440Y2508000D01*
X611340Y2503720D01*
X611680Y2502480D01*
X613580Y2497140D01*
X616140Y2492100D01*
X619320Y2487400D01*
X622160Y2484080D01*
X639080Y2467160D01*
X642400Y2464320D01*
X647099Y2461140D01*
X652140Y2458580D01*
X657480Y2456680D01*
X658720Y2456340D01*
X663000Y2455440D01*
X664280Y2455260D01*
X668640Y2454920D01*
X934400Y2454900D01*
X935920Y2454600D01*
X937220Y2453720D01*
X938080Y2452440D01*
X938400Y2450900D01*
X938080Y2449360D01*
X937220Y2448080D01*
X389620Y1900460D01*
X387500Y1898220D01*
X385560Y1895900D01*
X383780Y1893460D01*
X382120Y1890920D01*
X380640Y1888280D01*
X379320Y1885560D01*
X378160Y1882760D01*
X377180Y1879900D01*
X376360Y1876980D01*
X375720Y1874040D01*
X375260Y1871040D01*
X375000Y1868020D01*
X374900Y1864940D01*
X374900Y1195120D01*
X375280Y1188960D01*
X376360Y1183020D01*
X378160Y1177240D01*
X380640Y1171720D01*
X383780Y1166540D01*
X387500Y1161780D01*
X391780Y1157500D01*
X396540Y1153780D01*
X401719Y1150640D01*
X407239Y1148160D01*
X413020Y1146360D01*
X418960Y1145280D01*
X425120Y1144900D01*
X1214940Y1144900D01*
X1218020Y1145000D01*
X1221040Y1145260D01*
X1224040Y1145720D01*
X1226980Y1146360D01*
X1229900Y1147180D01*
X1232760Y1148160D01*
X1235560Y1149320D01*
X1238280Y1150640D01*
X1240920Y1152120D01*
X1243460Y1153760D01*
X1245900Y1155560D01*
X1248220Y1157500D01*
X1250460Y1159620D01*
X1255380Y1164540D01*
X1257500Y1166780D01*
X1259440Y1169100D01*
X1261220Y1171540D01*
X1262880Y1174080D01*
X1264360Y1176720D01*
X1265680Y1179440D01*
X1266840Y1182240D01*
X1267820Y1185100D01*
X1268640Y1188020D01*
X1269280Y1190960D01*
X1269740Y1193960D01*
X1270000Y1196980D01*
X1270100Y1200060D01*
X1270100Y1282340D01*
X1270320Y1283640D01*
X1270920Y1284780D01*
X1275840Y1289160D01*
X1279300Y1293100D01*
X1282220Y1297460D01*
X1284540Y1302160D01*
X1286220Y1307120D01*
X1287240Y1312260D01*
X1287600Y1317640D01*
X1287600Y1372360D01*
X1287240Y1377740D01*
X1286220Y1382880D01*
X1284540Y1387840D01*
X1282220Y1392540D01*
X1279300Y1396900D01*
X1275840Y1400840D01*
X1271900Y1404300D01*
X1267540Y1407220D01*
X1262840Y1409540D01*
X1257880Y1411220D01*
X1256200Y1411560D01*
X1254640Y1412240D01*
X1253500Y1413520D01*
X1253000Y1415160D01*
X1253240Y1416860D01*
X1254160Y1418300D01*
X1423360Y1587500D01*
X1424680Y1588380D01*
X1426260Y1588680D01*
X1427820Y1588320D01*
X1429120Y1587380D01*
X1429960Y1586020D01*
X1430180Y1584440D01*
X1429900Y1579880D01*
X1429900Y1397020D01*
X1429600Y1395480D01*
X1428720Y1394199D01*
X1424760Y1390220D01*
X1420320Y1384740D01*
X1416459Y1378800D01*
X1413240Y1372500D01*
X1410720Y1365880D01*
X1408880Y1359060D01*
X1407780Y1352060D01*
X1407400Y1345000D01*
X1407780Y1337940D01*
X1408880Y1330940D01*
X1410720Y1324120D01*
X1413240Y1317500D01*
X1416459Y1311200D01*
X1420320Y1305260D01*
X1424760Y1299780D01*
X1429780Y1294760D01*
X1435260Y1290320D01*
X1441200Y1286459D01*
X1447500Y1283240D01*
X1454120Y1280720D01*
X1460940Y1278880D01*
X1467940Y1277780D01*
X1475000Y1277400D01*
X1482060Y1277780D01*
X1489060Y1278880D01*
X1495880Y1280720D01*
X1502500Y1283240D01*
X1508800Y1286459D01*
X1514740Y1290320D01*
X1520220Y1294760D01*
X1522180Y1296699D01*
X1523460Y1297580D01*
X1525000Y1297880D01*
X1526540Y1297580D01*
X1527820Y1296699D01*
X1528720Y1295800D01*
X1529600Y1294520D01*
X1529900Y1292980D01*
X1529900Y940060D01*
X1530000Y937159D01*
X1530260Y934340D01*
X1530700Y931540D01*
X1531320Y928780D01*
X1532100Y926060D01*
X1533060Y923400D01*
X1534240Y920680D01*
X1534580Y919160D01*
X1534280Y917600D01*
X1533420Y916280D01*
X1532120Y915400D01*
X1530580Y915100D01*
X1144080Y915100D01*
X1142600Y915380D01*
X1141340Y916180D01*
X1140460Y917360D01*
X1140080Y918800D01*
X1140260Y920280D01*
X1140960Y921600D01*
X1146600Y928640D01*
X1151960Y936540D01*
X1156680Y944840D01*
X1160720Y953480D01*
X1164080Y962440D01*
X1166700Y971620D01*
X1168580Y980980D01*
X1169720Y990460D01*
X1170100Y1000000D01*
X1169720Y1009539D01*
X1168580Y1019020D01*
X1166700Y1028379D01*
X1164080Y1037560D01*
X1160720Y1046500D01*
X1156680Y1055160D01*
X1151960Y1063460D01*
X1146600Y1071360D01*
X1140620Y1078820D01*
X1134080Y1085760D01*
X1127000Y1092160D01*
X1119420Y1098000D01*
X1111420Y1103200D01*
X1103020Y1107760D01*
X1094300Y1111620D01*
X1085300Y1114800D01*
X1076060Y1117240D01*
X1066660Y1118940D01*
X1057160Y1119880D01*
X1047620Y1120080D01*
X1038080Y1119500D01*
X1028620Y1118180D01*
X1019300Y1116100D01*
X1010180Y1113300D01*
X1001300Y1109780D01*
X992720Y1105560D01*
X984520Y1100680D01*
X976740Y1095160D01*
X969400Y1089040D01*
X962580Y1082360D01*
X956320Y1075140D01*
X950639Y1067460D01*
X945600Y1059360D01*
X941220Y1050880D01*
X937520Y1042080D01*
X934520Y1033000D01*
X932260Y1023720D01*
X930759Y1014300D01*
X930000Y1004780D01*
X930000Y995220D01*
X930759Y985699D01*
X932260Y976280D01*
X934520Y967000D01*
X937520Y957920D01*
X941220Y949120D01*
X945600Y940639D01*
X950639Y932540D01*
X956320Y924860D01*
X959040Y921720D01*
X959800Y920420D01*
X960020Y918920D01*
X959659Y917440D01*
X958780Y916200D01*
X957500Y915380D01*
X956020Y915100D01*
G37*

%LPC*%
G36*
X529140Y983900D02*
G01*
X590860Y983900D01*
X596240Y984260D01*
X601380Y985280D01*
X606340Y986960D01*
X611040Y989280D01*
X615400Y992200D01*
X619340Y995660D01*
X622800Y999599D01*
X625720Y1003960D01*
X628040Y1008660D01*
X629720Y1013620D01*
X630740Y1018760D01*
X631100Y1024140D01*
X631100Y1085860D01*
X630740Y1091240D01*
X629720Y1096380D01*
X628040Y1101340D01*
X625720Y1106040D01*
X622800Y1110400D01*
X619340Y1114340D01*
X615400Y1117800D01*
X611040Y1120720D01*
X606340Y1123040D01*
X601380Y1124720D01*
X596240Y1125740D01*
X590860Y1126100D01*
X529140Y1126100D01*
X523760Y1125740D01*
X518620Y1124720D01*
X513660Y1123040D01*
X508960Y1120720D01*
X504600Y1117800D01*
X500660Y1114340D01*
X497200Y1110400D01*
X494280Y1106040D01*
X491960Y1101340D01*
X490280Y1096380D01*
X489260Y1091240D01*
X488900Y1085860D01*
X488900Y1024140D01*
X489260Y1018760D01*
X490280Y1013620D01*
X491960Y1008660D01*
X494280Y1003960D01*
X497200Y999599D01*
X500660Y995660D01*
X504600Y992200D01*
X508960Y989280D01*
X513660Y986960D01*
X518620Y985280D01*
X523760Y984260D01*
G37*
G36*
X729140Y983900D02*
G01*
X790860Y983900D01*
X796240Y984260D01*
X801380Y985280D01*
X806340Y986960D01*
X811040Y989280D01*
X815400Y992200D01*
X819340Y995660D01*
X822800Y999599D01*
X825720Y1003960D01*
X828040Y1008660D01*
X829720Y1013620D01*
X830740Y1018760D01*
X831100Y1024140D01*
X831100Y1085860D01*
X830740Y1091240D01*
X829720Y1096380D01*
X828040Y1101340D01*
X825720Y1106040D01*
X822800Y1110400D01*
X819340Y1114340D01*
X815400Y1117800D01*
X811040Y1120720D01*
X806340Y1123040D01*
X801380Y1124720D01*
X796240Y1125740D01*
X790860Y1126100D01*
X729140Y1126100D01*
X723760Y1125740D01*
X718620Y1124720D01*
X713660Y1123040D01*
X708960Y1120720D01*
X704599Y1117800D01*
X700660Y1114340D01*
X697200Y1110400D01*
X694280Y1106040D01*
X691960Y1101340D01*
X690280Y1096380D01*
X689260Y1091240D01*
X688900Y1085860D01*
X688900Y1024140D01*
X689260Y1018760D01*
X690280Y1013620D01*
X691960Y1008660D01*
X694280Y1003960D01*
X697200Y999599D01*
X700660Y995660D01*
X704599Y992200D01*
X708960Y989280D01*
X713660Y986960D01*
X718620Y985280D01*
X723760Y984260D01*
G37*

%LPD*%
D11*
X3440000Y2120000D02*
G01*
X3495000Y2060000D01*
X3505000Y2025000D01*
X3830000Y1700000D01*
X3830000Y1625000D01*
X4538000Y2206999D02*
G01*
X4565349Y2204650D01*
X4815000Y1955000D01*
X4815000Y1635000D01*
D10*
X4615000Y1335000D02*
G01*
X4290000Y1010000D01*
X3130000Y1010000D01*
D11*
X4215000Y1635000D02*
G01*
X4145000Y1705000D01*
X4145000Y1880000D01*
X4065000Y1960000D01*
X4025000Y1960000D01*
X4025000Y2074020D01*
X4070000Y2120000D01*
X4070000Y2095000D01*
X4158000Y2006999D01*
X4715000Y1635000D02*
G01*
X4710000Y1640000D01*
X4710000Y1735000D01*
X4357538Y1735000D01*
X4233051Y1859000D01*
X4231021Y1863978D01*
X4180000Y1875000D01*
X4170000Y1890000D01*
X4163500Y1931500D01*
X4295000Y2065000D01*
X4465000Y2065000D01*
X4485000Y2045000D01*
X4181999Y2206999D02*
G01*
X4246700Y2142300D01*
X4415000Y2145000D01*
X4630000Y2025000D01*
X4760000Y1740000D01*
X4760000Y1380000D01*
X4715000Y1335000D01*
X4570000Y1775000D02*
G01*
X4570000Y1855000D01*
X4570000Y1860000D01*
X4570000Y1860000D01*
X4570000Y1999000D01*
X4561999Y2006999D01*
X4430000Y1775000D02*
G01*
X4430000Y1855999D01*
X4411999Y1874000D01*
X4200000Y1815000D02*
G01*
X4302290Y1647710D01*
X4315000Y1635000D01*
X3800000Y2180000D02*
G01*
X3895000Y2180000D01*
X3900000Y2175000D01*
X3935000Y2050000D01*
X3935000Y2040000D01*
X3980000Y1995000D01*
X3980000Y1925000D01*
X3925000Y1820000D02*
G01*
X4000000Y1745000D01*
X4000000Y1325000D01*
X3995000Y1325000D01*
X3930000Y1325000D01*
X3930000Y1625000D02*
G01*
X3930000Y1700000D01*
X3700000Y1965000D01*
X3680000Y2005000D01*
X3660000Y2005000D01*
X3641099Y2008800D01*
X3630000Y2010000D01*
X3570000Y2010000D01*
X3541199Y2038800D01*
X3541199Y2204699D01*
X3705699Y2204699D01*
X3708000Y2206999D01*
X3610000Y2160000D02*
G01*
X3640000Y2135000D01*
X4060000Y1805000D01*
X4035000Y1250000D01*
X3830000Y1250000D01*
X3830000Y1325000D01*
X3330000Y1625000D02*
G01*
X3330000Y2005000D01*
X3328000Y2006999D01*
X3870000Y2030000D02*
G01*
X3825000Y2030000D01*
X3800000Y2055000D01*
X3730000Y1625000D02*
G01*
X3730000Y1715000D01*
X3685000Y1760000D01*
X3465000Y1760000D01*
X3403040Y1821959D01*
X3403040Y1839029D01*
X3430000Y1850000D01*
X3478000Y1874000D01*
X1875000Y1645000D02*
G01*
X1920000Y1785000D01*
X2006999Y1874000D01*
X1905000Y2205000D02*
G01*
X1810000Y2110000D01*
X1741000Y2110000D01*
X1575000Y1645000D02*
G01*
X1575000Y1750000D01*
X1655000Y1830000D01*
X1655000Y1909000D01*
X1753000Y2006999D01*
X2075000Y1645000D02*
G01*
X2075000Y1870000D01*
X2000000Y1945000D01*
X2000000Y2050000D01*
X2060000Y2110000D01*
X2168000Y2110000D01*
X2168999Y2109000D01*
X1975000Y1645000D02*
G01*
X1975000Y1745000D01*
X2133000Y2206999D02*
G01*
X2215000Y2206999D01*
X2215000Y1910000D01*
X2190000Y1895000D01*
X2180000Y1870000D01*
X2180000Y1860000D01*
X2184059Y1850940D01*
X2184059Y1654059D01*
X2175000Y1645000D01*
D10*
X645000Y3000000D02*
G01*
X655000Y2990000D01*
X655000Y2515000D01*
X670000Y2500000D01*
X1200000Y2500000D01*
X1285000Y2415000D01*
X2310000Y2415000D01*
X2335000Y2390000D01*
X2335000Y2265000D01*
X2340000Y2260000D01*
X2641727Y2260000D01*
X2665000Y2236727D01*
X2665000Y2010000D01*
X2660000Y2015000D01*
X2465000Y2015000D01*
D11*
X1020000Y1645000D02*
G01*
X1020000Y1710000D01*
X1105000Y1795000D01*
X1130000Y1795000D01*
X1220000Y1645000D02*
G01*
X1290000Y1645000D01*
X1360000Y1715000D01*
X1430000Y1715000D01*
X1485000Y1770000D01*
X1485000Y1825000D01*
X1470000Y1855000D01*
X1465000Y1870000D01*
X1400000Y1935000D01*
X1400000Y2120000D01*
X1313000Y2206999D01*
X920000Y1645000D02*
G01*
X920000Y1670000D01*
X1140000Y1865000D01*
X1135000Y1900000D01*
X1205000Y1975000D01*
X1205000Y1891999D01*
X1186999Y1874000D01*
X1275000Y2085000D02*
G01*
X1255000Y2085000D01*
X1140000Y1970000D01*
X1430000Y2165000D02*
G01*
X1430000Y1970000D01*
X1440000Y1970000D01*
X1470000Y1970000D01*
X1535000Y1945000D01*
X1540000Y1940000D01*
X1590000Y1855000D01*
X1590000Y1825000D01*
X1120000Y1355000D01*
X1120000Y1345000D01*
X970000Y1995000D02*
G01*
X958000Y2006999D01*
X933000Y2006999D01*
D10*
X2920000Y2280000D02*
G01*
X2905000Y2295000D01*
X2630000Y2295000D01*
X2840000Y2615000D02*
G01*
X2465000Y2615000D01*
X2945000Y2365000D02*
G01*
X2670000Y2365000D01*
X2615000Y2365000D01*
X2465000Y2365000D01*
X2465000Y2415000D01*
X2385000Y2465000D02*
G01*
X3015000Y2465000D01*
X3065000Y2415000D01*
X745000Y3000000D02*
G01*
X725000Y2980000D01*
X725000Y2820000D01*
X730000Y2815000D01*
X2180000Y2815000D01*
D11*
X1120000Y1645000D02*
G01*
X1120000Y1735000D01*
X1180000Y1795000D01*
X1450000Y2495000D02*
G01*
X1265000Y2495000D01*
D10*
X620000Y1345000D02*
G01*
X620000Y1495000D01*
X1085000Y1495000D01*
X2275000Y1620000D02*
G01*
X2275000Y1715000D01*
X2365000Y1810000D02*
G01*
X2460000Y1810000D01*
X2465000Y1815000D01*
D11*
X1510000Y2045000D02*
G01*
X1620000Y2045000D01*
X1665000Y2090000D01*
X1665000Y2150000D01*
X1455000Y2360000D01*
X1245000Y2360000D01*
X1165000Y2440000D01*
X1000000Y2440000D01*
X425000Y1865000D01*
X425000Y1195000D01*
X1215000Y1195000D01*
X1220000Y1200000D01*
X1220000Y1345000D01*
X1540000Y1725000D02*
G01*
X1540000Y1710000D01*
X1475000Y1645000D01*
X1675000Y1645000D02*
G01*
X1675000Y1690000D01*
X1710000Y1725000D01*
X2220000Y1775000D02*
G01*
X2220000Y1600000D01*
X2200000Y1580000D01*
X1480000Y1580000D01*
X1480000Y1350000D01*
X1475000Y1345000D01*
D10*
X2325000Y1450000D02*
G01*
X2308571Y1450000D01*
X2305000Y1900000D01*
X2435000Y1900000D01*
X2465000Y1915000D01*
D11*
X2335000Y1870000D02*
G01*
X2335000Y1545000D01*
X2365000Y1515000D01*
X2365000Y1435000D01*
X2335000Y1405000D01*
X2295000Y1405000D01*
X2235000Y1345000D01*
X2175000Y1345000D01*
X2260000Y1750000D02*
G01*
X2260000Y1740000D01*
X2246069Y1726069D01*
X2246069Y1576069D01*
X2075000Y1405000D01*
X2075000Y1345000D01*
D10*
X1675000Y1345000D02*
G01*
X1675000Y1210000D01*
X1870000Y1015000D01*
X2860000Y1015000D01*
X1575000Y1345000D02*
G01*
X1575000Y940000D01*
X2910000Y940000D01*
X2910000Y1260000D01*
X3065000Y1415000D01*
X1875000Y1345000D02*
G01*
X1875000Y1140000D01*
X1930000Y1085000D01*
X2815000Y1085000D01*
X2845000Y1115000D01*
X2845000Y1295000D01*
X3065000Y1515000D01*
X1975000Y1345000D02*
G01*
X1975000Y1250000D01*
X2005000Y1220000D01*
X2370000Y1220000D01*
X2465000Y1315000D01*
X3355000Y2915000D02*
G01*
X3355000Y2920000D01*
X3215000Y3060000D01*
X2345000Y3060000D01*
X2295000Y3010000D01*
X2295000Y2555000D01*
X2385000Y2465000D01*
D11*
X3480000Y1710000D02*
G01*
X3545000Y1710000D01*
X3630000Y1625000D01*
X3425000Y1750000D02*
G01*
X3425000Y1630000D01*
X3430000Y1625000D01*
X3675000Y1715000D02*
G01*
X3675000Y1585000D01*
X3515000Y1425000D01*
X3230000Y1425000D01*
X3230000Y1325000D01*
D10*
X3180000Y1615000D02*
G01*
X3065000Y1615000D01*
X3280000Y1485000D02*
G01*
X3280000Y1770000D01*
X3065000Y1915000D01*
X3205000Y1515000D02*
G01*
X3185000Y1515000D01*
X3130000Y1570000D01*
X3200000Y1440000D02*
G01*
X3200000Y1460000D01*
X3095000Y1565000D01*
X2920000Y1565000D01*
X2920000Y1815000D01*
X3065000Y1815000D01*
D11*
X4110000Y1720000D02*
G01*
X4115000Y1720000D01*
X4115000Y1635000D01*
D10*
X4215000Y1335000D02*
G01*
X3985000Y1105000D01*
X2945000Y1105000D01*
X4315000Y1335000D02*
G01*
X4050000Y1070000D01*
X2970000Y1070000D01*
X4515000Y1335000D02*
G01*
X4220000Y1040000D01*
X3090000Y1040000D01*
X2940000Y1040000D01*
D12*
X849970Y3004980D02*
G01*
X844970Y2999980D01*
D15*
G01*
X1340429Y2575000D03*
G01*
X769570Y2575000D03*
G01*
X2140429Y2580000D03*
G01*
X1569570Y2580000D03*
G01*
X3229570Y2630000D03*
G01*
X3800429Y2630000D03*
G01*
X4099570Y2620000D03*
G01*
X4670429Y2620000D03*
G36*
X3502439Y2327559D02*
G01*
X3557560Y2327559D01*
X3557560Y2272440D01*
X3502439Y2272440D01*
G37*
D17*
G01*
X3630000Y2275000D03*
G01*
X3708000Y2206999D03*
G01*
X3743999Y2109000D03*
G01*
X3731999Y2006999D03*
G01*
X3673000Y1921999D03*
G01*
X3581999Y1874000D03*
G01*
X3478000Y1874000D03*
G01*
X3386999Y1921999D03*
G01*
X3328000Y2006999D03*
G01*
X3316000Y2110000D03*
G01*
X3351999Y2206999D03*
G01*
X3430000Y2275000D03*
G36*
X1107439Y2327559D02*
G01*
X1162560Y2327559D01*
X1162560Y2272440D01*
X1107439Y2272440D01*
G37*
G01*
X1235000Y2275000D03*
G01*
X1313000Y2206999D03*
G01*
X1348999Y2109000D03*
G01*
X1336999Y2006999D03*
G01*
X1278000Y1921999D03*
G01*
X1186999Y1874000D03*
G01*
X1083000Y1874000D03*
G01*
X991999Y1921999D03*
G01*
X933000Y2006999D03*
G01*
X921000Y2110000D03*
G01*
X956999Y2206999D03*
G01*
X1035000Y2275000D03*
G36*
X1927439Y2327559D02*
G01*
X1982560Y2327559D01*
X1982560Y2272440D01*
X1927439Y2272440D01*
G37*
G01*
X2055000Y2275000D03*
G01*
X2133000Y2206999D03*
G01*
X2168999Y2109000D03*
G01*
X2156999Y2006999D03*
G01*
X2098000Y1921999D03*
G01*
X2006999Y1874000D03*
G01*
X1903000Y1874000D03*
G01*
X1811999Y1921999D03*
G01*
X1753000Y2006999D03*
G01*
X1741000Y2110000D03*
G01*
X1776999Y2206999D03*
G01*
X1855000Y2275000D03*
G36*
X729000Y1085999D02*
G01*
X729000Y1024000D01*
X791000Y1024000D01*
X791000Y1085999D01*
G37*
G36*
X529000Y1085999D02*
G01*
X529000Y1024000D01*
X590999Y1024000D01*
X590999Y1085999D01*
G37*
G36*
X4668999Y1045999D02*
G01*
X4668999Y984000D01*
X4731000Y984000D01*
X4731000Y1045999D01*
G37*
G36*
X872820Y2966579D02*
G01*
X872820Y3033429D01*
X817169Y3033429D01*
X817169Y2966579D01*
G37*
G36*
X772820Y2966579D02*
G01*
X772820Y3033429D01*
X717170Y3033429D01*
X717170Y2966579D01*
G37*
G36*
X672820Y2966579D02*
G01*
X672820Y3033429D01*
X617170Y3033429D01*
X617170Y2966579D01*
G37*
G36*
X572820Y2966579D02*
G01*
X572820Y3033429D01*
X517170Y3033429D01*
X517170Y2966579D01*
G37*
G36*
X472820Y2966579D02*
G01*
X472820Y3033429D01*
X417170Y3033429D01*
X417170Y2966579D01*
G37*
G36*
X4842500Y1362500D02*
G01*
X4787500Y1362500D01*
X4787500Y1307500D01*
X4842500Y1307500D01*
G37*
D21*
G01*
X4715000Y1335000D03*
G01*
X4615000Y1335000D03*
G01*
X4515000Y1335000D03*
G01*
X4415000Y1335000D03*
G01*
X4315000Y1335000D03*
G01*
X4215000Y1335000D03*
G01*
X4115000Y1335000D03*
G01*
X4115000Y1635000D03*
G01*
X4215000Y1635000D03*
G01*
X4315000Y1635000D03*
G01*
X4415000Y1635000D03*
G01*
X4515000Y1635000D03*
G01*
X4615000Y1635000D03*
G01*
X4715000Y1635000D03*
G01*
X4815000Y1635000D03*
G36*
X3957500Y1352500D02*
G01*
X3902500Y1352500D01*
X3902500Y1297500D01*
X3957500Y1297500D01*
G37*
G01*
X3830000Y1325000D03*
G01*
X3730000Y1325000D03*
G01*
X3630000Y1325000D03*
G01*
X3530000Y1325000D03*
G01*
X3430000Y1325000D03*
G01*
X3330000Y1325000D03*
G01*
X3230000Y1325000D03*
G01*
X3230000Y1625000D03*
G01*
X3330000Y1625000D03*
G01*
X3430000Y1625000D03*
G01*
X3530000Y1625000D03*
G01*
X3630000Y1625000D03*
G01*
X3730000Y1625000D03*
G01*
X3830000Y1625000D03*
G01*
X3930000Y1625000D03*
G36*
X2202500Y1372500D02*
G01*
X2147500Y1372500D01*
X2147500Y1317500D01*
X2202500Y1317500D01*
G37*
G01*
X2075000Y1345000D03*
G01*
X1975000Y1345000D03*
G01*
X1875000Y1345000D03*
G01*
X1775000Y1345000D03*
G01*
X1675000Y1345000D03*
G01*
X1575000Y1345000D03*
G01*
X1475000Y1345000D03*
G01*
X1475000Y1645000D03*
G01*
X1575000Y1645000D03*
G01*
X1675000Y1645000D03*
G01*
X1775000Y1645000D03*
G01*
X1875000Y1645000D03*
G01*
X1975000Y1645000D03*
G01*
X2075000Y1645000D03*
G01*
X2175000Y1645000D03*
G36*
X1247500Y1372500D02*
G01*
X1192500Y1372500D01*
X1192500Y1317500D01*
X1247500Y1317500D01*
G37*
G01*
X1120000Y1345000D03*
G01*
X1020000Y1345000D03*
G01*
X920000Y1345000D03*
G01*
X820000Y1345000D03*
G01*
X720000Y1345000D03*
G01*
X620000Y1345000D03*
G01*
X520000Y1345000D03*
G01*
X520000Y1645000D03*
G01*
X620000Y1645000D03*
G01*
X720000Y1645000D03*
G01*
X820000Y1645000D03*
G01*
X920000Y1645000D03*
G01*
X1020000Y1645000D03*
G01*
X1120000Y1645000D03*
G01*
X1220000Y1645000D03*
D22*
G01*
X3065000Y2715000D03*
G01*
X3065000Y2615000D03*
G01*
X3065000Y2515000D03*
G01*
X3065000Y2415000D03*
G01*
X3065000Y2315000D03*
G01*
X3065000Y2215000D03*
G01*
X3065000Y2115000D03*
G01*
X3065000Y2015000D03*
G01*
X3065000Y1915000D03*
G01*
X3065000Y1815000D03*
G01*
X3065000Y1715000D03*
G01*
X3065000Y1615000D03*
G01*
X3065000Y1515000D03*
G01*
X3065000Y1415000D03*
G01*
X3065000Y1315000D03*
G01*
X2465000Y1315000D03*
G01*
X2465000Y1415000D03*
G01*
X2465000Y1515000D03*
G01*
X2465000Y1615000D03*
G01*
X2465000Y1715000D03*
G01*
X2465000Y1815000D03*
G01*
X2465000Y1915000D03*
G01*
X2465000Y2015000D03*
G01*
X2465000Y2115000D03*
G01*
X2465000Y2215000D03*
G01*
X2465000Y2315000D03*
G01*
X2465000Y2415000D03*
G01*
X2465000Y2515000D03*
G01*
X2465000Y2615000D03*
G01*
X2465000Y2715000D03*
G36*
X4332439Y2327559D02*
G01*
X4387560Y2327559D01*
X4387560Y2272440D01*
X4332439Y2272440D01*
G37*
D17*
G01*
X4460000Y2275000D03*
G01*
X4538000Y2206999D03*
G01*
X4573999Y2109000D03*
G01*
X4561999Y2006999D03*
G01*
X4503000Y1921999D03*
G01*
X4411999Y1874000D03*
G01*
X4308000Y1874000D03*
G01*
X4216999Y1921999D03*
G01*
X4158000Y2006999D03*
G01*
X4146000Y2110000D03*
G01*
X4181999Y2206999D03*
G01*
X4260000Y2275000D03*
D13*
G01*
X3980000Y1925000D03*
G01*
X3800000Y2180000D03*
G01*
X3925000Y1820000D03*
G01*
X3800000Y2055000D03*
G01*
X3870000Y2030000D03*
G01*
X3610000Y2160000D03*
G01*
X3440000Y2120000D03*
G01*
X1905000Y2205000D03*
G01*
X1975000Y1745000D03*
G01*
X1130000Y1795000D03*
G01*
X1510000Y2045000D03*
G01*
X1275000Y2085000D03*
G01*
X1430000Y2165000D03*
D14*
G01*
X3200000Y1440000D03*
G01*
X3130000Y1570000D03*
G01*
X3205000Y1515000D03*
G01*
X3280000Y1485000D03*
G01*
X3180000Y1615000D03*
D13*
G01*
X3675000Y1715000D03*
G01*
X3425000Y1750000D03*
G01*
X3480000Y1710000D03*
D14*
G01*
X3355000Y2915000D03*
G01*
X2860000Y1015000D03*
D13*
G01*
X2260000Y1750000D03*
G01*
X2335000Y1870000D03*
G01*
X2220000Y1775000D03*
G01*
X1710000Y1725000D03*
G01*
X1540000Y1725000D03*
D14*
G01*
X2365000Y1810000D03*
G01*
X2275000Y1715000D03*
G01*
X2275000Y1620000D03*
G01*
X2325000Y1450000D03*
G01*
X1077049Y1495000D03*
D13*
G01*
X1265000Y2495000D03*
G01*
X1450000Y2495000D03*
G01*
X1140000Y1970000D03*
G01*
X1180000Y1795000D03*
G01*
X970000Y1995000D03*
D14*
G01*
X2385000Y2465000D03*
G01*
X2945000Y2365000D03*
G01*
X2840000Y2615000D03*
G01*
X2180000Y2815000D03*
G01*
X2920000Y2280000D03*
G01*
X2630000Y2295000D03*
D13*
G01*
X4110000Y1720000D03*
G01*
X4570000Y1775000D03*
D14*
G01*
X2945000Y1105000D03*
G01*
X2970000Y1070000D03*
G01*
X2940000Y1040000D03*
G01*
X3130000Y1010000D03*
D13*
G01*
X4200000Y1815000D03*
G01*
X4430000Y1775000D03*
G01*
X4485000Y2045000D03*
M02*
