G04 Layer: BottomSilkLayer*
G04 EasyEDA v6.4.16, 2021-07-30T14:07:32--5:00*
G04 5f12effaa85148b9a48170333d93dde8,a06e18dc318348aaad0c553491c65e39,10*
G04 Gerber Generator version 0.2*
G04 Scale: 100 percent, Rotated: No, Reflected: No *
G04 Dimensions in inches *
G04 leading zeros omitted , absolute positions ,3 integer and 6 decimal *
%FSLAX36Y36*%
%MOIN*%

%ADD10C,0.0100*%
%ADD26C,0.0060*%
%ADD27C,0.0080*%
%ADD28C,0.0080*%
%ADD29C,0.0090*%

%LPD*%
D26*
X1272727Y2871273D02*
G01*
X1274544Y2874908D01*
X1278181Y2878544D01*
X1281818Y2880363D01*
X1289090Y2880363D01*
X1292727Y2878544D01*
X1296364Y2874908D01*
X1298181Y2871273D01*
X1300000Y2865817D01*
X1300000Y2856727D01*
X1298181Y2851273D01*
X1296364Y2847636D01*
X1292727Y2844000D01*
X1289090Y2842181D01*
X1281818Y2842181D01*
X1278181Y2844000D01*
X1274544Y2847636D01*
X1272727Y2851273D01*
X1260726Y2880363D02*
G01*
X1260726Y2842181D01*
X1260726Y2880363D02*
G01*
X1244363Y2880363D01*
X1238909Y2878544D01*
X1237091Y2876727D01*
X1235272Y2873090D01*
X1235272Y2869454D01*
X1237091Y2865817D01*
X1238909Y2864000D01*
X1244363Y2862181D01*
X1260726Y2862181D01*
X1248000Y2862181D02*
G01*
X1235272Y2842181D01*
X1223272Y2873090D02*
G01*
X1219636Y2874908D01*
X1214182Y2880363D01*
X1214182Y2842181D01*
X1200363Y2871273D02*
G01*
X1200363Y2873090D01*
X1198545Y2876727D01*
X1196727Y2878544D01*
X1193091Y2880363D01*
X1185817Y2880363D01*
X1182182Y2878544D01*
X1180363Y2876727D01*
X1178545Y2873090D01*
X1178545Y2869454D01*
X1180363Y2865817D01*
X1183999Y2860363D01*
X1202182Y2842181D01*
X1176727Y2842181D01*
X1162908Y2871273D02*
G01*
X1162908Y2873090D01*
X1161090Y2876727D01*
X1159273Y2878544D01*
X1155636Y2880363D01*
X1148364Y2880363D01*
X1144727Y2878544D01*
X1142908Y2876727D01*
X1141090Y2873090D01*
X1141090Y2869454D01*
X1142908Y2865817D01*
X1146544Y2860363D01*
X1164727Y2842181D01*
X1139273Y2842181D01*
X1116364Y2880363D02*
G01*
X1121818Y2878544D01*
X1125455Y2873090D01*
X1127272Y2864000D01*
X1127272Y2858544D01*
X1125455Y2849454D01*
X1121818Y2844000D01*
X1116364Y2842181D01*
X1112727Y2842181D01*
X1107272Y2844000D01*
X1103635Y2849454D01*
X1101818Y2858544D01*
X1101818Y2864000D01*
X1103635Y2873090D01*
X1107272Y2878544D01*
X1112727Y2880363D01*
X1116364Y2880363D01*
X1061818Y2880363D02*
G01*
X1061818Y2842181D01*
X1061818Y2880363D02*
G01*
X1045455Y2880363D01*
X1040000Y2878544D01*
X1038181Y2876727D01*
X1036364Y2873090D01*
X1036364Y2869454D01*
X1038181Y2865817D01*
X1040000Y2864000D01*
X1045455Y2862181D01*
X1061818Y2862181D02*
G01*
X1045455Y2862181D01*
X1040000Y2860363D01*
X1038181Y2858544D01*
X1036364Y2854908D01*
X1036364Y2849454D01*
X1038181Y2845817D01*
X1040000Y2844000D01*
X1045455Y2842181D01*
X1061818Y2842181D01*
X1002545Y2867636D02*
G01*
X1002545Y2842181D01*
X1002545Y2862181D02*
G01*
X1006181Y2865817D01*
X1009817Y2867636D01*
X1015272Y2867636D01*
X1018909Y2865817D01*
X1022545Y2862181D01*
X1024363Y2856727D01*
X1024363Y2853090D01*
X1022545Y2847636D01*
X1018909Y2844000D01*
X1015272Y2842181D01*
X1009817Y2842181D01*
X1006181Y2844000D01*
X1002545Y2847636D01*
X985091Y2880363D02*
G01*
X985091Y2849454D01*
X983272Y2844000D01*
X979636Y2842181D01*
X976000Y2842181D01*
X990545Y2867636D02*
G01*
X977817Y2867636D01*
X962182Y2851273D02*
G01*
X963999Y2849454D01*
X962182Y2847636D01*
X960363Y2849454D01*
X962182Y2851273D01*
D27*
X2460455Y1022545D02*
G01*
X2464090Y1029818D01*
X2471364Y1037091D01*
X2478635Y1040727D01*
X2493181Y1040727D01*
X2500455Y1037091D01*
X2507727Y1029818D01*
X2511364Y1022545D01*
X2515000Y1011635D01*
X2515000Y993454D01*
X2511364Y982545D01*
X2507727Y975273D01*
X2500455Y968000D01*
X2493181Y964364D01*
X2478635Y964364D01*
X2471364Y968000D01*
X2464090Y975273D01*
X2460455Y982545D01*
X2418272Y1015273D02*
G01*
X2425545Y1011635D01*
X2432817Y1004364D01*
X2436454Y993454D01*
X2436454Y986181D01*
X2432817Y975273D01*
X2425545Y968000D01*
X2418272Y964364D01*
X2407363Y964364D01*
X2400091Y968000D01*
X2392817Y975273D01*
X2389182Y986181D01*
X2389182Y993454D01*
X2392817Y1004364D01*
X2400091Y1011635D01*
X2407363Y1015273D01*
X2418272Y1015273D01*
X2365182Y1015273D02*
G01*
X2365182Y964364D01*
X2365182Y1000727D02*
G01*
X2354273Y1011635D01*
X2346999Y1015273D01*
X2336090Y1015273D01*
X2328818Y1011635D01*
X2325182Y1000727D01*
X2325182Y964364D01*
X2325182Y1000727D02*
G01*
X2314273Y1011635D01*
X2306999Y1015273D01*
X2296090Y1015273D01*
X2288818Y1011635D01*
X2285182Y1000727D01*
X2285182Y964364D01*
X2257545Y1015273D02*
G01*
X2235726Y964364D01*
X2213909Y1015273D02*
G01*
X2235726Y964364D01*
X2243000Y949818D01*
X2250272Y942545D01*
X2257545Y938908D01*
X2261181Y938908D01*
X2146273Y1015273D02*
G01*
X2146273Y964364D01*
X2146273Y1004364D02*
G01*
X2153545Y1011635D01*
X2160817Y1015273D01*
X2171727Y1015273D01*
X2178999Y1011635D01*
X2186273Y1004364D01*
X2189908Y993454D01*
X2189908Y986181D01*
X2186273Y975273D01*
X2178999Y968000D01*
X2171727Y964364D01*
X2160817Y964364D01*
X2153545Y968000D01*
X2146273Y975273D01*
X2122272Y1015273D02*
G01*
X2122272Y964364D01*
X2122272Y993454D02*
G01*
X2118635Y1004364D01*
X2111364Y1011635D01*
X2104090Y1015273D01*
X2093181Y1015273D01*
X2013181Y1040727D02*
G01*
X2013181Y964364D01*
X2013181Y1040727D02*
G01*
X1987727Y1040727D01*
X1976818Y1037091D01*
X1969544Y1029818D01*
X1965909Y1022545D01*
X1962272Y1011635D01*
X1962272Y993454D01*
X1965909Y982545D01*
X1969544Y975273D01*
X1976818Y968000D01*
X1987727Y964364D01*
X2013181Y964364D01*
X1938272Y993454D02*
G01*
X1894636Y993454D01*
X1894636Y1000727D01*
X1898272Y1008000D01*
X1901908Y1011635D01*
X1909182Y1015273D01*
X1920091Y1015273D01*
X1927363Y1011635D01*
X1934636Y1004364D01*
X1938272Y993454D01*
X1938272Y986181D01*
X1934636Y975273D01*
X1927363Y968000D01*
X1920091Y964364D01*
X1909182Y964364D01*
X1901908Y968000D01*
X1894636Y975273D01*
X1870636Y1040727D02*
G01*
X1870636Y964364D01*
X1870636Y1000727D02*
G01*
X1859727Y1011635D01*
X1852455Y1015273D01*
X1841544Y1015273D01*
X1834273Y1011635D01*
X1830636Y1000727D01*
X1830636Y964364D01*
X1763000Y1015273D02*
G01*
X1763000Y964364D01*
X1763000Y1004364D02*
G01*
X1770272Y1011635D01*
X1777545Y1015273D01*
X1788455Y1015273D01*
X1795726Y1011635D01*
X1803000Y1004364D01*
X1806635Y993454D01*
X1806635Y986181D01*
X1803000Y975273D01*
X1795726Y968000D01*
X1788455Y964364D01*
X1777545Y964364D01*
X1770272Y968000D01*
X1763000Y975273D01*
X1738999Y1040727D02*
G01*
X1738999Y964364D01*
X1715000Y1015273D02*
G01*
X1693181Y964364D01*
X1671364Y1015273D02*
G01*
X1693181Y964364D01*
X1647363Y1040727D02*
G01*
X1643726Y1037091D01*
X1640091Y1040727D01*
X1643726Y1044364D01*
X1647363Y1040727D01*
X1643726Y1015273D02*
G01*
X1643726Y964364D01*
X1556454Y1022545D02*
G01*
X1556454Y1026181D01*
X1552817Y1033454D01*
X1549182Y1037091D01*
X1541908Y1040727D01*
X1527363Y1040727D01*
X1520091Y1037091D01*
X1516454Y1033454D01*
X1512817Y1026181D01*
X1512817Y1018908D01*
X1516454Y1011635D01*
X1523726Y1000727D01*
X1560091Y964364D01*
X1509182Y964364D01*
X1463364Y1040727D02*
G01*
X1474273Y1037091D01*
X1481544Y1026181D01*
X1485182Y1008000D01*
X1485182Y997091D01*
X1481544Y978908D01*
X1474273Y968000D01*
X1463364Y964364D01*
X1456090Y964364D01*
X1445182Y968000D01*
X1437908Y978908D01*
X1434273Y997091D01*
X1434273Y1008000D01*
X1437908Y1026181D01*
X1445182Y1037091D01*
X1456090Y1040727D01*
X1463364Y1040727D01*
X1406635Y1022545D02*
G01*
X1406635Y1026181D01*
X1403000Y1033454D01*
X1399363Y1037091D01*
X1392091Y1040727D01*
X1377545Y1040727D01*
X1370272Y1037091D01*
X1366635Y1033454D01*
X1363000Y1026181D01*
X1363000Y1018908D01*
X1366635Y1011635D01*
X1373909Y1000727D01*
X1410272Y964364D01*
X1359363Y964364D01*
X1335363Y1026181D02*
G01*
X1328091Y1029818D01*
X1317182Y1040727D01*
X1317182Y964364D01*
D26*
X729317Y1146181D02*
G01*
X731363Y1150273D01*
X735455Y1154364D01*
X739544Y1156408D01*
X747726Y1156408D01*
X751817Y1154364D01*
X755909Y1150273D01*
X757955Y1146181D01*
X760000Y1140045D01*
X760000Y1129818D01*
X757955Y1123681D01*
X755909Y1119591D01*
X751817Y1115500D01*
X747726Y1113454D01*
X739544Y1113454D01*
X735455Y1115500D01*
X731363Y1119591D01*
X729317Y1123681D01*
X729317Y1129818D01*
X739544Y1129818D02*
G01*
X729317Y1129818D01*
X715817Y1156408D02*
G01*
X715817Y1113454D01*
X715817Y1156408D02*
G01*
X687181Y1113454D01*
X687181Y1156408D02*
G01*
X687181Y1113454D01*
X673681Y1156408D02*
G01*
X673681Y1113454D01*
X673681Y1156408D02*
G01*
X659364Y1156408D01*
X653227Y1154364D01*
X649135Y1150273D01*
X647091Y1146181D01*
X645045Y1140045D01*
X645045Y1129818D01*
X647091Y1123681D01*
X649135Y1119591D01*
X653227Y1115500D01*
X659364Y1113454D01*
X673681Y1113454D01*
X535455Y1156408D02*
G01*
X555909Y1156408D01*
X557955Y1138000D01*
X555909Y1140045D01*
X549773Y1142091D01*
X543636Y1142091D01*
X537500Y1140045D01*
X533409Y1135954D01*
X531363Y1129818D01*
X531363Y1125727D01*
X533409Y1119591D01*
X537500Y1115500D01*
X543636Y1113454D01*
X549773Y1113454D01*
X555909Y1115500D01*
X557955Y1117545D01*
X560000Y1121635D01*
X517863Y1156408D02*
G01*
X501500Y1113454D01*
X485136Y1156408D02*
G01*
X501500Y1113454D01*
X4755000Y1152226D02*
G01*
X4750909Y1154272D01*
X4744772Y1160408D01*
X4744772Y1117455D01*
X4702636Y1160408D02*
G01*
X4723091Y1117455D01*
X4731273Y1160408D02*
G01*
X4702636Y1160408D01*
X4676863Y1160408D02*
G01*
X4683000Y1158364D01*
X4687091Y1152226D01*
X4689135Y1141999D01*
X4689135Y1135864D01*
X4687091Y1125635D01*
X4683000Y1119499D01*
X4676863Y1117455D01*
X4672772Y1117455D01*
X4666635Y1119499D01*
X4662545Y1125635D01*
X4660500Y1135864D01*
X4660500Y1141999D01*
X4662545Y1152226D01*
X4666635Y1158364D01*
X4672772Y1160408D01*
X4676863Y1160408D01*
X4646999Y1160408D02*
G01*
X4630636Y1117455D01*
X4614273Y1160408D02*
G01*
X4630636Y1117455D01*
X1195000Y3041799D02*
G01*
X1195000Y3003600D01*
X1195000Y3041799D02*
G01*
X1182299Y3041799D01*
X1176800Y3040000D01*
X1173199Y3036399D01*
X1171400Y3032700D01*
X1169499Y3027300D01*
X1169499Y3018200D01*
X1171400Y3012700D01*
X1173199Y3009099D01*
X1176800Y3005500D01*
X1182299Y3003600D01*
X1195000Y3003600D01*
X1132100Y3036399D02*
G01*
X1135699Y3040000D01*
X1141199Y3041799D01*
X1148500Y3041799D01*
X1153900Y3040000D01*
X1157500Y3036399D01*
X1157500Y3032700D01*
X1155699Y3029099D01*
X1153900Y3027300D01*
X1150299Y3025500D01*
X1139399Y3021799D01*
X1135699Y3020000D01*
X1133900Y3018200D01*
X1132100Y3014499D01*
X1132100Y3009099D01*
X1135699Y3005500D01*
X1141199Y3003600D01*
X1148500Y3003600D01*
X1153900Y3005500D01*
X1157500Y3009099D01*
X1120100Y3034499D02*
G01*
X1116499Y3036399D01*
X1111000Y3041799D01*
X1111000Y3003600D01*
X1095399Y3041799D02*
G01*
X1075399Y3041799D01*
X1086300Y3027300D01*
X1080799Y3027300D01*
X1077200Y3025500D01*
X1075399Y3023600D01*
X1073500Y3018200D01*
X1073500Y3014499D01*
X1075399Y3009099D01*
X1078999Y3005500D01*
X1084499Y3003600D01*
X1089899Y3003600D01*
X1095399Y3005500D01*
X1097200Y3007300D01*
X1098999Y3010900D01*
X1050600Y3041799D02*
G01*
X1056099Y3040000D01*
X1059700Y3034499D01*
X1061499Y3025500D01*
X1061499Y3020000D01*
X1059700Y3010900D01*
X1056099Y3005500D01*
X1050600Y3003600D01*
X1046999Y3003600D01*
X1041499Y3005500D01*
X1037899Y3010900D01*
X1036099Y3020000D01*
X1036099Y3025500D01*
X1037899Y3034499D01*
X1041499Y3040000D01*
X1046999Y3041799D01*
X1050600Y3041799D01*
X998599Y3041799D02*
G01*
X1016800Y3003600D01*
X1024099Y3041799D02*
G01*
X998599Y3041799D01*
X1195000Y2971799D02*
G01*
X1195000Y2933600D01*
X1195000Y2971799D02*
G01*
X1178599Y2971799D01*
X1173199Y2970000D01*
X1171400Y2968200D01*
X1169499Y2964499D01*
X1169499Y2960900D01*
X1171400Y2957300D01*
X1173199Y2955500D01*
X1178599Y2953600D01*
X1195000Y2953600D01*
X1182299Y2953600D02*
G01*
X1169499Y2933600D01*
X1144799Y2971799D02*
G01*
X1144799Y2933600D01*
X1157500Y2971799D02*
G01*
X1132100Y2971799D01*
X1092799Y2962700D02*
G01*
X1094600Y2966399D01*
X1098299Y2970000D01*
X1101899Y2971799D01*
X1109200Y2971799D01*
X1112799Y2970000D01*
X1116499Y2966399D01*
X1118299Y2962700D01*
X1120100Y2957300D01*
X1120100Y2948200D01*
X1118299Y2942700D01*
X1116499Y2939099D01*
X1112799Y2935500D01*
X1109200Y2933600D01*
X1101899Y2933600D01*
X1098299Y2935500D01*
X1094600Y2939099D01*
X1092799Y2942700D01*
X657669Y2910880D02*
G01*
X654969Y2913580D01*
X653569Y2917680D01*
X653569Y2923180D01*
X654969Y2927280D01*
X657669Y2929980D01*
X660470Y2929980D01*
X663170Y2928580D01*
X664470Y2927280D01*
X665869Y2924479D01*
X668569Y2916379D01*
X669969Y2913580D01*
X671370Y2912280D01*
X674070Y2910880D01*
X678170Y2910880D01*
X680869Y2913580D01*
X682269Y2917680D01*
X682269Y2923180D01*
X680869Y2927280D01*
X678170Y2929980D01*
X653569Y2901880D02*
G01*
X682269Y2901880D01*
X653569Y2901880D02*
G01*
X653569Y2892379D01*
X654969Y2888279D01*
X657669Y2885479D01*
X660470Y2884180D01*
X664470Y2882779D01*
X671370Y2882779D01*
X675470Y2884180D01*
X678170Y2885479D01*
X680869Y2888279D01*
X682269Y2892379D01*
X682269Y2901880D01*
X653569Y2862880D02*
G01*
X682269Y2873780D01*
X653569Y2862880D02*
G01*
X682269Y2851979D01*
X672669Y2869679D02*
G01*
X672669Y2856080D01*
X757669Y2910880D02*
G01*
X754969Y2913580D01*
X753569Y2917680D01*
X753569Y2923180D01*
X754969Y2927280D01*
X757669Y2929980D01*
X760469Y2929980D01*
X763170Y2928580D01*
X764470Y2927280D01*
X765870Y2924479D01*
X768569Y2916379D01*
X769970Y2913580D01*
X771369Y2912280D01*
X774070Y2910880D01*
X778170Y2910880D01*
X780870Y2913580D01*
X782269Y2917680D01*
X782269Y2923180D01*
X780870Y2927280D01*
X778170Y2929980D01*
X760469Y2881480D02*
G01*
X757669Y2882779D01*
X754969Y2885479D01*
X753569Y2888279D01*
X753569Y2893679D01*
X754969Y2896480D01*
X757669Y2899180D01*
X760469Y2900479D01*
X764470Y2901880D01*
X771369Y2901880D01*
X775469Y2900479D01*
X778170Y2899180D01*
X780870Y2896480D01*
X782269Y2893679D01*
X782269Y2888279D01*
X780870Y2885479D01*
X778170Y2882779D01*
X775469Y2881480D01*
X753569Y2872480D02*
G01*
X782269Y2872480D01*
X782269Y2872480D02*
G01*
X782269Y2856080D01*
X553569Y2913580D02*
G01*
X553569Y2927280D01*
X565869Y2928580D01*
X564470Y2927280D01*
X563170Y2923180D01*
X563170Y2919079D01*
X564470Y2914980D01*
X567269Y2912280D01*
X571370Y2910880D01*
X574070Y2910880D01*
X578170Y2912280D01*
X580869Y2914980D01*
X582269Y2919079D01*
X582269Y2923180D01*
X580869Y2927280D01*
X579470Y2928580D01*
X576770Y2929980D01*
X553569Y2901880D02*
G01*
X582269Y2890979D01*
X553569Y2880079D02*
G01*
X582269Y2890979D01*
X460470Y2909479D02*
G01*
X457669Y2910880D01*
X454969Y2913580D01*
X453569Y2916379D01*
X453569Y2921779D01*
X454969Y2924479D01*
X457669Y2927280D01*
X460470Y2928580D01*
X464470Y2929980D01*
X471370Y2929980D01*
X475470Y2928580D01*
X478170Y2927280D01*
X480869Y2924479D01*
X482269Y2921779D01*
X482269Y2916379D01*
X480869Y2913580D01*
X478170Y2910880D01*
X475470Y2909479D01*
X471370Y2909479D01*
X471370Y2916379D02*
G01*
X471370Y2909479D01*
X453569Y2900479D02*
G01*
X482269Y2900479D01*
X453569Y2900479D02*
G01*
X482269Y2881480D01*
X453569Y2881480D02*
G01*
X482269Y2881480D01*
X453569Y2872480D02*
G01*
X482269Y2872480D01*
X453569Y2872480D02*
G01*
X453569Y2862880D01*
X454969Y2858780D01*
X457669Y2856080D01*
X460470Y2854679D01*
X464470Y2853380D01*
X471370Y2853380D01*
X475470Y2854679D01*
X478170Y2856080D01*
X480869Y2858780D01*
X482269Y2862880D01*
X482269Y2872480D01*
X857669Y2910880D02*
G01*
X854970Y2913580D01*
X853569Y2917680D01*
X853569Y2923180D01*
X854970Y2927280D01*
X857669Y2929980D01*
X860469Y2929980D01*
X863170Y2928580D01*
X864470Y2927280D01*
X865870Y2924479D01*
X868569Y2916379D01*
X869970Y2913580D01*
X871369Y2912280D01*
X874070Y2910880D01*
X878170Y2910880D01*
X880870Y2913580D01*
X882269Y2917680D01*
X882269Y2923180D01*
X880870Y2927280D01*
X878170Y2929980D01*
X853569Y2893679D02*
G01*
X854970Y2896480D01*
X857669Y2899180D01*
X860469Y2900479D01*
X864470Y2901880D01*
X871369Y2901880D01*
X875469Y2900479D01*
X878170Y2899180D01*
X880870Y2896480D01*
X882269Y2893679D01*
X882269Y2888279D01*
X880870Y2885479D01*
X878170Y2882779D01*
X875469Y2881480D01*
X871369Y2880079D01*
X864470Y2880079D01*
X860469Y2881480D01*
X857669Y2882779D01*
X854970Y2885479D01*
X853569Y2888279D01*
X853569Y2893679D01*
X876769Y2889580D02*
G01*
X884970Y2881480D01*
X853569Y2871080D02*
G01*
X882269Y2864279D01*
X853569Y2857480D02*
G01*
X882269Y2864279D01*
X853569Y2857480D02*
G01*
X882269Y2850580D01*
X853569Y2843780D02*
G01*
X882269Y2850580D01*
X4470000Y1745399D02*
G01*
X4470000Y1714699D01*
X4468000Y1708600D01*
X4463900Y1704499D01*
X4457700Y1702500D01*
X4453599Y1702500D01*
X4447500Y1704499D01*
X4443400Y1708600D01*
X4441400Y1714699D01*
X4441400Y1745399D01*
X4417600Y1745399D02*
G01*
X4423800Y1743400D01*
X4425799Y1739299D01*
X4425799Y1735199D01*
X4423800Y1731100D01*
X4419700Y1729000D01*
X4411499Y1726999D01*
X4405400Y1725000D01*
X4401300Y1720900D01*
X4399200Y1716799D01*
X4399200Y1710599D01*
X4401300Y1706500D01*
X4403299Y1704499D01*
X4409499Y1702500D01*
X4417600Y1702500D01*
X4423800Y1704499D01*
X4425799Y1706500D01*
X4427900Y1710599D01*
X4427900Y1716799D01*
X4425799Y1720900D01*
X4421700Y1725000D01*
X4415600Y1726999D01*
X4407399Y1729000D01*
X4403299Y1731100D01*
X4401300Y1735199D01*
X4401300Y1739299D01*
X4403299Y1743400D01*
X4409499Y1745399D01*
X4417600Y1745399D01*
X3650000Y1750399D02*
G01*
X3650000Y1719699D01*
X3648000Y1713600D01*
X3643900Y1709499D01*
X3637700Y1707500D01*
X3633599Y1707500D01*
X3627500Y1709499D01*
X3623400Y1713600D01*
X3621400Y1719699D01*
X3621400Y1750399D01*
X3579200Y1750399D02*
G01*
X3599700Y1707500D01*
X3607899Y1750399D02*
G01*
X3579200Y1750399D01*
X1830000Y1780399D02*
G01*
X1830000Y1749699D01*
X1828000Y1743600D01*
X1823900Y1739499D01*
X1817700Y1737500D01*
X1813599Y1737500D01*
X1807500Y1739499D01*
X1803400Y1743600D01*
X1801400Y1749699D01*
X1801400Y1780399D01*
X1763299Y1774299D02*
G01*
X1765399Y1778400D01*
X1771499Y1780399D01*
X1775600Y1780399D01*
X1781700Y1778400D01*
X1785799Y1772199D01*
X1787899Y1761999D01*
X1787899Y1751799D01*
X1785799Y1743600D01*
X1781700Y1739499D01*
X1775600Y1737500D01*
X1773500Y1737500D01*
X1767399Y1739499D01*
X1763299Y1743600D01*
X1761300Y1749699D01*
X1761300Y1751799D01*
X1763299Y1757899D01*
X1767399Y1761999D01*
X1773500Y1764000D01*
X1775600Y1764000D01*
X1781700Y1761999D01*
X1785799Y1757899D01*
X1787899Y1751799D01*
X870000Y1765399D02*
G01*
X870000Y1734699D01*
X868000Y1728600D01*
X863900Y1724499D01*
X857700Y1722500D01*
X853599Y1722500D01*
X847500Y1724499D01*
X843400Y1728600D01*
X841400Y1734699D01*
X841400Y1765399D01*
X803299Y1765399D02*
G01*
X823800Y1765399D01*
X825799Y1746999D01*
X823800Y1749000D01*
X817600Y1751100D01*
X811499Y1751100D01*
X805399Y1749000D01*
X801300Y1745000D01*
X799200Y1738800D01*
X799200Y1734699D01*
X801300Y1728600D01*
X805399Y1724499D01*
X811499Y1722500D01*
X817600Y1722500D01*
X823800Y1724499D01*
X825799Y1726500D01*
X827899Y1730599D01*
X2744499Y2930399D02*
G01*
X2744499Y2897700D01*
X2746599Y2891500D01*
X2748599Y2889499D01*
X2752700Y2887500D01*
X2756800Y2887500D01*
X2760900Y2889499D01*
X2763000Y2891500D01*
X2765000Y2897700D01*
X2765000Y2901799D01*
X2731000Y2922199D02*
G01*
X2726999Y2924299D01*
X2720799Y2930399D01*
X2720799Y2887500D01*
D27*
X3002299Y2730399D02*
G01*
X3002299Y2692199D01*
X3015000Y2730399D02*
G01*
X2989499Y2730399D01*
X2977500Y2730399D02*
G01*
X2952100Y2692199D01*
X2952100Y2730399D02*
G01*
X2977500Y2692199D01*
X3015000Y2630399D02*
G01*
X3015000Y2592199D01*
X3015000Y2630399D02*
G01*
X2998599Y2630399D01*
X2993199Y2628499D01*
X2991400Y2626700D01*
X2989499Y2623099D01*
X2989499Y2619499D01*
X2991400Y2615799D01*
X2993199Y2614000D01*
X2998599Y2612199D01*
X3015000Y2612199D01*
X3002299Y2612199D02*
G01*
X2989499Y2592199D01*
X2977500Y2630399D02*
G01*
X2952100Y2592199D01*
X2952100Y2630399D02*
G01*
X2977500Y2592199D01*
X3015000Y2530399D02*
G01*
X3015000Y2492199D01*
X3015000Y2530399D02*
G01*
X2998599Y2530399D01*
X2993199Y2528499D01*
X2991400Y2526700D01*
X2989499Y2523099D01*
X2989499Y2519499D01*
X2991400Y2515799D01*
X2993199Y2514000D01*
X2998599Y2512199D01*
X3015000Y2512199D01*
X3002299Y2512199D02*
G01*
X2989499Y2492199D01*
X2952100Y2524899D02*
G01*
X2955699Y2528499D01*
X2961199Y2530399D01*
X2968500Y2530399D01*
X2973900Y2528499D01*
X2977500Y2524899D01*
X2977500Y2521300D01*
X2975699Y2517600D01*
X2973900Y2515799D01*
X2970299Y2514000D01*
X2959399Y2510399D01*
X2955699Y2508499D01*
X2953900Y2506700D01*
X2952100Y2503099D01*
X2952100Y2497600D01*
X2955699Y2494000D01*
X2961199Y2492199D01*
X2968500Y2492199D01*
X2973900Y2494000D01*
X2977500Y2497600D01*
X2927399Y2530399D02*
G01*
X2927399Y2492199D01*
X2940100Y2530399D02*
G01*
X2914600Y2530399D01*
X2987700Y2421300D02*
G01*
X2989499Y2424899D01*
X2993199Y2428499D01*
X2996800Y2430399D01*
X3004099Y2430399D01*
X3007700Y2428499D01*
X3011400Y2424899D01*
X3013199Y2421300D01*
X3015000Y2415799D01*
X3015000Y2406700D01*
X3013199Y2401300D01*
X3011400Y2397600D01*
X3007700Y2394000D01*
X3004099Y2392199D01*
X2996800Y2392199D01*
X2993199Y2394000D01*
X2989499Y2397600D01*
X2987700Y2401300D01*
X2987700Y2406700D01*
X2996800Y2406700D02*
G01*
X2987700Y2406700D01*
X2975699Y2430399D02*
G01*
X2975699Y2392199D01*
X2975699Y2430399D02*
G01*
X2950299Y2392199D01*
X2950299Y2430399D02*
G01*
X2950299Y2392199D01*
X2938299Y2430399D02*
G01*
X2938299Y2392199D01*
X2938299Y2430399D02*
G01*
X2925500Y2430399D01*
X2920100Y2428499D01*
X2916499Y2424899D01*
X2914600Y2421300D01*
X2912799Y2415799D01*
X2912799Y2406700D01*
X2914600Y2401300D01*
X2916499Y2397600D01*
X2920100Y2394000D01*
X2925500Y2392199D01*
X2938299Y2392199D01*
X3015000Y2330399D02*
G01*
X3015000Y2292199D01*
X3015000Y2330399D02*
G01*
X3002299Y2330399D01*
X2996800Y2328499D01*
X2993199Y2324899D01*
X2991400Y2321300D01*
X2989499Y2315799D01*
X2989499Y2306700D01*
X2991400Y2301300D01*
X2993199Y2297600D01*
X2996800Y2294000D01*
X3002299Y2292199D01*
X3015000Y2292199D01*
X2975699Y2321300D02*
G01*
X2975699Y2323099D01*
X2973900Y2326700D01*
X2972100Y2328499D01*
X2968500Y2330399D01*
X2961199Y2330399D01*
X2957500Y2328499D01*
X2955699Y2326700D01*
X2953900Y2323099D01*
X2953900Y2319499D01*
X2955699Y2315799D01*
X2959399Y2310399D01*
X2977500Y2292199D01*
X2952100Y2292199D01*
X3015000Y2230399D02*
G01*
X3015000Y2192199D01*
X3015000Y2230399D02*
G01*
X3002299Y2230399D01*
X2996800Y2228499D01*
X2993199Y2224899D01*
X2991400Y2221300D01*
X2989499Y2215799D01*
X2989499Y2206700D01*
X2991400Y2201300D01*
X2993199Y2197600D01*
X2996800Y2194000D01*
X3002299Y2192199D01*
X3015000Y2192199D01*
X2973900Y2230399D02*
G01*
X2953900Y2230399D01*
X2964799Y2215799D01*
X2959399Y2215799D01*
X2955699Y2214000D01*
X2953900Y2212199D01*
X2952100Y2206700D01*
X2952100Y2203099D01*
X2953900Y2197600D01*
X2957500Y2194000D01*
X2963000Y2192199D01*
X2968500Y2192199D01*
X2973900Y2194000D01*
X2975699Y2195799D01*
X2977500Y2199499D01*
X3015000Y2130399D02*
G01*
X3015000Y2092199D01*
X3015000Y2130399D02*
G01*
X3002299Y2130399D01*
X2996800Y2128499D01*
X2993199Y2124899D01*
X2991400Y2121300D01*
X2989499Y2115799D01*
X2989499Y2106700D01*
X2991400Y2101300D01*
X2993199Y2097600D01*
X2996800Y2094000D01*
X3002299Y2092199D01*
X3015000Y2092199D01*
X2959399Y2130399D02*
G01*
X2977500Y2104899D01*
X2950299Y2104899D01*
X2959399Y2130399D02*
G01*
X2959399Y2092199D01*
X3015000Y2030399D02*
G01*
X3015000Y1992199D01*
X3015000Y2030399D02*
G01*
X3002299Y2030399D01*
X2996800Y2028499D01*
X2993199Y2024899D01*
X2991400Y2021300D01*
X2989499Y2015799D01*
X2989499Y2006700D01*
X2991400Y2001300D01*
X2993199Y1997600D01*
X2996800Y1994000D01*
X3002299Y1992199D01*
X3015000Y1992199D01*
X2955699Y2030399D02*
G01*
X2973900Y2030399D01*
X2975699Y2014000D01*
X2973900Y2015799D01*
X2968500Y2017600D01*
X2963000Y2017600D01*
X2957500Y2015799D01*
X2953900Y2012199D01*
X2952100Y2006700D01*
X2952100Y2003099D01*
X2953900Y1997600D01*
X2957500Y1994000D01*
X2963000Y1992199D01*
X2968500Y1992199D01*
X2973900Y1994000D01*
X2975699Y1995799D01*
X2977500Y1999499D01*
X3015000Y1930399D02*
G01*
X3015000Y1892199D01*
X3015000Y1930399D02*
G01*
X3002299Y1930399D01*
X2996800Y1928499D01*
X2993199Y1924899D01*
X2991400Y1921300D01*
X2989499Y1915799D01*
X2989499Y1906700D01*
X2991400Y1901300D01*
X2993199Y1897600D01*
X2996800Y1894000D01*
X3002299Y1892199D01*
X3015000Y1892199D01*
X2955699Y1924899D02*
G01*
X2957500Y1928499D01*
X2963000Y1930399D01*
X2966599Y1930399D01*
X2972100Y1928499D01*
X2975699Y1923099D01*
X2977500Y1914000D01*
X2977500Y1904899D01*
X2975699Y1897600D01*
X2972100Y1894000D01*
X2966599Y1892199D01*
X2964799Y1892199D01*
X2959399Y1894000D01*
X2955699Y1897600D01*
X2953900Y1903099D01*
X2953900Y1904899D01*
X2955699Y1910399D01*
X2959399Y1914000D01*
X2964799Y1915799D01*
X2966599Y1915799D01*
X2972100Y1914000D01*
X2975699Y1910399D01*
X2977500Y1904899D01*
X3015000Y1830399D02*
G01*
X3015000Y1792199D01*
X3015000Y1830399D02*
G01*
X3002299Y1830399D01*
X2996800Y1828499D01*
X2993199Y1824899D01*
X2991400Y1821300D01*
X2989499Y1815799D01*
X2989499Y1806700D01*
X2991400Y1801300D01*
X2993199Y1797600D01*
X2996800Y1794000D01*
X3002299Y1792199D01*
X3015000Y1792199D01*
X2952100Y1830399D02*
G01*
X2970299Y1792199D01*
X2977500Y1830399D02*
G01*
X2952100Y1830399D01*
X3015000Y1730399D02*
G01*
X3015000Y1692199D01*
X3015000Y1730399D02*
G01*
X3002299Y1730399D01*
X2996800Y1728499D01*
X2993199Y1724899D01*
X2991400Y1721300D01*
X2989499Y1715799D01*
X2989499Y1706700D01*
X2991400Y1701300D01*
X2993199Y1697600D01*
X2996800Y1694000D01*
X3002299Y1692199D01*
X3015000Y1692199D01*
X2968500Y1730399D02*
G01*
X2973900Y1728499D01*
X2975699Y1724899D01*
X2975699Y1721300D01*
X2973900Y1717600D01*
X2970299Y1715799D01*
X2963000Y1714000D01*
X2957500Y1712199D01*
X2953900Y1708499D01*
X2952100Y1704899D01*
X2952100Y1699499D01*
X2953900Y1695799D01*
X2955699Y1694000D01*
X2961199Y1692199D01*
X2968500Y1692199D01*
X2973900Y1694000D01*
X2975699Y1695799D01*
X2977500Y1699499D01*
X2977500Y1704899D01*
X2975699Y1708499D01*
X2972100Y1712199D01*
X2966599Y1714000D01*
X2959399Y1715799D01*
X2955699Y1717600D01*
X2953900Y1721300D01*
X2953900Y1724899D01*
X2955699Y1728499D01*
X2961199Y1730399D01*
X2968500Y1730399D01*
X3015000Y1630399D02*
G01*
X3015000Y1592199D01*
X3015000Y1630399D02*
G01*
X3002299Y1630399D01*
X2996800Y1628499D01*
X2993199Y1624899D01*
X2991400Y1621300D01*
X2989499Y1615799D01*
X2989499Y1606700D01*
X2991400Y1601300D01*
X2993199Y1597600D01*
X2996800Y1594000D01*
X3002299Y1592199D01*
X3015000Y1592199D01*
X2953900Y1617600D02*
G01*
X2955699Y1612199D01*
X2959399Y1608499D01*
X2964799Y1606700D01*
X2966599Y1606700D01*
X2972100Y1608499D01*
X2975699Y1612199D01*
X2977500Y1617600D01*
X2977500Y1619499D01*
X2975699Y1624899D01*
X2972100Y1628499D01*
X2966599Y1630399D01*
X2964799Y1630399D01*
X2959399Y1628499D01*
X2955699Y1624899D01*
X2953900Y1617600D01*
X2953900Y1608499D01*
X2955699Y1599499D01*
X2959399Y1594000D01*
X2964799Y1592199D01*
X2968500Y1592199D01*
X2973900Y1594000D01*
X2975699Y1597600D01*
X3015000Y1530399D02*
G01*
X3015000Y1492199D01*
X3015000Y1530399D02*
G01*
X3002299Y1530399D01*
X2996800Y1528499D01*
X2993199Y1524899D01*
X2991400Y1521300D01*
X2989499Y1515799D01*
X2989499Y1506700D01*
X2991400Y1501300D01*
X2993199Y1497600D01*
X2996800Y1494000D01*
X3002299Y1492199D01*
X3015000Y1492199D01*
X2977500Y1523099D02*
G01*
X2973900Y1524899D01*
X2968500Y1530399D01*
X2968500Y1492199D01*
X2945500Y1530399D02*
G01*
X2951000Y1528499D01*
X2954600Y1523099D01*
X2956499Y1514000D01*
X2956499Y1508499D01*
X2954600Y1499499D01*
X2951000Y1494000D01*
X2945500Y1492199D01*
X2941899Y1492199D01*
X2936499Y1494000D01*
X2932799Y1499499D01*
X2931000Y1508499D01*
X2931000Y1514000D01*
X2932799Y1523099D01*
X2936499Y1528499D01*
X2941899Y1530399D01*
X2945500Y1530399D01*
X3015000Y1430399D02*
G01*
X3015000Y1392199D01*
X3015000Y1430399D02*
G01*
X3002299Y1430399D01*
X2996800Y1428499D01*
X2993199Y1424899D01*
X2991400Y1421300D01*
X2989499Y1415799D01*
X2989499Y1406700D01*
X2991400Y1401300D01*
X2993199Y1397600D01*
X2996800Y1394000D01*
X3002299Y1392199D01*
X3015000Y1392199D01*
X2977500Y1423099D02*
G01*
X2973900Y1424899D01*
X2968500Y1430399D01*
X2968500Y1392199D01*
X2956499Y1423099D02*
G01*
X2952799Y1424899D01*
X2947399Y1430399D01*
X2947399Y1392199D01*
X3015000Y1330399D02*
G01*
X3015000Y1292199D01*
X3015000Y1330399D02*
G01*
X3002299Y1330399D01*
X2996800Y1328499D01*
X2993199Y1324899D01*
X2991400Y1321300D01*
X2989499Y1315799D01*
X2989499Y1306700D01*
X2991400Y1301300D01*
X2993199Y1297600D01*
X2996800Y1294000D01*
X3002299Y1292199D01*
X3015000Y1292199D01*
X2977500Y1323099D02*
G01*
X2973900Y1324899D01*
X2968500Y1330399D01*
X2968500Y1292199D01*
X2954600Y1321300D02*
G01*
X2954600Y1323099D01*
X2952799Y1326700D01*
X2951000Y1328499D01*
X2947399Y1330399D01*
X2940100Y1330399D01*
X2936499Y1328499D01*
X2934600Y1326700D01*
X2932799Y1323099D01*
X2932799Y1319499D01*
X2934600Y1315799D01*
X2938299Y1310399D01*
X2956499Y1292199D01*
X2931000Y1292199D01*
X2590000Y2730399D02*
G01*
X2575500Y2692199D01*
X2560900Y2730399D02*
G01*
X2575500Y2692199D01*
X2548900Y2730399D02*
G01*
X2548900Y2692199D01*
X2536899Y2730399D02*
G01*
X2536899Y2692199D01*
X2536899Y2730399D02*
G01*
X2511499Y2692199D01*
X2511499Y2730399D02*
G01*
X2511499Y2692199D01*
X2587700Y2621300D02*
G01*
X2589499Y2624899D01*
X2593199Y2628499D01*
X2596800Y2630399D01*
X2604099Y2630399D01*
X2607700Y2628499D01*
X2611400Y2624899D01*
X2613199Y2621300D01*
X2615000Y2615799D01*
X2615000Y2606700D01*
X2613199Y2601300D01*
X2611400Y2597600D01*
X2607700Y2594000D01*
X2604099Y2592199D01*
X2596800Y2592199D01*
X2593199Y2594000D01*
X2589499Y2597600D01*
X2587700Y2601300D01*
X2587700Y2606700D01*
X2596800Y2606700D02*
G01*
X2587700Y2606700D01*
X2575699Y2630399D02*
G01*
X2575699Y2592199D01*
X2575699Y2630399D02*
G01*
X2550299Y2592199D01*
X2550299Y2630399D02*
G01*
X2550299Y2592199D01*
X2538299Y2630399D02*
G01*
X2538299Y2592199D01*
X2538299Y2630399D02*
G01*
X2525500Y2630399D01*
X2520100Y2628499D01*
X2516499Y2624899D01*
X2514600Y2621300D01*
X2512799Y2615799D01*
X2512799Y2606700D01*
X2514600Y2601300D01*
X2516499Y2597600D01*
X2520100Y2594000D01*
X2525500Y2592199D01*
X2538299Y2592199D01*
X2615000Y2530399D02*
G01*
X2615000Y2492199D01*
X2615000Y2530399D02*
G01*
X2598599Y2530399D01*
X2593199Y2528499D01*
X2591400Y2526700D01*
X2589499Y2523099D01*
X2589499Y2519499D01*
X2591400Y2515799D01*
X2593199Y2514000D01*
X2598599Y2512199D01*
X2615000Y2512199D01*
X2602299Y2512199D02*
G01*
X2589499Y2492199D01*
X2552100Y2524899D02*
G01*
X2555699Y2528499D01*
X2561199Y2530399D01*
X2568500Y2530399D01*
X2573900Y2528499D01*
X2577500Y2524899D01*
X2577500Y2521300D01*
X2575699Y2517600D01*
X2573900Y2515799D01*
X2570299Y2514000D01*
X2559399Y2510399D01*
X2555699Y2508499D01*
X2553900Y2506700D01*
X2552100Y2503099D01*
X2552100Y2497600D01*
X2555699Y2494000D01*
X2561199Y2492199D01*
X2568500Y2492199D01*
X2573900Y2494000D01*
X2577500Y2497600D01*
X2527399Y2530399D02*
G01*
X2527399Y2492199D01*
X2540100Y2530399D02*
G01*
X2514600Y2530399D01*
X2568199Y2430399D02*
G01*
X2586400Y2430399D01*
X2588199Y2414000D01*
X2586400Y2415799D01*
X2580900Y2417600D01*
X2575500Y2417600D01*
X2570000Y2415799D01*
X2566400Y2412199D01*
X2564499Y2406700D01*
X2564499Y2403099D01*
X2566400Y2397600D01*
X2570000Y2394000D01*
X2575500Y2392199D01*
X2580900Y2392199D01*
X2586400Y2394000D01*
X2588199Y2395799D01*
X2590000Y2399499D01*
X2552500Y2430399D02*
G01*
X2538000Y2392199D01*
X2523500Y2430399D02*
G01*
X2538000Y2392199D01*
X2575500Y2330399D02*
G01*
X2590000Y2292199D01*
X2575500Y2330399D02*
G01*
X2560900Y2292199D01*
X2584499Y2304899D02*
G01*
X2566400Y2304899D01*
X2523500Y2330399D02*
G01*
X2541599Y2292199D01*
X2548900Y2330399D02*
G01*
X2523500Y2330399D01*
X2575500Y2230399D02*
G01*
X2590000Y2192199D01*
X2575500Y2230399D02*
G01*
X2560900Y2192199D01*
X2584499Y2204899D02*
G01*
X2566400Y2204899D01*
X2527100Y2224899D02*
G01*
X2528900Y2228499D01*
X2534399Y2230399D01*
X2538000Y2230399D01*
X2543500Y2228499D01*
X2547100Y2223099D01*
X2548900Y2214000D01*
X2548900Y2204899D01*
X2547100Y2197600D01*
X2543500Y2194000D01*
X2538000Y2192199D01*
X2536199Y2192199D01*
X2530699Y2194000D01*
X2527100Y2197600D01*
X2525299Y2203099D01*
X2525299Y2204899D01*
X2527100Y2210399D01*
X2530699Y2214000D01*
X2536199Y2215799D01*
X2538000Y2215799D01*
X2543500Y2214000D01*
X2547100Y2210399D01*
X2548900Y2204899D01*
X2575500Y2130399D02*
G01*
X2590000Y2092199D01*
X2575500Y2130399D02*
G01*
X2560900Y2092199D01*
X2584499Y2104899D02*
G01*
X2566400Y2104899D01*
X2527100Y2130399D02*
G01*
X2545299Y2130399D01*
X2547100Y2114000D01*
X2545299Y2115799D01*
X2539799Y2117600D01*
X2534399Y2117600D01*
X2528900Y2115799D01*
X2525299Y2112199D01*
X2523500Y2106700D01*
X2523500Y2103099D01*
X2525299Y2097600D01*
X2528900Y2094000D01*
X2534399Y2092199D01*
X2539799Y2092199D01*
X2545299Y2094000D01*
X2547100Y2095799D01*
X2548900Y2099499D01*
X2575500Y2030399D02*
G01*
X2590000Y1992199D01*
X2575500Y2030399D02*
G01*
X2560900Y1992199D01*
X2584499Y2004899D02*
G01*
X2566400Y2004899D01*
X2530699Y2030399D02*
G01*
X2548900Y2004899D01*
X2521599Y2004899D01*
X2530699Y2030399D02*
G01*
X2530699Y1992199D01*
X2575500Y1930399D02*
G01*
X2590000Y1892199D01*
X2575500Y1930399D02*
G01*
X2560900Y1892199D01*
X2584499Y1904899D02*
G01*
X2566400Y1904899D01*
X2545299Y1930399D02*
G01*
X2525299Y1930399D01*
X2536199Y1915799D01*
X2530699Y1915799D01*
X2527100Y1914000D01*
X2525299Y1912199D01*
X2523500Y1906700D01*
X2523500Y1903099D01*
X2525299Y1897600D01*
X2528900Y1894000D01*
X2534399Y1892199D01*
X2539799Y1892199D01*
X2545299Y1894000D01*
X2547100Y1895799D01*
X2548900Y1899499D01*
X2575500Y1830399D02*
G01*
X2590000Y1792199D01*
X2575500Y1830399D02*
G01*
X2560900Y1792199D01*
X2584499Y1804899D02*
G01*
X2566400Y1804899D01*
X2547100Y1821300D02*
G01*
X2547100Y1823099D01*
X2545299Y1826700D01*
X2543500Y1828499D01*
X2539799Y1830399D01*
X2532500Y1830399D01*
X2528900Y1828499D01*
X2527100Y1826700D01*
X2525299Y1823099D01*
X2525299Y1819499D01*
X2527100Y1815799D01*
X2530699Y1810399D01*
X2548900Y1792199D01*
X2523500Y1792199D01*
X2575500Y1730399D02*
G01*
X2590000Y1692199D01*
X2575500Y1730399D02*
G01*
X2560900Y1692199D01*
X2584499Y1704899D02*
G01*
X2566400Y1704899D01*
X2548900Y1723099D02*
G01*
X2545299Y1724899D01*
X2539799Y1730399D01*
X2539799Y1692199D01*
X2575500Y1630399D02*
G01*
X2590000Y1592199D01*
X2575500Y1630399D02*
G01*
X2560900Y1592199D01*
X2584499Y1604899D02*
G01*
X2566400Y1604899D01*
X2538000Y1630399D02*
G01*
X2543500Y1628499D01*
X2547100Y1623099D01*
X2548900Y1614000D01*
X2548900Y1608499D01*
X2547100Y1599499D01*
X2543500Y1594000D01*
X2538000Y1592199D01*
X2534399Y1592199D01*
X2528900Y1594000D01*
X2525299Y1599499D01*
X2523500Y1608499D01*
X2523500Y1614000D01*
X2525299Y1623099D01*
X2528900Y1628499D01*
X2534399Y1630399D01*
X2538000Y1630399D01*
X2615000Y1530399D02*
G01*
X2615000Y1492199D01*
X2615000Y1530399D02*
G01*
X2598599Y1530399D01*
X2593199Y1528499D01*
X2591400Y1526700D01*
X2589499Y1523099D01*
X2589499Y1519499D01*
X2591400Y1515799D01*
X2593199Y1514000D01*
X2598599Y1512199D01*
X2615000Y1512199D01*
X2602299Y1512199D02*
G01*
X2589499Y1492199D01*
X2577500Y1530399D02*
G01*
X2577500Y1492199D01*
X2577500Y1530399D02*
G01*
X2553900Y1530399D01*
X2577500Y1512199D02*
G01*
X2563000Y1512199D01*
X2577500Y1492199D02*
G01*
X2553900Y1492199D01*
X2541899Y1530399D02*
G01*
X2541899Y1492199D01*
X2541899Y1530399D02*
G01*
X2518299Y1530399D01*
X2541899Y1512199D02*
G01*
X2527399Y1512199D01*
X2611400Y1430399D02*
G01*
X2591400Y1430399D01*
X2602299Y1415799D01*
X2596800Y1415799D01*
X2593199Y1414000D01*
X2591400Y1412199D01*
X2589499Y1406700D01*
X2589499Y1403099D01*
X2591400Y1397600D01*
X2595000Y1394000D01*
X2600500Y1392199D01*
X2605900Y1392199D01*
X2611400Y1394000D01*
X2613199Y1395799D01*
X2615000Y1399499D01*
X2577500Y1430399D02*
G01*
X2563000Y1392199D01*
X2548500Y1430399D02*
G01*
X2563000Y1392199D01*
X2532799Y1430399D02*
G01*
X2512799Y1430399D01*
X2523699Y1415799D01*
X2518299Y1415799D01*
X2514600Y1414000D01*
X2512799Y1412199D01*
X2511000Y1406700D01*
X2511000Y1403099D01*
X2512799Y1397600D01*
X2516499Y1394000D01*
X2521899Y1392199D01*
X2527399Y1392199D01*
X2532799Y1394000D01*
X2534600Y1395799D01*
X2536499Y1399499D01*
X2590000Y1330399D02*
G01*
X2590000Y1292199D01*
X2590000Y1330399D02*
G01*
X2577299Y1330399D01*
X2571800Y1328499D01*
X2568199Y1324899D01*
X2566400Y1321300D01*
X2564499Y1315799D01*
X2564499Y1306700D01*
X2566400Y1301300D01*
X2568199Y1297600D01*
X2571800Y1294000D01*
X2577299Y1292199D01*
X2590000Y1292199D01*
X2552500Y1323099D02*
G01*
X2548900Y1324899D01*
X2543500Y1330399D01*
X2543500Y1292199D01*
X2527799Y1330399D02*
G01*
X2507799Y1330399D01*
X2518699Y1315799D01*
X2513299Y1315799D01*
X2509600Y1314000D01*
X2507799Y1312199D01*
X2506000Y1306700D01*
X2506000Y1303099D01*
X2507799Y1297600D01*
X2511499Y1294000D01*
X2516899Y1292199D01*
X2522399Y1292199D01*
X2527799Y1294000D01*
X2529600Y1295799D01*
X2531499Y1299499D01*
D10*
X2520000Y920000D02*
G01*
X1310000Y920000D01*
D27*
X710000Y1005000D02*
G01*
X810000Y1005000D01*
X810000Y1105000D01*
X710000Y1105000D01*
X710000Y1030000D01*
D28*
X710000Y1005000D02*
G01*
X710000Y1030000D01*
D27*
X510000Y1005000D02*
G01*
X610000Y1005000D01*
X610000Y1105000D01*
X510000Y1105000D01*
X510000Y1030000D01*
D28*
X510000Y1005000D02*
G01*
X510000Y1030000D01*
D27*
X4650000Y965000D02*
G01*
X4750000Y965000D01*
X4750000Y1065000D01*
X4650000Y1065000D01*
X4650000Y990000D01*
D28*
X4650000Y965000D02*
G01*
X4650000Y990000D01*
D26*
X369969Y3029980D02*
G01*
X369969Y1934980D01*
X419969Y1884980D02*
G01*
X1269970Y1884980D01*
X1319970Y1934980D02*
G01*
X1319970Y3029980D01*
X1269970Y3079980D02*
G01*
X419969Y3079980D01*
D10*
X594969Y2974980D02*
G01*
X619969Y2949980D01*
X669969Y2949980D01*
X694969Y2974980D01*
X719969Y2949980D01*
X769970Y2949980D01*
X794970Y2974980D01*
X819970Y2949980D01*
X869970Y2949980D01*
X894970Y2974980D01*
X894970Y3024980D01*
X869970Y3049980D01*
X819970Y3049980D01*
X794970Y3024980D01*
X769970Y3049980D01*
X719969Y3049980D01*
X694969Y3024980D01*
X669969Y3049980D01*
X619969Y3049980D01*
X594969Y3024980D01*
X569969Y3049980D01*
X519969Y3049980D01*
X494969Y3024980D01*
X494969Y2974980D01*
X519969Y2949980D01*
X569969Y2949980D01*
X594969Y2974980D01*
X594969Y3024980D01*
X794970Y3024980D02*
G01*
X794970Y2974980D01*
X694969Y3024980D02*
G01*
X694969Y2974980D01*
X494969Y3024980D02*
G01*
X469969Y3049980D01*
X419969Y3049980D01*
X394969Y3024980D01*
X394969Y2974980D01*
X419969Y2949980D01*
X469969Y2949980D01*
X494969Y2974980D01*
D29*
X4865000Y1385000D02*
G01*
X4065000Y1385000D01*
X4065000Y1585000D01*
X4865000Y1585000D01*
X4865000Y1385000D01*
X3980000Y1375000D02*
G01*
X3180000Y1375000D01*
X3180000Y1575000D01*
X3980000Y1575000D01*
X3980000Y1375000D01*
X2225000Y1395000D02*
G01*
X1425000Y1395000D01*
X1425000Y1595000D01*
X2225000Y1595000D01*
X2225000Y1395000D01*
X1270000Y1395000D02*
G01*
X470000Y1395000D01*
X470000Y1595000D01*
X1270000Y1595000D01*
X1270000Y1395000D01*
D10*
X3119330Y2865390D02*
G01*
X2410670Y2865390D01*
X2410670Y1164600D01*
X3119330Y1164600D01*
X3119330Y2865390D01*
X2865000Y1415000D02*
G01*
X2665000Y1415000D01*
X2665000Y1115000D01*
X2865000Y1115000D01*
X2865000Y1415000D01*
D26*
G75*
G01*
X419972Y3079980D02*
G03*
X369972Y3029980I0J-50000D01*
G75*
G01*
X369972Y1934982D02*
G03*
X419972Y1884982I50000J0D01*
G75*
G01*
X1269970Y1884982D02*
G03*
X1319970Y1934982I0J50000D01*
G75*
G01*
X1319970Y3029980D02*
G03*
X1269970Y3079980I-50000J0D01*
D10*
G75*
G01
X3550000Y2084000D02*
G03X3550000Y2084000I-20000J0D01*
G75*
G01
X1155000Y2084000D02*
G03X1155000Y2084000I-20000J0D01*
G75*
G01
X1975000Y2084000D02*
G03X1975000Y2084000I-20000J0D01*
G75*
G01
X4825000Y1415000D02*
G03X4825000Y1415000I-10000J0D01*
G75*
G01
X3940000Y1405000D02*
G03X3940000Y1405000I-10000J0D01*
G75*
G01
X2185000Y1425000D02*
G03X2185000Y1425000I-10000J0D01*
G75*
G01
X1230000Y1425000D02*
G03X1230000Y1425000I-10000J0D01*
G75*
G01
X4380000Y2084000D02*
G03X4380000Y2084000I-20000J0D01*
M02*
