G04 Layer: TopSilkLayer*
G04 EasyEDA v6.4.16, 2021-07-30T14:07:32--5:00*
G04 5f12effaa85148b9a48170333d93dde8,a06e18dc318348aaad0c553491c65e39,10*
G04 Gerber Generator version 0.2*
G04 Scale: 100 percent, Rotated: No, Reflected: No *
G04 Dimensions in inches *
G04 leading zeros omitted , absolute positions ,3 integer and 6 decimal *
%FSLAX36Y36*%
%MOIN*%

%ADD10C,0.0100*%
%ADD26C,0.0060*%
%ADD27C,0.0080*%

%LPD*%
D26*
X1020000Y2655399D02*
G01*
X1020000Y2612500D01*
X1020000Y2655399D02*
G01*
X1038400Y2655399D01*
X1044499Y2653400D01*
X1046599Y2651300D01*
X1048599Y2647199D01*
X1048599Y2643099D01*
X1046599Y2639000D01*
X1044499Y2636999D01*
X1038400Y2635000D01*
X1020000Y2635000D01*
X1034300Y2635000D02*
G01*
X1048599Y2612500D01*
X1062100Y2647199D02*
G01*
X1066199Y2649299D01*
X1072399Y2655399D01*
X1072399Y2612500D01*
X1835000Y2660399D02*
G01*
X1835000Y2617500D01*
X1835000Y2660399D02*
G01*
X1853400Y2660399D01*
X1859499Y2658400D01*
X1861599Y2656300D01*
X1863599Y2652199D01*
X1863599Y2648099D01*
X1861599Y2644000D01*
X1859499Y2641999D01*
X1853400Y2640000D01*
X1835000Y2640000D01*
X1849300Y2640000D02*
G01*
X1863599Y2617500D01*
X1879200Y2650200D02*
G01*
X1879200Y2652199D01*
X1881199Y2656300D01*
X1883299Y2658400D01*
X1887399Y2660399D01*
X1895500Y2660399D01*
X1899600Y2658400D01*
X1901700Y2656300D01*
X1903699Y2652199D01*
X1903699Y2648099D01*
X1901700Y2644000D01*
X1897600Y2637899D01*
X1877100Y2617500D01*
X1905799Y2617500D01*
X3470000Y2715399D02*
G01*
X3470000Y2672500D01*
X3470000Y2715399D02*
G01*
X3488400Y2715399D01*
X3494499Y2713400D01*
X3496599Y2711300D01*
X3498599Y2707199D01*
X3498599Y2703099D01*
X3496599Y2699000D01*
X3494499Y2696999D01*
X3488400Y2695000D01*
X3470000Y2695000D01*
X3484300Y2695000D02*
G01*
X3498599Y2672500D01*
X3516199Y2715399D02*
G01*
X3538699Y2715399D01*
X3526499Y2699000D01*
X3532600Y2699000D01*
X3536700Y2696999D01*
X3538699Y2695000D01*
X3540799Y2688800D01*
X3540799Y2684699D01*
X3538699Y2678600D01*
X3534600Y2674499D01*
X3528500Y2672500D01*
X3522399Y2672500D01*
X3516199Y2674499D01*
X3514200Y2676500D01*
X3512100Y2680599D01*
X4375000Y2695399D02*
G01*
X4375000Y2652500D01*
X4375000Y2695399D02*
G01*
X4393400Y2695399D01*
X4399499Y2693400D01*
X4401599Y2691300D01*
X4403599Y2687199D01*
X4403599Y2683099D01*
X4401599Y2679000D01*
X4399499Y2676999D01*
X4393400Y2675000D01*
X4375000Y2675000D01*
X4389300Y2675000D02*
G01*
X4403599Y2652500D01*
X4437600Y2695399D02*
G01*
X4417100Y2666799D01*
X4447799Y2666799D01*
X4437600Y2695399D02*
G01*
X4437600Y2652500D01*
X3530000Y2505399D02*
G01*
X3530000Y2474699D01*
X3531999Y2468600D01*
X3536099Y2464499D01*
X3542299Y2462500D01*
X3546400Y2462500D01*
X3552500Y2464499D01*
X3556599Y2468600D01*
X3558599Y2474699D01*
X3558599Y2505399D01*
X3576199Y2505399D02*
G01*
X3598699Y2505399D01*
X3586499Y2489000D01*
X3592600Y2489000D01*
X3596700Y2486999D01*
X3598699Y2485000D01*
X3600799Y2478800D01*
X3600799Y2474699D01*
X3598699Y2468600D01*
X3594600Y2464499D01*
X3588500Y2462500D01*
X3582399Y2462500D01*
X3576199Y2464499D01*
X3574200Y2466500D01*
X3572100Y2470599D01*
D27*
X3360000Y1837600D02*
G01*
X3360000Y1761300D01*
X3360000Y1837600D02*
G01*
X3407299Y1837600D01*
X3360000Y1801300D02*
G01*
X3389099Y1801300D01*
X3431300Y1837600D02*
G01*
X3431300Y1761300D01*
X3431300Y1837600D02*
G01*
X3463999Y1837600D01*
X3474899Y1834000D01*
X3478500Y1830399D01*
X3482200Y1823099D01*
X3482200Y1815799D01*
X3478500Y1808499D01*
X3474899Y1804899D01*
X3463999Y1801300D01*
X3431300Y1801300D01*
X3456700Y1801300D02*
G01*
X3482200Y1761300D01*
X3528000Y1837600D02*
G01*
X3520699Y1834000D01*
X3513500Y1826700D01*
X3509799Y1819499D01*
X3506199Y1808499D01*
X3506199Y1790399D01*
X3509799Y1779499D01*
X3513500Y1772199D01*
X3520699Y1764899D01*
X3528000Y1761300D01*
X3542500Y1761300D01*
X3549799Y1764899D01*
X3557100Y1772199D01*
X3560699Y1779499D01*
X3564399Y1790399D01*
X3564399Y1808499D01*
X3560699Y1819499D01*
X3557100Y1826700D01*
X3549799Y1834000D01*
X3542500Y1837600D01*
X3528000Y1837600D01*
X3588400Y1837600D02*
G01*
X3588400Y1761300D01*
X3588400Y1837600D02*
G01*
X3639300Y1761300D01*
X3639300Y1837600D02*
G01*
X3639300Y1761300D01*
X3688699Y1837600D02*
G01*
X3688699Y1761300D01*
X3663299Y1837600D02*
G01*
X3714200Y1837600D01*
X3529099Y2437600D02*
G01*
X3500000Y2361300D01*
X3529099Y2437600D02*
G01*
X3558199Y2361300D01*
X3510900Y2386700D02*
G01*
X3547299Y2386700D01*
D26*
X1135000Y2505399D02*
G01*
X1135000Y2474699D01*
X1136999Y2468600D01*
X1141099Y2464499D01*
X1147299Y2462500D01*
X1151400Y2462500D01*
X1157500Y2464499D01*
X1161599Y2468600D01*
X1163599Y2474699D01*
X1163599Y2505399D01*
X1177100Y2497199D02*
G01*
X1181199Y2499299D01*
X1187399Y2505399D01*
X1187399Y2462500D01*
D27*
X965000Y1837600D02*
G01*
X965000Y1761300D01*
X965000Y1837600D02*
G01*
X1012299Y1837600D01*
X965000Y1801300D02*
G01*
X994099Y1801300D01*
X1036300Y1837600D02*
G01*
X1036300Y1761300D01*
X1036300Y1837600D02*
G01*
X1068999Y1837600D01*
X1079899Y1834000D01*
X1083500Y1830399D01*
X1087200Y1823099D01*
X1087200Y1815799D01*
X1083500Y1808499D01*
X1079899Y1804899D01*
X1068999Y1801300D01*
X1036300Y1801300D01*
X1061700Y1801300D02*
G01*
X1087200Y1761300D01*
X1133000Y1837600D02*
G01*
X1125699Y1834000D01*
X1118500Y1826700D01*
X1114799Y1819499D01*
X1111199Y1808499D01*
X1111199Y1790399D01*
X1114799Y1779499D01*
X1118500Y1772199D01*
X1125699Y1764899D01*
X1133000Y1761300D01*
X1147500Y1761300D01*
X1154799Y1764899D01*
X1162100Y1772199D01*
X1165699Y1779499D01*
X1169399Y1790399D01*
X1169399Y1808499D01*
X1165699Y1819499D01*
X1162100Y1826700D01*
X1154799Y1834000D01*
X1147500Y1837600D01*
X1133000Y1837600D01*
X1193400Y1837600D02*
G01*
X1193400Y1761300D01*
X1193400Y1837600D02*
G01*
X1244300Y1761300D01*
X1244300Y1837600D02*
G01*
X1244300Y1761300D01*
X1293699Y1837600D02*
G01*
X1293699Y1761300D01*
X1268299Y1837600D02*
G01*
X1319200Y1837600D01*
X1134099Y2437600D02*
G01*
X1105000Y2361300D01*
X1134099Y2437600D02*
G01*
X1163199Y2361300D01*
X1115900Y2386700D02*
G01*
X1152299Y2386700D01*
D26*
X1955000Y2505399D02*
G01*
X1955000Y2474699D01*
X1956999Y2468600D01*
X1961099Y2464499D01*
X1967299Y2462500D01*
X1971400Y2462500D01*
X1977500Y2464499D01*
X1981599Y2468600D01*
X1983599Y2474699D01*
X1983599Y2505399D01*
X1999200Y2495200D02*
G01*
X1999200Y2497199D01*
X2001199Y2501300D01*
X2003299Y2503400D01*
X2007399Y2505399D01*
X2015500Y2505399D01*
X2019600Y2503400D01*
X2021700Y2501300D01*
X2023699Y2497199D01*
X2023699Y2493099D01*
X2021700Y2489000D01*
X2017600Y2482899D01*
X1997100Y2462500D01*
X2025799Y2462500D01*
D27*
X1785000Y1837600D02*
G01*
X1785000Y1761300D01*
X1785000Y1837600D02*
G01*
X1832299Y1837600D01*
X1785000Y1801300D02*
G01*
X1814099Y1801300D01*
X1856300Y1837600D02*
G01*
X1856300Y1761300D01*
X1856300Y1837600D02*
G01*
X1888999Y1837600D01*
X1899899Y1834000D01*
X1903500Y1830399D01*
X1907200Y1823099D01*
X1907200Y1815799D01*
X1903500Y1808499D01*
X1899899Y1804899D01*
X1888999Y1801300D01*
X1856300Y1801300D01*
X1881700Y1801300D02*
G01*
X1907200Y1761300D01*
X1953000Y1837600D02*
G01*
X1945699Y1834000D01*
X1938500Y1826700D01*
X1934799Y1819499D01*
X1931199Y1808499D01*
X1931199Y1790399D01*
X1934799Y1779499D01*
X1938500Y1772199D01*
X1945699Y1764899D01*
X1953000Y1761300D01*
X1967500Y1761300D01*
X1974799Y1764899D01*
X1982100Y1772199D01*
X1985699Y1779499D01*
X1989399Y1790399D01*
X1989399Y1808499D01*
X1985699Y1819499D01*
X1982100Y1826700D01*
X1974799Y1834000D01*
X1967500Y1837600D01*
X1953000Y1837600D01*
X2013400Y1837600D02*
G01*
X2013400Y1761300D01*
X2013400Y1837600D02*
G01*
X2064300Y1761300D01*
X2064300Y1837600D02*
G01*
X2064300Y1761300D01*
X2113699Y1837600D02*
G01*
X2113699Y1761300D01*
X2088299Y1837600D02*
G01*
X2139200Y1837600D01*
X1954099Y2437600D02*
G01*
X1925000Y2361300D01*
X1954099Y2437600D02*
G01*
X1983199Y2361300D01*
X1935900Y2386700D02*
G01*
X1972299Y2386700D01*
D26*
X4360000Y2505399D02*
G01*
X4360000Y2474699D01*
X4361999Y2468600D01*
X4366099Y2464499D01*
X4372299Y2462500D01*
X4376400Y2462500D01*
X4382500Y2464499D01*
X4386599Y2468600D01*
X4388599Y2474699D01*
X4388599Y2505399D01*
X4422600Y2505399D02*
G01*
X4402100Y2476799D01*
X4432799Y2476799D01*
X4422600Y2505399D02*
G01*
X4422600Y2462500D01*
D27*
X4190000Y1837600D02*
G01*
X4190000Y1761300D01*
X4190000Y1837600D02*
G01*
X4237299Y1837600D01*
X4190000Y1801300D02*
G01*
X4219099Y1801300D01*
X4261300Y1837600D02*
G01*
X4261300Y1761300D01*
X4261300Y1837600D02*
G01*
X4293999Y1837600D01*
X4304899Y1834000D01*
X4308500Y1830399D01*
X4312200Y1823099D01*
X4312200Y1815799D01*
X4308500Y1808499D01*
X4304899Y1804899D01*
X4293999Y1801300D01*
X4261300Y1801300D01*
X4286700Y1801300D02*
G01*
X4312200Y1761300D01*
X4358000Y1837600D02*
G01*
X4350699Y1834000D01*
X4343500Y1826700D01*
X4339799Y1819499D01*
X4336199Y1808499D01*
X4336199Y1790399D01*
X4339799Y1779499D01*
X4343500Y1772199D01*
X4350699Y1764899D01*
X4358000Y1761300D01*
X4372500Y1761300D01*
X4379799Y1764899D01*
X4387100Y1772199D01*
X4390699Y1779499D01*
X4394399Y1790399D01*
X4394399Y1808499D01*
X4390699Y1819499D01*
X4387100Y1826700D01*
X4379799Y1834000D01*
X4372500Y1837600D01*
X4358000Y1837600D01*
X4418400Y1837600D02*
G01*
X4418400Y1761300D01*
X4418400Y1837600D02*
G01*
X4469300Y1761300D01*
X4469300Y1837600D02*
G01*
X4469300Y1761300D01*
X4518699Y1837600D02*
G01*
X4518699Y1761300D01*
X4493299Y1837600D02*
G01*
X4544200Y1837600D01*
X4359099Y2437600D02*
G01*
X4330000Y2361300D01*
X4359099Y2437600D02*
G01*
X4388199Y2361300D01*
X4340900Y2386700D02*
G01*
X4377299Y2386700D01*
D10*
X3530000Y1984000D02*
G01*
X3530000Y2184000D01*
X3520000Y2184000D01*
X3460000Y2124000D01*
X3530000Y2194000D01*
X3600000Y2124000D01*
X1135000Y1984000D02*
G01*
X1135000Y2184000D01*
X1125000Y2184000D01*
X1065000Y2124000D01*
X1135000Y2194000D01*
X1205000Y2124000D01*
X1955000Y1984000D02*
G01*
X1955000Y2184000D01*
X1945000Y2184000D01*
X1885000Y2124000D01*
X1955000Y2194000D01*
X2025000Y2124000D01*
X4360000Y1984000D02*
G01*
X4360000Y2184000D01*
X4350000Y2184000D01*
X4290000Y2124000D01*
X4360000Y2194000D01*
X4430000Y2124000D01*
G75*
G01
X3894000Y2084000D02*
G03X3894000Y2084000I-364000J0D01*
G75*
G01
X3746000Y2084000D02*
G03X3746000Y2084000I-216000J0D01*
G75*
G01
X1499000Y2084000D02*
G03X1499000Y2084000I-364000J0D01*
G75*
G01
X1351000Y2084000D02*
G03X1351000Y2084000I-216000J0D01*
G75*
G01
X2319000Y2084000D02*
G03X2319000Y2084000I-364000J0D01*
G75*
G01
X2171000Y2084000D02*
G03X2171000Y2084000I-216000J0D01*
G75*
G01
X4724000Y2084000D02*
G03X4724000Y2084000I-364000J0D01*
G75*
G01
X4576000Y2084000D02*
G03X4576000Y2084000I-216000J0D01*
M02*
