G04 Layer: BottomLayer*
G04 EasyEDA v6.4.16, 2021-07-30T14:07:32--5:00*
G04 5f12effaa85148b9a48170333d93dde8,a06e18dc318348aaad0c553491c65e39,10*
G04 Gerber Generator version 0.2*
G04 Scale: 100 percent, Rotated: No, Reflected: No *
G04 Dimensions in inches *
G04 leading zeros omitted , absolute positions ,3 integer and 6 decimal *
%FSLAX36Y36*%
%MOIN*%

%ADD10C,0.0100*%
%ADD11C,0.0200*%
%ADD13C,0.0340*%
%ADD14C,0.0240*%
%ADD15C,0.0740*%
%ADD17C,0.0551*%
%ADD21C,0.0550*%
%ADD22C,0.0600*%
%ADD23C,0.0572*%
%ADD24C,0.0400*%
%ADD25C,0.0494*%

%LPD*%
G36*
X2867140Y2660100D02*
G01*
X2865400Y2660500D01*
X2859580Y2663279D01*
X2852160Y2665820D01*
X2851139Y2666700D01*
X2850460Y2667880D01*
X2850240Y2669220D01*
X2850100Y2710100D01*
X2850040Y2712140D01*
X2849720Y2715840D01*
X2849420Y2717760D01*
X2848639Y2721400D01*
X2848100Y2723260D01*
X2846860Y2726780D01*
X2846100Y2728560D01*
X2844440Y2731880D01*
X2843440Y2733580D01*
X2841380Y2736660D01*
X2840200Y2738200D01*
X2837740Y2741000D01*
X2836380Y2742400D01*
X2833600Y2744860D01*
X2832080Y2746060D01*
X2829000Y2748180D01*
X2827340Y2749180D01*
X2824040Y2750880D01*
X2822240Y2751660D01*
X2818759Y2752940D01*
X2816900Y2753500D01*
X2813279Y2754340D01*
X2811340Y2754640D01*
X2807640Y2755020D01*
X2521020Y2759280D01*
X2519420Y2759640D01*
X2518080Y2760640D01*
X2515780Y2763260D01*
X2515020Y2764560D01*
X2514780Y2766080D01*
X2515140Y2767540D01*
X2516020Y2768780D01*
X2517300Y2769620D01*
X2518780Y2769900D01*
X2870899Y2769900D01*
X2872440Y2769600D01*
X2873720Y2768720D01*
X2874600Y2767440D01*
X2874900Y2765899D01*
X2874900Y2664100D01*
X2874600Y2662559D01*
X2873720Y2661280D01*
X2872440Y2660400D01*
X2870899Y2660100D01*
G37*

%LPD*%
G36*
X3724260Y2652919D02*
G01*
X3722740Y2653120D01*
X3721400Y2653900D01*
X3408360Y2928200D01*
X3407400Y2929480D01*
X3407000Y2931040D01*
X3407260Y2932620D01*
X3408100Y2933980D01*
X3409420Y2934900D01*
X3411000Y2935220D01*
X3631500Y2935220D01*
X3633039Y2934920D01*
X3634340Y2934040D01*
X3729040Y2839340D01*
X3729920Y2838039D01*
X3730220Y2836500D01*
X3730220Y2662540D01*
X3729840Y2660820D01*
X3729200Y2659500D01*
X3727799Y2655560D01*
X3727000Y2654240D01*
X3725760Y2653300D01*
G37*

%LPD*%
G36*
X2756280Y2431780D02*
G01*
X2754700Y2432340D01*
X2753480Y2433520D01*
X2751240Y2436840D01*
X2749760Y2438740D01*
X2747600Y2441160D01*
X2745880Y2442860D01*
X2743440Y2445000D01*
X2741520Y2446480D01*
X2738820Y2448300D01*
X2736740Y2449520D01*
X2733840Y2450980D01*
X2731620Y2451920D01*
X2728560Y2453020D01*
X2726240Y2453680D01*
X2723060Y2454380D01*
X2720659Y2454740D01*
X2717440Y2455040D01*
X2714940Y2455100D01*
X2524440Y2455100D01*
X2523200Y2455300D01*
X2522080Y2455880D01*
X2521180Y2456780D01*
X2519960Y2458500D01*
X2516580Y2462360D01*
X2515840Y2463580D01*
X2515580Y2465000D01*
X2515840Y2466420D01*
X2516580Y2467640D01*
X2519960Y2471500D01*
X2524140Y2477380D01*
X2527700Y2483660D01*
X2530580Y2490280D01*
X2532780Y2497140D01*
X2534260Y2504220D01*
X2535000Y2511400D01*
X2535000Y2518600D01*
X2534260Y2525780D01*
X2532780Y2532860D01*
X2530580Y2539720D01*
X2527700Y2546340D01*
X2524140Y2552620D01*
X2519960Y2558500D01*
X2516580Y2562360D01*
X2515840Y2563580D01*
X2515580Y2565000D01*
X2515840Y2566420D01*
X2516580Y2567640D01*
X2519960Y2571500D01*
X2524140Y2577380D01*
X2527700Y2583660D01*
X2530580Y2590280D01*
X2532780Y2597140D01*
X2534260Y2604220D01*
X2535000Y2611400D01*
X2535000Y2618600D01*
X2534260Y2625779D01*
X2532780Y2632860D01*
X2530580Y2639720D01*
X2527700Y2646340D01*
X2524140Y2652620D01*
X2519960Y2658500D01*
X2516580Y2662360D01*
X2515840Y2663580D01*
X2515580Y2665000D01*
X2515840Y2666420D01*
X2516660Y2667740D01*
X2518040Y2668740D01*
X2519720Y2669100D01*
X2756120Y2665620D01*
X2757620Y2665299D01*
X2758900Y2664420D01*
X2759760Y2663140D01*
X2760059Y2661620D01*
X2760800Y2435760D01*
X2760440Y2434100D01*
X2759440Y2432740D01*
X2757960Y2431920D01*
G37*

%LPD*%
G36*
X2974200Y2289780D02*
G01*
X2972600Y2290180D01*
X2971300Y2291180D01*
X2970520Y2292620D01*
X2968840Y2298140D01*
X2966340Y2303780D01*
X2965240Y2305940D01*
X2965100Y2306980D01*
X2965100Y2314460D01*
X2965380Y2315920D01*
X2966180Y2317180D01*
X2967380Y2318060D01*
X2970400Y2319500D01*
X2972140Y2319900D01*
X2991000Y2319900D01*
X2992520Y2319600D01*
X2993820Y2318720D01*
X2994700Y2317440D01*
X2995000Y2315900D01*
X2995000Y2311400D01*
X2994840Y2309160D01*
X2993900Y2307680D01*
X2977180Y2290960D01*
X2975800Y2290060D01*
G37*

%LPD*%
G36*
X3467620Y2210100D02*
G01*
X3465960Y2210460D01*
X3464600Y2211480D01*
X3463780Y2212960D01*
X3463660Y2214660D01*
X3464240Y2216240D01*
X3465440Y2217460D01*
X3469760Y2220260D01*
X3475260Y2224720D01*
X3480280Y2229740D01*
X3483600Y2233820D01*
X3484840Y2234840D01*
X3486380Y2235300D01*
X3487980Y2235100D01*
X3492060Y2233720D01*
X3497200Y2232700D01*
X3502580Y2232340D01*
X3557420Y2232340D01*
X3562799Y2232700D01*
X3567940Y2233720D01*
X3572020Y2235100D01*
X3573620Y2235300D01*
X3575160Y2234840D01*
X3576400Y2233820D01*
X3579720Y2229740D01*
X3584720Y2224720D01*
X3590460Y2220080D01*
X3591520Y2218780D01*
X3591960Y2217160D01*
X3591660Y2215500D01*
X3590720Y2214100D01*
X3589300Y2213200D01*
X3583279Y2210460D01*
X3581620Y2210100D01*
G37*

%LPD*%
G36*
X1040500Y2196200D02*
G01*
X1038860Y2196460D01*
X1037480Y2197380D01*
X1034240Y2200620D01*
X1033379Y2201880D01*
X1033060Y2203380D01*
X1033319Y2204880D01*
X1034140Y2206180D01*
X1035380Y2207080D01*
X1036860Y2207440D01*
X1042080Y2207720D01*
X1049060Y2208820D01*
X1055900Y2210660D01*
X1062520Y2213200D01*
X1068820Y2216400D01*
X1074760Y2220260D01*
X1080260Y2224720D01*
X1085280Y2229740D01*
X1088600Y2233820D01*
X1089840Y2234840D01*
X1091380Y2235300D01*
X1092980Y2235100D01*
X1097060Y2233720D01*
X1102200Y2232700D01*
X1107580Y2232340D01*
X1162420Y2232340D01*
X1167800Y2232700D01*
X1172940Y2233720D01*
X1177020Y2235100D01*
X1178620Y2235300D01*
X1180160Y2234840D01*
X1181400Y2233820D01*
X1184720Y2229740D01*
X1189740Y2224720D01*
X1195240Y2220260D01*
X1201180Y2216400D01*
X1207480Y2213200D01*
X1210240Y2212140D01*
X1211560Y2211320D01*
X1212460Y2210060D01*
X1212800Y2208540D01*
X1212560Y2207020D01*
X1211760Y2205700D01*
X1210500Y2204780D01*
X1209000Y2204400D01*
G37*

%LPD*%
G36*
X2520360Y2160100D02*
G01*
X2518720Y2160460D01*
X2517360Y2161460D01*
X2516580Y2162360D01*
X2515840Y2163580D01*
X2515580Y2165000D01*
X2515840Y2166420D01*
X2516580Y2167640D01*
X2519960Y2171500D01*
X2524140Y2177380D01*
X2527700Y2183660D01*
X2530580Y2190280D01*
X2532780Y2197140D01*
X2534260Y2204220D01*
X2535000Y2211400D01*
X2535000Y2218600D01*
X2534260Y2225780D01*
X2532780Y2232860D01*
X2530580Y2239720D01*
X2527700Y2246340D01*
X2524140Y2252620D01*
X2519960Y2258500D01*
X2516580Y2262360D01*
X2515840Y2263580D01*
X2515580Y2265000D01*
X2515840Y2266420D01*
X2516580Y2267640D01*
X2519960Y2271500D01*
X2524140Y2277380D01*
X2527700Y2283660D01*
X2530580Y2290280D01*
X2532780Y2297140D01*
X2534260Y2304220D01*
X2535000Y2311400D01*
X2535000Y2318600D01*
X2534260Y2325780D01*
X2532780Y2332860D01*
X2530580Y2339720D01*
X2527700Y2346340D01*
X2524140Y2352620D01*
X2519900Y2358580D01*
X2519240Y2360180D01*
X2519300Y2361920D01*
X2520100Y2363460D01*
X2521460Y2364520D01*
X2523160Y2364900D01*
X2666320Y2364900D01*
X2667840Y2364600D01*
X2669140Y2363740D01*
X2670000Y2362460D01*
X2670320Y2360940D01*
X2670520Y2337520D01*
X2670240Y2336040D01*
X2669460Y2334780D01*
X2668260Y2333880D01*
X2666800Y2333500D01*
X2665320Y2333680D01*
X2664000Y2334380D01*
X2660360Y2337320D01*
X2655160Y2340620D01*
X2649580Y2343280D01*
X2643740Y2345260D01*
X2637700Y2346520D01*
X2631540Y2347080D01*
X2625380Y2346880D01*
X2619280Y2345980D01*
X2613320Y2344340D01*
X2607600Y2342020D01*
X2602200Y2339040D01*
X2597180Y2335460D01*
X2592620Y2331280D01*
X2588600Y2326600D01*
X2585140Y2321500D01*
X2582320Y2316000D01*
X2580179Y2310220D01*
X2579820Y2308760D01*
X2579080Y2307240D01*
X2578519Y2306520D01*
X2576139Y2302900D01*
X2573580Y2297860D01*
X2571680Y2292520D01*
X2571340Y2291280D01*
X2570440Y2287000D01*
X2570260Y2285720D01*
X2569920Y2281360D01*
X2569900Y2164100D01*
X2569600Y2162560D01*
X2568720Y2161280D01*
X2567440Y2160400D01*
X2565899Y2160100D01*
G37*

%LPD*%
G36*
X2969100Y2160100D02*
G01*
X2967559Y2160400D01*
X2966280Y2161280D01*
X2965400Y2162560D01*
X2965100Y2164100D01*
X2965100Y2165900D01*
X2965400Y2167440D01*
X2966280Y2168720D01*
X2967559Y2169600D01*
X2969100Y2169900D01*
X3009640Y2169900D01*
X3011280Y2169540D01*
X3012640Y2168540D01*
X3013420Y2167640D01*
X3014160Y2166420D01*
X3014420Y2165000D01*
X3014160Y2163580D01*
X3013420Y2162360D01*
X3012640Y2161460D01*
X3011280Y2160460D01*
X3009640Y2160100D01*
G37*

%LPD*%
G36*
X4461140Y2097140D02*
G01*
X4459500Y2097480D01*
X4458140Y2098440D01*
X4412020Y2148760D01*
X4407580Y2153060D01*
X4402760Y2156700D01*
X4397520Y2159740D01*
X4391960Y2162140D01*
X4386160Y2163840D01*
X4380200Y2164820D01*
X4373780Y2165080D01*
X4240900Y2162180D01*
X4239220Y2162520D01*
X4237820Y2163540D01*
X4236980Y2165040D01*
X4236860Y2166760D01*
X4237460Y2168360D01*
X4240600Y2173180D01*
X4243800Y2179480D01*
X4246340Y2186100D01*
X4248180Y2192940D01*
X4249280Y2199920D01*
X4249500Y2203900D01*
X4249880Y2205400D01*
X4250800Y2206660D01*
X4252160Y2207460D01*
X4253700Y2207680D01*
X4260000Y2207340D01*
X4267080Y2207720D01*
X4274060Y2208820D01*
X4280900Y2210660D01*
X4287520Y2213200D01*
X4293820Y2216400D01*
X4299760Y2220260D01*
X4305260Y2224720D01*
X4310280Y2229740D01*
X4313600Y2233820D01*
X4314840Y2234840D01*
X4316380Y2235300D01*
X4317980Y2235100D01*
X4322060Y2233720D01*
X4327200Y2232700D01*
X4332580Y2232340D01*
X4387420Y2232340D01*
X4392800Y2232700D01*
X4397940Y2233720D01*
X4402020Y2235100D01*
X4403620Y2235300D01*
X4405160Y2234840D01*
X4406400Y2233820D01*
X4409720Y2229740D01*
X4414740Y2224720D01*
X4420240Y2220260D01*
X4426180Y2216400D01*
X4432480Y2213200D01*
X4439100Y2210660D01*
X4445940Y2208820D01*
X4452920Y2207720D01*
X4460000Y2207340D01*
X4466300Y2207680D01*
X4467840Y2207460D01*
X4469200Y2206660D01*
X4470120Y2205400D01*
X4470500Y2203900D01*
X4470720Y2199920D01*
X4471820Y2192940D01*
X4473660Y2186100D01*
X4476200Y2179480D01*
X4479400Y2173180D01*
X4483260Y2167240D01*
X4487720Y2161740D01*
X4492740Y2156720D01*
X4498240Y2152260D01*
X4504180Y2148400D01*
X4510480Y2145200D01*
X4511460Y2144820D01*
X4512860Y2143920D01*
X4513760Y2142520D01*
X4514020Y2140880D01*
X4513600Y2139260D01*
X4512200Y2136520D01*
X4509660Y2129900D01*
X4507820Y2123060D01*
X4506720Y2116080D01*
X4506600Y2113900D01*
X4506260Y2112500D01*
X4505440Y2111280D01*
X4496680Y2102520D01*
X4495680Y2101800D01*
X4494520Y2101420D01*
X4493280Y2101400D01*
X4489880Y2101880D01*
X4483360Y2102080D01*
X4476880Y2101520D01*
X4470480Y2100220D01*
X4464280Y2098200D01*
X4462760Y2097500D01*
G37*

%LPD*%
G36*
X2994220Y2060080D02*
G01*
X2992660Y2060340D01*
X2991320Y2061200D01*
X2990419Y2062520D01*
X2990100Y2064079D01*
X2990100Y2065900D01*
X2990400Y2067440D01*
X2991280Y2068720D01*
X2992559Y2069600D01*
X2994100Y2069900D01*
X3009640Y2069900D01*
X3011280Y2069540D01*
X3012640Y2068540D01*
X3013420Y2067660D01*
X3014180Y2066380D01*
X3014400Y2064920D01*
X3014100Y2063460D01*
X3013279Y2062220D01*
X3012380Y2061300D01*
X3011080Y2060420D01*
X3009520Y2060100D01*
G37*

%LPD*%
G36*
X2085480Y2006960D02*
G01*
X2083980Y2007280D01*
X2082720Y2008140D01*
X2006620Y2084240D01*
X2004379Y2086339D01*
X2002040Y2088280D01*
X1999600Y2090080D01*
X1997060Y2091720D01*
X1994440Y2093200D01*
X1991720Y2094540D01*
X1988920Y2095700D01*
X1986060Y2096680D01*
X1983140Y2097500D01*
X1980180Y2098120D01*
X1977180Y2098580D01*
X1974180Y2098860D01*
X1971080Y2098940D01*
X1894660Y2098940D01*
X1890820Y2098800D01*
X1888560Y2098580D01*
X1884820Y2098000D01*
X1882620Y2097500D01*
X1878980Y2096459D01*
X1876840Y2095700D01*
X1873360Y2094220D01*
X1871320Y2093220D01*
X1868040Y2091339D01*
X1866140Y2090100D01*
X1863080Y2087800D01*
X1812600Y2047100D01*
X1811220Y2046380D01*
X1809660Y2046240D01*
X1808180Y2046699D01*
X1806980Y2047700D01*
X1803280Y2052260D01*
X1798260Y2057280D01*
X1793500Y2061140D01*
X1792520Y2062340D01*
X1792040Y2063820D01*
X1792200Y2065380D01*
X1792920Y2066759D01*
X1795740Y2070240D01*
X1799600Y2076180D01*
X1802800Y2082480D01*
X1805340Y2089100D01*
X1807180Y2095940D01*
X1808280Y2102920D01*
X1808520Y2107360D01*
X1808980Y2109020D01*
X1810080Y2110340D01*
X1811639Y2111060D01*
X1813360Y2111060D01*
X1814960Y2110720D01*
X1817960Y2110260D01*
X1820980Y2110000D01*
X1824060Y2109900D01*
X2097500Y2109900D01*
X2098980Y2109620D01*
X2100260Y2108800D01*
X2101140Y2107580D01*
X2101500Y2106100D01*
X2101720Y2101920D01*
X2102820Y2094940D01*
X2104660Y2088100D01*
X2107200Y2081480D01*
X2110400Y2075180D01*
X2114260Y2069240D01*
X2116600Y2066360D01*
X2117320Y2064980D01*
X2117460Y2063420D01*
X2117000Y2061940D01*
X2116000Y2060740D01*
X2111740Y2057280D01*
X2106720Y2052260D01*
X2102260Y2046759D01*
X2098400Y2040820D01*
X2095200Y2034520D01*
X2092660Y2027900D01*
X2090820Y2021060D01*
X2089720Y2014079D01*
X2089540Y2010760D01*
X2089180Y2009280D01*
X2088280Y2008040D01*
X2086980Y2007220D01*
G37*

%LPD*%
G36*
X3200840Y2005460D02*
G01*
X3199280Y2005720D01*
X3197940Y2006579D01*
X3197040Y2007880D01*
X3196720Y2009440D01*
X3195100Y2365140D01*
X3195000Y2367820D01*
X3194720Y2370860D01*
X3194300Y2373440D01*
X3193620Y2376420D01*
X3192900Y2378920D01*
X3191860Y2381800D01*
X3190800Y2384200D01*
X3189420Y2386920D01*
X3188080Y2389160D01*
X3186360Y2391680D01*
X3184760Y2393740D01*
X3182720Y2396020D01*
X3180880Y2397860D01*
X3178580Y2399880D01*
X3176520Y2401480D01*
X3173980Y2403200D01*
X3171740Y2404520D01*
X3169000Y2405900D01*
X3166620Y2406920D01*
X3163740Y2407960D01*
X3161220Y2408680D01*
X3158240Y2409340D01*
X3155659Y2409740D01*
X3152620Y2410020D01*
X3149940Y2410100D01*
X3139060Y2410100D01*
X3137480Y2410420D01*
X3136160Y2411340D01*
X3135299Y2412720D01*
X3135059Y2414300D01*
X3135100Y2415000D01*
X3134720Y2422200D01*
X3133620Y2429340D01*
X3131780Y2436320D01*
X3129220Y2443060D01*
X3126000Y2449520D01*
X3122120Y2455620D01*
X3117660Y2461280D01*
X3116740Y2462200D01*
X3115899Y2463500D01*
X3115600Y2465000D01*
X3115899Y2466500D01*
X3116740Y2467800D01*
X3117660Y2468720D01*
X3122120Y2474380D01*
X3126000Y2480480D01*
X3129220Y2486940D01*
X3131780Y2493680D01*
X3133620Y2500660D01*
X3134720Y2507800D01*
X3135100Y2515000D01*
X3134720Y2522200D01*
X3133620Y2529340D01*
X3131780Y2536320D01*
X3129220Y2543060D01*
X3126000Y2549520D01*
X3122120Y2555620D01*
X3117660Y2561280D01*
X3116740Y2562200D01*
X3115899Y2563500D01*
X3115600Y2565000D01*
X3115899Y2566500D01*
X3116740Y2567799D01*
X3117660Y2568720D01*
X3122120Y2574380D01*
X3126000Y2580480D01*
X3129220Y2586940D01*
X3131780Y2593680D01*
X3133620Y2600659D01*
X3134720Y2607799D01*
X3135100Y2615000D01*
X3134720Y2622200D01*
X3133620Y2629340D01*
X3131780Y2636320D01*
X3129220Y2643060D01*
X3126000Y2649520D01*
X3122120Y2655620D01*
X3117660Y2661280D01*
X3116740Y2662200D01*
X3115899Y2663500D01*
X3115600Y2665000D01*
X3115899Y2666500D01*
X3116740Y2667799D01*
X3117660Y2668720D01*
X3122120Y2674380D01*
X3126000Y2680480D01*
X3129220Y2686940D01*
X3131780Y2693680D01*
X3133620Y2700659D01*
X3134720Y2707799D01*
X3135100Y2715000D01*
X3134720Y2722200D01*
X3133620Y2729340D01*
X3131780Y2736320D01*
X3129220Y2743060D01*
X3126000Y2749520D01*
X3122120Y2755620D01*
X3117660Y2761280D01*
X3112620Y2766440D01*
X3107080Y2771060D01*
X3101080Y2775100D01*
X3094720Y2778480D01*
X3088020Y2781200D01*
X3081100Y2783220D01*
X3074000Y2784520D01*
X3066800Y2785080D01*
X3059600Y2784880D01*
X3052440Y2783960D01*
X3045400Y2782300D01*
X3038600Y2779940D01*
X3032060Y2776880D01*
X3025880Y2773159D01*
X3020100Y2768820D01*
X3014800Y2763920D01*
X3010040Y2758500D01*
X3005860Y2752620D01*
X3002300Y2746340D01*
X2999420Y2739720D01*
X2997220Y2732860D01*
X2995740Y2725779D01*
X2995000Y2718600D01*
X2995000Y2711400D01*
X2995740Y2704220D01*
X2997220Y2697140D01*
X2999420Y2690280D01*
X3002300Y2683660D01*
X3005860Y2677380D01*
X3010040Y2671500D01*
X3013420Y2667640D01*
X3014160Y2666420D01*
X3014420Y2665000D01*
X3014160Y2663580D01*
X3013420Y2662360D01*
X3010040Y2658500D01*
X3005860Y2652620D01*
X3002300Y2646340D01*
X2999420Y2639720D01*
X2997220Y2632860D01*
X2995740Y2625779D01*
X2995000Y2618600D01*
X2995000Y2611400D01*
X2995740Y2604220D01*
X2997220Y2597140D01*
X2999420Y2590280D01*
X3002300Y2583660D01*
X3005860Y2577380D01*
X3010040Y2571500D01*
X3013420Y2567640D01*
X3014160Y2566420D01*
X3014420Y2565000D01*
X3014160Y2563580D01*
X3013420Y2562360D01*
X3010040Y2558500D01*
X3005860Y2552620D01*
X3002300Y2546340D01*
X2999420Y2539720D01*
X2997220Y2532860D01*
X2995740Y2525780D01*
X2995000Y2518600D01*
X2995000Y2511400D01*
X2995740Y2504220D01*
X2997220Y2497140D01*
X2999420Y2490280D01*
X3002300Y2483660D01*
X3005860Y2477380D01*
X3010040Y2471500D01*
X3013420Y2467640D01*
X3014160Y2466420D01*
X3014420Y2465000D01*
X3014160Y2463580D01*
X3013420Y2462360D01*
X3010040Y2458500D01*
X3005860Y2452620D01*
X3002300Y2446340D01*
X2999420Y2439720D01*
X2997220Y2432860D01*
X2995740Y2425780D01*
X2995000Y2418600D01*
X2995000Y2414100D01*
X2994700Y2412560D01*
X2993820Y2411280D01*
X2992520Y2410400D01*
X2991000Y2410100D01*
X2972140Y2410100D01*
X2970400Y2410500D01*
X2967380Y2411940D01*
X2966180Y2412820D01*
X2965380Y2414080D01*
X2965100Y2415540D01*
X2965080Y2811360D01*
X2964740Y2815720D01*
X2964560Y2817000D01*
X2963660Y2821280D01*
X2963320Y2822520D01*
X2961420Y2827860D01*
X2958860Y2832900D01*
X2955680Y2837600D01*
X2952840Y2840920D01*
X2945899Y2847840D01*
X2942600Y2850680D01*
X2937900Y2853860D01*
X2932860Y2856420D01*
X2927520Y2858320D01*
X2926280Y2858660D01*
X2922000Y2859560D01*
X2920720Y2859740D01*
X2916360Y2860080D01*
X2207140Y2860100D01*
X2205400Y2860500D01*
X2199580Y2863279D01*
X2193740Y2865260D01*
X2187700Y2866520D01*
X2181540Y2867080D01*
X2175380Y2866880D01*
X2169280Y2865980D01*
X2163320Y2864340D01*
X2157600Y2862020D01*
X2152200Y2859040D01*
X2147180Y2855460D01*
X2142620Y2851280D01*
X2138600Y2846600D01*
X2135140Y2841500D01*
X2132320Y2836000D01*
X2130180Y2830220D01*
X2128720Y2824220D01*
X2128000Y2818080D01*
X2128000Y2811920D01*
X2128720Y2805779D01*
X2130180Y2799780D01*
X2132320Y2794000D01*
X2135140Y2788500D01*
X2138600Y2783380D01*
X2142620Y2778720D01*
X2147180Y2774540D01*
X2152200Y2770960D01*
X2157600Y2767980D01*
X2163320Y2765659D01*
X2169280Y2764020D01*
X2175380Y2763120D01*
X2181540Y2762919D01*
X2187700Y2763480D01*
X2193740Y2764740D01*
X2199580Y2766720D01*
X2205400Y2769500D01*
X2207140Y2769900D01*
X2411280Y2769900D01*
X2412800Y2769600D01*
X2414080Y2768740D01*
X2414960Y2767460D01*
X2415280Y2765940D01*
X2414980Y2764400D01*
X2414140Y2763100D01*
X2412340Y2761280D01*
X2407880Y2755620D01*
X2404000Y2749520D01*
X2400780Y2743060D01*
X2398220Y2736320D01*
X2396380Y2729340D01*
X2395280Y2722200D01*
X2394900Y2715000D01*
X2395280Y2707799D01*
X2396380Y2700659D01*
X2398220Y2693680D01*
X2400780Y2686940D01*
X2404000Y2680480D01*
X2407880Y2674380D01*
X2412340Y2668720D01*
X2413260Y2667799D01*
X2414100Y2666500D01*
X2414400Y2665000D01*
X2414100Y2663500D01*
X2413260Y2662200D01*
X2412340Y2661280D01*
X2407880Y2655620D01*
X2404000Y2649520D01*
X2400780Y2643060D01*
X2398220Y2636320D01*
X2396380Y2629340D01*
X2395280Y2622200D01*
X2394900Y2615000D01*
X2395280Y2607799D01*
X2396380Y2600659D01*
X2398220Y2593680D01*
X2400780Y2586940D01*
X2404000Y2580480D01*
X2407880Y2574380D01*
X2412340Y2568720D01*
X2413260Y2567799D01*
X2414100Y2566500D01*
X2414400Y2565000D01*
X2414100Y2563500D01*
X2413260Y2562200D01*
X2412340Y2561280D01*
X2407880Y2555620D01*
X2404000Y2549520D01*
X2400780Y2543060D01*
X2398220Y2536320D01*
X2396380Y2529340D01*
X2395280Y2522200D01*
X2395180Y2520460D01*
X2394780Y2518920D01*
X2393820Y2517660D01*
X2392420Y2516860D01*
X2390840Y2516680D01*
X2386540Y2517080D01*
X2380380Y2516880D01*
X2374280Y2515980D01*
X2368320Y2514340D01*
X2362600Y2512020D01*
X2357200Y2509040D01*
X2352180Y2505460D01*
X2347620Y2501280D01*
X2343600Y2496600D01*
X2340140Y2491500D01*
X2337320Y2486000D01*
X2335180Y2480220D01*
X2333720Y2474220D01*
X2333000Y2468080D01*
X2333000Y2461920D01*
X2333720Y2455780D01*
X2335180Y2449780D01*
X2337320Y2444000D01*
X2339460Y2439840D01*
X2339780Y2438960D01*
X2339900Y2438020D01*
X2339900Y2414680D01*
X2341280Y2214260D01*
X2340980Y2212720D01*
X2340120Y2211420D01*
X2338820Y2210540D01*
X2337300Y2210220D01*
X2335760Y2210520D01*
X2334460Y2211400D01*
X2225460Y2320380D01*
X2223220Y2322500D01*
X2220900Y2324440D01*
X2218460Y2326220D01*
X2215920Y2327880D01*
X2213280Y2329360D01*
X2210560Y2330680D01*
X2207760Y2331840D01*
X2204900Y2332820D01*
X2201980Y2333640D01*
X2199040Y2334280D01*
X2196040Y2334740D01*
X2193020Y2335000D01*
X2189940Y2335100D01*
X2140060Y2335100D01*
X2136980Y2335000D01*
X2133960Y2334740D01*
X2130960Y2334280D01*
X2128020Y2333640D01*
X2125100Y2332820D01*
X2122240Y2331840D01*
X2119440Y2330680D01*
X2116720Y2329360D01*
X2114080Y2327880D01*
X2111540Y2326220D01*
X2109100Y2324440D01*
X2107560Y2323140D01*
X2106260Y2322420D01*
X2104800Y2322220D01*
X2103380Y2322560D01*
X2102160Y2323380D01*
X2100260Y2325280D01*
X2094760Y2329740D01*
X2088820Y2333600D01*
X2082520Y2336800D01*
X2075900Y2339340D01*
X2069060Y2341180D01*
X2062080Y2342280D01*
X2055000Y2342660D01*
X2047920Y2342280D01*
X2040940Y2341180D01*
X2034100Y2339340D01*
X2027480Y2336800D01*
X2026639Y2336380D01*
X2025000Y2335940D01*
X2023320Y2336240D01*
X2021920Y2337200D01*
X2021040Y2338660D01*
X2019600Y2342900D01*
X2017280Y2347600D01*
X2015780Y2349860D01*
X2015280Y2350920D01*
X2015100Y2352080D01*
X2015100Y2478440D01*
X2015400Y2479980D01*
X2016279Y2481280D01*
X2053720Y2518720D01*
X2055020Y2519600D01*
X2056560Y2519900D01*
X2090880Y2519900D01*
X2092140Y2519700D01*
X2093260Y2519120D01*
X2097600Y2515900D01*
X2104100Y2512000D01*
X2110940Y2508780D01*
X2118060Y2506220D01*
X2125400Y2504380D01*
X2132880Y2503280D01*
X2140440Y2502900D01*
X2147980Y2503280D01*
X2155480Y2504380D01*
X2162820Y2506220D01*
X2169940Y2508780D01*
X2176780Y2512000D01*
X2183260Y2515900D01*
X2189340Y2520400D01*
X2194940Y2525480D01*
X2200020Y2531100D01*
X2204540Y2537160D01*
X2208420Y2543660D01*
X2211660Y2550500D01*
X2214200Y2557620D01*
X2216040Y2564960D01*
X2217160Y2572440D01*
X2217520Y2580000D01*
X2217160Y2587559D01*
X2216040Y2595040D01*
X2214200Y2602380D01*
X2211660Y2609500D01*
X2208420Y2616340D01*
X2204540Y2622840D01*
X2200020Y2628900D01*
X2194940Y2634520D01*
X2189340Y2639600D01*
X2183260Y2644100D01*
X2176780Y2648000D01*
X2169940Y2651220D01*
X2162820Y2653780D01*
X2155480Y2655620D01*
X2147980Y2656720D01*
X2140440Y2657100D01*
X2132880Y2656720D01*
X2125400Y2655620D01*
X2118060Y2653780D01*
X2110940Y2651220D01*
X2104100Y2648000D01*
X2097600Y2644100D01*
X2093260Y2640880D01*
X2092140Y2640299D01*
X2090880Y2640100D01*
X2028420Y2640080D01*
X2023440Y2639740D01*
X2021940Y2639560D01*
X2017020Y2638680D01*
X2015540Y2638340D01*
X2010760Y2636940D01*
X2009319Y2636440D01*
X2004720Y2634520D01*
X2003340Y2633860D01*
X1998959Y2631460D01*
X1997680Y2630659D01*
X1993580Y2627820D01*
X1992380Y2626880D01*
X1988640Y2623600D01*
X1911399Y2546360D01*
X1908120Y2542620D01*
X1907180Y2541420D01*
X1904340Y2537320D01*
X1903540Y2536040D01*
X1901140Y2531660D01*
X1900480Y2530280D01*
X1898560Y2525680D01*
X1898060Y2524240D01*
X1896660Y2519460D01*
X1896320Y2517980D01*
X1895440Y2513060D01*
X1895260Y2511560D01*
X1894920Y2506580D01*
X1894900Y2352080D01*
X1894720Y2350920D01*
X1894220Y2349860D01*
X1892720Y2347600D01*
X1890400Y2342900D01*
X1888959Y2338660D01*
X1888080Y2337200D01*
X1886680Y2336240D01*
X1885000Y2335940D01*
X1883360Y2336380D01*
X1882520Y2336800D01*
X1875900Y2339340D01*
X1869060Y2341180D01*
X1862080Y2342280D01*
X1855000Y2342660D01*
X1847920Y2342280D01*
X1840940Y2341180D01*
X1834100Y2339340D01*
X1827480Y2336800D01*
X1821180Y2333600D01*
X1815240Y2329740D01*
X1809740Y2325280D01*
X1804720Y2320260D01*
X1800260Y2314760D01*
X1796399Y2308820D01*
X1793200Y2302520D01*
X1790660Y2295900D01*
X1788820Y2289060D01*
X1787720Y2282080D01*
X1787500Y2278100D01*
X1787120Y2276600D01*
X1786200Y2275340D01*
X1784840Y2274540D01*
X1783300Y2274320D01*
X1777000Y2274660D01*
X1769920Y2274280D01*
X1762940Y2273180D01*
X1756100Y2271340D01*
X1749480Y2268800D01*
X1743180Y2265600D01*
X1737240Y2261740D01*
X1731620Y2257180D01*
X1730300Y2256480D01*
X1728820Y2256300D01*
X1727380Y2256680D01*
X1726180Y2257560D01*
X1725380Y2258820D01*
X1725100Y2260300D01*
X1725100Y2269940D01*
X1725000Y2273020D01*
X1724740Y2276040D01*
X1724280Y2279040D01*
X1723640Y2281980D01*
X1722820Y2284900D01*
X1721840Y2287760D01*
X1720680Y2290560D01*
X1719360Y2293280D01*
X1717880Y2295920D01*
X1716220Y2298460D01*
X1714440Y2300900D01*
X1712500Y2303220D01*
X1710380Y2305460D01*
X1505380Y2510480D01*
X1504760Y2511260D01*
X1504360Y2512180D01*
X1503779Y2514180D01*
X1501240Y2520200D01*
X1498040Y2525860D01*
X1494199Y2531140D01*
X1489800Y2535940D01*
X1484860Y2540220D01*
X1479480Y2543900D01*
X1473720Y2546940D01*
X1467640Y2549300D01*
X1461339Y2550960D01*
X1454880Y2551880D01*
X1448360Y2552080D01*
X1441879Y2551520D01*
X1435480Y2550220D01*
X1429280Y2548200D01*
X1423360Y2545500D01*
X1418060Y2542300D01*
X1416519Y2541760D01*
X1414900Y2541880D01*
X1413460Y2542620D01*
X1412440Y2543900D01*
X1412000Y2545460D01*
X1412220Y2547080D01*
X1414199Y2552620D01*
X1416040Y2559960D01*
X1417160Y2567440D01*
X1417520Y2575000D01*
X1417160Y2582559D01*
X1416040Y2590040D01*
X1414199Y2597380D01*
X1411660Y2604500D01*
X1408420Y2611340D01*
X1404540Y2617840D01*
X1400020Y2623900D01*
X1394940Y2629520D01*
X1389340Y2634600D01*
X1383260Y2639100D01*
X1376780Y2643000D01*
X1369940Y2646220D01*
X1362820Y2648780D01*
X1355480Y2650620D01*
X1347980Y2651720D01*
X1340440Y2652100D01*
X1332880Y2651720D01*
X1325400Y2650620D01*
X1318060Y2648780D01*
X1310940Y2646220D01*
X1304100Y2643000D01*
X1297600Y2639100D01*
X1291519Y2634600D01*
X1285920Y2629520D01*
X1280840Y2623900D01*
X1276340Y2617840D01*
X1272440Y2611340D01*
X1269200Y2604500D01*
X1266660Y2597380D01*
X1264820Y2590040D01*
X1263700Y2582559D01*
X1263340Y2575000D01*
X1263700Y2567440D01*
X1264820Y2559960D01*
X1265580Y2556920D01*
X1265640Y2555200D01*
X1264960Y2553620D01*
X1263680Y2552460D01*
X1262040Y2551960D01*
X1256880Y2551520D01*
X1250480Y2550220D01*
X1244280Y2548200D01*
X1238280Y2545460D01*
X1236620Y2545100D01*
X942560Y2545100D01*
X939479Y2545000D01*
X936460Y2544740D01*
X933460Y2544280D01*
X930520Y2543640D01*
X927600Y2542820D01*
X924740Y2541840D01*
X921940Y2540680D01*
X919220Y2539360D01*
X916580Y2537880D01*
X914040Y2536220D01*
X911600Y2534440D01*
X909280Y2532500D01*
X907039Y2530380D01*
X406920Y2030280D01*
X405640Y2029420D01*
X404099Y2029100D01*
X402560Y2029420D01*
X401280Y2030280D01*
X400400Y2031579D01*
X400100Y2033100D01*
X400100Y2789660D01*
X400400Y2791200D01*
X401280Y2792500D01*
X534060Y2925280D01*
X535360Y2926139D01*
X536880Y2926440D01*
X572720Y2926440D01*
X578080Y2926800D01*
X583220Y2927820D01*
X588180Y2929500D01*
X593220Y2932000D01*
X594380Y2932380D01*
X595620Y2932380D01*
X596780Y2932000D01*
X601820Y2929500D01*
X606780Y2927820D01*
X611920Y2926800D01*
X617280Y2926440D01*
X672720Y2926440D01*
X678080Y2926800D01*
X683220Y2927820D01*
X688180Y2929500D01*
X693220Y2932000D01*
X694380Y2932380D01*
X695620Y2932380D01*
X696780Y2932000D01*
X701820Y2929500D01*
X706780Y2927820D01*
X711919Y2926800D01*
X717280Y2926440D01*
X772720Y2926440D01*
X778080Y2926800D01*
X783220Y2927820D01*
X788180Y2929500D01*
X793220Y2932000D01*
X794380Y2932380D01*
X795620Y2932380D01*
X796780Y2932000D01*
X801820Y2929500D01*
X806780Y2927820D01*
X811919Y2926800D01*
X817280Y2926440D01*
X872720Y2926440D01*
X878080Y2926800D01*
X883220Y2927820D01*
X888199Y2929520D01*
X892900Y2931820D01*
X897260Y2934740D01*
X901200Y2938200D01*
X904659Y2942140D01*
X907580Y2946500D01*
X909880Y2951200D01*
X911580Y2956180D01*
X912600Y2961320D01*
X912960Y2966680D01*
X912960Y3033320D01*
X912600Y3038680D01*
X911580Y3043820D01*
X909880Y3048800D01*
X907580Y3053500D01*
X904659Y3057860D01*
X901200Y3061800D01*
X897260Y3065260D01*
X892900Y3068180D01*
X888199Y3070480D01*
X883220Y3072180D01*
X878080Y3073200D01*
X872720Y3073540D01*
X817280Y3073540D01*
X811919Y3073200D01*
X806780Y3072180D01*
X801820Y3070500D01*
X796780Y3068000D01*
X795620Y3067620D01*
X794380Y3067620D01*
X793220Y3068000D01*
X788180Y3070500D01*
X783220Y3072180D01*
X778080Y3073200D01*
X772720Y3073540D01*
X717280Y3073540D01*
X711919Y3073200D01*
X706780Y3072180D01*
X701820Y3070500D01*
X696780Y3068000D01*
X695620Y3067620D01*
X694380Y3067620D01*
X693220Y3068000D01*
X688180Y3070500D01*
X683220Y3072180D01*
X678080Y3073200D01*
X672720Y3073540D01*
X617280Y3073540D01*
X611920Y3073200D01*
X606780Y3072180D01*
X601820Y3070500D01*
X596780Y3068000D01*
X595620Y3067620D01*
X594380Y3067620D01*
X593220Y3068000D01*
X588180Y3070500D01*
X583220Y3072180D01*
X578080Y3073200D01*
X572720Y3073540D01*
X517280Y3073540D01*
X511920Y3073200D01*
X506780Y3072180D01*
X501820Y3070500D01*
X496780Y3068000D01*
X495620Y3067620D01*
X494380Y3067620D01*
X493220Y3068000D01*
X488180Y3070500D01*
X483220Y3072180D01*
X478080Y3073200D01*
X472720Y3073540D01*
X417280Y3073540D01*
X411920Y3073200D01*
X406780Y3072180D01*
X401800Y3070480D01*
X397100Y3068180D01*
X392740Y3065260D01*
X388800Y3061800D01*
X385340Y3057860D01*
X382420Y3053500D01*
X380120Y3048800D01*
X378420Y3043820D01*
X377400Y3038680D01*
X377060Y3033320D01*
X377060Y3002480D01*
X376740Y3000960D01*
X375880Y2999660D01*
X318060Y2941840D01*
X316760Y2940960D01*
X315240Y2940659D01*
X313700Y2940960D01*
X312400Y2941820D01*
X311540Y2943120D01*
X311220Y2944640D01*
X310200Y3095880D01*
X310500Y3097420D01*
X311360Y3098720D01*
X312660Y3099600D01*
X314200Y3099900D01*
X1462420Y3099900D01*
X1464060Y3099560D01*
X1465400Y3098580D01*
X1466220Y3097160D01*
X1466399Y3095500D01*
X1465900Y3093920D01*
X1464800Y3092679D01*
X1463300Y3092000D01*
X1459300Y3091100D01*
X1450180Y3088300D01*
X1441300Y3084780D01*
X1432720Y3080560D01*
X1424520Y3075680D01*
X1416740Y3070160D01*
X1409400Y3064040D01*
X1402580Y3057360D01*
X1396320Y3050140D01*
X1390640Y3042460D01*
X1385600Y3034360D01*
X1381220Y3025880D01*
X1377520Y3017080D01*
X1374520Y3008000D01*
X1372260Y2998720D01*
X1370760Y2989300D01*
X1370000Y2979780D01*
X1370000Y2970220D01*
X1370760Y2960700D01*
X1372260Y2951280D01*
X1374520Y2942000D01*
X1377520Y2932919D01*
X1381220Y2924120D01*
X1385600Y2915640D01*
X1390640Y2907540D01*
X1396320Y2899860D01*
X1402580Y2892640D01*
X1409400Y2885960D01*
X1416740Y2879840D01*
X1424520Y2874320D01*
X1432720Y2869440D01*
X1441300Y2865220D01*
X1450180Y2861700D01*
X1459300Y2858900D01*
X1468620Y2856820D01*
X1478080Y2855500D01*
X1487620Y2854920D01*
X1497160Y2855120D01*
X1506660Y2856060D01*
X1516060Y2857760D01*
X1525300Y2860200D01*
X1534300Y2863380D01*
X1543020Y2867240D01*
X1551420Y2871800D01*
X1559420Y2877000D01*
X1567000Y2882840D01*
X1574079Y2889240D01*
X1580620Y2896180D01*
X1586600Y2903639D01*
X1591960Y2911540D01*
X1596680Y2919840D01*
X1600720Y2928480D01*
X1604079Y2937440D01*
X1606699Y2946620D01*
X1608580Y2955980D01*
X1609720Y2965460D01*
X1610100Y2975000D01*
X1609720Y2984540D01*
X1608580Y2994020D01*
X1606699Y3003380D01*
X1604079Y3012559D01*
X1600720Y3021500D01*
X1596680Y3030160D01*
X1591960Y3038460D01*
X1586600Y3046360D01*
X1580620Y3053820D01*
X1574079Y3060760D01*
X1567000Y3067160D01*
X1559420Y3073000D01*
X1551420Y3078200D01*
X1543020Y3082760D01*
X1534300Y3086620D01*
X1525300Y3089800D01*
X1516819Y3092040D01*
X1515360Y3092760D01*
X1514319Y3094020D01*
X1513860Y3095600D01*
X1514079Y3097220D01*
X1514920Y3098620D01*
X1516240Y3099560D01*
X1517840Y3099900D01*
X4787920Y3099900D01*
X4789560Y3099560D01*
X4790900Y3098560D01*
X4791720Y3097120D01*
X4791900Y3095460D01*
X4791360Y3093860D01*
X4790220Y3092640D01*
X4786740Y3090160D01*
X4779400Y3084040D01*
X4772580Y3077360D01*
X4766320Y3070140D01*
X4760640Y3062460D01*
X4755600Y3054360D01*
X4751220Y3045880D01*
X4747520Y3037080D01*
X4744520Y3028000D01*
X4742260Y3018720D01*
X4740760Y3009300D01*
X4740000Y2999780D01*
X4740000Y2990220D01*
X4740760Y2980700D01*
X4742260Y2971280D01*
X4744520Y2962000D01*
X4747520Y2952919D01*
X4751220Y2944120D01*
X4755600Y2935640D01*
X4760640Y2927540D01*
X4766320Y2919860D01*
X4772580Y2912640D01*
X4779400Y2905960D01*
X4786740Y2899840D01*
X4794520Y2894320D01*
X4802720Y2889440D01*
X4811300Y2885220D01*
X4820180Y2881700D01*
X4829300Y2878900D01*
X4838620Y2876820D01*
X4848080Y2875500D01*
X4857620Y2874920D01*
X4867160Y2875120D01*
X4876660Y2876060D01*
X4886060Y2877760D01*
X4895300Y2880200D01*
X4904300Y2883380D01*
X4913020Y2887240D01*
X4921420Y2891800D01*
X4929420Y2897000D01*
X4937000Y2902840D01*
X4944080Y2909240D01*
X4950620Y2916180D01*
X4956600Y2923639D01*
X4961960Y2931540D01*
X4966680Y2939840D01*
X4970720Y2948480D01*
X4974080Y2957440D01*
X4976700Y2966620D01*
X4978580Y2975980D01*
X4979720Y2985460D01*
X4980100Y2995000D01*
X4979720Y3004540D01*
X4978580Y3014020D01*
X4976700Y3023380D01*
X4974080Y3032559D01*
X4970720Y3041500D01*
X4966680Y3050160D01*
X4961960Y3058460D01*
X4956600Y3066360D01*
X4950620Y3073820D01*
X4944080Y3080760D01*
X4937000Y3087160D01*
X4929780Y3092740D01*
X4928700Y3093980D01*
X4928220Y3095560D01*
X4928420Y3097180D01*
X4929260Y3098600D01*
X4930600Y3099560D01*
X4932220Y3099900D01*
X4985900Y3099900D01*
X4987440Y3099600D01*
X4988720Y3098720D01*
X4989600Y3097440D01*
X4989900Y3095899D01*
X4989900Y2659560D01*
X4989540Y2657900D01*
X4988520Y2656540D01*
X4987040Y2655720D01*
X4985340Y2655600D01*
X4983760Y2656180D01*
X4982540Y2657380D01*
X4980600Y2660400D01*
X4976060Y2665980D01*
X4970980Y2671060D01*
X4965400Y2675600D01*
X4959360Y2679520D01*
X4952940Y2682780D01*
X4946240Y2685360D01*
X4939280Y2687220D01*
X4932180Y2688340D01*
X4924900Y2688720D01*
X4743780Y2688720D01*
X4742260Y2689020D01*
X4740960Y2689900D01*
X4740080Y2691200D01*
X4739780Y2692720D01*
X4739780Y2739900D01*
X4739420Y2746780D01*
X4738360Y2753460D01*
X4736600Y2760020D01*
X4734180Y2766340D01*
X4731100Y2772380D01*
X4727400Y2778080D01*
X4723140Y2783340D01*
X4718340Y2788140D01*
X4713080Y2792400D01*
X4707380Y2796100D01*
X4701340Y2799180D01*
X4695020Y2801600D01*
X4688460Y2803360D01*
X4681780Y2804420D01*
X4674900Y2804780D01*
X3915020Y2804780D01*
X3863820Y2804440D01*
X3862280Y2804740D01*
X3860960Y2805600D01*
X3860100Y2806900D01*
X3859780Y2808440D01*
X3859780Y2864940D01*
X3859700Y2868399D01*
X3859420Y2871780D01*
X3858980Y2875140D01*
X3858360Y2878460D01*
X3857580Y2881760D01*
X3856620Y2885020D01*
X3855480Y2888220D01*
X3854180Y2891340D01*
X3852720Y2894420D01*
X3851100Y2897400D01*
X3849340Y2900280D01*
X3847420Y2903080D01*
X3845340Y2905760D01*
X3843140Y2908340D01*
X3840779Y2910840D01*
X3705840Y3045779D01*
X3703340Y3048140D01*
X3700760Y3050340D01*
X3698080Y3052420D01*
X3695280Y3054340D01*
X3692400Y3056100D01*
X3689420Y3057720D01*
X3686340Y3059180D01*
X3683220Y3060480D01*
X3680020Y3061620D01*
X3676760Y3062580D01*
X3673460Y3063360D01*
X3670140Y3063980D01*
X3666780Y3064420D01*
X3663399Y3064700D01*
X3659940Y3064780D01*
X1925060Y3064780D01*
X1921600Y3064700D01*
X1918220Y3064420D01*
X1914860Y3063980D01*
X1911540Y3063360D01*
X1908240Y3062580D01*
X1904980Y3061620D01*
X1901780Y3060480D01*
X1898660Y3059180D01*
X1895580Y3057720D01*
X1892600Y3056100D01*
X1889720Y3054340D01*
X1886920Y3052420D01*
X1884240Y3050340D01*
X1881660Y3048140D01*
X1879160Y3045779D01*
X1669340Y2835960D01*
X1668040Y2835080D01*
X1666500Y2834780D01*
X915060Y2834780D01*
X911600Y2834700D01*
X908220Y2834420D01*
X904860Y2833980D01*
X901540Y2833360D01*
X898240Y2832580D01*
X894980Y2831620D01*
X891780Y2830480D01*
X888660Y2829180D01*
X885580Y2827720D01*
X882600Y2826100D01*
X879720Y2824340D01*
X876919Y2822420D01*
X874240Y2820340D01*
X871660Y2818140D01*
X869160Y2815779D01*
X723800Y2670419D01*
X721420Y2667919D01*
X719220Y2665340D01*
X717159Y2662640D01*
X715240Y2659860D01*
X713460Y2656960D01*
X711840Y2653980D01*
X710380Y2650920D01*
X709080Y2647780D01*
X707960Y2644580D01*
X707000Y2641340D01*
X706200Y2638039D01*
X705580Y2634700D01*
X705140Y2631340D01*
X704880Y2627960D01*
X704780Y2624520D01*
X704780Y2617799D01*
X704640Y2616740D01*
X704220Y2615740D01*
X701580Y2611340D01*
X698340Y2604500D01*
X695800Y2597380D01*
X693960Y2590040D01*
X692840Y2582559D01*
X692480Y2575000D01*
X692840Y2567440D01*
X693960Y2559960D01*
X695800Y2552620D01*
X698340Y2545500D01*
X701580Y2538660D01*
X705460Y2532160D01*
X709980Y2526100D01*
X715060Y2520480D01*
X720660Y2515400D01*
X726740Y2510900D01*
X733220Y2507000D01*
X740060Y2503780D01*
X747180Y2501220D01*
X754520Y2499380D01*
X762020Y2498280D01*
X769560Y2497900D01*
X777120Y2498280D01*
X784599Y2499380D01*
X791940Y2501220D01*
X799080Y2503780D01*
X805900Y2507000D01*
X812400Y2510900D01*
X818480Y2515400D01*
X824080Y2520480D01*
X829160Y2526100D01*
X833660Y2532160D01*
X837560Y2538660D01*
X840800Y2545500D01*
X843340Y2552620D01*
X845180Y2559960D01*
X846300Y2567440D01*
X846660Y2575000D01*
X846300Y2582559D01*
X845180Y2590040D01*
X843340Y2597380D01*
X841740Y2601880D01*
X841500Y2603360D01*
X841820Y2604820D01*
X842680Y2606060D01*
X940660Y2704040D01*
X941960Y2704920D01*
X943500Y2705220D01*
X1528940Y2705220D01*
X1530460Y2704920D01*
X1531759Y2704040D01*
X1532640Y2702740D01*
X1532940Y2701220D01*
X1532640Y2699680D01*
X1531759Y2698380D01*
X1523800Y2690419D01*
X1521420Y2687919D01*
X1519220Y2685340D01*
X1517160Y2682640D01*
X1515240Y2679860D01*
X1513460Y2676960D01*
X1511840Y2673980D01*
X1510380Y2670920D01*
X1509079Y2667780D01*
X1507960Y2664580D01*
X1507000Y2661340D01*
X1506200Y2658039D01*
X1505580Y2654700D01*
X1505140Y2651340D01*
X1504880Y2647960D01*
X1504780Y2644520D01*
X1504780Y2622799D01*
X1504640Y2621740D01*
X1504220Y2620740D01*
X1501579Y2616340D01*
X1498340Y2609500D01*
X1495800Y2602380D01*
X1493959Y2595040D01*
X1492840Y2587559D01*
X1492480Y2580000D01*
X1492840Y2572440D01*
X1493959Y2564960D01*
X1495800Y2557620D01*
X1498340Y2550500D01*
X1501579Y2543660D01*
X1505460Y2537160D01*
X1509980Y2531100D01*
X1515060Y2525480D01*
X1520660Y2520400D01*
X1526740Y2515900D01*
X1533220Y2512000D01*
X1540060Y2508780D01*
X1547180Y2506220D01*
X1554520Y2504380D01*
X1562020Y2503280D01*
X1569560Y2502900D01*
X1577120Y2503280D01*
X1584600Y2504380D01*
X1591940Y2506220D01*
X1599079Y2508780D01*
X1605900Y2512000D01*
X1612400Y2515900D01*
X1618480Y2520400D01*
X1624079Y2525480D01*
X1629160Y2531100D01*
X1633660Y2537160D01*
X1637560Y2543660D01*
X1640800Y2550500D01*
X1643340Y2557620D01*
X1645180Y2564960D01*
X1646300Y2572440D01*
X1646660Y2580000D01*
X1646300Y2587559D01*
X1645180Y2595040D01*
X1643340Y2602380D01*
X1640800Y2609500D01*
X1637440Y2616540D01*
X1636900Y2618200D01*
X1637100Y2619940D01*
X1638040Y2621420D01*
X1950660Y2934040D01*
X1951960Y2934920D01*
X1953500Y2935220D01*
X3301300Y2935220D01*
X3302720Y2934960D01*
X3303960Y2934220D01*
X3304840Y2933080D01*
X3305280Y2931720D01*
X3305200Y2930280D01*
X3303720Y2924220D01*
X3303000Y2918080D01*
X3303000Y2911920D01*
X3303720Y2905779D01*
X3305179Y2899780D01*
X3307320Y2894000D01*
X3310140Y2888500D01*
X3313600Y2883380D01*
X3317620Y2878720D01*
X3322180Y2874540D01*
X3327200Y2870960D01*
X3332600Y2867980D01*
X3338320Y2865659D01*
X3344060Y2864080D01*
X3345640Y2863220D01*
X3793080Y2471140D01*
X3794100Y2469760D01*
X3794440Y2468060D01*
X3789820Y2239280D01*
X3789580Y2237960D01*
X3788900Y2236800D01*
X3787880Y2235940D01*
X3786620Y2235440D01*
X3785480Y2235220D01*
X3779280Y2233200D01*
X3775520Y2231480D01*
X3773940Y2231120D01*
X3772340Y2231420D01*
X3771000Y2232320D01*
X3770120Y2233680D01*
X3769800Y2234520D01*
X3766600Y2240820D01*
X3762740Y2246760D01*
X3758279Y2252260D01*
X3753260Y2257280D01*
X3747760Y2261740D01*
X3741820Y2265600D01*
X3735520Y2268800D01*
X3728900Y2271340D01*
X3722060Y2273180D01*
X3715080Y2274280D01*
X3708000Y2274660D01*
X3701700Y2274320D01*
X3700160Y2274540D01*
X3698800Y2275340D01*
X3697880Y2276600D01*
X3697500Y2278100D01*
X3697280Y2282080D01*
X3696180Y2289060D01*
X3694340Y2295900D01*
X3691800Y2302520D01*
X3688600Y2308820D01*
X3684740Y2314760D01*
X3680280Y2320260D01*
X3675260Y2325280D01*
X3669760Y2329740D01*
X3663820Y2333600D01*
X3657520Y2336800D01*
X3650899Y2339340D01*
X3644060Y2341180D01*
X3637080Y2342280D01*
X3630000Y2342660D01*
X3622919Y2342280D01*
X3615940Y2341180D01*
X3609100Y2339340D01*
X3602480Y2336800D01*
X3601640Y2336380D01*
X3600000Y2335940D01*
X3598320Y2336240D01*
X3596920Y2337200D01*
X3596040Y2338660D01*
X3594600Y2342900D01*
X3592280Y2347600D01*
X3589360Y2351960D01*
X3585899Y2355900D01*
X3581960Y2359360D01*
X3577600Y2362280D01*
X3572900Y2364600D01*
X3567940Y2366280D01*
X3562799Y2367300D01*
X3557420Y2367660D01*
X3549000Y2367660D01*
X3547460Y2367960D01*
X3546160Y2368840D01*
X3305760Y2609240D01*
X3304960Y2610360D01*
X3304600Y2611680D01*
X3304700Y2613039D01*
X3305179Y2614960D01*
X3306300Y2622440D01*
X3306660Y2630000D01*
X3306300Y2637559D01*
X3305179Y2645040D01*
X3303340Y2652380D01*
X3300800Y2659500D01*
X3297559Y2666340D01*
X3293660Y2672840D01*
X3289160Y2678900D01*
X3284080Y2684520D01*
X3278480Y2689600D01*
X3272400Y2694100D01*
X3265899Y2698000D01*
X3259080Y2701220D01*
X3251940Y2703780D01*
X3244600Y2705620D01*
X3237120Y2706720D01*
X3229560Y2707100D01*
X3222020Y2706720D01*
X3214520Y2705620D01*
X3207180Y2703780D01*
X3200059Y2701220D01*
X3193220Y2698000D01*
X3186740Y2694100D01*
X3180659Y2689600D01*
X3175059Y2684520D01*
X3169980Y2678900D01*
X3165460Y2672840D01*
X3161580Y2666340D01*
X3158340Y2659500D01*
X3155800Y2652380D01*
X3153960Y2645040D01*
X3152840Y2637559D01*
X3152480Y2630000D01*
X3152840Y2622440D01*
X3153960Y2614960D01*
X3155800Y2607620D01*
X3158340Y2600500D01*
X3161580Y2593660D01*
X3165460Y2587160D01*
X3169980Y2581100D01*
X3174320Y2576300D01*
X3174980Y2575320D01*
X3175700Y2573759D01*
X3178100Y2569400D01*
X3178900Y2568100D01*
X3181760Y2564020D01*
X3182700Y2562820D01*
X3185980Y2559060D01*
X3402380Y2342620D01*
X3403220Y2341380D01*
X3403540Y2339920D01*
X3403320Y2338440D01*
X3402540Y2337160D01*
X3401360Y2336240D01*
X3396180Y2333600D01*
X3390240Y2329740D01*
X3384740Y2325280D01*
X3379720Y2320260D01*
X3375260Y2314760D01*
X3371400Y2308820D01*
X3368200Y2302520D01*
X3365659Y2295900D01*
X3363820Y2289060D01*
X3362720Y2282080D01*
X3362500Y2278100D01*
X3362120Y2276600D01*
X3361200Y2275340D01*
X3359840Y2274540D01*
X3358300Y2274320D01*
X3352000Y2274660D01*
X3344920Y2274280D01*
X3337940Y2273180D01*
X3331100Y2271340D01*
X3324480Y2268800D01*
X3318180Y2265600D01*
X3312240Y2261740D01*
X3306740Y2257280D01*
X3301720Y2252260D01*
X3297260Y2246760D01*
X3293399Y2240820D01*
X3290200Y2234520D01*
X3287660Y2227900D01*
X3285820Y2221060D01*
X3284720Y2214080D01*
X3284340Y2207000D01*
X3284720Y2199920D01*
X3285820Y2192940D01*
X3287660Y2186100D01*
X3290200Y2179480D01*
X3291160Y2177560D01*
X3291600Y2175960D01*
X3291340Y2174320D01*
X3290440Y2172920D01*
X3289040Y2172020D01*
X3288480Y2171800D01*
X3282180Y2168600D01*
X3276240Y2164740D01*
X3270740Y2160280D01*
X3265720Y2155260D01*
X3261259Y2149760D01*
X3257400Y2143820D01*
X3254200Y2137520D01*
X3251660Y2130900D01*
X3249820Y2124060D01*
X3248720Y2117080D01*
X3248340Y2110000D01*
X3248720Y2102920D01*
X3249820Y2095940D01*
X3251660Y2089100D01*
X3254200Y2082480D01*
X3257400Y2076180D01*
X3261259Y2070240D01*
X3265720Y2064740D01*
X3270740Y2059720D01*
X3275500Y2055860D01*
X3276480Y2054660D01*
X3276960Y2053180D01*
X3276800Y2051620D01*
X3276080Y2050240D01*
X3273260Y2046759D01*
X3269400Y2040820D01*
X3266200Y2034520D01*
X3263660Y2027900D01*
X3261820Y2021060D01*
X3260720Y2014079D01*
X3260560Y2011000D01*
X3260200Y2009560D01*
X3259360Y2008340D01*
X3258120Y2007520D01*
X3256680Y2007200D01*
G37*

%LPD*%
G36*
X4257640Y1977360D02*
G01*
X4256200Y1977400D01*
X4254880Y1977960D01*
X4250820Y1980600D01*
X4244520Y1983800D01*
X4237900Y1986339D01*
X4231060Y1988180D01*
X4227560Y1988740D01*
X4226100Y1989280D01*
X4224960Y1990340D01*
X4224300Y1991740D01*
X4224240Y1993300D01*
X4225280Y1999920D01*
X4225660Y2007000D01*
X4225280Y2014079D01*
X4224180Y2021060D01*
X4222340Y2027900D01*
X4219800Y2034520D01*
X4216600Y2040820D01*
X4212740Y2046759D01*
X4208280Y2052260D01*
X4206120Y2054440D01*
X4205260Y2055720D01*
X4204940Y2057240D01*
X4205240Y2058760D01*
X4206080Y2060040D01*
X4207340Y2060920D01*
X4208860Y2061260D01*
X4351600Y2064379D01*
X4353260Y2064060D01*
X4354620Y2063080D01*
X4392040Y2022260D01*
X4411280Y1998300D01*
X4413020Y1996240D01*
X4415400Y1993760D01*
X4417260Y1992040D01*
X4418180Y1990740D01*
X4418540Y1989199D01*
X4418260Y1987640D01*
X4417400Y1986300D01*
X4416100Y1985420D01*
X4414540Y1985100D01*
X4285060Y1985100D01*
X4281980Y1985000D01*
X4278960Y1984740D01*
X4275960Y1984280D01*
X4273020Y1983640D01*
X4270100Y1982820D01*
X4267240Y1981840D01*
X4264440Y1980680D01*
X4261720Y1979360D01*
X4259020Y1977840D01*
G37*

%LPD*%
G36*
X1446399Y1970100D02*
G01*
X1444880Y1970400D01*
X1443580Y1971279D01*
X1420960Y1993880D01*
X1420080Y1995220D01*
X1419800Y1996800D01*
X1420160Y1998380D01*
X1421100Y1999680D01*
X1422480Y2000500D01*
X1424060Y2000700D01*
X1478440Y1996960D01*
X1479360Y1996780D01*
X1480220Y1996399D01*
X1483360Y1994500D01*
X1489280Y1991800D01*
X1495480Y1989780D01*
X1501879Y1988480D01*
X1508360Y1987920D01*
X1514880Y1988120D01*
X1521339Y1989040D01*
X1527640Y1990700D01*
X1533720Y1993060D01*
X1539480Y1996100D01*
X1544860Y1999780D01*
X1549800Y2004060D01*
X1554199Y2008860D01*
X1558040Y2014139D01*
X1561240Y2019800D01*
X1563779Y2025820D01*
X1565600Y2032060D01*
X1566720Y2038500D01*
X1567100Y2045000D01*
X1566720Y2051500D01*
X1565600Y2057940D01*
X1563779Y2064180D01*
X1561240Y2070200D01*
X1558040Y2075860D01*
X1554199Y2081140D01*
X1549800Y2085940D01*
X1544860Y2090220D01*
X1539480Y2093899D01*
X1533720Y2096940D01*
X1527640Y2099300D01*
X1521339Y2100960D01*
X1514880Y2101880D01*
X1508360Y2102080D01*
X1501879Y2101520D01*
X1495480Y2100220D01*
X1489280Y2098200D01*
X1487260Y2097280D01*
X1486300Y2096980D01*
X1485320Y2096920D01*
X1436180Y2100300D01*
X1434580Y2100760D01*
X1433300Y2101840D01*
X1432580Y2103320D01*
X1432520Y2104980D01*
X1433140Y2106520D01*
X1434319Y2107680D01*
X1435880Y2108260D01*
X1441339Y2109040D01*
X1447640Y2110700D01*
X1453720Y2113060D01*
X1459480Y2116100D01*
X1464860Y2119780D01*
X1469800Y2124060D01*
X1474199Y2128860D01*
X1478040Y2134140D01*
X1481240Y2139800D01*
X1483779Y2145820D01*
X1485600Y2152060D01*
X1486720Y2158500D01*
X1487100Y2165000D01*
X1486720Y2171500D01*
X1485600Y2177940D01*
X1483779Y2184180D01*
X1481240Y2190200D01*
X1478040Y2195860D01*
X1474199Y2201140D01*
X1469800Y2205940D01*
X1464860Y2210220D01*
X1459480Y2213900D01*
X1453720Y2216940D01*
X1447640Y2219300D01*
X1441339Y2220960D01*
X1434880Y2221880D01*
X1428360Y2222080D01*
X1421879Y2221520D01*
X1415480Y2220220D01*
X1409280Y2218200D01*
X1403360Y2215500D01*
X1401279Y2214240D01*
X1400380Y2213840D01*
X1399400Y2213680D01*
X1384079Y2212920D01*
X1382640Y2213120D01*
X1381360Y2213820D01*
X1380420Y2214920D01*
X1379940Y2216300D01*
X1379180Y2221060D01*
X1377340Y2227900D01*
X1374800Y2234520D01*
X1371600Y2240820D01*
X1367740Y2246760D01*
X1363280Y2252260D01*
X1358260Y2257280D01*
X1352760Y2261740D01*
X1346819Y2265600D01*
X1340520Y2268800D01*
X1333899Y2271340D01*
X1327060Y2273180D01*
X1320080Y2274280D01*
X1313000Y2274660D01*
X1306699Y2274320D01*
X1305160Y2274540D01*
X1303800Y2275340D01*
X1302880Y2276600D01*
X1302500Y2278100D01*
X1302280Y2282080D01*
X1301180Y2289060D01*
X1299340Y2295900D01*
X1296800Y2302520D01*
X1293600Y2308820D01*
X1289740Y2314760D01*
X1287540Y2317480D01*
X1286840Y2318760D01*
X1286660Y2320200D01*
X1287000Y2321620D01*
X1287820Y2322820D01*
X1371500Y2406540D01*
X1374780Y2410280D01*
X1375720Y2411480D01*
X1378560Y2415580D01*
X1379360Y2416860D01*
X1381759Y2421240D01*
X1382420Y2422620D01*
X1384340Y2427220D01*
X1384840Y2428660D01*
X1386240Y2433440D01*
X1386579Y2434920D01*
X1387460Y2439840D01*
X1387640Y2441340D01*
X1387980Y2446320D01*
X1388000Y2476040D01*
X1388320Y2477600D01*
X1389220Y2478900D01*
X1390540Y2479760D01*
X1392120Y2480040D01*
X1393660Y2479680D01*
X1394940Y2478740D01*
X1395760Y2477380D01*
X1397400Y2472780D01*
X1400280Y2466920D01*
X1403820Y2461440D01*
X1407940Y2456400D01*
X1412620Y2451860D01*
X1417780Y2447880D01*
X1423360Y2444500D01*
X1429280Y2441800D01*
X1432920Y2440620D01*
X1433760Y2440220D01*
X1434500Y2439640D01*
X1623720Y2250420D01*
X1624600Y2249120D01*
X1624900Y2247600D01*
X1624900Y1974100D01*
X1624600Y1972560D01*
X1623720Y1971279D01*
X1622440Y1970400D01*
X1620900Y1970100D01*
G37*

%LPD*%
G36*
X1060500Y1938100D02*
G01*
X1058880Y1938520D01*
X1057600Y1939580D01*
X1056840Y1941060D01*
X1056340Y1942900D01*
X1053800Y1949520D01*
X1050600Y1955820D01*
X1046740Y1961759D01*
X1042280Y1967260D01*
X1037260Y1972280D01*
X1031760Y1976740D01*
X1027620Y1979420D01*
X1026500Y1980500D01*
X1025879Y1981920D01*
X1025860Y1983460D01*
X1026720Y1988500D01*
X1027099Y1995000D01*
X1026720Y2001500D01*
X1025600Y2007940D01*
X1025060Y2009780D01*
X1024920Y2011240D01*
X1025320Y2012660D01*
X1026200Y2013839D01*
X1027460Y2014620D01*
X1028900Y2014900D01*
X1094640Y2014900D01*
X1096120Y2014620D01*
X1097380Y2013820D01*
X1098260Y2012620D01*
X1098640Y2011160D01*
X1098460Y2009680D01*
X1097740Y2008360D01*
X1093820Y2003560D01*
X1090280Y1998080D01*
X1087400Y1992220D01*
X1085220Y1986080D01*
X1083740Y1979740D01*
X1083000Y1973260D01*
X1083000Y1966740D01*
X1083740Y1960260D01*
X1085220Y1953920D01*
X1087400Y1947780D01*
X1088020Y1945780D01*
X1087740Y1944139D01*
X1086840Y1942760D01*
X1085440Y1941860D01*
X1083800Y1941620D01*
X1083000Y1941660D01*
X1075920Y1941279D01*
X1068940Y1940180D01*
X1062140Y1938360D01*
G37*

%LPD*%
G36*
X1955000Y1919199D02*
G01*
X1953460Y1919500D01*
X1952180Y1920380D01*
X1948260Y1924280D01*
X1942760Y1928740D01*
X1936819Y1932600D01*
X1930520Y1935800D01*
X1923899Y1938340D01*
X1917060Y1940180D01*
X1910080Y1941279D01*
X1903000Y1941660D01*
X1895920Y1941279D01*
X1888940Y1940180D01*
X1881740Y1938240D01*
X1880180Y1938120D01*
X1878700Y1938620D01*
X1877540Y1939660D01*
X1876840Y1941060D01*
X1876339Y1942900D01*
X1873800Y1949520D01*
X1870600Y1955820D01*
X1868580Y1958920D01*
X1868020Y1960260D01*
X1868000Y1961720D01*
X1868480Y1963100D01*
X1869420Y1964199D01*
X1911160Y1997860D01*
X1912340Y1998520D01*
X1913680Y1998740D01*
X1948740Y1998740D01*
X1950280Y1998440D01*
X1951560Y1997580D01*
X2001220Y1947920D01*
X2002160Y1946440D01*
X2002380Y1944720D01*
X2001840Y1943060D01*
X2000640Y1941780D01*
X1999019Y1941140D01*
X1992940Y1940180D01*
X1986100Y1938340D01*
X1979480Y1935800D01*
X1973180Y1932600D01*
X1967240Y1928740D01*
X1961740Y1924280D01*
X1957820Y1920380D01*
X1956540Y1919500D01*
G37*

%LPD*%
G36*
X845600Y1790100D02*
G01*
X844080Y1790400D01*
X842780Y1791279D01*
X841919Y1792560D01*
X841600Y1794100D01*
X841919Y1795640D01*
X842780Y1796920D01*
X930160Y1884300D01*
X931660Y1885240D01*
X933400Y1885460D01*
X935080Y1884880D01*
X936340Y1883660D01*
X937260Y1882240D01*
X941720Y1876740D01*
X946740Y1871720D01*
X952240Y1867260D01*
X958180Y1863400D01*
X964479Y1860200D01*
X971100Y1857660D01*
X973660Y1856960D01*
X974960Y1856339D01*
X975960Y1855300D01*
X1014860Y1796300D01*
X1015480Y1794700D01*
X1015380Y1793000D01*
X1014560Y1791500D01*
X1013199Y1790460D01*
X1011520Y1790100D01*
G37*

%LPD*%
G36*
X1213640Y1740100D02*
G01*
X1211980Y1740460D01*
X1210640Y1741459D01*
X1209820Y1742920D01*
X1209660Y1744600D01*
X1210220Y1746180D01*
X1211380Y1747400D01*
X1214860Y1749780D01*
X1219800Y1754060D01*
X1224200Y1758860D01*
X1228040Y1764139D01*
X1231240Y1769800D01*
X1233780Y1775820D01*
X1235600Y1782060D01*
X1236720Y1788500D01*
X1237100Y1795000D01*
X1236720Y1801500D01*
X1235600Y1807940D01*
X1233780Y1814180D01*
X1231540Y1819460D01*
X1231220Y1821000D01*
X1231520Y1822540D01*
X1232400Y1823860D01*
X1237280Y1828740D01*
X1241740Y1834240D01*
X1245600Y1840180D01*
X1248800Y1846480D01*
X1251340Y1853100D01*
X1251840Y1854940D01*
X1252540Y1856339D01*
X1253700Y1857380D01*
X1255180Y1857880D01*
X1256740Y1857760D01*
X1263940Y1855820D01*
X1270920Y1854720D01*
X1278000Y1854340D01*
X1285080Y1854720D01*
X1292060Y1855820D01*
X1298899Y1857660D01*
X1305520Y1860200D01*
X1311819Y1863400D01*
X1317760Y1867260D01*
X1323260Y1871720D01*
X1328280Y1876740D01*
X1332740Y1882240D01*
X1336600Y1888180D01*
X1339800Y1894480D01*
X1342340Y1901100D01*
X1344180Y1907940D01*
X1345280Y1914920D01*
X1345460Y1918240D01*
X1345820Y1919720D01*
X1346720Y1920960D01*
X1348020Y1921780D01*
X1349520Y1922040D01*
X1351020Y1921720D01*
X1352280Y1920860D01*
X1388540Y1884620D01*
X1390780Y1882500D01*
X1393100Y1880560D01*
X1395540Y1878760D01*
X1398080Y1877120D01*
X1400720Y1875640D01*
X1403440Y1874319D01*
X1406240Y1873160D01*
X1409100Y1872180D01*
X1412020Y1871360D01*
X1414960Y1870720D01*
X1417960Y1870260D01*
X1420980Y1870000D01*
X1424060Y1869900D01*
X1658899Y1869900D01*
X1660340Y1869640D01*
X1661600Y1868860D01*
X1662480Y1867680D01*
X1662880Y1866279D01*
X1667700Y1815620D01*
X1667500Y1813880D01*
X1666560Y1812400D01*
X1655420Y1801279D01*
X1654120Y1800400D01*
X1652600Y1800100D01*
X1565060Y1800100D01*
X1561980Y1800000D01*
X1558959Y1799740D01*
X1555960Y1799280D01*
X1553020Y1798640D01*
X1550100Y1797820D01*
X1547240Y1796840D01*
X1544440Y1795680D01*
X1541720Y1794360D01*
X1539079Y1792880D01*
X1536540Y1791220D01*
X1534100Y1789440D01*
X1531780Y1787500D01*
X1529540Y1785380D01*
X1524500Y1780360D01*
X1523760Y1779780D01*
X1522920Y1779379D01*
X1519280Y1778200D01*
X1513360Y1775500D01*
X1507780Y1772120D01*
X1502620Y1768140D01*
X1497940Y1763600D01*
X1493820Y1758560D01*
X1490280Y1753080D01*
X1487400Y1747220D01*
X1485820Y1742760D01*
X1484960Y1741360D01*
X1483640Y1740440D01*
X1482040Y1740100D01*
G37*

%LPD*%
G36*
X1913959Y1738880D02*
G01*
X1805220Y1739740D01*
X1803700Y1740060D01*
X1802400Y1740920D01*
X1801540Y1742220D01*
X1801260Y1743760D01*
X1801560Y1745280D01*
X1802420Y1746579D01*
X1847380Y1791540D01*
X1849500Y1793779D01*
X1851440Y1796100D01*
X1853240Y1798540D01*
X1854880Y1801080D01*
X1856360Y1803720D01*
X1857680Y1806440D01*
X1858839Y1809240D01*
X1859820Y1812100D01*
X1860580Y1814800D01*
X1861240Y1816120D01*
X1862340Y1817120D01*
X1863740Y1817660D01*
X1865240Y1817640D01*
X1866620Y1817080D01*
X1869180Y1815400D01*
X1875480Y1812200D01*
X1882100Y1809660D01*
X1888940Y1807820D01*
X1895920Y1806720D01*
X1898100Y1806600D01*
X1899500Y1806260D01*
X1900720Y1805440D01*
X1923720Y1782420D01*
X1924600Y1781120D01*
X1924900Y1779600D01*
X1924900Y1773220D01*
X1924480Y1771459D01*
X1922400Y1767220D01*
X1920220Y1761080D01*
X1918740Y1754740D01*
X1918000Y1748260D01*
X1918000Y1742880D01*
X1917700Y1741339D01*
X1916819Y1740040D01*
X1915500Y1739180D01*
G37*

%LPD*%
G36*
X2169400Y1736860D02*
G01*
X2035900Y1737920D01*
X2034319Y1738240D01*
X2033000Y1739180D01*
X2032160Y1740540D01*
X2031920Y1742140D01*
X2032100Y1745000D01*
X2031720Y1751500D01*
X2030600Y1757940D01*
X2028779Y1764180D01*
X2026240Y1770200D01*
X2025240Y1772240D01*
X2025100Y1773260D01*
X2025100Y1801920D01*
X2024960Y1805640D01*
X2025240Y1807260D01*
X2026140Y1808640D01*
X2027520Y1809540D01*
X2034520Y1812200D01*
X2040820Y1815400D01*
X2046759Y1819259D01*
X2052260Y1823720D01*
X2057280Y1828740D01*
X2061740Y1834240D01*
X2065600Y1840180D01*
X2068800Y1846480D01*
X2071339Y1853100D01*
X2071840Y1854940D01*
X2072540Y1856339D01*
X2073700Y1857380D01*
X2075180Y1857880D01*
X2076740Y1857760D01*
X2083940Y1855820D01*
X2090920Y1854720D01*
X2098000Y1854340D01*
X2105080Y1854720D01*
X2112060Y1855820D01*
X2118900Y1857660D01*
X2125520Y1860200D01*
X2131820Y1863400D01*
X2137760Y1867260D01*
X2143260Y1871720D01*
X2146160Y1874620D01*
X2147460Y1875480D01*
X2149000Y1875780D01*
X2150520Y1875480D01*
X2151820Y1874620D01*
X2168720Y1857720D01*
X2169600Y1856420D01*
X2169900Y1854880D01*
X2169900Y1803220D01*
X2169480Y1801459D01*
X2167400Y1797220D01*
X2165220Y1791080D01*
X2163740Y1784740D01*
X2163000Y1778260D01*
X2163000Y1771740D01*
X2163740Y1765260D01*
X2165220Y1758920D01*
X2167400Y1752780D01*
X2170280Y1746920D01*
X2172800Y1743020D01*
X2173400Y1741420D01*
X2173260Y1739720D01*
X2172440Y1738220D01*
X2171080Y1737200D01*
G37*

%LPD*%
G36*
X3616860Y1729640D02*
G01*
X3586700Y1729800D01*
X3585120Y1730140D01*
X3583780Y1731080D01*
X3582940Y1732480D01*
X3582740Y1734079D01*
X3583480Y1744960D01*
X3583940Y1746560D01*
X3585020Y1747840D01*
X3740659Y1868600D01*
X3742240Y1869340D01*
X3743980Y1869360D01*
X3745539Y1868620D01*
X3746660Y1867300D01*
X3747120Y1865620D01*
X3746820Y1863920D01*
X3720840Y1801320D01*
X3720299Y1800400D01*
X3719540Y1799660D01*
X3717320Y1798020D01*
X3673960Y1772520D01*
X3672280Y1771980D01*
X3666880Y1771519D01*
X3660480Y1770220D01*
X3654280Y1768200D01*
X3648360Y1765500D01*
X3642780Y1762120D01*
X3637620Y1758140D01*
X3632940Y1753600D01*
X3628820Y1748560D01*
X3625280Y1743080D01*
X3622400Y1737220D01*
X3620640Y1732300D01*
X3619800Y1730900D01*
X3618460Y1729960D01*
G37*

%LPD*%
G36*
X4049940Y1727180D02*
G01*
X3803279Y1728580D01*
X3801600Y1728959D01*
X3800240Y1730000D01*
X3799440Y1731519D01*
X3799360Y1733240D01*
X3800000Y1734840D01*
X3802580Y1738620D01*
X3803600Y1740320D01*
X3805460Y1743920D01*
X3905460Y1984740D01*
X3906540Y1986240D01*
X3909800Y1989060D01*
X3914200Y1993860D01*
X3918039Y1999139D01*
X3921240Y2004800D01*
X3923780Y2010820D01*
X3925600Y2017060D01*
X3926720Y2023500D01*
X3927100Y2030000D01*
X3926720Y2036500D01*
X3925600Y2042940D01*
X3923780Y2049180D01*
X3921240Y2055200D01*
X3918039Y2060860D01*
X3914200Y2066140D01*
X3909800Y2070940D01*
X3904860Y2075220D01*
X3899480Y2078899D01*
X3893720Y2081940D01*
X3887640Y2084300D01*
X3881340Y2085960D01*
X3880460Y2086080D01*
X3879100Y2086540D01*
X3877980Y2087460D01*
X3877260Y2088700D01*
X3877040Y2090120D01*
X3885080Y2488980D01*
X3884880Y2494380D01*
X3883980Y2499960D01*
X3882380Y2505400D01*
X3880120Y2510600D01*
X3877220Y2515460D01*
X3873740Y2519920D01*
X3869620Y2524000D01*
X3834520Y2554760D01*
X3833580Y2556000D01*
X3833180Y2557540D01*
X3833399Y2559100D01*
X3834200Y2560440D01*
X3835460Y2561380D01*
X3836780Y2562000D01*
X3843260Y2565899D01*
X3849340Y2570400D01*
X3854940Y2575480D01*
X3860020Y2581100D01*
X3864540Y2587160D01*
X3868420Y2593660D01*
X3871660Y2600500D01*
X3874200Y2607620D01*
X3876040Y2614960D01*
X3877160Y2622440D01*
X3877520Y2630000D01*
X3877160Y2637559D01*
X3876040Y2645040D01*
X3874200Y2652380D01*
X3871660Y2659500D01*
X3868420Y2666340D01*
X3866920Y2668860D01*
X3866380Y2670440D01*
X3866540Y2672100D01*
X3867340Y2673560D01*
X3868700Y2674540D01*
X3870320Y2674920D01*
X3915240Y2675220D01*
X4036700Y2675220D01*
X4038420Y2674840D01*
X4039800Y2673759D01*
X4040580Y2672180D01*
X4040620Y2670440D01*
X4039920Y2668840D01*
X4035460Y2662840D01*
X4031580Y2656340D01*
X4028340Y2649500D01*
X4025800Y2642380D01*
X4023960Y2635040D01*
X4022840Y2627559D01*
X4022480Y2620000D01*
X4022840Y2612440D01*
X4023960Y2604960D01*
X4025800Y2597620D01*
X4028340Y2590500D01*
X4031580Y2583660D01*
X4035460Y2577160D01*
X4039980Y2571100D01*
X4045059Y2565480D01*
X4050659Y2560400D01*
X4056740Y2555900D01*
X4063220Y2552000D01*
X4070059Y2548780D01*
X4077180Y2546220D01*
X4084520Y2544380D01*
X4092020Y2543280D01*
X4099560Y2542900D01*
X4107120Y2543280D01*
X4114600Y2544380D01*
X4123700Y2546600D01*
X4125080Y2546340D01*
X4138480Y2541340D01*
X4139620Y2540680D01*
X4140480Y2539700D01*
X4259140Y2348540D01*
X4259700Y2347000D01*
X4259580Y2345360D01*
X4258820Y2343900D01*
X4257540Y2342860D01*
X4255940Y2342440D01*
X4252920Y2342280D01*
X4245940Y2341180D01*
X4239100Y2339340D01*
X4232480Y2336800D01*
X4226180Y2333600D01*
X4220240Y2329740D01*
X4214740Y2325280D01*
X4209720Y2320260D01*
X4205260Y2314760D01*
X4201400Y2308820D01*
X4198200Y2302520D01*
X4195660Y2295900D01*
X4193820Y2289060D01*
X4192720Y2282080D01*
X4192500Y2278100D01*
X4192120Y2276600D01*
X4191200Y2275340D01*
X4189840Y2274540D01*
X4188300Y2274320D01*
X4182000Y2274660D01*
X4174920Y2274280D01*
X4167940Y2273180D01*
X4161100Y2271340D01*
X4154480Y2268800D01*
X4148180Y2265600D01*
X4142240Y2261740D01*
X4136740Y2257280D01*
X4131720Y2252260D01*
X4127260Y2246760D01*
X4123399Y2240820D01*
X4120200Y2234520D01*
X4117660Y2227900D01*
X4115820Y2221060D01*
X4114720Y2214080D01*
X4114340Y2207000D01*
X4114720Y2199920D01*
X4115820Y2192940D01*
X4117660Y2186100D01*
X4120200Y2179480D01*
X4121160Y2177560D01*
X4121600Y2175960D01*
X4121340Y2174320D01*
X4120440Y2172920D01*
X4119040Y2172020D01*
X4118480Y2171800D01*
X4112180Y2168600D01*
X4106240Y2164740D01*
X4100740Y2160280D01*
X4095720Y2155260D01*
X4091259Y2149760D01*
X4087400Y2143820D01*
X4084200Y2137520D01*
X4081660Y2130900D01*
X4079820Y2124060D01*
X4078720Y2117080D01*
X4078340Y2110000D01*
X4078720Y2102920D01*
X4079820Y2095940D01*
X4081660Y2089100D01*
X4084200Y2082480D01*
X4087400Y2076180D01*
X4091259Y2070240D01*
X4095720Y2064740D01*
X4100740Y2059720D01*
X4105500Y2055860D01*
X4106480Y2054660D01*
X4106960Y2053180D01*
X4106800Y2051620D01*
X4106080Y2050240D01*
X4103260Y2046759D01*
X4099400Y2040820D01*
X4096200Y2034520D01*
X4093660Y2027900D01*
X4091820Y2021060D01*
X4090720Y2014079D01*
X4090340Y2007000D01*
X4090720Y1999920D01*
X4091820Y1992940D01*
X4093660Y1986100D01*
X4096200Y1979480D01*
X4099400Y1973180D01*
X4103260Y1967240D01*
X4107720Y1961740D01*
X4112740Y1956720D01*
X4118240Y1952260D01*
X4124180Y1948400D01*
X4130480Y1945200D01*
X4137100Y1942660D01*
X4143940Y1940820D01*
X4147440Y1940260D01*
X4148900Y1939720D01*
X4150059Y1938660D01*
X4150700Y1937260D01*
X4150760Y1935700D01*
X4149720Y1929079D01*
X4149340Y1922000D01*
X4149720Y1914920D01*
X4150820Y1907940D01*
X4152660Y1901100D01*
X4155200Y1894480D01*
X4158399Y1888180D01*
X4162260Y1882240D01*
X4166000Y1877620D01*
X4166680Y1876440D01*
X4166900Y1875100D01*
X4166900Y1863420D01*
X4166720Y1862220D01*
X4166180Y1861140D01*
X4165340Y1860260D01*
X4162620Y1858140D01*
X4157940Y1853600D01*
X4153820Y1848560D01*
X4150280Y1843080D01*
X4147400Y1837220D01*
X4145220Y1831080D01*
X4143740Y1824740D01*
X4143000Y1818260D01*
X4143000Y1811740D01*
X4143740Y1805260D01*
X4145220Y1798920D01*
X4147400Y1792780D01*
X4150280Y1786920D01*
X4153820Y1781440D01*
X4156820Y1777760D01*
X4157520Y1776480D01*
X4157720Y1775040D01*
X4157380Y1773600D01*
X4156560Y1772400D01*
X4155419Y1771279D01*
X4154120Y1770400D01*
X4152600Y1770100D01*
X4138180Y1770100D01*
X4137220Y1770220D01*
X4136320Y1770560D01*
X4133720Y1771940D01*
X4127640Y1774300D01*
X4121340Y1775960D01*
X4114880Y1776879D01*
X4108360Y1777080D01*
X4101880Y1776519D01*
X4095480Y1775220D01*
X4089280Y1773200D01*
X4083360Y1770500D01*
X4077780Y1767120D01*
X4072620Y1763140D01*
X4067940Y1758600D01*
X4063820Y1753560D01*
X4060280Y1748080D01*
X4057400Y1742220D01*
X4055220Y1736080D01*
X4053860Y1730260D01*
X4053340Y1729040D01*
X4052440Y1728040D01*
X4051280Y1727400D01*
G37*

%LPC*%
G36*
X3923360Y1762920D02*
G01*
X3929880Y1763120D01*
X3936340Y1764040D01*
X3942640Y1765700D01*
X3948720Y1768060D01*
X3954480Y1771100D01*
X3959860Y1774780D01*
X3964800Y1779060D01*
X3969200Y1783860D01*
X3973039Y1789139D01*
X3976240Y1794800D01*
X3978780Y1800820D01*
X3980600Y1807060D01*
X3981720Y1813500D01*
X3982100Y1820000D01*
X3981720Y1826500D01*
X3980600Y1832940D01*
X3978780Y1839180D01*
X3976240Y1845200D01*
X3975860Y1845860D01*
X3975360Y1847500D01*
X3975580Y1849199D01*
X3976520Y1850660D01*
X3995400Y1869540D01*
X3996240Y1870180D01*
X4003720Y1873060D01*
X4009480Y1876100D01*
X4014860Y1879780D01*
X4019800Y1884060D01*
X4024200Y1888860D01*
X4028039Y1894139D01*
X4031240Y1899800D01*
X4033780Y1905820D01*
X4035600Y1912060D01*
X4036720Y1918500D01*
X4037100Y1925000D01*
X4036720Y1931500D01*
X4035600Y1937940D01*
X4033780Y1944180D01*
X4031240Y1950200D01*
X4028039Y1955860D01*
X4024200Y1961140D01*
X4019800Y1965940D01*
X4014860Y1970220D01*
X4009480Y1973899D01*
X4003720Y1976940D01*
X3997640Y1979300D01*
X3991340Y1980960D01*
X3984880Y1981879D01*
X3978360Y1982080D01*
X3971880Y1981519D01*
X3965480Y1980220D01*
X3959280Y1978200D01*
X3953360Y1975500D01*
X3947780Y1972120D01*
X3942620Y1968140D01*
X3937940Y1963600D01*
X3933820Y1958560D01*
X3930280Y1953080D01*
X3927400Y1947220D01*
X3925520Y1941920D01*
X3924580Y1940420D01*
X3889620Y1905460D01*
X3887500Y1903220D01*
X3885560Y1900900D01*
X3883780Y1898460D01*
X3882120Y1895920D01*
X3880640Y1893280D01*
X3879320Y1890560D01*
X3878159Y1887760D01*
X3877180Y1884900D01*
X3876360Y1881980D01*
X3875720Y1879040D01*
X3875260Y1876040D01*
X3875000Y1873020D01*
X3874900Y1869940D01*
X3874900Y1848220D01*
X3874480Y1846459D01*
X3872400Y1842220D01*
X3870220Y1836080D01*
X3868740Y1829740D01*
X3868000Y1823260D01*
X3868000Y1816740D01*
X3868740Y1810260D01*
X3870220Y1803920D01*
X3872400Y1797780D01*
X3875280Y1791920D01*
X3878820Y1786440D01*
X3882940Y1781399D01*
X3887620Y1776860D01*
X3892780Y1772880D01*
X3898360Y1769500D01*
X3904280Y1766800D01*
X3910480Y1764780D01*
X3916880Y1763480D01*
G37*

%LPD*%
G36*
X4389540Y1725240D02*
G01*
X4261460Y1725980D01*
X4259940Y1726279D01*
X4258640Y1727160D01*
X4257780Y1728460D01*
X4257480Y1729980D01*
X4257780Y1731500D01*
X4258660Y1732800D01*
X4293060Y1767220D01*
X4294320Y1768060D01*
X4295800Y1768380D01*
X4297280Y1768140D01*
X4303760Y1766180D01*
X4309720Y1765180D01*
X4315860Y1764900D01*
X4370360Y1765840D01*
X4371700Y1765620D01*
X4372900Y1764980D01*
X4373800Y1763980D01*
X4374340Y1762740D01*
X4375220Y1758920D01*
X4377400Y1752780D01*
X4380280Y1746920D01*
X4383820Y1741440D01*
X4387940Y1736399D01*
X4392340Y1732120D01*
X4393240Y1730820D01*
X4393560Y1729280D01*
X4393260Y1727740D01*
X4392380Y1726420D01*
X4391080Y1725540D01*
G37*

%LPD*%
G36*
X4765000Y1682120D02*
G01*
X4763460Y1682420D01*
X4762180Y1683300D01*
X4760220Y1685240D01*
X4754740Y1689680D01*
X4748800Y1693540D01*
X4742500Y1696759D01*
X4735880Y1699280D01*
X4729060Y1701120D01*
X4722060Y1702220D01*
X4715000Y1702600D01*
X4713260Y1702500D01*
X4711700Y1702740D01*
X4710340Y1703560D01*
X4709400Y1704840D01*
X4709060Y1706380D01*
X4705080Y1851279D01*
X4704700Y1856339D01*
X4703320Y1863240D01*
X4701740Y1868040D01*
X4699220Y1873560D01*
X4696060Y1878700D01*
X4695480Y1879520D01*
X4692300Y1883440D01*
X4687980Y1887720D01*
X4611460Y1954880D01*
X4610480Y1956180D01*
X4610100Y1957760D01*
X4610380Y1959360D01*
X4611260Y1960720D01*
X4612280Y1961740D01*
X4616740Y1967240D01*
X4620600Y1973180D01*
X4623800Y1979480D01*
X4626340Y1986100D01*
X4628180Y1992940D01*
X4629280Y1999920D01*
X4629660Y2007000D01*
X4629280Y2014079D01*
X4628180Y2021060D01*
X4626340Y2027900D01*
X4623800Y2034520D01*
X4620600Y2040820D01*
X4616740Y2046759D01*
X4614400Y2049640D01*
X4613680Y2051020D01*
X4613540Y2052580D01*
X4614000Y2054060D01*
X4615000Y2055260D01*
X4619260Y2058720D01*
X4624280Y2063740D01*
X4628740Y2069240D01*
X4632600Y2075180D01*
X4635800Y2081480D01*
X4638340Y2088100D01*
X4640180Y2094940D01*
X4641280Y2101920D01*
X4641660Y2109000D01*
X4641280Y2116080D01*
X4640180Y2123060D01*
X4638340Y2129900D01*
X4635800Y2136520D01*
X4632600Y2142820D01*
X4628740Y2148760D01*
X4624280Y2154260D01*
X4619260Y2159280D01*
X4613760Y2163740D01*
X4607820Y2167600D01*
X4601520Y2170800D01*
X4600540Y2171180D01*
X4599140Y2172080D01*
X4598240Y2173480D01*
X4597980Y2175120D01*
X4598400Y2176740D01*
X4599800Y2179480D01*
X4602340Y2186100D01*
X4604180Y2192940D01*
X4605280Y2199920D01*
X4605660Y2207000D01*
X4605280Y2214080D01*
X4604180Y2221060D01*
X4602340Y2227900D01*
X4599800Y2234520D01*
X4596600Y2240820D01*
X4592740Y2246760D01*
X4588280Y2252260D01*
X4583260Y2257280D01*
X4577760Y2261740D01*
X4571820Y2265600D01*
X4565520Y2268800D01*
X4558900Y2271340D01*
X4552060Y2273180D01*
X4545080Y2274280D01*
X4538000Y2274660D01*
X4531700Y2274320D01*
X4530160Y2274540D01*
X4528800Y2275340D01*
X4527880Y2276600D01*
X4527500Y2278100D01*
X4527280Y2282080D01*
X4526180Y2289060D01*
X4524340Y2295900D01*
X4521800Y2302520D01*
X4518600Y2308820D01*
X4514740Y2314760D01*
X4510280Y2320260D01*
X4505260Y2325280D01*
X4499760Y2329740D01*
X4493820Y2333600D01*
X4487520Y2336800D01*
X4480900Y2339340D01*
X4474060Y2341180D01*
X4467080Y2342280D01*
X4460000Y2342660D01*
X4452920Y2342280D01*
X4445940Y2341180D01*
X4439100Y2339340D01*
X4432480Y2336800D01*
X4431640Y2336380D01*
X4430000Y2335940D01*
X4428320Y2336240D01*
X4426920Y2337200D01*
X4426040Y2338660D01*
X4424600Y2342900D01*
X4422280Y2347600D01*
X4419360Y2351960D01*
X4415900Y2355900D01*
X4411960Y2359360D01*
X4407600Y2362280D01*
X4402900Y2364600D01*
X4397940Y2366280D01*
X4392800Y2367300D01*
X4390840Y2367440D01*
X4389620Y2367720D01*
X4388540Y2368360D01*
X4387720Y2369320D01*
X4231060Y2621680D01*
X4227020Y2627420D01*
X4222700Y2632280D01*
X4217880Y2636660D01*
X4212620Y2640480D01*
X4206960Y2643700D01*
X4200900Y2646340D01*
X4166980Y2659000D01*
X4165820Y2659680D01*
X4164960Y2660700D01*
X4163660Y2662840D01*
X4159220Y2668840D01*
X4158500Y2670440D01*
X4158560Y2672180D01*
X4159340Y2673759D01*
X4160720Y2674840D01*
X4162440Y2675220D01*
X4606220Y2675220D01*
X4607740Y2674920D01*
X4609040Y2674040D01*
X4609920Y2672740D01*
X4610220Y2671220D01*
X4610220Y2669400D01*
X4610020Y2668140D01*
X4609420Y2667000D01*
X4606340Y2662840D01*
X4602440Y2656340D01*
X4599200Y2649500D01*
X4596660Y2642380D01*
X4594820Y2635040D01*
X4593700Y2627559D01*
X4593340Y2620000D01*
X4593700Y2612440D01*
X4594820Y2604960D01*
X4596660Y2597620D01*
X4599200Y2590500D01*
X4602440Y2583660D01*
X4606340Y2577160D01*
X4610840Y2571100D01*
X4615920Y2565480D01*
X4621520Y2560400D01*
X4627600Y2555900D01*
X4634100Y2552000D01*
X4640940Y2548780D01*
X4648060Y2546220D01*
X4655400Y2544380D01*
X4662880Y2543280D01*
X4670440Y2542900D01*
X4677980Y2543280D01*
X4685480Y2544380D01*
X4692820Y2546220D01*
X4699940Y2548780D01*
X4704420Y2550900D01*
X4706120Y2551280D01*
X4852280Y2551280D01*
X4853800Y2550980D01*
X4855100Y2550100D01*
X4855980Y2548800D01*
X4856280Y2547280D01*
X4856280Y1696040D01*
X4855920Y1694379D01*
X4854900Y1693020D01*
X4853400Y1692200D01*
X4851700Y1692100D01*
X4850100Y1692700D01*
X4848800Y1693540D01*
X4842500Y1696759D01*
X4835880Y1699280D01*
X4829060Y1701120D01*
X4822060Y1702220D01*
X4815000Y1702600D01*
X4807940Y1702220D01*
X4800940Y1701120D01*
X4794120Y1699280D01*
X4787500Y1696759D01*
X4781200Y1693540D01*
X4775260Y1689680D01*
X4769780Y1685240D01*
X4767820Y1683300D01*
X4766540Y1682420D01*
G37*

%LPD*%
G36*
X3280000Y1672120D02*
G01*
X3278460Y1672420D01*
X3277180Y1673300D01*
X3275220Y1675240D01*
X3269740Y1679680D01*
X3263800Y1683540D01*
X3257500Y1686759D01*
X3250880Y1689280D01*
X3247500Y1690200D01*
X3245980Y1690980D01*
X3244920Y1692320D01*
X3244540Y1694000D01*
X3241000Y1902520D01*
X3241259Y1904040D01*
X3242100Y1905360D01*
X3243360Y1906240D01*
X3244880Y1906600D01*
X3317380Y1908860D01*
X3319120Y1908520D01*
X3320539Y1907460D01*
X3321380Y1905900D01*
X3322660Y1901100D01*
X3325200Y1894480D01*
X3328399Y1888180D01*
X3332260Y1882240D01*
X3336720Y1876740D01*
X3341740Y1871720D01*
X3347240Y1867260D01*
X3353180Y1863400D01*
X3359480Y1860200D01*
X3366100Y1857660D01*
X3371940Y1856100D01*
X3373480Y1855300D01*
X3374520Y1853920D01*
X3374900Y1852220D01*
X3374900Y1778220D01*
X3374480Y1776459D01*
X3372400Y1772220D01*
X3370220Y1766080D01*
X3368740Y1759740D01*
X3368000Y1753260D01*
X3368000Y1746740D01*
X3368740Y1740260D01*
X3370220Y1733920D01*
X3372400Y1727780D01*
X3375280Y1721920D01*
X3378820Y1716440D01*
X3382940Y1711399D01*
X3387620Y1706860D01*
X3392780Y1702880D01*
X3398360Y1699500D01*
X3404280Y1696800D01*
X3406760Y1696000D01*
X3408159Y1695180D01*
X3409140Y1693880D01*
X3409520Y1692300D01*
X3409220Y1690700D01*
X3408320Y1689340D01*
X3406960Y1688460D01*
X3402500Y1686759D01*
X3396200Y1683540D01*
X3390260Y1679680D01*
X3384780Y1675240D01*
X3382820Y1673300D01*
X3381540Y1672420D01*
X3380000Y1672120D01*
X3378460Y1672420D01*
X3377180Y1673300D01*
X3375220Y1675240D01*
X3369740Y1679680D01*
X3363800Y1683540D01*
X3357500Y1686759D01*
X3350880Y1689280D01*
X3344060Y1691120D01*
X3337060Y1692220D01*
X3330000Y1692600D01*
X3322940Y1692220D01*
X3315940Y1691120D01*
X3309120Y1689280D01*
X3302500Y1686759D01*
X3296200Y1683540D01*
X3290260Y1679680D01*
X3284780Y1675240D01*
X3282820Y1673300D01*
X3281540Y1672420D01*
G37*

%LPD*%
G36*
X2327780Y1634700D02*
G01*
X2326160Y1635060D01*
X2324820Y1636060D01*
X2324020Y1637520D01*
X2323100Y1639780D01*
X2322760Y1641339D01*
X2323060Y1642900D01*
X2323920Y1644220D01*
X2325240Y1645100D01*
X2326800Y1645400D01*
X2328800Y1645380D01*
X2330280Y1645080D01*
X2331540Y1644280D01*
X2332400Y1643040D01*
X2332760Y1641579D01*
X2332560Y1640080D01*
X2331640Y1637400D01*
X2330780Y1635960D01*
X2329420Y1635000D01*
G37*

%LPD*%
G36*
X1289780Y1629180D02*
G01*
X1288360Y1629760D01*
X1287240Y1630820D01*
X1286620Y1632220D01*
X1286560Y1633740D01*
X1287220Y1637940D01*
X1287600Y1645000D01*
X1287560Y1645700D01*
X1287800Y1647280D01*
X1288660Y1648660D01*
X1289980Y1649580D01*
X1291560Y1649900D01*
X1403440Y1649900D01*
X1405020Y1649580D01*
X1406339Y1648660D01*
X1407200Y1647280D01*
X1407440Y1645700D01*
X1407400Y1645000D01*
X1407780Y1637940D01*
X1408280Y1634720D01*
X1408180Y1633020D01*
X1407380Y1631500D01*
X1406000Y1630460D01*
X1404340Y1630100D01*
X1298640Y1630080D01*
X1294280Y1629740D01*
X1291320Y1629199D01*
G37*

%LPD*%
G36*
X1057500Y1580100D02*
G01*
X1055840Y1580460D01*
X1054480Y1581480D01*
X1053680Y1582960D01*
X1053540Y1584660D01*
X1054140Y1586240D01*
X1055320Y1587460D01*
X1059740Y1590320D01*
X1065220Y1594760D01*
X1067180Y1596699D01*
X1068460Y1597580D01*
X1070000Y1597880D01*
X1071540Y1597580D01*
X1072820Y1596699D01*
X1074780Y1594760D01*
X1080260Y1590320D01*
X1084680Y1587460D01*
X1085860Y1586240D01*
X1086460Y1584660D01*
X1086340Y1582960D01*
X1085520Y1581480D01*
X1084160Y1580460D01*
X1082500Y1580100D01*
G37*

%LPD*%
G36*
X857500Y1580100D02*
G01*
X855840Y1580460D01*
X854479Y1581480D01*
X853680Y1582960D01*
X853540Y1584660D01*
X854140Y1586240D01*
X855320Y1587460D01*
X859740Y1590320D01*
X865220Y1594760D01*
X867180Y1596699D01*
X868460Y1597580D01*
X870000Y1597880D01*
X871540Y1597580D01*
X872820Y1596699D01*
X874780Y1594760D01*
X880260Y1590320D01*
X884680Y1587460D01*
X885860Y1586240D01*
X886460Y1584660D01*
X886340Y1582960D01*
X885520Y1581480D01*
X884160Y1580460D01*
X882500Y1580100D01*
G37*

%LPD*%
G36*
X957500Y1580100D02*
G01*
X955840Y1580460D01*
X954479Y1581480D01*
X953680Y1582960D01*
X953540Y1584660D01*
X954140Y1586240D01*
X955320Y1587460D01*
X959740Y1590320D01*
X965220Y1594760D01*
X967180Y1596699D01*
X968460Y1597580D01*
X970000Y1597880D01*
X971540Y1597580D01*
X972820Y1596699D01*
X974780Y1594760D01*
X980260Y1590320D01*
X984680Y1587460D01*
X985860Y1586240D01*
X986460Y1584660D01*
X986340Y1582960D01*
X985520Y1581480D01*
X984160Y1580460D01*
X982500Y1580100D01*
G37*

%LPD*%
G36*
X757500Y1580100D02*
G01*
X755840Y1580460D01*
X754479Y1581480D01*
X753680Y1582960D01*
X753540Y1584660D01*
X754140Y1586240D01*
X755320Y1587460D01*
X759740Y1590320D01*
X765220Y1594760D01*
X767180Y1596699D01*
X768460Y1597580D01*
X770000Y1597880D01*
X771540Y1597580D01*
X772820Y1596699D01*
X774780Y1594760D01*
X780260Y1590320D01*
X784680Y1587460D01*
X785860Y1586240D01*
X786460Y1584660D01*
X786340Y1582960D01*
X785520Y1581480D01*
X784160Y1580460D01*
X782500Y1580100D01*
G37*

%LPD*%
G36*
X1157500Y1580100D02*
G01*
X1155840Y1580460D01*
X1154480Y1581480D01*
X1153680Y1582960D01*
X1153540Y1584660D01*
X1154140Y1586240D01*
X1155320Y1587460D01*
X1159740Y1590320D01*
X1165220Y1594760D01*
X1167180Y1596699D01*
X1168460Y1597580D01*
X1170000Y1597880D01*
X1171540Y1597580D01*
X1172820Y1596699D01*
X1174780Y1594760D01*
X1180260Y1590320D01*
X1184680Y1587460D01*
X1185860Y1586240D01*
X1186460Y1584660D01*
X1186340Y1582960D01*
X1185520Y1581480D01*
X1184160Y1580460D01*
X1182500Y1580100D01*
G37*

%LPD*%
G36*
X2994400Y1432380D02*
G01*
X2992780Y1432580D01*
X2991380Y1433420D01*
X2990440Y1434760D01*
X2990100Y1436360D01*
X2990100Y1493640D01*
X2990440Y1495240D01*
X2991380Y1496579D01*
X2992780Y1497420D01*
X2994400Y1497620D01*
X2995980Y1497180D01*
X2997240Y1496120D01*
X2997960Y1494660D01*
X2998220Y1493680D01*
X3000779Y1486940D01*
X3004000Y1480480D01*
X3007880Y1474379D01*
X3012340Y1468720D01*
X3013260Y1467800D01*
X3014100Y1466500D01*
X3014400Y1465000D01*
X3014100Y1463500D01*
X3013260Y1462200D01*
X3012340Y1461279D01*
X3007880Y1455620D01*
X3004000Y1449520D01*
X3000779Y1443060D01*
X2998220Y1436320D01*
X2997960Y1435340D01*
X2997240Y1433880D01*
X2995980Y1432820D01*
G37*

%LPD*%
G36*
X4851500Y1401500D02*
G01*
X4847740Y1402240D01*
X4842360Y1402600D01*
X4819900Y1402600D01*
X4818380Y1402900D01*
X4817080Y1403779D01*
X4715660Y1505200D01*
X4714820Y1506440D01*
X4714500Y1507900D01*
X4712980Y1563400D01*
X4713220Y1564900D01*
X4714040Y1566220D01*
X4715280Y1567120D01*
X4716760Y1567500D01*
X4722060Y1567780D01*
X4729060Y1568880D01*
X4735880Y1570720D01*
X4742500Y1573240D01*
X4748800Y1576459D01*
X4754740Y1580320D01*
X4760220Y1584760D01*
X4762180Y1586699D01*
X4763460Y1587580D01*
X4765000Y1587880D01*
X4766540Y1587580D01*
X4767820Y1586699D01*
X4769780Y1584760D01*
X4775260Y1580320D01*
X4781200Y1576459D01*
X4787500Y1573240D01*
X4794120Y1570720D01*
X4800940Y1568880D01*
X4807940Y1567780D01*
X4815000Y1567400D01*
X4822060Y1567780D01*
X4829060Y1568880D01*
X4835880Y1570720D01*
X4842500Y1573240D01*
X4848800Y1576459D01*
X4850100Y1577300D01*
X4851700Y1577900D01*
X4853400Y1577800D01*
X4854900Y1576980D01*
X4855920Y1575620D01*
X4856280Y1573959D01*
X4856280Y1405420D01*
X4855900Y1403720D01*
X4854820Y1402340D01*
X4853240Y1401540D01*
G37*

%LPD*%
G36*
X570000Y1392120D02*
G01*
X568460Y1392420D01*
X567180Y1393300D01*
X565220Y1395240D01*
X559740Y1399680D01*
X553800Y1403540D01*
X547500Y1406759D01*
X540880Y1409280D01*
X534060Y1411120D01*
X527060Y1412220D01*
X520000Y1412600D01*
X512939Y1412220D01*
X505940Y1411120D01*
X499120Y1409280D01*
X492500Y1406759D01*
X486200Y1403540D01*
X480260Y1399680D01*
X475700Y1396000D01*
X474520Y1395320D01*
X473200Y1395100D01*
X436599Y1395100D01*
X435060Y1395400D01*
X433780Y1396279D01*
X432900Y1397560D01*
X432600Y1399100D01*
X432600Y1912600D01*
X432900Y1914120D01*
X433780Y1915420D01*
X962080Y2443720D01*
X963379Y2444600D01*
X964900Y2444900D01*
X1230240Y2444900D01*
X1231780Y2444600D01*
X1233080Y2443720D01*
X1233940Y2442440D01*
X1234240Y2440900D01*
X1233940Y2439360D01*
X1233080Y2438080D01*
X1163840Y2368840D01*
X1162540Y2367960D01*
X1161000Y2367660D01*
X1107580Y2367660D01*
X1102200Y2367300D01*
X1097060Y2366280D01*
X1092100Y2364600D01*
X1087400Y2362280D01*
X1083040Y2359360D01*
X1079100Y2355900D01*
X1075640Y2351960D01*
X1072720Y2347600D01*
X1070400Y2342900D01*
X1068960Y2338660D01*
X1068080Y2337200D01*
X1066680Y2336240D01*
X1065000Y2335940D01*
X1063360Y2336380D01*
X1062520Y2336800D01*
X1055900Y2339340D01*
X1049060Y2341180D01*
X1042080Y2342280D01*
X1035000Y2342660D01*
X1027920Y2342280D01*
X1020939Y2341180D01*
X1014100Y2339340D01*
X1007480Y2336800D01*
X1001180Y2333600D01*
X995240Y2329740D01*
X989740Y2325280D01*
X984720Y2320260D01*
X980260Y2314760D01*
X976400Y2308820D01*
X973199Y2302520D01*
X970660Y2295900D01*
X968820Y2289060D01*
X967720Y2282080D01*
X967500Y2278100D01*
X967120Y2276600D01*
X966200Y2275340D01*
X964840Y2274540D01*
X963300Y2274320D01*
X957000Y2274660D01*
X949920Y2274280D01*
X942940Y2273180D01*
X936100Y2271340D01*
X929479Y2268800D01*
X923180Y2265600D01*
X917240Y2261740D01*
X911740Y2257280D01*
X906720Y2252260D01*
X902260Y2246760D01*
X898400Y2240820D01*
X895200Y2234520D01*
X892660Y2227900D01*
X890819Y2221060D01*
X889720Y2214080D01*
X889340Y2207000D01*
X889720Y2199920D01*
X890819Y2192940D01*
X892660Y2186100D01*
X895200Y2179480D01*
X896160Y2177560D01*
X896600Y2175960D01*
X896340Y2174320D01*
X895440Y2172920D01*
X894040Y2172020D01*
X893480Y2171800D01*
X887180Y2168600D01*
X881240Y2164740D01*
X875740Y2160280D01*
X870720Y2155260D01*
X866260Y2149760D01*
X862400Y2143820D01*
X859200Y2137520D01*
X856660Y2130900D01*
X854820Y2124060D01*
X853720Y2117080D01*
X853340Y2110000D01*
X853720Y2102920D01*
X854820Y2095940D01*
X856660Y2089100D01*
X859200Y2082480D01*
X860800Y2079340D01*
X861220Y2077780D01*
X860980Y2076160D01*
X860120Y2074780D01*
X516040Y1713480D01*
X514799Y1712600D01*
X512939Y1712220D01*
X505940Y1711120D01*
X499120Y1709280D01*
X492500Y1706759D01*
X486200Y1703540D01*
X480260Y1699680D01*
X474780Y1695240D01*
X469760Y1690220D01*
X465319Y1684740D01*
X461460Y1678800D01*
X458240Y1672500D01*
X455720Y1665880D01*
X453880Y1659060D01*
X452780Y1652060D01*
X452400Y1645000D01*
X452780Y1637940D01*
X453880Y1630940D01*
X455720Y1624120D01*
X458240Y1617500D01*
X461460Y1611200D01*
X465319Y1605260D01*
X469760Y1599780D01*
X474780Y1594760D01*
X480260Y1590320D01*
X486200Y1586459D01*
X492500Y1583240D01*
X499120Y1580720D01*
X505940Y1578880D01*
X512939Y1577780D01*
X520000Y1577400D01*
X527060Y1577780D01*
X534060Y1578880D01*
X540880Y1580720D01*
X547500Y1583240D01*
X553800Y1586459D01*
X559740Y1590320D01*
X565220Y1594760D01*
X567180Y1596699D01*
X568460Y1597580D01*
X570000Y1597880D01*
X571540Y1597580D01*
X572820Y1596699D01*
X574780Y1594760D01*
X580260Y1590320D01*
X586200Y1586459D01*
X592500Y1583240D01*
X599120Y1580720D01*
X605940Y1578880D01*
X612940Y1577780D01*
X620000Y1577400D01*
X627060Y1577780D01*
X634060Y1578880D01*
X640879Y1580720D01*
X647500Y1583240D01*
X653800Y1586459D01*
X659740Y1590320D01*
X665220Y1594760D01*
X667180Y1596699D01*
X668460Y1597580D01*
X670000Y1597880D01*
X671540Y1597580D01*
X672820Y1596699D01*
X674780Y1594760D01*
X680260Y1590320D01*
X686200Y1586459D01*
X692500Y1583240D01*
X697240Y1581440D01*
X698500Y1580660D01*
X699380Y1579460D01*
X699780Y1578040D01*
X699640Y1576560D01*
X698940Y1575240D01*
X697840Y1574259D01*
X695840Y1573080D01*
X693500Y1571480D01*
X691260Y1569740D01*
X689120Y1567880D01*
X687120Y1565880D01*
X685260Y1563740D01*
X683520Y1561500D01*
X681919Y1559160D01*
X680480Y1556720D01*
X679200Y1554199D01*
X678060Y1551600D01*
X677099Y1548940D01*
X676320Y1546220D01*
X675699Y1543460D01*
X675260Y1540660D01*
X675000Y1537840D01*
X674900Y1534940D01*
X674900Y1397020D01*
X674599Y1395480D01*
X673720Y1394199D01*
X672820Y1393300D01*
X671540Y1392420D01*
X670000Y1392120D01*
X668460Y1392420D01*
X667180Y1393300D01*
X665220Y1395240D01*
X659740Y1399680D01*
X653800Y1403540D01*
X647500Y1406759D01*
X640879Y1409280D01*
X634060Y1411120D01*
X627060Y1412220D01*
X620000Y1412600D01*
X612940Y1412220D01*
X605940Y1411120D01*
X599120Y1409280D01*
X592500Y1406759D01*
X586200Y1403540D01*
X580260Y1399680D01*
X574780Y1395240D01*
X572820Y1393300D01*
X571540Y1392420D01*
G37*

%LPD*%
G36*
X1725000Y1392120D02*
G01*
X1723460Y1392420D01*
X1722180Y1393300D01*
X1720220Y1395240D01*
X1717060Y1397800D01*
X1716040Y1399060D01*
X1715600Y1400620D01*
X1715820Y1402240D01*
X1716660Y1403620D01*
X1718000Y1404560D01*
X1719580Y1404900D01*
X1730420Y1404900D01*
X1732000Y1404560D01*
X1733340Y1403620D01*
X1734180Y1402240D01*
X1734400Y1400620D01*
X1733959Y1399060D01*
X1732940Y1397800D01*
X1729780Y1395240D01*
X1727820Y1393300D01*
X1726540Y1392420D01*
G37*

%LPD*%
G36*
X1625000Y1392120D02*
G01*
X1623460Y1392420D01*
X1622180Y1393300D01*
X1620220Y1395240D01*
X1617060Y1397800D01*
X1616040Y1399060D01*
X1615600Y1400620D01*
X1615820Y1402240D01*
X1616660Y1403620D01*
X1618000Y1404560D01*
X1619580Y1404900D01*
X1630420Y1404900D01*
X1632000Y1404560D01*
X1633340Y1403620D01*
X1634180Y1402240D01*
X1634400Y1400620D01*
X1633959Y1399060D01*
X1632940Y1397800D01*
X1629780Y1395240D01*
X1627820Y1393300D01*
X1626540Y1392420D01*
G37*

%LPD*%
G36*
X2025000Y1392120D02*
G01*
X2023460Y1392420D01*
X2022180Y1393300D01*
X2020220Y1395240D01*
X2017060Y1397800D01*
X2016040Y1399060D01*
X2015600Y1400620D01*
X2015820Y1402240D01*
X2016660Y1403620D01*
X2018000Y1404560D01*
X2019580Y1404900D01*
X2030420Y1404900D01*
X2032000Y1404560D01*
X2033340Y1403620D01*
X2034180Y1402240D01*
X2034400Y1400620D01*
X2033959Y1399060D01*
X2032940Y1397800D01*
X2029780Y1395240D01*
X2027820Y1393300D01*
X2026540Y1392420D01*
G37*

%LPD*%
G36*
X1925000Y1392120D02*
G01*
X1923460Y1392420D01*
X1922180Y1393300D01*
X1920220Y1395240D01*
X1917060Y1397800D01*
X1916040Y1399060D01*
X1915600Y1400620D01*
X1915820Y1402240D01*
X1916660Y1403620D01*
X1918000Y1404560D01*
X1919580Y1404900D01*
X1930420Y1404900D01*
X1932000Y1404560D01*
X1933340Y1403620D01*
X1934180Y1402240D01*
X1934400Y1400620D01*
X1933959Y1399060D01*
X1932940Y1397800D01*
X1929780Y1395240D01*
X1927820Y1393300D01*
X1926540Y1392420D01*
G37*

%LPD*%
G36*
X1825000Y1392120D02*
G01*
X1823460Y1392420D01*
X1822180Y1393300D01*
X1820220Y1395240D01*
X1817060Y1397800D01*
X1816040Y1399060D01*
X1815600Y1400620D01*
X1815820Y1402240D01*
X1816660Y1403620D01*
X1818000Y1404560D01*
X1819580Y1404900D01*
X1830420Y1404900D01*
X1832000Y1404560D01*
X1833340Y1403620D01*
X1834180Y1402240D01*
X1834400Y1400620D01*
X1833959Y1399060D01*
X1832940Y1397800D01*
X1829780Y1395240D01*
X1827820Y1393300D01*
X1826540Y1392420D01*
G37*

%LPD*%
G36*
X1525000Y1392120D02*
G01*
X1523460Y1392420D01*
X1522180Y1393300D01*
X1520220Y1395240D01*
X1517060Y1397800D01*
X1516040Y1399060D01*
X1515600Y1400620D01*
X1515820Y1402240D01*
X1516660Y1403620D01*
X1518000Y1404560D01*
X1519580Y1404900D01*
X1530420Y1404900D01*
X1532000Y1404560D01*
X1533340Y1403620D01*
X1534180Y1402240D01*
X1534400Y1400620D01*
X1533959Y1399060D01*
X1532940Y1397800D01*
X1529780Y1395240D01*
X1527820Y1393300D01*
X1526540Y1392420D01*
G37*

%LPD*%
G36*
X770000Y1392120D02*
G01*
X768460Y1392420D01*
X767180Y1393300D01*
X766280Y1394199D01*
X765400Y1395480D01*
X765100Y1397020D01*
X765100Y1485900D01*
X765400Y1487440D01*
X766280Y1488720D01*
X767560Y1489600D01*
X769100Y1489900D01*
X1021740Y1489900D01*
X1023160Y1489640D01*
X1024400Y1488899D01*
X1025280Y1487760D01*
X1027220Y1479780D01*
X1027600Y1477940D01*
X1027280Y1476459D01*
X1026440Y1475220D01*
X972500Y1421279D01*
X971200Y1420400D01*
X969659Y1420100D01*
X948640Y1420080D01*
X944280Y1419740D01*
X943000Y1419560D01*
X938720Y1418660D01*
X937480Y1418320D01*
X932140Y1416420D01*
X928280Y1414520D01*
X925860Y1413000D01*
X924740Y1412540D01*
X923540Y1412400D01*
X920000Y1412600D01*
X912940Y1412220D01*
X905939Y1411120D01*
X899120Y1409280D01*
X892500Y1406759D01*
X886200Y1403540D01*
X880260Y1399680D01*
X874780Y1395240D01*
X872820Y1393300D01*
X871540Y1392420D01*
X870000Y1392120D01*
X868460Y1392420D01*
X867180Y1393300D01*
X865220Y1395240D01*
X859740Y1399680D01*
X853800Y1403540D01*
X847500Y1406759D01*
X840879Y1409280D01*
X834060Y1411120D01*
X827060Y1412220D01*
X820000Y1412600D01*
X812940Y1412220D01*
X805939Y1411120D01*
X799120Y1409280D01*
X792500Y1406759D01*
X786200Y1403540D01*
X780260Y1399680D01*
X774780Y1395240D01*
X772820Y1393300D01*
X771540Y1392420D01*
G37*

%LPD*%
G36*
X3314200Y1390900D02*
G01*
X3312860Y1391260D01*
X3311720Y1392060D01*
X3310700Y1393080D01*
X3309840Y1394360D01*
X3309540Y1395900D01*
X3309840Y1397440D01*
X3310700Y1398720D01*
X3312000Y1399600D01*
X3313540Y1399900D01*
X3320580Y1399900D01*
X3322220Y1399540D01*
X3323580Y1398540D01*
X3324400Y1397060D01*
X3324540Y1395360D01*
X3323960Y1393779D01*
X3322780Y1392560D01*
X3321200Y1391940D01*
G37*

%LPD*%
G36*
X4168820Y1385840D02*
G01*
X4167380Y1386220D01*
X4166180Y1387100D01*
X4165380Y1388380D01*
X4165100Y1389840D01*
X4165100Y1390900D01*
X4165400Y1392440D01*
X4166280Y1393720D01*
X4167559Y1394600D01*
X4169100Y1394900D01*
X4170419Y1394900D01*
X4172000Y1394560D01*
X4173340Y1393620D01*
X4174180Y1392240D01*
X4174400Y1390620D01*
X4173960Y1389060D01*
X4172940Y1387800D01*
X4171620Y1386720D01*
X4170299Y1386020D01*
G37*

%LPD*%
G36*
X4365000Y1382120D02*
G01*
X4363460Y1382420D01*
X4362180Y1383300D01*
X4360220Y1385240D01*
X4357060Y1387800D01*
X4356040Y1389060D01*
X4355600Y1390620D01*
X4355820Y1392240D01*
X4356660Y1393620D01*
X4358000Y1394560D01*
X4359580Y1394900D01*
X4370420Y1394900D01*
X4372000Y1394560D01*
X4373340Y1393620D01*
X4374180Y1392240D01*
X4374400Y1390620D01*
X4373960Y1389060D01*
X4372940Y1387800D01*
X4369780Y1385240D01*
X4367820Y1383300D01*
X4366540Y1382420D01*
G37*

%LPD*%
G36*
X4465000Y1382120D02*
G01*
X4463460Y1382420D01*
X4462180Y1383300D01*
X4460220Y1385240D01*
X4457060Y1387800D01*
X4456040Y1389060D01*
X4455600Y1390620D01*
X4455820Y1392240D01*
X4456660Y1393620D01*
X4458000Y1394560D01*
X4459580Y1394900D01*
X4470420Y1394900D01*
X4472000Y1394560D01*
X4473340Y1393620D01*
X4474180Y1392240D01*
X4474400Y1390620D01*
X4473960Y1389060D01*
X4472940Y1387800D01*
X4469780Y1385240D01*
X4467820Y1383300D01*
X4466540Y1382420D01*
G37*

%LPD*%
G36*
X4265000Y1382120D02*
G01*
X4263460Y1382420D01*
X4262180Y1383300D01*
X4260220Y1385240D01*
X4257060Y1387800D01*
X4256040Y1389060D01*
X4255600Y1390620D01*
X4255820Y1392240D01*
X4256660Y1393620D01*
X4258000Y1394560D01*
X4259580Y1394900D01*
X4270420Y1394900D01*
X4272000Y1394560D01*
X4273340Y1393620D01*
X4274180Y1392240D01*
X4274400Y1390620D01*
X4273960Y1389060D01*
X4272940Y1387800D01*
X4269780Y1385240D01*
X4267820Y1383300D01*
X4266540Y1382420D01*
G37*

%LPD*%
G36*
X4665000Y1382120D02*
G01*
X4663460Y1382420D01*
X4662180Y1383300D01*
X4660220Y1385240D01*
X4654740Y1389680D01*
X4648800Y1393540D01*
X4642500Y1396759D01*
X4635880Y1399280D01*
X4629060Y1401120D01*
X4622060Y1402220D01*
X4615000Y1402600D01*
X4607940Y1402220D01*
X4600940Y1401120D01*
X4594120Y1399280D01*
X4587320Y1396680D01*
X4585760Y1396420D01*
X4584060Y1396840D01*
X4582740Y1397820D01*
X4581920Y1399259D01*
X4581760Y1400900D01*
X4582260Y1402460D01*
X4583360Y1403700D01*
X4585900Y1405560D01*
X4588220Y1407500D01*
X4590460Y1409620D01*
X4600380Y1419540D01*
X4602500Y1421780D01*
X4604440Y1424100D01*
X4606240Y1426540D01*
X4607880Y1429079D01*
X4609360Y1431720D01*
X4610680Y1434440D01*
X4611840Y1437240D01*
X4612820Y1440100D01*
X4613640Y1443020D01*
X4614280Y1445960D01*
X4614740Y1448959D01*
X4615000Y1451960D01*
X4615100Y1456500D01*
X4615480Y1458140D01*
X4616500Y1459460D01*
X4617980Y1460260D01*
X4619660Y1460380D01*
X4621220Y1459800D01*
X4622420Y1458640D01*
X4624600Y1455380D01*
X4625520Y1454139D01*
X4628460Y1450720D01*
X4680380Y1398760D01*
X4681320Y1397280D01*
X4681540Y1395520D01*
X4680960Y1393839D01*
X4679740Y1392580D01*
X4675260Y1389680D01*
X4669780Y1385240D01*
X4667820Y1383300D01*
X4666540Y1382420D01*
G37*

%LPD*%
G36*
X4565000Y1382120D02*
G01*
X4563460Y1382420D01*
X4562180Y1383300D01*
X4560220Y1385240D01*
X4556820Y1387980D01*
X4555820Y1389199D01*
X4555360Y1390700D01*
X4555520Y1392260D01*
X4556260Y1393640D01*
X4557480Y1394640D01*
X4558980Y1395080D01*
X4561040Y1395260D01*
X4564040Y1395720D01*
X4566980Y1396360D01*
X4569900Y1397180D01*
X4572760Y1398160D01*
X4575480Y1399280D01*
X4577140Y1399580D01*
X4578760Y1399180D01*
X4580080Y1398160D01*
X4580860Y1396660D01*
X4580960Y1395000D01*
X4580380Y1393420D01*
X4579200Y1392240D01*
X4575260Y1389680D01*
X4569780Y1385240D01*
X4567820Y1383300D01*
X4566540Y1382420D01*
G37*

%LPD*%
G36*
X3480000Y1372120D02*
G01*
X3478460Y1372420D01*
X3477180Y1373300D01*
X3475680Y1374780D01*
X3474980Y1375720D01*
X3474580Y1376819D01*
X3473660Y1381279D01*
X3473320Y1382520D01*
X3471420Y1387860D01*
X3468860Y1392900D01*
X3465680Y1397600D01*
X3462840Y1400920D01*
X3430700Y1433080D01*
X3429840Y1434360D01*
X3429540Y1435900D01*
X3429840Y1437440D01*
X3430700Y1438720D01*
X3432000Y1439600D01*
X3433540Y1439900D01*
X3469660Y1439900D01*
X3471200Y1439600D01*
X3472500Y1438720D01*
X3514320Y1396900D01*
X3515240Y1395500D01*
X3515500Y1393860D01*
X3515059Y1392260D01*
X3514020Y1390960D01*
X3512540Y1390200D01*
X3509120Y1389280D01*
X3502500Y1386759D01*
X3496200Y1383540D01*
X3490260Y1379680D01*
X3484780Y1375240D01*
X3482820Y1373300D01*
X3481540Y1372420D01*
G37*

%LPD*%
G36*
X2994400Y1332380D02*
G01*
X2992780Y1332580D01*
X2991380Y1333420D01*
X2990440Y1334760D01*
X2990100Y1336360D01*
X2990100Y1393640D01*
X2990440Y1395240D01*
X2991380Y1396579D01*
X2992780Y1397420D01*
X2994400Y1397620D01*
X2995980Y1397180D01*
X2997240Y1396120D01*
X2997960Y1394660D01*
X2998220Y1393680D01*
X3000779Y1386940D01*
X3004000Y1380480D01*
X3007880Y1374379D01*
X3012340Y1368720D01*
X3013260Y1367800D01*
X3014100Y1366500D01*
X3014400Y1365000D01*
X3014100Y1363500D01*
X3013260Y1362200D01*
X3012340Y1361279D01*
X3007880Y1355620D01*
X3004000Y1349520D01*
X3000779Y1343060D01*
X2998220Y1336320D01*
X2997960Y1335340D01*
X2997240Y1333880D01*
X2995980Y1332820D01*
G37*

%LPD*%
G36*
X1291600Y1330100D02*
G01*
X1290060Y1330400D01*
X1288779Y1331279D01*
X1287900Y1332560D01*
X1287600Y1334100D01*
X1287600Y1372360D01*
X1287240Y1377740D01*
X1286220Y1382880D01*
X1284540Y1387840D01*
X1282220Y1392540D01*
X1279300Y1396900D01*
X1278120Y1398260D01*
X1277360Y1399580D01*
X1277120Y1401080D01*
X1277480Y1402560D01*
X1278360Y1403779D01*
X1279640Y1404620D01*
X1281120Y1404900D01*
X1430420Y1404900D01*
X1432000Y1404560D01*
X1433340Y1403620D01*
X1434180Y1402240D01*
X1434400Y1400620D01*
X1433959Y1399060D01*
X1432940Y1397800D01*
X1429780Y1395240D01*
X1424760Y1390220D01*
X1420320Y1384740D01*
X1416459Y1378800D01*
X1413240Y1372500D01*
X1410720Y1365880D01*
X1408880Y1359060D01*
X1407780Y1352060D01*
X1407400Y1345000D01*
X1407780Y1337940D01*
X1408280Y1334720D01*
X1408180Y1333020D01*
X1407380Y1331500D01*
X1406000Y1330460D01*
X1404340Y1330100D01*
G37*

%LPD*%
G36*
X4001600Y1310100D02*
G01*
X4000059Y1310400D01*
X3998780Y1311279D01*
X3997900Y1312560D01*
X3997600Y1314100D01*
X3997600Y1352360D01*
X3997240Y1357740D01*
X3996220Y1362880D01*
X3994540Y1367840D01*
X3992220Y1372540D01*
X3989300Y1376900D01*
X3985840Y1380840D01*
X3981900Y1384300D01*
X3977540Y1387220D01*
X3972840Y1389540D01*
X3967880Y1391220D01*
X3962740Y1392240D01*
X3957360Y1392600D01*
X3902640Y1392600D01*
X3897260Y1392240D01*
X3892120Y1391220D01*
X3887160Y1389540D01*
X3882460Y1387220D01*
X3878100Y1384319D01*
X3873820Y1380520D01*
X3872320Y1379680D01*
X3870600Y1379560D01*
X3869000Y1380160D01*
X3863800Y1383540D01*
X3857500Y1386759D01*
X3850880Y1389280D01*
X3844060Y1391120D01*
X3837060Y1392220D01*
X3830000Y1392600D01*
X3822940Y1392220D01*
X3815940Y1391120D01*
X3809120Y1389280D01*
X3802500Y1386759D01*
X3796200Y1383540D01*
X3790260Y1379680D01*
X3784780Y1375240D01*
X3782820Y1373300D01*
X3781540Y1372420D01*
X3780000Y1372120D01*
X3778460Y1372420D01*
X3777180Y1373300D01*
X3776280Y1374199D01*
X3775400Y1375480D01*
X3775100Y1377000D01*
X3775080Y1381380D01*
X3774740Y1385720D01*
X3774560Y1387000D01*
X3773660Y1391279D01*
X3773320Y1392520D01*
X3771420Y1397860D01*
X3768860Y1402900D01*
X3765680Y1407600D01*
X3762840Y1410920D01*
X3623000Y1550800D01*
X3622120Y1552120D01*
X3621820Y1553680D01*
X3622160Y1555240D01*
X3623100Y1556540D01*
X3624460Y1557380D01*
X3626019Y1557620D01*
X3630000Y1557400D01*
X3637060Y1557780D01*
X3644060Y1558880D01*
X3650880Y1560720D01*
X3657500Y1563240D01*
X3663800Y1566459D01*
X3669740Y1570320D01*
X3675220Y1574760D01*
X3677180Y1576699D01*
X3678460Y1577580D01*
X3680000Y1577880D01*
X3681540Y1577580D01*
X3682820Y1576699D01*
X3684780Y1574760D01*
X3690260Y1570320D01*
X3696200Y1566459D01*
X3702500Y1563240D01*
X3709120Y1560720D01*
X3715940Y1558880D01*
X3722940Y1557780D01*
X3730000Y1557400D01*
X3737060Y1557780D01*
X3744060Y1558880D01*
X3750880Y1560720D01*
X3757500Y1563240D01*
X3763800Y1566459D01*
X3769740Y1570320D01*
X3775220Y1574760D01*
X3777180Y1576699D01*
X3778460Y1577580D01*
X3780000Y1577880D01*
X3781540Y1577580D01*
X3782820Y1576699D01*
X3784780Y1574760D01*
X3790260Y1570320D01*
X3796200Y1566459D01*
X3802500Y1563240D01*
X3809120Y1560720D01*
X3815940Y1558880D01*
X3822940Y1557780D01*
X3830000Y1557400D01*
X3837060Y1557780D01*
X3844060Y1558880D01*
X3850880Y1560720D01*
X3857500Y1563240D01*
X3863800Y1566459D01*
X3869740Y1570320D01*
X3875220Y1574760D01*
X3877180Y1576699D01*
X3878460Y1577580D01*
X3880000Y1577880D01*
X3881540Y1577580D01*
X3882820Y1576699D01*
X3884780Y1574760D01*
X3890260Y1570320D01*
X3896200Y1566459D01*
X3902500Y1563240D01*
X3909120Y1560720D01*
X3915940Y1558880D01*
X3922940Y1557780D01*
X3930000Y1557400D01*
X3937060Y1557780D01*
X3944060Y1558880D01*
X3950880Y1560720D01*
X3957500Y1563240D01*
X3963800Y1566459D01*
X3969740Y1570320D01*
X3975220Y1574760D01*
X3980240Y1579780D01*
X3984680Y1585260D01*
X3988540Y1591200D01*
X3991760Y1597500D01*
X3994280Y1604120D01*
X3996120Y1610940D01*
X3997220Y1617940D01*
X3997600Y1625000D01*
X3997140Y1632620D01*
X3997240Y1634340D01*
X3998060Y1635860D01*
X3999420Y1636900D01*
X4001100Y1637260D01*
X4043519Y1637000D01*
X4045000Y1636720D01*
X4046259Y1635900D01*
X4047140Y1634680D01*
X4047500Y1633220D01*
X4047780Y1627940D01*
X4048880Y1620940D01*
X4050720Y1614120D01*
X4053240Y1607500D01*
X4056460Y1601200D01*
X4060320Y1595260D01*
X4064760Y1589780D01*
X4069780Y1584760D01*
X4075260Y1580320D01*
X4081200Y1576459D01*
X4087500Y1573240D01*
X4094120Y1570720D01*
X4100940Y1568880D01*
X4107940Y1567780D01*
X4115000Y1567400D01*
X4122060Y1567780D01*
X4129060Y1568880D01*
X4135880Y1570720D01*
X4142500Y1573240D01*
X4148800Y1576459D01*
X4154740Y1580320D01*
X4160220Y1584760D01*
X4162180Y1586699D01*
X4163460Y1587580D01*
X4165000Y1587880D01*
X4166540Y1587580D01*
X4167820Y1586699D01*
X4169780Y1584760D01*
X4175260Y1580320D01*
X4181200Y1576459D01*
X4187500Y1573240D01*
X4194120Y1570720D01*
X4200940Y1568880D01*
X4207940Y1567780D01*
X4215000Y1567400D01*
X4222060Y1567780D01*
X4229060Y1568880D01*
X4235880Y1570720D01*
X4242500Y1573240D01*
X4248800Y1576459D01*
X4254740Y1580320D01*
X4260220Y1584760D01*
X4262180Y1586699D01*
X4263460Y1587580D01*
X4265000Y1587880D01*
X4266540Y1587580D01*
X4267820Y1586699D01*
X4269780Y1584760D01*
X4275260Y1580320D01*
X4281200Y1576459D01*
X4287500Y1573240D01*
X4294120Y1570720D01*
X4300940Y1568880D01*
X4307940Y1567780D01*
X4315000Y1567400D01*
X4322060Y1567780D01*
X4329060Y1568880D01*
X4335880Y1570720D01*
X4342500Y1573240D01*
X4348800Y1576459D01*
X4354740Y1580320D01*
X4360220Y1584760D01*
X4362180Y1586699D01*
X4363460Y1587580D01*
X4365000Y1587880D01*
X4366540Y1587580D01*
X4367820Y1586699D01*
X4369780Y1584760D01*
X4375260Y1580320D01*
X4381200Y1576459D01*
X4387500Y1573240D01*
X4394120Y1570720D01*
X4400940Y1568880D01*
X4407940Y1567780D01*
X4415000Y1567400D01*
X4422060Y1567780D01*
X4429060Y1568880D01*
X4435880Y1570720D01*
X4442500Y1573240D01*
X4448800Y1576459D01*
X4454740Y1580320D01*
X4460220Y1584760D01*
X4462180Y1586699D01*
X4463460Y1587580D01*
X4465000Y1587880D01*
X4466540Y1587580D01*
X4467820Y1586699D01*
X4469780Y1584760D01*
X4475260Y1580320D01*
X4481200Y1576459D01*
X4487500Y1573240D01*
X4494120Y1570720D01*
X4500940Y1568880D01*
X4507940Y1567780D01*
X4511100Y1567600D01*
X4512580Y1567240D01*
X4513800Y1566360D01*
X4514620Y1565100D01*
X4514900Y1563620D01*
X4514900Y1499100D01*
X4514600Y1497560D01*
X4513720Y1496279D01*
X4512440Y1495400D01*
X4510900Y1495100D01*
X4125059Y1495100D01*
X4121980Y1495000D01*
X4118960Y1494740D01*
X4115960Y1494280D01*
X4113020Y1493640D01*
X4110100Y1492820D01*
X4107240Y1491840D01*
X4104440Y1490680D01*
X4101720Y1489360D01*
X4099080Y1487880D01*
X4096540Y1486220D01*
X4094100Y1484440D01*
X4091780Y1482500D01*
X4089540Y1480380D01*
X4079620Y1470460D01*
X4077500Y1468220D01*
X4075560Y1465900D01*
X4073780Y1463460D01*
X4072120Y1460920D01*
X4070640Y1458280D01*
X4069320Y1455560D01*
X4068159Y1452760D01*
X4067180Y1449900D01*
X4066360Y1446980D01*
X4065720Y1444040D01*
X4065260Y1441040D01*
X4065000Y1438020D01*
X4064900Y1434940D01*
X4064900Y1381800D01*
X4064680Y1380480D01*
X4064000Y1379300D01*
X4060320Y1374740D01*
X4056460Y1368800D01*
X4053240Y1362500D01*
X4050720Y1355880D01*
X4048880Y1349060D01*
X4047780Y1342060D01*
X4047400Y1335000D01*
X4047780Y1327940D01*
X4048880Y1320940D01*
X4050440Y1315140D01*
X4050560Y1313680D01*
X4050140Y1312280D01*
X4049260Y1311120D01*
X4048000Y1310360D01*
X4046580Y1310100D01*
G37*

%LPD*%
G36*
X2359100Y1280100D02*
G01*
X2357600Y1280400D01*
X2356300Y1281240D01*
X2355440Y1282500D01*
X2355100Y1284000D01*
X2355000Y1287840D01*
X2354740Y1290660D01*
X2354300Y1293460D01*
X2353680Y1296220D01*
X2352900Y1298940D01*
X2351940Y1301600D01*
X2350800Y1304199D01*
X2349520Y1306720D01*
X2348080Y1309160D01*
X2346480Y1311500D01*
X2344740Y1313740D01*
X2342880Y1315880D01*
X2340880Y1317880D01*
X2338740Y1319740D01*
X2336500Y1321480D01*
X2334160Y1323080D01*
X2331720Y1324520D01*
X2329200Y1325800D01*
X2326600Y1326940D01*
X2323940Y1327900D01*
X2321220Y1328680D01*
X2318460Y1329300D01*
X2315660Y1329740D01*
X2312840Y1330000D01*
X2309940Y1330100D01*
X2246600Y1330100D01*
X2245060Y1330400D01*
X2243780Y1331279D01*
X2242900Y1332560D01*
X2242600Y1334100D01*
X2242600Y1372360D01*
X2242240Y1377740D01*
X2241220Y1382880D01*
X2239540Y1387840D01*
X2237220Y1392540D01*
X2234300Y1396900D01*
X2233120Y1398260D01*
X2232360Y1399580D01*
X2232120Y1401080D01*
X2232480Y1402560D01*
X2233360Y1403779D01*
X2234640Y1404620D01*
X2236120Y1404900D01*
X2298060Y1404900D01*
X2299060Y1404780D01*
X2300000Y1404400D01*
X2302600Y1402980D01*
X2308320Y1400660D01*
X2314280Y1399019D01*
X2320380Y1398120D01*
X2326540Y1397920D01*
X2332700Y1398480D01*
X2338740Y1399740D01*
X2344580Y1401720D01*
X2350160Y1404379D01*
X2355360Y1407680D01*
X2360160Y1411560D01*
X2364460Y1416000D01*
X2368200Y1420900D01*
X2371340Y1426220D01*
X2373840Y1431860D01*
X2375640Y1437760D01*
X2376720Y1443839D01*
X2377100Y1450000D01*
X2376720Y1456160D01*
X2375640Y1462240D01*
X2373840Y1468140D01*
X2373120Y1469760D01*
X2372780Y1471200D01*
X2372980Y1472640D01*
X2373700Y1473920D01*
X2374820Y1474860D01*
X2376220Y1475340D01*
X2377000Y1475440D01*
X2381280Y1476339D01*
X2382520Y1476680D01*
X2387860Y1478580D01*
X2392900Y1481140D01*
X2397020Y1483899D01*
X2398600Y1484600D01*
X2400340Y1484580D01*
X2401900Y1483839D01*
X2403000Y1482480D01*
X2404000Y1480480D01*
X2407880Y1474379D01*
X2412340Y1468720D01*
X2413260Y1467800D01*
X2414100Y1466500D01*
X2414400Y1465000D01*
X2414100Y1463500D01*
X2413260Y1462200D01*
X2412340Y1461279D01*
X2407880Y1455620D01*
X2404000Y1449520D01*
X2400780Y1443060D01*
X2398220Y1436320D01*
X2396380Y1429340D01*
X2395280Y1422200D01*
X2394900Y1415000D01*
X2395280Y1407800D01*
X2396380Y1400660D01*
X2398220Y1393680D01*
X2400780Y1386940D01*
X2404000Y1380480D01*
X2407880Y1374379D01*
X2412340Y1368720D01*
X2413260Y1367800D01*
X2414100Y1366500D01*
X2414400Y1365000D01*
X2414100Y1363500D01*
X2413260Y1362200D01*
X2412340Y1361279D01*
X2407880Y1355620D01*
X2404000Y1349520D01*
X2400780Y1343060D01*
X2398220Y1336320D01*
X2396380Y1329340D01*
X2395280Y1322200D01*
X2394900Y1315000D01*
X2395280Y1307800D01*
X2396380Y1300660D01*
X2398220Y1293680D01*
X2400780Y1286940D01*
X2401300Y1285880D01*
X2401700Y1284319D01*
X2401480Y1282720D01*
X2400620Y1281360D01*
X2399300Y1280420D01*
X2397720Y1280100D01*
G37*

%LPD*%
G36*
X2532260Y1280100D02*
G01*
X2530720Y1280420D01*
X2529400Y1281300D01*
X2528540Y1282620D01*
X2528260Y1284160D01*
X2528600Y1285700D01*
X2530580Y1290280D01*
X2532780Y1297140D01*
X2534260Y1304220D01*
X2535000Y1311399D01*
X2535000Y1318600D01*
X2534260Y1325780D01*
X2532780Y1332860D01*
X2530580Y1339720D01*
X2527700Y1346339D01*
X2524140Y1352620D01*
X2519960Y1358500D01*
X2516580Y1362360D01*
X2515840Y1363580D01*
X2515580Y1365000D01*
X2515840Y1366420D01*
X2516580Y1367640D01*
X2519960Y1371500D01*
X2524140Y1377380D01*
X2527700Y1383660D01*
X2530580Y1390280D01*
X2532780Y1397140D01*
X2534260Y1404220D01*
X2535000Y1411399D01*
X2535000Y1418600D01*
X2534260Y1425780D01*
X2532780Y1432860D01*
X2530580Y1439720D01*
X2527700Y1446339D01*
X2524140Y1452620D01*
X2519960Y1458500D01*
X2516580Y1462360D01*
X2515840Y1463580D01*
X2515580Y1465000D01*
X2515840Y1466420D01*
X2516580Y1467640D01*
X2519960Y1471500D01*
X2524140Y1477380D01*
X2527700Y1483660D01*
X2530580Y1490280D01*
X2532780Y1497140D01*
X2534260Y1504220D01*
X2535000Y1511399D01*
X2535000Y1518600D01*
X2534260Y1525780D01*
X2532780Y1532860D01*
X2530580Y1539720D01*
X2527700Y1546339D01*
X2524140Y1552620D01*
X2519960Y1558500D01*
X2516580Y1562360D01*
X2515840Y1563580D01*
X2515580Y1565000D01*
X2515840Y1566420D01*
X2516580Y1567640D01*
X2519960Y1571500D01*
X2524140Y1577380D01*
X2527700Y1583660D01*
X2530580Y1590280D01*
X2532780Y1597140D01*
X2534260Y1604220D01*
X2535000Y1611399D01*
X2535000Y1618600D01*
X2534260Y1625780D01*
X2532780Y1632860D01*
X2530580Y1639720D01*
X2527700Y1646339D01*
X2524140Y1652620D01*
X2519960Y1658500D01*
X2516580Y1662360D01*
X2515840Y1663580D01*
X2515580Y1665000D01*
X2515840Y1666420D01*
X2516580Y1667640D01*
X2519960Y1671500D01*
X2524140Y1677380D01*
X2527700Y1683660D01*
X2530580Y1690280D01*
X2532780Y1697140D01*
X2534260Y1704220D01*
X2535000Y1711399D01*
X2535000Y1718600D01*
X2534260Y1725780D01*
X2532780Y1732860D01*
X2530580Y1739720D01*
X2527700Y1746339D01*
X2524140Y1752620D01*
X2519960Y1758500D01*
X2516580Y1762360D01*
X2515840Y1763580D01*
X2515580Y1765000D01*
X2515840Y1766420D01*
X2516580Y1767640D01*
X2519960Y1771500D01*
X2524140Y1777380D01*
X2527700Y1783660D01*
X2530580Y1790280D01*
X2532780Y1797140D01*
X2534260Y1804220D01*
X2535000Y1811399D01*
X2535000Y1818600D01*
X2534260Y1825780D01*
X2532780Y1832860D01*
X2530580Y1839720D01*
X2527700Y1846339D01*
X2524140Y1852620D01*
X2519960Y1858500D01*
X2516580Y1862360D01*
X2515840Y1863580D01*
X2515580Y1865000D01*
X2515840Y1866420D01*
X2516580Y1867640D01*
X2519960Y1871500D01*
X2524140Y1877380D01*
X2527700Y1883660D01*
X2530580Y1890280D01*
X2532780Y1897140D01*
X2534260Y1904220D01*
X2535000Y1911399D01*
X2535000Y1918600D01*
X2534260Y1925780D01*
X2532780Y1932860D01*
X2530580Y1939720D01*
X2527700Y1946339D01*
X2524140Y1952620D01*
X2519960Y1958500D01*
X2516580Y1962360D01*
X2515840Y1963580D01*
X2515580Y1965000D01*
X2515840Y1966420D01*
X2516580Y1967640D01*
X2519960Y1971500D01*
X2524140Y1977380D01*
X2527700Y1983660D01*
X2530580Y1990280D01*
X2532780Y1997140D01*
X2534260Y2004220D01*
X2535000Y2011399D01*
X2535000Y2018600D01*
X2534260Y2025780D01*
X2532780Y2032860D01*
X2530580Y2039720D01*
X2527700Y2046339D01*
X2524140Y2052620D01*
X2519960Y2058500D01*
X2516580Y2062360D01*
X2515840Y2063580D01*
X2515580Y2065000D01*
X2515840Y2066420D01*
X2516580Y2067640D01*
X2517360Y2068540D01*
X2518720Y2069540D01*
X2520360Y2069900D01*
X2614940Y2069900D01*
X2617840Y2070000D01*
X2620659Y2070260D01*
X2623460Y2070700D01*
X2626220Y2071320D01*
X2628940Y2072100D01*
X2631600Y2073060D01*
X2634200Y2074199D01*
X2636720Y2075480D01*
X2639160Y2076920D01*
X2641500Y2078520D01*
X2643740Y2080260D01*
X2645880Y2082120D01*
X2647880Y2084120D01*
X2649740Y2086260D01*
X2651480Y2088500D01*
X2653080Y2090840D01*
X2654520Y2093280D01*
X2655800Y2095800D01*
X2656940Y2098400D01*
X2657900Y2101060D01*
X2658680Y2103780D01*
X2659300Y2106540D01*
X2659740Y2109340D01*
X2660000Y2112160D01*
X2660100Y2115060D01*
X2660100Y2250560D01*
X2660480Y2252280D01*
X2661580Y2253660D01*
X2664720Y2256200D01*
X2666019Y2256900D01*
X2667500Y2257080D01*
X2668940Y2256720D01*
X2670140Y2255840D01*
X2670940Y2254580D01*
X2671240Y2253120D01*
X2679480Y1284139D01*
X2679180Y1282600D01*
X2678320Y1281279D01*
X2677020Y1280400D01*
X2675480Y1280100D01*
G37*

%LPD*%
G36*
X3015360Y1158100D02*
G01*
X3013759Y1158680D01*
X3012559Y1159880D01*
X3010680Y1162600D01*
X3007840Y1165920D01*
X2995920Y1177840D01*
X2992600Y1180660D01*
X2991740Y1181300D01*
X2990860Y1182180D01*
X2990299Y1183300D01*
X2990100Y1184520D01*
X2990100Y1293640D01*
X2990440Y1295240D01*
X2991380Y1296579D01*
X2992780Y1297420D01*
X2994400Y1297620D01*
X2995980Y1297180D01*
X2997240Y1296120D01*
X2997960Y1294660D01*
X2998220Y1293680D01*
X3000779Y1286940D01*
X3004000Y1280480D01*
X3007880Y1274380D01*
X3012340Y1268720D01*
X3017380Y1263560D01*
X3018460Y1262660D01*
X3019520Y1261280D01*
X3019900Y1259580D01*
X3019900Y1162060D01*
X3019540Y1160420D01*
X3018519Y1159060D01*
X3017040Y1158240D01*
G37*

%LPD*%
G36*
X385340Y995100D02*
G01*
X383800Y995400D01*
X382500Y996280D01*
X381280Y997500D01*
X380400Y998800D01*
X380100Y1000340D01*
X380100Y1235900D01*
X380400Y1237440D01*
X381280Y1238720D01*
X382560Y1239600D01*
X384099Y1239900D01*
X2260900Y1239900D01*
X2262400Y1239600D01*
X2263700Y1238760D01*
X2264560Y1237500D01*
X2264900Y1236000D01*
X2265000Y1232160D01*
X2265400Y1228400D01*
X2265300Y1226680D01*
X2264500Y1225180D01*
X2263140Y1224140D01*
X2261460Y1223760D01*
X748660Y1220080D01*
X744180Y1219720D01*
X743020Y1219560D01*
X738620Y1218640D01*
X737480Y1218320D01*
X733240Y1216860D01*
X732159Y1216420D01*
X728120Y1214440D01*
X727099Y1213860D01*
X723340Y1211380D01*
X722420Y1210680D01*
X719000Y1207760D01*
X625280Y1114060D01*
X623920Y1113160D01*
X622320Y1112880D01*
X620740Y1113260D01*
X619340Y1114340D01*
X615400Y1117800D01*
X611040Y1120720D01*
X606340Y1123040D01*
X601380Y1124720D01*
X596240Y1125740D01*
X590860Y1126100D01*
X529140Y1126100D01*
X523760Y1125740D01*
X518620Y1124720D01*
X513660Y1123040D01*
X508960Y1120720D01*
X504600Y1117800D01*
X500660Y1114340D01*
X497200Y1110400D01*
X494280Y1106040D01*
X491960Y1101340D01*
X490280Y1096380D01*
X489260Y1091240D01*
X488900Y1085860D01*
X488900Y1024140D01*
X489260Y1018760D01*
X490280Y1013620D01*
X491960Y1008660D01*
X494280Y1003960D01*
X496040Y1001320D01*
X496659Y999720D01*
X496560Y998020D01*
X495760Y996500D01*
X494380Y995460D01*
X492720Y995100D01*
G37*

%LPD*%
G36*
X627280Y995100D02*
G01*
X625620Y995460D01*
X624240Y996500D01*
X623440Y998020D01*
X623340Y999720D01*
X623960Y1001320D01*
X625720Y1003960D01*
X627580Y1007700D01*
X628380Y1008820D01*
X629540Y1009599D01*
X630880Y1009920D01*
X635740Y1010260D01*
X637000Y1010440D01*
X642240Y1011600D01*
X643980Y1011680D01*
X645580Y1011020D01*
X646760Y1009760D01*
X647280Y1008100D01*
X647060Y1006380D01*
X646140Y1004920D01*
X637500Y996280D01*
X636200Y995400D01*
X634660Y995100D01*
G37*

%LPD*%
G36*
X4577220Y915100D02*
G01*
X4575600Y915440D01*
X4574260Y916400D01*
X4573420Y917820D01*
X4573220Y919440D01*
X4573700Y921020D01*
X4574780Y922260D01*
X4582000Y927840D01*
X4589080Y934240D01*
X4595620Y941180D01*
X4601600Y948640D01*
X4606960Y956540D01*
X4611680Y964840D01*
X4615720Y973480D01*
X4619080Y982440D01*
X4621060Y989380D01*
X4621800Y990819D01*
X4623080Y991840D01*
X4624640Y992260D01*
X4626240Y992039D01*
X4627640Y991200D01*
X4628580Y989860D01*
X4628900Y988280D01*
X4628900Y984140D01*
X4629260Y978760D01*
X4630280Y973620D01*
X4631960Y968660D01*
X4634280Y963960D01*
X4637200Y959599D01*
X4640660Y955660D01*
X4644600Y952200D01*
X4648960Y949280D01*
X4653660Y946960D01*
X4658620Y945280D01*
X4663760Y944260D01*
X4669140Y943900D01*
X4730860Y943900D01*
X4736240Y944260D01*
X4741380Y945280D01*
X4743700Y946060D01*
X4745000Y946280D01*
X4924900Y946280D01*
X4932180Y946660D01*
X4939280Y947780D01*
X4946240Y949640D01*
X4952940Y952220D01*
X4959360Y955480D01*
X4965400Y959400D01*
X4970980Y963940D01*
X4976060Y969020D01*
X4980600Y974599D01*
X4982540Y977620D01*
X4983760Y978820D01*
X4985340Y979400D01*
X4987040Y979280D01*
X4988520Y978460D01*
X4989540Y977099D01*
X4989900Y975440D01*
X4989900Y919100D01*
X4989600Y917560D01*
X4988720Y916280D01*
X4987440Y915400D01*
X4985900Y915100D01*
G37*

%LPD*%
G36*
X693540Y915100D02*
G01*
X692000Y915400D01*
X690699Y916280D01*
X689840Y917560D01*
X689539Y919100D01*
X689840Y920639D01*
X690699Y921919D01*
X751500Y982720D01*
X752800Y983600D01*
X754340Y983900D01*
X790860Y983900D01*
X796240Y984260D01*
X801380Y985280D01*
X806340Y986960D01*
X811040Y989280D01*
X815400Y992200D01*
X819340Y995660D01*
X822800Y999599D01*
X825720Y1003960D01*
X828040Y1008660D01*
X829720Y1013620D01*
X830740Y1018760D01*
X830879Y1020680D01*
X831220Y1022080D01*
X832039Y1023259D01*
X867360Y1058580D01*
X868680Y1059460D01*
X870220Y1059740D01*
X939000Y1059240D01*
X940580Y1058900D01*
X941900Y1057960D01*
X942740Y1056580D01*
X942960Y1054960D01*
X942520Y1053400D01*
X941220Y1050880D01*
X937520Y1042080D01*
X934520Y1033000D01*
X932260Y1023720D01*
X930759Y1014300D01*
X930000Y1004780D01*
X930000Y995220D01*
X930759Y985699D01*
X932260Y976280D01*
X934520Y967000D01*
X937520Y957920D01*
X941220Y949120D01*
X945600Y940639D01*
X950639Y932540D01*
X956320Y924860D01*
X959040Y921720D01*
X959800Y920420D01*
X960020Y918920D01*
X959659Y917440D01*
X958780Y916200D01*
X957500Y915380D01*
X956020Y915100D01*
G37*

%LPD*%
G36*
X1144080Y915100D02*
G01*
X1142600Y915380D01*
X1141340Y916180D01*
X1140460Y917360D01*
X1140080Y918800D01*
X1140260Y920280D01*
X1140960Y921600D01*
X1146600Y928640D01*
X1151960Y936540D01*
X1156680Y944840D01*
X1160720Y953480D01*
X1164080Y962440D01*
X1166700Y971620D01*
X1168580Y980980D01*
X1169720Y990460D01*
X1170100Y1000000D01*
X1169720Y1009539D01*
X1168580Y1019020D01*
X1166700Y1028379D01*
X1164080Y1037560D01*
X1160720Y1046500D01*
X1158200Y1051900D01*
X1157840Y1053460D01*
X1158100Y1055040D01*
X1158960Y1056380D01*
X1160280Y1057280D01*
X1161860Y1057600D01*
X2810640Y1045420D01*
X2812220Y1045080D01*
X2813540Y1044140D01*
X2814380Y1042740D01*
X2814600Y1041140D01*
X2814160Y1039580D01*
X2812320Y1036000D01*
X2810179Y1030220D01*
X2808720Y1024220D01*
X2808000Y1018080D01*
X2808000Y1011919D01*
X2808720Y1005780D01*
X2810179Y999780D01*
X2812320Y994000D01*
X2815140Y988500D01*
X2818600Y983379D01*
X2822620Y978720D01*
X2827180Y974539D01*
X2832200Y970960D01*
X2837600Y967980D01*
X2843320Y965660D01*
X2849280Y964020D01*
X2855380Y963120D01*
X2861540Y962920D01*
X2867700Y963480D01*
X2873740Y964740D01*
X2879580Y966720D01*
X2885400Y969500D01*
X2887140Y969900D01*
X2954920Y969900D01*
X2958820Y970060D01*
X2960620Y970260D01*
X2964420Y970900D01*
X2966180Y971300D01*
X2969880Y972420D01*
X2971560Y973060D01*
X2975100Y974620D01*
X2976680Y975460D01*
X2980000Y977460D01*
X2981480Y978480D01*
X2984540Y980920D01*
X3078279Y1061880D01*
X3079600Y1062640D01*
X3081100Y1062860D01*
X3082559Y1062500D01*
X3083800Y1061620D01*
X3084620Y1060340D01*
X3084900Y1058860D01*
X3084900Y1036979D01*
X3084780Y1036040D01*
X3084460Y1035160D01*
X3082320Y1031000D01*
X3080179Y1025220D01*
X3078720Y1019220D01*
X3078000Y1013080D01*
X3078000Y1006919D01*
X3078720Y1000780D01*
X3080179Y994780D01*
X3082320Y989000D01*
X3085140Y983500D01*
X3088600Y978379D01*
X3092620Y973720D01*
X3097180Y969539D01*
X3102200Y965960D01*
X3107600Y962980D01*
X3113320Y960660D01*
X3119280Y959020D01*
X3125380Y958120D01*
X3131540Y957920D01*
X3137700Y958480D01*
X3143740Y959740D01*
X3149580Y961720D01*
X3155160Y964380D01*
X3160360Y967680D01*
X3165160Y971560D01*
X3169460Y976000D01*
X3173200Y980900D01*
X3176340Y986220D01*
X3178840Y991860D01*
X3180640Y997760D01*
X3181720Y1003840D01*
X3182100Y1010000D01*
X3181720Y1016160D01*
X3180640Y1022240D01*
X3178840Y1028139D01*
X3176340Y1033780D01*
X3175240Y1035939D01*
X3175100Y1036979D01*
X3175100Y1215900D01*
X3175400Y1217440D01*
X3176280Y1218720D01*
X3177559Y1219600D01*
X3179100Y1219900D01*
X4419940Y1219900D01*
X4422840Y1220000D01*
X4425660Y1220260D01*
X4428460Y1220700D01*
X4431220Y1221320D01*
X4433940Y1222100D01*
X4436600Y1223060D01*
X4439200Y1224200D01*
X4441720Y1225480D01*
X4444160Y1226920D01*
X4446500Y1228520D01*
X4448740Y1230260D01*
X4450880Y1232120D01*
X4452880Y1234120D01*
X4454740Y1236260D01*
X4456480Y1238500D01*
X4458080Y1240840D01*
X4459520Y1243280D01*
X4460800Y1245800D01*
X4461940Y1248400D01*
X4462900Y1251060D01*
X4463680Y1253780D01*
X4464300Y1256540D01*
X4464740Y1259340D01*
X4465000Y1262160D01*
X4465100Y1265060D01*
X4465100Y1280160D01*
X4465380Y1281620D01*
X4466180Y1282900D01*
X4467380Y1283779D01*
X4468820Y1284160D01*
X4470300Y1283980D01*
X4471620Y1283280D01*
X4475260Y1280320D01*
X4481200Y1276460D01*
X4487500Y1273240D01*
X4494120Y1270720D01*
X4500940Y1268880D01*
X4507940Y1267780D01*
X4515000Y1267400D01*
X4522060Y1267780D01*
X4529060Y1268880D01*
X4535880Y1270720D01*
X4542500Y1273240D01*
X4548800Y1276460D01*
X4554740Y1280320D01*
X4560220Y1284760D01*
X4562180Y1286699D01*
X4563460Y1287580D01*
X4565000Y1287880D01*
X4566540Y1287580D01*
X4567820Y1286699D01*
X4569780Y1284760D01*
X4575260Y1280320D01*
X4581200Y1276460D01*
X4587500Y1273240D01*
X4594120Y1270720D01*
X4600940Y1268880D01*
X4607940Y1267780D01*
X4615000Y1267400D01*
X4622060Y1267780D01*
X4629060Y1268880D01*
X4635880Y1270720D01*
X4642500Y1273240D01*
X4648800Y1276460D01*
X4654740Y1280320D01*
X4660220Y1284760D01*
X4662180Y1286699D01*
X4663460Y1287580D01*
X4665000Y1287880D01*
X4666540Y1287580D01*
X4667820Y1286699D01*
X4669780Y1284760D01*
X4675260Y1280320D01*
X4681200Y1276460D01*
X4687500Y1273240D01*
X4694120Y1270720D01*
X4700940Y1268880D01*
X4707940Y1267780D01*
X4715000Y1267400D01*
X4722060Y1267780D01*
X4729060Y1268880D01*
X4735880Y1270720D01*
X4742500Y1273240D01*
X4748800Y1276460D01*
X4754000Y1279840D01*
X4755600Y1280440D01*
X4757320Y1280320D01*
X4758820Y1279480D01*
X4763100Y1275680D01*
X4767460Y1272780D01*
X4772160Y1270460D01*
X4777120Y1268780D01*
X4782260Y1267760D01*
X4787640Y1267400D01*
X4842360Y1267400D01*
X4847740Y1267760D01*
X4851500Y1268500D01*
X4853240Y1268460D01*
X4854820Y1267660D01*
X4855900Y1266280D01*
X4856280Y1264580D01*
X4856280Y1087720D01*
X4855980Y1086200D01*
X4855100Y1084900D01*
X4853800Y1084020D01*
X4852280Y1083720D01*
X4745000Y1083720D01*
X4743700Y1083940D01*
X4741380Y1084720D01*
X4736240Y1085740D01*
X4730860Y1086100D01*
X4669140Y1086100D01*
X4663760Y1085740D01*
X4658620Y1084720D01*
X4653660Y1083040D01*
X4648960Y1080720D01*
X4644600Y1077800D01*
X4640660Y1074340D01*
X4637200Y1070400D01*
X4634280Y1066040D01*
X4631960Y1061340D01*
X4630280Y1056380D01*
X4629260Y1051240D01*
X4629200Y1050400D01*
X4628780Y1048860D01*
X4627800Y1047620D01*
X4626420Y1046840D01*
X4624840Y1046680D01*
X4623320Y1047140D01*
X4622100Y1048139D01*
X4621360Y1049560D01*
X4619080Y1057560D01*
X4615720Y1066500D01*
X4611680Y1075160D01*
X4606960Y1083460D01*
X4601600Y1091360D01*
X4595620Y1098820D01*
X4589080Y1105760D01*
X4582000Y1112160D01*
X4574420Y1118000D01*
X4566420Y1123200D01*
X4558020Y1127760D01*
X4549300Y1131620D01*
X4540300Y1134800D01*
X4531060Y1137240D01*
X4521660Y1138940D01*
X4512160Y1139880D01*
X4502620Y1140080D01*
X4493080Y1139500D01*
X4483620Y1138180D01*
X4474300Y1136100D01*
X4465180Y1133300D01*
X4456300Y1129780D01*
X4447720Y1125560D01*
X4439520Y1120680D01*
X4431740Y1115160D01*
X4424400Y1109040D01*
X4417580Y1102360D01*
X4411320Y1095140D01*
X4405640Y1087460D01*
X4400600Y1079360D01*
X4396220Y1070880D01*
X4392520Y1062080D01*
X4389520Y1053000D01*
X4387260Y1043720D01*
X4385760Y1034300D01*
X4385000Y1024780D01*
X4385000Y1015220D01*
X4385760Y1005699D01*
X4387260Y996280D01*
X4389520Y987000D01*
X4392520Y977920D01*
X4396220Y969120D01*
X4400600Y960639D01*
X4405640Y952540D01*
X4411320Y944860D01*
X4417580Y937640D01*
X4424400Y930960D01*
X4431740Y924840D01*
X4435220Y922360D01*
X4436360Y921140D01*
X4436900Y919539D01*
X4436720Y917880D01*
X4435900Y916440D01*
X4434560Y915440D01*
X4432920Y915100D01*
G37*

%LPD*%
D23*
X4670429Y2620000D02*
G01*
X4925000Y2620000D01*
X4925000Y1015000D01*
X4700000Y1015000D01*
D11*
X4146000Y2110000D02*
G01*
X4375000Y2115000D01*
X4430000Y2055000D01*
X4450379Y2029620D01*
X4655000Y1850000D01*
X4665000Y1485000D01*
X4815000Y1335000D01*
X4110000Y1720000D02*
G01*
X4175000Y1720000D01*
X4260000Y1805000D01*
X4265000Y1915000D01*
X4264939Y1914940D01*
X4285000Y1935000D01*
X4490000Y1935000D01*
X4503000Y1921999D01*
X4485000Y2045000D02*
G01*
X4510000Y2045000D01*
X4573999Y2109000D01*
X4515000Y1635000D02*
G01*
X4515000Y1690000D01*
X4430000Y1775000D01*
X4216999Y1921999D02*
G01*
X4216999Y1831999D01*
X4200000Y1815000D01*
X4308000Y1874000D02*
G01*
X4308000Y1874000D01*
X4315000Y1815000D01*
X4610000Y1820000D01*
X4615000Y1815000D01*
X4615000Y1635000D01*
D24*
X4099570Y2620000D02*
G01*
X4180000Y2590000D01*
X4360000Y2300000D01*
D11*
X3925000Y1820000D02*
G01*
X3925000Y1870000D01*
X3980000Y1925000D01*
X3316000Y2110000D02*
G01*
X3366000Y2060000D01*
X3760000Y2060000D01*
X3760000Y2065000D01*
X3766949Y2071950D01*
X3771589Y2071950D01*
X3771589Y2075189D01*
X3773800Y2075189D01*
X3773800Y2077130D01*
X3775420Y2077130D01*
X3775420Y2078730D01*
X3776970Y2078730D01*
X3776970Y2080430D01*
X3778869Y2080430D01*
X3778869Y2082790D01*
X3782100Y2082790D01*
X3782100Y2087779D01*
X3800000Y2105680D01*
X3800000Y2180000D01*
D10*
X3530000Y1625000D02*
G01*
X3540000Y1770000D01*
X3830000Y1995000D01*
X3840000Y2490000D01*
X3355000Y2915000D01*
X3355000Y2915000D01*
X3355000Y2915000D01*
X3355000Y2915000D01*
D11*
X3230000Y1625000D02*
G01*
X3195000Y1660000D01*
X3190000Y1955000D01*
X3350000Y1960000D01*
X3375000Y1975000D01*
X3620000Y1975000D01*
X3673000Y1921999D01*
X3732002Y2006999D02*
G01*
X3751999Y2006999D01*
X3800000Y2055000D01*
X3675000Y1715000D02*
G01*
X3760000Y1765000D01*
X3750000Y1760000D01*
X3760000Y1765000D01*
X3870000Y2030000D01*
X3480000Y1710000D02*
G01*
X3480000Y1750000D01*
X3514409Y1784409D01*
X3514409Y1802539D01*
X3581999Y1870129D01*
X3581999Y1874000D01*
X3425000Y1750000D02*
G01*
X3425000Y1884000D01*
X3386999Y1921999D01*
X3610000Y2160000D02*
G01*
X3398999Y2160000D01*
X3351999Y2206999D01*
X3440000Y2120000D02*
G01*
X3733000Y2120000D01*
X3743999Y2109000D01*
D24*
X3229570Y2630000D02*
G01*
X3229570Y2600430D01*
X3530000Y2300000D01*
D11*
X1540000Y1725000D02*
G01*
X1565000Y1750000D01*
X1675000Y1750000D01*
X1720000Y1795000D01*
X1710000Y1900000D01*
X1894579Y2048850D01*
X1971149Y2048850D01*
X2098000Y1921999D01*
X2335000Y1870000D02*
G01*
X2335000Y2140000D01*
X2190000Y2285000D01*
X2140000Y2285000D01*
X2060000Y2205000D01*
X1905000Y2205000D01*
X1975000Y1745000D02*
G01*
X1975000Y1801999D01*
X1903000Y1874000D01*
X1710000Y1725000D02*
G01*
X1811999Y1826999D01*
X1811999Y1921999D01*
X2260000Y1750000D02*
G01*
X2290000Y1780000D01*
X2290000Y1875000D01*
X2245000Y1950000D01*
X2245000Y2105000D01*
X2251801Y2137300D01*
X2229102Y2160000D01*
X1823999Y2160000D01*
X1776999Y2206999D01*
X2220000Y1775000D02*
G01*
X2220000Y1877292D01*
X2156999Y1940291D01*
X2156999Y2006999D01*
D24*
X2140429Y2580000D02*
G01*
X2030000Y2580000D01*
X1955000Y2505000D01*
X1955000Y2300000D01*
D11*
X720000Y1645000D02*
G01*
X720000Y1650000D01*
X810000Y1740000D01*
X1110000Y1740000D01*
X1115000Y1740000D01*
X1111999Y1740000D01*
X1111721Y1740000D02*
G01*
X1111999Y1740000D01*
X991999Y1921999D01*
X1083000Y1874000D02*
G01*
X1083000Y1851999D01*
X1110000Y1825000D01*
X1115000Y1820000D01*
X1130000Y1795000D01*
X1510000Y2045000D02*
G01*
X1365000Y2055000D01*
X1265000Y2045000D01*
X1210000Y2100000D01*
X931000Y2100000D01*
X921000Y2110000D01*
X1430000Y2165000D02*
G01*
X1018999Y2145000D01*
X956999Y2206999D01*
X1336999Y2006999D02*
G01*
X1423999Y1920000D01*
X1675000Y1920000D01*
X1675000Y2270000D01*
X1450000Y2495000D01*
X1180000Y1795000D02*
G01*
X1140000Y1835000D01*
X1140000Y1970000D01*
X520000Y1645000D02*
G01*
X920000Y2065000D01*
X1150000Y2065000D01*
X1278000Y1921999D01*
D24*
X1327899Y2575000D02*
G01*
X1327899Y2447899D01*
X1180000Y2300000D01*
X1122500Y2300000D01*
D11*
X1265000Y2495000D02*
G01*
X942500Y2495000D01*
X382500Y1935000D01*
X382500Y1345000D01*
X507500Y1345000D01*
X1275000Y2085000D02*
G01*
X1310000Y2085000D01*
X1333999Y2109000D01*
X1348999Y2109000D01*
D10*
X2630000Y2295000D02*
G01*
X2615000Y2280000D01*
X2615000Y2115000D01*
X2605000Y2115000D01*
X2465000Y2115000D01*
X2180000Y2815000D02*
G01*
X2915000Y2815000D01*
X2920000Y2810000D01*
X2920000Y2280000D01*
X1775000Y1345000D02*
G01*
X1775000Y1285000D01*
X820000Y1285000D01*
X820000Y1345000D01*
X820000Y1345000D01*
X545000Y3000000D02*
G01*
X355000Y2810000D01*
X355000Y1285000D01*
X360000Y1285000D01*
X825000Y1285000D01*
X1775000Y1645000D02*
G01*
X1770000Y1695000D01*
X820000Y1695000D01*
X820000Y1645000D01*
X820000Y1645000D01*
X560000Y1055000D02*
G01*
X630000Y1055000D01*
X750000Y1175000D01*
X2810000Y1180000D01*
X2805000Y2710000D01*
X2465000Y2715000D01*
X2465000Y2715000D01*
X1775000Y1285000D02*
G01*
X2310000Y1285000D01*
X2310000Y1235000D01*
X2725000Y1235000D01*
X2715000Y2410000D01*
X2470000Y2410000D01*
X2465000Y2415000D01*
X2945000Y2365000D02*
G01*
X3150000Y2365000D01*
X3155000Y1265000D01*
X3630000Y1265000D01*
X3555000Y1265000D01*
X4420000Y1335000D02*
G01*
X4420000Y1265000D01*
X3530000Y1265000D01*
X3530000Y1320000D01*
X4420000Y1640000D02*
G01*
X4415000Y1640000D01*
X4420000Y1680000D01*
X4415000Y1680000D01*
X3535000Y1685000D01*
X3535000Y1630000D01*
D25*
X769570Y2575000D02*
G01*
X769570Y2624569D01*
X915000Y2770000D01*
X1695000Y2770000D01*
X1569570Y2580000D02*
G01*
X1569570Y2644569D01*
X1925000Y3000000D01*
X3660000Y3000000D01*
X3795000Y2865000D01*
X3795000Y2635430D01*
X3800429Y2630000D01*
D11*
X620000Y1645000D02*
G01*
X970000Y1995000D01*
D25*
X3800429Y2630000D02*
G01*
X3795000Y2739185D01*
X3915000Y2740000D01*
X4675000Y2740000D01*
X4675000Y2624569D01*
X4670429Y2620000D01*
D10*
X1077047Y1495000D02*
G01*
X1325000Y1495000D01*
X1390000Y1560000D01*
X2375000Y1560000D01*
X2375000Y1625000D01*
X2465000Y1715000D01*
X720000Y1345000D02*
G01*
X720000Y1535000D01*
X1250000Y1535000D01*
X1300000Y1585000D01*
X2240000Y1585000D01*
X2275000Y1620000D01*
X1020000Y1345000D02*
G01*
X1020000Y1375000D01*
X1095000Y1450000D01*
X2315000Y1450000D01*
X2465000Y1615000D02*
G01*
X2370000Y1520000D01*
X1395000Y1520000D01*
X1350000Y1475000D01*
X1090000Y1475000D01*
X990000Y1375000D01*
X950000Y1375000D01*
X920000Y1345000D01*
X2275000Y1715000D02*
G01*
X2365000Y1805000D01*
X2365000Y1810000D01*
X2860000Y1015000D02*
G01*
X2955000Y1015000D01*
X3065000Y1110000D01*
X3065000Y1315000D01*
X3065000Y1315000D01*
X1760000Y1695000D02*
G01*
X2390000Y1690000D01*
X2385000Y2415000D01*
X2385000Y2460000D01*
X3730000Y1325000D02*
G01*
X3730000Y1380000D01*
X3575000Y1535000D01*
X3260000Y1535000D01*
X3180000Y1615000D01*
X3630000Y1325000D02*
G01*
X3630000Y1345000D01*
X3490000Y1485000D01*
X3280000Y1485000D01*
X3430000Y1325000D02*
G01*
X3430000Y1370000D01*
X3355000Y1445000D01*
X3275000Y1445000D01*
X3205000Y1515000D01*
X3130000Y1570000D02*
G01*
X3130000Y1650000D01*
X3065000Y1715000D01*
X3330000Y1325000D02*
G01*
X3315000Y1325000D01*
X3200000Y1440000D01*
X445000Y3000000D02*
G01*
X440000Y3000000D01*
X335000Y2895000D01*
X335000Y980000D01*
X365000Y950000D01*
X655000Y950000D01*
X760000Y1055000D01*
D11*
X4570000Y1775000D02*
G01*
X4565000Y1770000D01*
X4565000Y1455000D01*
X4555000Y1445000D01*
X4125000Y1445000D01*
X4115000Y1435000D01*
X4115000Y1335000D01*
D10*
X2945000Y1105000D02*
G01*
X2920000Y1130000D01*
X2920000Y2210000D01*
X2925000Y2215000D01*
X3065000Y2215000D01*
X2970000Y1070000D02*
G01*
X2975000Y1075000D01*
X2975000Y1135000D01*
X2965000Y1145000D01*
X2950000Y1145000D01*
X2945000Y1150000D01*
X2945000Y2110000D01*
X2950000Y2115000D01*
X3065000Y2115000D01*
X2940000Y1040000D02*
G01*
X2935000Y1045000D01*
X2900000Y1045000D01*
X2900000Y2240000D01*
X2990000Y2240000D01*
X3065000Y2315000D01*
X3130000Y1010000D02*
G01*
X3130000Y1530000D01*
X3090000Y1570000D01*
X3010000Y1570000D01*
X2995000Y1585000D01*
X2995000Y2015000D01*
X3065000Y2015000D01*
X2840000Y2615000D02*
G01*
X2875000Y2615000D01*
X2880000Y1090000D01*
X850000Y1105000D01*
X800000Y1055000D01*
X760000Y1055000D01*
D15*
G01*
X1340429Y2575000D03*
G01*
X769570Y2575000D03*
G01*
X2140429Y2580000D03*
G01*
X1569570Y2580000D03*
G01*
X3229570Y2630000D03*
G01*
X3800429Y2630000D03*
G01*
X4099570Y2620000D03*
G01*
X4670429Y2620000D03*
G36*
X3502439Y2327559D02*
G01*
X3557560Y2327559D01*
X3557560Y2272440D01*
X3502439Y2272440D01*
G37*
D17*
G01*
X3630000Y2275000D03*
G01*
X3708000Y2206999D03*
G01*
X3743999Y2109000D03*
G01*
X3731999Y2006999D03*
G01*
X3673000Y1921999D03*
G01*
X3581999Y1874000D03*
G01*
X3478000Y1874000D03*
G01*
X3386999Y1921999D03*
G01*
X3328000Y2006999D03*
G01*
X3316000Y2110000D03*
G01*
X3351999Y2206999D03*
G01*
X3430000Y2275000D03*
G36*
X1107439Y2327559D02*
G01*
X1162560Y2327559D01*
X1162560Y2272440D01*
X1107439Y2272440D01*
G37*
G01*
X1235000Y2275000D03*
G01*
X1313000Y2206999D03*
G01*
X1348999Y2109000D03*
G01*
X1336999Y2006999D03*
G01*
X1278000Y1921999D03*
G01*
X1186999Y1874000D03*
G01*
X1083000Y1874000D03*
G01*
X991999Y1921999D03*
G01*
X933000Y2006999D03*
G01*
X921000Y2110000D03*
G01*
X956999Y2206999D03*
G01*
X1035000Y2275000D03*
G36*
X1927439Y2327559D02*
G01*
X1982560Y2327559D01*
X1982560Y2272440D01*
X1927439Y2272440D01*
G37*
G01*
X2055000Y2275000D03*
G01*
X2133000Y2206999D03*
G01*
X2168999Y2109000D03*
G01*
X2156999Y2006999D03*
G01*
X2098000Y1921999D03*
G01*
X2006999Y1874000D03*
G01*
X1903000Y1874000D03*
G01*
X1811999Y1921999D03*
G01*
X1753000Y2006999D03*
G01*
X1741000Y2110000D03*
G01*
X1776999Y2206999D03*
G01*
X1855000Y2275000D03*
G36*
X729000Y1085999D02*
G01*
X729000Y1024000D01*
X791000Y1024000D01*
X791000Y1085999D01*
G37*
G36*
X529000Y1085999D02*
G01*
X529000Y1024000D01*
X590999Y1024000D01*
X590999Y1085999D01*
G37*
G36*
X4668999Y1045999D02*
G01*
X4668999Y984000D01*
X4731000Y984000D01*
X4731000Y1045999D01*
G37*
G36*
X872820Y2966579D02*
G01*
X872820Y3033429D01*
X817169Y3033429D01*
X817169Y2966579D01*
G37*
G36*
X772820Y2966579D02*
G01*
X772820Y3033429D01*
X717170Y3033429D01*
X717170Y2966579D01*
G37*
G36*
X672820Y2966579D02*
G01*
X672820Y3033429D01*
X617170Y3033429D01*
X617170Y2966579D01*
G37*
G36*
X572820Y2966579D02*
G01*
X572820Y3033429D01*
X517170Y3033429D01*
X517170Y2966579D01*
G37*
G36*
X472820Y2966579D02*
G01*
X472820Y3033429D01*
X417170Y3033429D01*
X417170Y2966579D01*
G37*
G36*
X4842500Y1362500D02*
G01*
X4787500Y1362500D01*
X4787500Y1307500D01*
X4842500Y1307500D01*
G37*
D21*
G01*
X4715000Y1335000D03*
G01*
X4615000Y1335000D03*
G01*
X4515000Y1335000D03*
G01*
X4415000Y1335000D03*
G01*
X4315000Y1335000D03*
G01*
X4215000Y1335000D03*
G01*
X4115000Y1335000D03*
G01*
X4115000Y1635000D03*
G01*
X4215000Y1635000D03*
G01*
X4315000Y1635000D03*
G01*
X4415000Y1635000D03*
G01*
X4515000Y1635000D03*
G01*
X4615000Y1635000D03*
G01*
X4715000Y1635000D03*
G01*
X4815000Y1635000D03*
G36*
X3957500Y1352500D02*
G01*
X3902500Y1352500D01*
X3902500Y1297500D01*
X3957500Y1297500D01*
G37*
G01*
X3830000Y1325000D03*
G01*
X3730000Y1325000D03*
G01*
X3630000Y1325000D03*
G01*
X3530000Y1325000D03*
G01*
X3430000Y1325000D03*
G01*
X3330000Y1325000D03*
G01*
X3230000Y1325000D03*
G01*
X3230000Y1625000D03*
G01*
X3330000Y1625000D03*
G01*
X3430000Y1625000D03*
G01*
X3530000Y1625000D03*
G01*
X3630000Y1625000D03*
G01*
X3730000Y1625000D03*
G01*
X3830000Y1625000D03*
G01*
X3930000Y1625000D03*
G36*
X2202500Y1372500D02*
G01*
X2147500Y1372500D01*
X2147500Y1317500D01*
X2202500Y1317500D01*
G37*
G01*
X2075000Y1345000D03*
G01*
X1975000Y1345000D03*
G01*
X1875000Y1345000D03*
G01*
X1775000Y1345000D03*
G01*
X1675000Y1345000D03*
G01*
X1575000Y1345000D03*
G01*
X1475000Y1345000D03*
G01*
X1475000Y1645000D03*
G01*
X1575000Y1645000D03*
G01*
X1675000Y1645000D03*
G01*
X1775000Y1645000D03*
G01*
X1875000Y1645000D03*
G01*
X1975000Y1645000D03*
G01*
X2075000Y1645000D03*
G01*
X2175000Y1645000D03*
G36*
X1247500Y1372500D02*
G01*
X1192500Y1372500D01*
X1192500Y1317500D01*
X1247500Y1317500D01*
G37*
G01*
X1120000Y1345000D03*
G01*
X1020000Y1345000D03*
G01*
X920000Y1345000D03*
G01*
X820000Y1345000D03*
G01*
X720000Y1345000D03*
G01*
X620000Y1345000D03*
G01*
X520000Y1345000D03*
G01*
X520000Y1645000D03*
G01*
X620000Y1645000D03*
G01*
X720000Y1645000D03*
G01*
X820000Y1645000D03*
G01*
X920000Y1645000D03*
G01*
X1020000Y1645000D03*
G01*
X1120000Y1645000D03*
G01*
X1220000Y1645000D03*
D22*
G01*
X3065000Y2715000D03*
G01*
X3065000Y2615000D03*
G01*
X3065000Y2515000D03*
G01*
X3065000Y2415000D03*
G01*
X3065000Y2315000D03*
G01*
X3065000Y2215000D03*
G01*
X3065000Y2115000D03*
G01*
X3065000Y2015000D03*
G01*
X3065000Y1915000D03*
G01*
X3065000Y1815000D03*
G01*
X3065000Y1715000D03*
G01*
X3065000Y1615000D03*
G01*
X3065000Y1515000D03*
G01*
X3065000Y1415000D03*
G01*
X3065000Y1315000D03*
G01*
X2465000Y1315000D03*
G01*
X2465000Y1415000D03*
G01*
X2465000Y1515000D03*
G01*
X2465000Y1615000D03*
G01*
X2465000Y1715000D03*
G01*
X2465000Y1815000D03*
G01*
X2465000Y1915000D03*
G01*
X2465000Y2015000D03*
G01*
X2465000Y2115000D03*
G01*
X2465000Y2215000D03*
G01*
X2465000Y2315000D03*
G01*
X2465000Y2415000D03*
G01*
X2465000Y2515000D03*
G01*
X2465000Y2615000D03*
G01*
X2465000Y2715000D03*
G36*
X4332439Y2327559D02*
G01*
X4387560Y2327559D01*
X4387560Y2272440D01*
X4332439Y2272440D01*
G37*
D17*
G01*
X4460000Y2275000D03*
G01*
X4538000Y2206999D03*
G01*
X4573999Y2109000D03*
G01*
X4561999Y2006999D03*
G01*
X4503000Y1921999D03*
G01*
X4411999Y1874000D03*
G01*
X4308000Y1874000D03*
G01*
X4216999Y1921999D03*
G01*
X4158000Y2006999D03*
G01*
X4146000Y2110000D03*
G01*
X4181999Y2206999D03*
G01*
X4260000Y2275000D03*
D13*
G01*
X3980000Y1925000D03*
G01*
X3800000Y2180000D03*
G01*
X3925000Y1820000D03*
G01*
X3800000Y2055000D03*
G01*
X3870000Y2030000D03*
G01*
X3610000Y2160000D03*
G01*
X3440000Y2120000D03*
G01*
X1905000Y2205000D03*
G01*
X1975000Y1745000D03*
G01*
X1130000Y1795000D03*
G01*
X1510000Y2045000D03*
G01*
X1275000Y2085000D03*
G01*
X1430000Y2165000D03*
D14*
G01*
X3200000Y1440000D03*
G01*
X3130000Y1570000D03*
G01*
X3205000Y1515000D03*
G01*
X3280000Y1485000D03*
G01*
X3180000Y1615000D03*
D13*
G01*
X3675000Y1715000D03*
G01*
X3425000Y1750000D03*
G01*
X3480000Y1710000D03*
D14*
G01*
X3355000Y2915000D03*
G01*
X2860000Y1015000D03*
D13*
G01*
X2260000Y1750000D03*
G01*
X2335000Y1870000D03*
G01*
X2220000Y1775000D03*
G01*
X1710000Y1725000D03*
G01*
X1540000Y1725000D03*
D14*
G01*
X2365000Y1810000D03*
G01*
X2275000Y1715000D03*
G01*
X2275000Y1620000D03*
G01*
X2325000Y1450000D03*
G01*
X1077049Y1495000D03*
D13*
G01*
X1265000Y2495000D03*
G01*
X1450000Y2495000D03*
G01*
X1140000Y1970000D03*
G01*
X1180000Y1795000D03*
G01*
X970000Y1995000D03*
D14*
G01*
X2385000Y2465000D03*
G01*
X2945000Y2365000D03*
G01*
X2840000Y2615000D03*
G01*
X2180000Y2815000D03*
G01*
X2920000Y2280000D03*
G01*
X2630000Y2295000D03*
D13*
G01*
X4110000Y1720000D03*
G01*
X4570000Y1775000D03*
D14*
G01*
X2945000Y1105000D03*
G01*
X2970000Y1070000D03*
G01*
X2940000Y1040000D03*
G01*
X3130000Y1010000D03*
D13*
G01*
X4200000Y1815000D03*
G01*
X4430000Y1775000D03*
G01*
X4485000Y2045000D03*
M02*
