M48
INCH,LZ
;FILE_FORMAT=2:4
;TYPE=PLATED
;Layer: Drill PTH
;EasyEDA v6.4.16, 2021-07-30T14:07:32--5:00
;5f12effaa85148b9a48170333d93dde8,a06e18dc318348aaad0c553491c65e39,10
;Gerber Generator version 0.2
;Holesize 1 = 0.0120 inch
T01C0.0120
;Holesize 2 = 0.0220 inch
T02C0.0220
;Holesize 3 = 0.0280 inch
T03C0.0280
;Holesize 4 = 0.0280 inch
T04C0.0280
;Holesize 5 = 0.0350 inch
T05C0.0350
;Holesize 6 = 0.0360 inch
T06C0.0360
;Holesize 7 = 0.0390 inch
T07C0.0390
;Holesize 8 = 0.0400 inch
T08C0.0400
%
G05
G90
T01
X032000Y014400
X031300Y015700
X032050Y015150
X032800Y014850
X031800Y016150
X033550Y029150
X028600Y010150
X023650Y018100
X022750Y017150
X022750Y016200
X023250Y014500
X010770Y014950
X023850Y024650
X029450Y023650
X028400Y026150
X021800Y028150
X029200Y022800
X026300Y022950
X029450Y011050
X029700Y010700
X029400Y010400
X031300Y010100
T02
X039800Y019250
X038000Y021800
X039250Y018200
X038000Y020550
X038700Y020300
X036100Y021600
X034400Y021200
X019050Y022050
X019750Y017450
X011300Y017950
X015100Y020450
X012750Y020850
X014300Y021650
X036750Y017150
X034250Y017500
X034800Y017100
X022600Y017500
X023350Y018700
X022200Y017750
X017100Y017250
X015400Y017250
X012650Y024950
X014500Y024950
X011400Y019700
X011800Y017950
X009700Y019950
X041100Y017200
X045700Y017750
X042000Y018150
X044300Y017750
X044850Y020450
T03
X035300Y023000
X036300Y022750
X037080Y022070
X037440Y021090
X037320Y020070
X036730Y019220
X035820Y018740
X034780Y018740
X033870Y019220
X033280Y020070
X033160Y021100
X033520Y022070
X034300Y022750
X011350Y023000
X012350Y022750
X013130Y022070
X013490Y021090
X013370Y020070
X012780Y019220
X011870Y018740
X010830Y018740
X009920Y019220
X009330Y020070
X009210Y021100
X009570Y022070
X010350Y022750
X019550Y023000
X020550Y022750
X021330Y022070
X021690Y021090
X021570Y020070
X020980Y019220
X020070Y018740
X019030Y018740
X018120Y019220
X017530Y020070
X017410Y021100
X017770Y022070
X018550Y022750
X043600Y023000
X044600Y022750
X045380Y022070
X045740Y021090
X045620Y020070
X045030Y019220
X044120Y018740
X043080Y018740
X042170Y019220
X041580Y020070
X041460Y021100
X041820Y022070
X042600Y022750
T04
X048150Y013350
X047150Y013350
X046150Y013350
X045150Y013350
X044150Y013350
X043150Y013350
X042150Y013350
X041150Y013350
X041150Y016350
X042150Y016350
X043150Y016350
X044150Y016350
X045150Y016350
X046150Y016350
X047150Y016350
X048150Y016350
X039300Y013250
X038300Y013250
X037300Y013250
X036300Y013250
X035300Y013250
X034300Y013250
X033300Y013250
X032300Y013250
X032300Y016250
X033300Y016250
X034300Y016250
X035300Y016250
X036300Y016250
X037300Y016250
X038300Y016250
X039300Y016250
X021750Y013450
X020750Y013450
X019750Y013450
X018750Y013450
X017750Y013450
X016750Y013450
X015750Y013450
X014750Y013450
X014750Y016450
X015750Y016450
X016750Y016450
X017750Y016450
X018750Y016450
X019750Y016450
X020750Y016450
X021750Y016450
X012200Y013450
X011200Y013450
X010200Y013450
X009200Y013450
X008200Y013450
X007200Y013450
X006200Y013450
X005200Y013450
X005200Y016450
X006200Y016450
X007200Y016450
X008200Y016450
X009200Y016450
X010200Y016450
X011200Y016450
X012200Y016450
T05
X007600Y010550
X005600Y010550
X047000Y010150
T06
X030650Y027150
X030650Y026150
X030650Y025150
X030650Y024150
X030650Y023150
X030650Y022150
X030650Y021150
X030650Y020150
X030650Y019150
X030650Y018150
X030650Y017150
X030650Y016150
X030650Y015150
X030650Y014150
X030650Y013150
X024650Y013150
X024650Y014150
X024650Y015150
X024650Y016150
X024650Y017150
X024650Y018150
X024650Y019150
X024650Y020150
X024650Y021150
X024650Y022150
X024650Y023150
X024650Y024150
X024650Y025150
X024650Y026150
X024650Y027150
T07
X013404Y025750
X007696Y025750
X021404Y025800
X015696Y025800
X032296Y026300
X038004Y026300
X040996Y026200
X046704Y026200
T08
X008450Y030000
X007450Y030000
X006450Y030000
X005450Y030000
X004450Y030000
M30
